{
	"asset":{
		"generator":"Khronos glTF Blender I/O v5.1.20",
		"version":"2.0"
	},
	"scene":0,
	"scenes":[
		{
			"name":"Scene",
			"nodes":[
				0
			]
		}
	],
	"nodes":[
		{
			"mesh":0,
			"name":"\u5e73\u9762"
		}
	],
	"meshes":[
		{
			"name":"\u5e73\u9762",
			"primitives":[
				{
					"attributes":{
						"POSITION":0,
						"NORMAL":1,
						"TEXCOORD_0":2
					},
					"indices":3
				}
			]
		}
	],
	"accessors":[
		{
			"bufferView":0,
			"componentType":5126,
			"count":692,
			"max":[
				0.9658775329589844,
				2.94931697845459,
				1.141347885131836
			],
			"min":[
				-1.3339225053787231,
				-0.10306626558303833,
				-1.5306222438812256
			],
			"type":"VEC3"
		},
		{
			"bufferView":1,
			"componentType":5126,
			"count":692,
			"type":"VEC3"
		},
		{
			"bufferView":2,
			"componentType":5126,
			"count":692,
			"type":"VEC2"
		},
		{
			"bufferView":3,
			"componentType":5123,
			"count":1134,
			"type":"SCALAR"
		}
	],
	"bufferViews":[
		{
			"buffer":0,
			"byteLength":8304,
			"byteOffset":0,
			"target":34962
		},
		{
			"buffer":0,
			"byteLength":8304,
			"byteOffset":8304,
			"target":34962
		},
		{
			"buffer":0,
			"byteLength":5536,
			"byteOffset":16608,
			"target":34962
		},
		{
			"buffer":0,
			"byteLength":2268,
			"byteOffset":22144,
			"target":34963
		}
	],
	"buffers":[
		{
			"byteLength":24412,
			"uri":"NewGrass.bin"
		}
	]
}
