{
	"asset":{
		"generator":"Khronos glTF Blender I/O v5.2.39",
		"version":"2.0"
	},
	"scene":0,
	"scenes":[
		{
			"name":"Scene",
			"nodes":[
				0,
				1
			]
		}
	],
	"nodes":[
		{
			"mesh":0,
			"name":"Cube.054_Material.001_0",
			"rotation":[
				-0.70710688829422,
				0,
				0,
				0.7071066498756409
			]
		},
		{
			"mesh":1,
			"name":"Cube.597_Material.001_0",
			"rotation":[
				-0.70710688829422,
				0,
				0,
				0.7071066498756409
			]
		}
	],
	"materials":[
		{
			"doubleSided":true,
			"name":"Material.001",
			"normalTexture":{
				"index":0
			},
			"occlusionTexture":{
				"index":1
			},
			"pbrMetallicRoughness":{
				"baseColorTexture":{
					"index":2
				},
				"metallicRoughnessTexture":{
					"index":1
				}
			}
		}
	],
	"meshes":[
		{
			"name":"Cube.054_Material.001_0.001",
			"primitives":[
				{
					"attributes":{
						"POSITION":0,
						"NORMAL":1,
						"TEXCOORD_0":2
					},
					"indices":3,
					"material":0
				}
			]
		},
		{
			"name":"Cube.597_Material.001_0.001",
			"primitives":[
				{
					"attributes":{
						"POSITION":4,
						"NORMAL":5,
						"TEXCOORD_0":6
					},
					"indices":7,
					"material":0
				}
			]
		}
	],
	"textures":[
		{
			"sampler":0,
			"source":0
		},
		{
			"sampler":0,
			"source":1
		},
		{
			"sampler":0,
			"source":2
		}
	],
	"images":[
		{
			"mimeType":"image/png",
			"name":"house1_normal",
			"uri":"house1_normal.png"
		},
		{
			"mimeType":"image/png",
			"name":"Material.001_metallicRoughness",
			"uri":"Material.001_metallicRoughness.png"
		},
		{
			"mimeType":"image/png",
			"name":"house1_baseColor",
			"uri":"house1_baseColor.png"
		}
	],
	"accessors":[
		{
			"bufferView":0,
			"componentType":5126,
			"count":19822,
			"max":[
				3.881251335144043,
				1.9785290956497192,
				5.311574935913086
			],
			"min":[
				-3.4478652477264404,
				-3.7819533348083496,
				-0.09806561470031738
			],
			"type":"VEC3"
		},
		{
			"bufferView":1,
			"componentType":5126,
			"count":19822,
			"type":"VEC3"
		},
		{
			"bufferView":2,
			"componentType":5126,
			"count":19822,
			"type":"VEC2"
		},
		{
			"bufferView":3,
			"componentType":5123,
			"count":31068,
			"type":"SCALAR"
		},
		{
			"bufferView":4,
			"componentType":5126,
			"count":1434,
			"max":[
				-0.4306178092956543,
				1.4266573190689087,
				6.057315826416016
			],
			"min":[
				-1.603951096534729,
				0.5571678280830383,
				-0.007778167724609375
			],
			"type":"VEC3"
		},
		{
			"bufferView":5,
			"componentType":5126,
			"count":1434,
			"type":"VEC3"
		},
		{
			"bufferView":6,
			"componentType":5126,
			"count":1434,
			"type":"VEC2"
		},
		{
			"bufferView":7,
			"componentType":5123,
			"count":2247,
			"type":"SCALAR"
		}
	],
	"bufferViews":[
		{
			"buffer":0,
			"byteLength":237864,
			"byteOffset":0,
			"target":34962
		},
		{
			"buffer":0,
			"byteLength":237864,
			"byteOffset":237864,
			"target":34962
		},
		{
			"buffer":0,
			"byteLength":158576,
			"byteOffset":475728,
			"target":34962
		},
		{
			"buffer":0,
			"byteLength":62136,
			"byteOffset":634304,
			"target":34963
		},
		{
			"buffer":0,
			"byteLength":17208,
			"byteOffset":696440,
			"target":34962
		},
		{
			"buffer":0,
			"byteLength":17208,
			"byteOffset":713648,
			"target":34962
		},
		{
			"buffer":0,
			"byteLength":11472,
			"byteOffset":730856,
			"target":34962
		},
		{
			"buffer":0,
			"byteLength":4494,
			"byteOffset":742328,
			"target":34963
		}
	],
	"samplers":[
		{
			"magFilter":9729,
			"minFilter":9987
		}
	],
	"buffers":[
		{
			"byteLength":746824,
			"uri":"house1.bin"
		}
	]
}
