{
	"asset":{
		"generator":"Khronos glTF Blender I/O v4.4.56",
		"version":"2.0"
	},
	"scene":0,
	"scenes":[
		{
			"name":"Scene",
			"nodes":[
				8
			]
		}
	],
	"nodes":[
		{
			"name":"\u30dc\u30fc\u30f3.005",
			"rotation":[
				-0.0005224031046964228,
				1.0665081624371305e-14,
				1.2455045328430003e-10,
				0.9999998807907104
			],
			"translation":[
				2.672884136245557e-11,
				0.3454565405845642,
				-2.7019468884503794e-09
			]
		},
		{
			"children":[
				0
			],
			"name":"\u30dc\u30fc\u30f3.004",
			"rotation":[
				-0.00915478728711605,
				-1.421145102639687e-14,
				2.1826727092388865e-09,
				0.9999580979347229
			],
			"translation":[
				1.1963230406308867e-09,
				0.3213346600532532,
				-1.3877818005880727e-08
			]
		},
		{
			"children":[
				1
			],
			"name":"\u30dc\u30fc\u30f3.003",
			"rotation":[
				-0.0052021099254488945,
				-1.1920775477847201e-07,
				6.201401059335865e-10,
				0.999986469745636
			],
			"translation":[
				-9.313225746154785e-10,
				0.31444546580314636,
				-1.30385160446167e-08
			]
		},
		{
			"children":[
				2
			],
			"name":"\u30dc\u30fc\u30f3.002",
			"rotation":[
				0.03792548552155495,
				-4.503127827756524e-18,
				1.9319237475997552e-19,
				0.999280571937561
			],
			"translation":[
				-9.313225746154785e-10,
				0.31561335921287537,
				-7.450580596923828e-09
			]
		},
		{
			"children":[
				3
			],
			"name":"\u30dc\u30fc\u30f3.001",
			"rotation":[
				0.024039452895522118,
				4.7987977474493155e-18,
				1.1539380217676996e-19,
				0.9997109770774841
			],
			"scale":[
				1,
				0.9999998807907104,
				0.9999998807907104
			],
			"translation":[
				-9.313225746154785e-10,
				0.5136318206787109,
				-1.1175870895385742e-08
			]
		},
		{
			"children":[
				4
			],
			"name":"\u30dc\u30fc\u30f3",
			"rotation":[
				-0.7531313896179199,
				0,
				0,
				0.6578701138496399
			],
			"translation":[
				0.011332780122756958,
				-0.10828087478876114,
				-0.6141995787620544
			]
		},
		{
			"name":"\u30dc\u30fc\u30f3.006",
			"rotation":[
				0.7334256768226624,
				-8.103871351750058e-08,
				-8.74353389690441e-08,
				0.6797696948051453
			],
			"scale":[
				1,
				0.9999999403953552,
				1.000008225440979
			],
			"translation":[
				0.011332780122756958,
				-0.10828087478876114,
				-0.6141995787620544
			]
		},
		{
			"mesh":0,
			"name":"Tail",
			"skin":0
		},
		{
			"children":[
				7,
				5,
				6
			],
			"name":"\u30a2\u30fc\u30de\u30c1\u30e5\u30a2"
		}
	],
	"animations":[
		{
			"channels":[
				{
					"sampler":0,
					"target":{
						"node":5,
						"path":"translation"
					}
				},
				{
					"sampler":1,
					"target":{
						"node":5,
						"path":"rotation"
					}
				},
				{
					"sampler":2,
					"target":{
						"node":5,
						"path":"scale"
					}
				},
				{
					"sampler":3,
					"target":{
						"node":4,
						"path":"translation"
					}
				},
				{
					"sampler":4,
					"target":{
						"node":4,
						"path":"rotation"
					}
				},
				{
					"sampler":5,
					"target":{
						"node":4,
						"path":"scale"
					}
				},
				{
					"sampler":6,
					"target":{
						"node":3,
						"path":"translation"
					}
				},
				{
					"sampler":7,
					"target":{
						"node":3,
						"path":"rotation"
					}
				},
				{
					"sampler":8,
					"target":{
						"node":3,
						"path":"scale"
					}
				},
				{
					"sampler":9,
					"target":{
						"node":2,
						"path":"translation"
					}
				},
				{
					"sampler":10,
					"target":{
						"node":2,
						"path":"rotation"
					}
				},
				{
					"sampler":11,
					"target":{
						"node":2,
						"path":"scale"
					}
				},
				{
					"sampler":12,
					"target":{
						"node":1,
						"path":"translation"
					}
				},
				{
					"sampler":13,
					"target":{
						"node":1,
						"path":"rotation"
					}
				},
				{
					"sampler":14,
					"target":{
						"node":1,
						"path":"scale"
					}
				},
				{
					"sampler":15,
					"target":{
						"node":0,
						"path":"translation"
					}
				},
				{
					"sampler":16,
					"target":{
						"node":0,
						"path":"rotation"
					}
				},
				{
					"sampler":17,
					"target":{
						"node":0,
						"path":"scale"
					}
				},
				{
					"sampler":18,
					"target":{
						"node":6,
						"path":"translation"
					}
				},
				{
					"sampler":19,
					"target":{
						"node":6,
						"path":"rotation"
					}
				},
				{
					"sampler":20,
					"target":{
						"node":6,
						"path":"scale"
					}
				}
			],
			"name":"\u30a2\u30fc\u30de\u30c1\u30e5\u30a2\u30a2\u30af\u30b7\u30e7\u30f3.003",
			"samplers":[
				{
					"input":15,
					"interpolation":"STEP",
					"output":16
				},
				{
					"input":17,
					"interpolation":"LINEAR",
					"output":18
				},
				{
					"input":15,
					"interpolation":"STEP",
					"output":19
				},
				{
					"input":15,
					"interpolation":"LINEAR",
					"output":20
				},
				{
					"input":17,
					"interpolation":"LINEAR",
					"output":21
				},
				{
					"input":15,
					"interpolation":"STEP",
					"output":22
				},
				{
					"input":15,
					"interpolation":"LINEAR",
					"output":23
				},
				{
					"input":17,
					"interpolation":"LINEAR",
					"output":24
				},
				{
					"input":15,
					"interpolation":"STEP",
					"output":25
				},
				{
					"input":15,
					"interpolation":"LINEAR",
					"output":26
				},
				{
					"input":17,
					"interpolation":"LINEAR",
					"output":27
				},
				{
					"input":15,
					"interpolation":"STEP",
					"output":28
				},
				{
					"input":15,
					"interpolation":"LINEAR",
					"output":29
				},
				{
					"input":17,
					"interpolation":"LINEAR",
					"output":30
				},
				{
					"input":15,
					"interpolation":"STEP",
					"output":31
				},
				{
					"input":15,
					"interpolation":"LINEAR",
					"output":32
				},
				{
					"input":17,
					"interpolation":"LINEAR",
					"output":33
				},
				{
					"input":15,
					"interpolation":"STEP",
					"output":34
				},
				{
					"input":15,
					"interpolation":"STEP",
					"output":35
				},
				{
					"input":17,
					"interpolation":"LINEAR",
					"output":36
				},
				{
					"input":15,
					"interpolation":"STEP",
					"output":37
				}
			]
		}
	],
	"materials":[
		{
			"doubleSided":true,
			"name":"\u30de\u30c6\u30ea\u30a2\u30eb",
			"pbrMetallicRoughness":{
				"baseColorTexture":{
					"index":0
				},
				"metallicFactor":0,
				"roughnessFactor":0.5
			}
		},
		{
			"doubleSided":true,
			"name":"Material",
			"pbrMetallicRoughness":{
				"baseColorTexture":{
					"index":1
				},
				"metallicFactor":0,
				"roughnessFactor":0.5
			}
		}
	],
	"meshes":[
		{
			"name":"\u7acb\u65b9\u4f53.032",
			"primitives":[
				{
					"attributes":{
						"POSITION":0,
						"NORMAL":1,
						"TEXCOORD_0":2,
						"TEXCOORD_1":3,
						"JOINTS_0":4,
						"WEIGHTS_0":5
					},
					"indices":6,
					"material":0
				},
				{
					"attributes":{
						"POSITION":7,
						"NORMAL":8,
						"TEXCOORD_0":9,
						"TEXCOORD_1":10,
						"JOINTS_0":11,
						"WEIGHTS_0":12
					},
					"indices":13,
					"material":1
				}
			]
		}
	],
	"textures":[
		{
			"sampler":0,
			"source":0
		},
		{
			"sampler":0,
			"source":0
		}
	],
	"images":[
		{
			"mimeType":"image/png",
			"name":"Shrimp_TestTexture",
			"uri":"Shrimp_TestTexture.png"
		}
	],
	"skins":[
		{
			"inverseBindMatrices":14,
			"joints":[
				5,
				4,
				3,
				2,
				1,
				0,
				6
			],
			"name":"\u30a2\u30fc\u30de\u30c1\u30e5\u30a2"
		}
	],
	"accessors":[
		{
			"bufferView":0,
			"componentType":5126,
			"count":4395,
			"max":[
				0.3499999940395355,
				0.3380075693130493,
				0.9189361929893494
			],
			"min":[
				-0.3499999940395355,
				-0.3727536201477051,
				-3.7067387104034424
			],
			"type":"VEC3"
		},
		{
			"bufferView":1,
			"componentType":5126,
			"count":4395,
			"type":"VEC3"
		},
		{
			"bufferView":2,
			"componentType":5126,
			"count":4395,
			"type":"VEC2"
		},
		{
			"bufferView":3,
			"componentType":5126,
			"count":4395,
			"type":"VEC2"
		},
		{
			"bufferView":4,
			"componentType":5121,
			"count":4395,
			"type":"VEC4"
		},
		{
			"bufferView":5,
			"componentType":5126,
			"count":4395,
			"type":"VEC4"
		},
		{
			"bufferView":6,
			"componentType":5123,
			"count":6420,
			"type":"SCALAR"
		},
		{
			"bufferView":7,
			"componentType":5126,
			"count":56,
			"max":[
				0.40000006556510925,
				0.36062538623809814,
				0.7208997011184692
			],
			"min":[
				-0.3999999761581421,
				-0.35088902711868286,
				-1.0568782091140747
			],
			"type":"VEC3"
		},
		{
			"bufferView":8,
			"componentType":5126,
			"count":56,
			"type":"VEC3"
		},
		{
			"bufferView":9,
			"componentType":5126,
			"count":56,
			"type":"VEC2"
		},
		{
			"bufferView":10,
			"componentType":5126,
			"count":56,
			"type":"VEC2"
		},
		{
			"bufferView":11,
			"componentType":5121,
			"count":56,
			"type":"VEC4"
		},
		{
			"bufferView":12,
			"componentType":5126,
			"count":56,
			"type":"VEC4"
		},
		{
			"bufferView":13,
			"componentType":5123,
			"count":84,
			"type":"SCALAR"
		},
		{
			"bufferView":14,
			"componentType":5126,
			"count":7,
			"type":"MAT4"
		},
		{
			"bufferView":15,
			"componentType":5126,
			"count":2,
			"max":[
				1.25
			],
			"min":[
				0
			],
			"type":"SCALAR"
		},
		{
			"bufferView":16,
			"componentType":5126,
			"count":2,
			"type":"VEC3"
		},
		{
			"bufferView":17,
			"componentType":5126,
			"count":31,
			"max":[
				1.25
			],
			"min":[
				0
			],
			"type":"SCALAR"
		},
		{
			"bufferView":18,
			"componentType":5126,
			"count":31,
			"type":"VEC4"
		},
		{
			"bufferView":19,
			"componentType":5126,
			"count":2,
			"type":"VEC3"
		},
		{
			"bufferView":20,
			"componentType":5126,
			"count":2,
			"type":"VEC3"
		},
		{
			"bufferView":21,
			"componentType":5126,
			"count":31,
			"type":"VEC4"
		},
		{
			"bufferView":22,
			"componentType":5126,
			"count":2,
			"type":"VEC3"
		},
		{
			"bufferView":23,
			"componentType":5126,
			"count":2,
			"type":"VEC3"
		},
		{
			"bufferView":24,
			"componentType":5126,
			"count":31,
			"type":"VEC4"
		},
		{
			"bufferView":25,
			"componentType":5126,
			"count":2,
			"type":"VEC3"
		},
		{
			"bufferView":26,
			"componentType":5126,
			"count":2,
			"type":"VEC3"
		},
		{
			"bufferView":27,
			"componentType":5126,
			"count":31,
			"type":"VEC4"
		},
		{
			"bufferView":28,
			"componentType":5126,
			"count":2,
			"type":"VEC3"
		},
		{
			"bufferView":29,
			"componentType":5126,
			"count":2,
			"type":"VEC3"
		},
		{
			"bufferView":30,
			"componentType":5126,
			"count":31,
			"type":"VEC4"
		},
		{
			"bufferView":31,
			"componentType":5126,
			"count":2,
			"type":"VEC3"
		},
		{
			"bufferView":32,
			"componentType":5126,
			"count":2,
			"type":"VEC3"
		},
		{
			"bufferView":33,
			"componentType":5126,
			"count":31,
			"type":"VEC4"
		},
		{
			"bufferView":34,
			"componentType":5126,
			"count":2,
			"type":"VEC3"
		},
		{
			"bufferView":35,
			"componentType":5126,
			"count":2,
			"type":"VEC3"
		},
		{
			"bufferView":36,
			"componentType":5126,
			"count":31,
			"type":"VEC4"
		},
		{
			"bufferView":37,
			"componentType":5126,
			"count":2,
			"type":"VEC3"
		}
	],
	"bufferViews":[
		{
			"buffer":0,
			"byteLength":52740,
			"byteOffset":0,
			"target":34962
		},
		{
			"buffer":0,
			"byteLength":52740,
			"byteOffset":52740,
			"target":34962
		},
		{
			"buffer":0,
			"byteLength":35160,
			"byteOffset":105480,
			"target":34962
		},
		{
			"buffer":0,
			"byteLength":35160,
			"byteOffset":140640,
			"target":34962
		},
		{
			"buffer":0,
			"byteLength":17580,
			"byteOffset":175800,
			"target":34962
		},
		{
			"buffer":0,
			"byteLength":70320,
			"byteOffset":193380,
			"target":34962
		},
		{
			"buffer":0,
			"byteLength":12840,
			"byteOffset":263700,
			"target":34963
		},
		{
			"buffer":0,
			"byteLength":672,
			"byteOffset":276540,
			"target":34962
		},
		{
			"buffer":0,
			"byteLength":672,
			"byteOffset":277212,
			"target":34962
		},
		{
			"buffer":0,
			"byteLength":448,
			"byteOffset":277884,
			"target":34962
		},
		{
			"buffer":0,
			"byteLength":448,
			"byteOffset":278332,
			"target":34962
		},
		{
			"buffer":0,
			"byteLength":224,
			"byteOffset":278780,
			"target":34962
		},
		{
			"buffer":0,
			"byteLength":896,
			"byteOffset":279004,
			"target":34962
		},
		{
			"buffer":0,
			"byteLength":168,
			"byteOffset":279900,
			"target":34963
		},
		{
			"buffer":0,
			"byteLength":448,
			"byteOffset":280068
		},
		{
			"buffer":0,
			"byteLength":8,
			"byteOffset":280516
		},
		{
			"buffer":0,
			"byteLength":24,
			"byteOffset":280524
		},
		{
			"buffer":0,
			"byteLength":124,
			"byteOffset":280548
		},
		{
			"buffer":0,
			"byteLength":496,
			"byteOffset":280672
		},
		{
			"buffer":0,
			"byteLength":24,
			"byteOffset":281168
		},
		{
			"buffer":0,
			"byteLength":24,
			"byteOffset":281192
		},
		{
			"buffer":0,
			"byteLength":496,
			"byteOffset":281216
		},
		{
			"buffer":0,
			"byteLength":24,
			"byteOffset":281712
		},
		{
			"buffer":0,
			"byteLength":24,
			"byteOffset":281736
		},
		{
			"buffer":0,
			"byteLength":496,
			"byteOffset":281760
		},
		{
			"buffer":0,
			"byteLength":24,
			"byteOffset":282256
		},
		{
			"buffer":0,
			"byteLength":24,
			"byteOffset":282280
		},
		{
			"buffer":0,
			"byteLength":496,
			"byteOffset":282304
		},
		{
			"buffer":0,
			"byteLength":24,
			"byteOffset":282800
		},
		{
			"buffer":0,
			"byteLength":24,
			"byteOffset":282824
		},
		{
			"buffer":0,
			"byteLength":496,
			"byteOffset":282848
		},
		{
			"buffer":0,
			"byteLength":24,
			"byteOffset":283344
		},
		{
			"buffer":0,
			"byteLength":24,
			"byteOffset":283368
		},
		{
			"buffer":0,
			"byteLength":496,
			"byteOffset":283392
		},
		{
			"buffer":0,
			"byteLength":24,
			"byteOffset":283888
		},
		{
			"buffer":0,
			"byteLength":24,
			"byteOffset":283912
		},
		{
			"buffer":0,
			"byteLength":496,
			"byteOffset":283936
		},
		{
			"buffer":0,
			"byteLength":24,
			"byteOffset":284432
		}
	],
	"samplers":[
		{
			"magFilter":9729,
			"minFilter":9987
		}
	],
	"buffers":[
		{
			"byteLength":284456,
			"uri":"ShrimpTailFripAnimation.bin"
		}
	]
}
