{
	"asset":{
		"generator":"Khronos glTF Blender I/O v5.2.39",
		"version":"2.0"
	},
	"scene":0,
	"scenes":[
		{
			"name":"Scene",
			"nodes":[
				0
			]
		}
	],
	"nodes":[
		{
			"mesh":0,
			"name":"stick_07_stick_07_0",
			"rotation":[
				-0.70710688829422,
				0,
				0,
				0.7071066498756409
			],
			"scale":[
				100,
				100.00001525878906,
				100.00001525878906
			],
			"translation":[
				-14.849260330200195,
				0,
				17.736618041992188
			]
		}
	],
	"materials":[
		{
			"doubleSided":true,
			"name":"stick_07",
			"normalTexture":{
				"index":0
			},
			"pbrMetallicRoughness":{
				"baseColorTexture":{
					"index":1
				},
				"metallicFactor":0,
				"roughnessFactor":0.7592592835426331
			}
		}
	],
	"meshes":[
		{
			"name":"stick_07_stick_07_0",
			"primitives":[
				{
					"attributes":{
						"POSITION":0,
						"NORMAL":1,
						"TEXCOORD_0":2
					},
					"indices":3,
					"material":0
				}
			]
		}
	],
	"textures":[
		{
			"sampler":0,
			"source":0
		},
		{
			"sampler":0,
			"source":1
		}
	],
	"images":[
		{
			"mimeType":"image/jpeg",
			"name":"woodStick_normal01",
			"uri":"woodStick_normal01.jpg"
		},
		{
			"mimeType":"image/jpeg",
			"name":"woodStick_baseColor01",
			"uri":"woodStick_baseColor01.jpg"
		}
	],
	"accessors":[
		{
			"bufferView":0,
			"componentType":5126,
			"count":1660,
			"max":[
				0.20148883759975433,
				0.1958608627319336,
				0.015066319145262241
			],
			"min":[
				0.09407365322113037,
				0.15908244252204895,
				-0.011304104700684547
			],
			"type":"VEC3"
		},
		{
			"bufferView":1,
			"componentType":5126,
			"count":1660,
			"type":"VEC3"
		},
		{
			"bufferView":2,
			"componentType":5126,
			"count":1660,
			"type":"VEC2"
		},
		{
			"bufferView":3,
			"componentType":5123,
			"count":6006,
			"type":"SCALAR"
		}
	],
	"bufferViews":[
		{
			"buffer":0,
			"byteLength":19920,
			"byteOffset":0,
			"target":34962
		},
		{
			"buffer":0,
			"byteLength":19920,
			"byteOffset":19920,
			"target":34962
		},
		{
			"buffer":0,
			"byteLength":13280,
			"byteOffset":39840,
			"target":34962
		},
		{
			"buffer":0,
			"byteLength":12012,
			"byteOffset":53120,
			"target":34963
		}
	],
	"samplers":[
		{
			"magFilter":9729,
			"minFilter":9987
		}
	],
	"buffers":[
		{
			"byteLength":65132,
			"uri":"woodStick01.bin"
		}
	]
}
