# Blender 4.4.3
# www.blender.org
mtllib player.mtl
o 円柱
v 0.000000 -0.500000 -0.500000
v 0.000000 0.500000 -0.500000
v 0.293893 -0.500000 -0.404509
v 0.293893 0.500000 -0.404509
v 0.475528 -0.500000 -0.154509
v 0.475528 0.500000 -0.154509
v 0.475528 -0.500000 0.154509
v 0.475528 0.500000 0.154509
v 0.212333 -0.362745 0.431009
v 0.212333 0.362745 0.431009
v -0.038674 -0.337164 0.787501
v -0.038674 0.337164 0.747084
v -0.213051 -0.362432 0.430775
v -0.213051 0.362432 0.430775
v -0.475528 -0.500000 0.154509
v -0.475528 0.500000 0.154509
v -0.475528 -0.500000 -0.154509
v -0.475528 0.500000 -0.154509
v -0.293893 -0.500000 -0.404509
v -0.293893 0.500000 -0.404509
v 0.163165 0.500000 -0.224578
v 0.000000 0.933662 -0.277594
v 0.264007 0.964223 -0.085781
v 0.264007 0.964223 0.085781
v 0.163165 0.964223 0.224578
v 0.000000 0.500000 0.277594
v -0.163165 0.948158 0.224578
v -0.264007 0.948158 0.085781
v -0.264007 0.500000 -0.085781
v -0.163165 0.933662 -0.224578
v 0.293893 0.000000 -0.404509
v 0.000000 0.500000 0.000000
v -0.267175 0.500000 0.367735
v -0.240458 0.500000 0.330961
v -0.213740 0.500000 0.294188
v -0.187023 0.500000 0.257414
v -0.160305 0.500000 0.220641
v -0.133588 0.500000 0.183867
v -0.106870 0.500000 0.147094
v -0.080153 0.500000 0.110320
v -0.053435 0.500000 0.073547
v -0.026718 0.500000 0.036773
v -0.267175 0.500000 -0.367735
v -0.240458 0.500000 -0.330961
v -0.213740 0.500000 -0.294188
v -0.187023 0.500000 -0.257414
v -0.160305 0.500000 -0.220641
v -0.133588 0.500000 -0.183867
v -0.106870 0.500000 -0.147094
v -0.080153 0.500000 -0.110320
v -0.053435 0.500000 -0.073547
v -0.026718 0.500000 -0.036773
v 0.261715 0.500000 -0.360219
v 0.000000 0.933662 -0.445255
v 0.423463 0.964223 -0.137592
v 0.423463 0.964223 0.137591
v 0.261715 0.964223 0.360219
v 0.000000 0.500000 0.445255
v -0.261715 0.948158 0.360219
v -0.423463 0.948158 0.137591
v -0.423463 0.500000 -0.137591
v -0.261715 0.933662 -0.360219
v 0.293893 0.500000 -0.404509
v 0.000000 0.500000 -0.500000
v 0.475528 0.500000 -0.154509
v 0.475528 0.500000 0.154509
v 0.293893 0.500000 0.404509
v 0.000000 0.500000 0.500000
v -0.293893 0.500000 0.404509
v -0.475528 0.500000 0.154509
v -0.475528 0.500000 -0.154509
v -0.293893 0.500000 -0.404509
v 0.259260 0.412087 0.415761
v 0.259260 -0.412087 0.415761
v 0.000000 -0.500000 0.500000
v 0.000000 0.500000 0.500000
v -0.258542 -0.410263 0.415995
v -0.258542 0.410263 0.415995
v 0.293893 0.500000 0.404509
v 0.293893 -0.500000 0.404509
v 0.143799 0.342182 0.714319
v 0.143799 -0.342182 0.731311
v -0.293893 0.500000 0.404509
v -0.293893 -0.500000 0.404509
v -0.139026 0.337164 0.714478
v -0.139026 -0.337164 0.754894
v 0.033901 0.342182 0.750027
v 0.033901 -0.342182 0.767019
v -0.177700 -0.377828 0.514118
v -0.177700 0.377828 0.473702
v 0.000000 0.377828 0.556829
v 0.000000 -0.377828 0.614237
v 0.177700 0.377828 0.467651
v 0.177700 -0.377828 0.484642
vn 0.3090 -0.0000 -0.9511
vn 0.8090 -0.0000 -0.5878
vn 1.0000 -0.0000 -0.0000
vn 0.8090 -0.0000 0.5878
vn 0.3089 0.0236 0.9508
vn -0.3085 0.0569 0.9495
vn -0.8090 -0.0000 0.5878
vn -1.0000 -0.0000 -0.0000
vn -0.0000 1.0000 -0.0000
vn -0.8090 -0.0000 -0.5878
vn -0.3090 -0.0000 -0.9511
vn -0.0000 -1.0000 -0.0000
vn 0.7572 0.3521 0.5501
vn 0.2904 0.3421 -0.8937
vn -0.9434 0.3316 -0.0000
vn -0.7032 0.4944 -0.5109
vn -0.8693 0.4944 -0.0000
vn -0.7632 0.3316 -0.5545
vn 0.9359 0.3521 -0.0000
vn -0.7632 0.3316 0.5545
vn 0.8635 0.5043 -0.0000
vn -0.2904 0.3421 -0.8937
vn -0.2892 0.3521 0.8901
vn 0.4682 0.1107 -0.8767
vn 0.9938 0.1115 -0.0000
vn 0.8040 0.1115 0.5841
vn 0.1366 0.1035 0.9852
vn -0.8036 0.1154 0.5839
vn -0.9788 0.1071 -0.1745
vn -0.3068 0.1192 -0.9443
vn 0.3090 -0.0000 0.9511
vn 0.2935 -0.3133 0.9032
vn 0.4142 0.3839 0.8253
vn -0.3806 -0.6316 0.6755
vn -0.3002 0.2377 0.9238
vn -0.3090 -0.0000 0.9511
vn 0.8401 -0.0000 0.5425
vn 0.6032 -0.3527 0.7153
vn 0.6772 0.1753 0.7146
vn -0.7774 0.0336 0.6281
vn -0.7210 0.5593 0.4091
vn -0.6121 -0.1416 0.7780
vn 0.9792 0.0154 0.2023
vn -0.0693 -0.9745 0.2133
vn -0.0837 0.9803 0.1790
vn -0.9875 0.0094 0.1570
vn -0.9765 0.0053 0.2154
vn 0.9906 0.0031 0.1366
vn 0.1149 -0.9808 0.1575
vn 0.0558 0.9836 0.1717
vn 0.2640 0.5200 0.8124
vn 0.9732 -0.2298 -0.0109
vn 0.9701 0.2425 -0.0000
vn 0.6971 0.5076 -0.5064
vn -0.9701 -0.2425 -0.0000
vn -0.3117 -0.2227 -0.9237
vn 0.6927 0.5167 0.5032
vn -0.2692 0.4911 -0.8285
vn -0.8711 0.4911 -0.0000
vn 0.7602 0.3421 0.5523
vn 0.2668 0.5043 -0.8213
vn -0.6927 0.5167 0.5032
vn 0.6896 0.1035 -0.7168
vn -0.1365 0.1071 0.9848
vn -0.8941 0.1107 -0.4340
vn 0.4701 -0.6028 0.6447
vn 0.3032 0.1939 0.9330
vn -0.2697 -0.4882 0.8300
vn -0.3905 0.3883 0.8347
vn 0.7298 0.0154 0.6835
vn 0.5682 -0.1196 0.8141
vn 0.6767 0.4679 0.5685
vn -0.9206 -0.0000 0.3905
vn -0.7868 0.2370 0.5699
vn -0.6334 -0.3972 0.6641
vn 0.9765 0.0129 0.2149
vn -0.1023 -0.9780 0.1816
vn -0.0637 0.9785 0.1962
vn -0.9871 0.0086 0.1600
vn -0.9844 0.0133 0.1752
vn 0.9907 0.0034 0.1357
vn 0.0689 -0.9748 0.2121
vn 0.0767 0.9853 0.1529
vt 1.000000 1.000000
vt 0.900000 0.750000
vt 0.900000 0.500000
vt 0.800000 1.000000
vt 0.800000 0.500000
vt 0.700000 0.500000
vt 0.700000 1.000000
vt 0.600000 0.500000
vt 0.548929 0.578909
vt 0.511535 0.921091
vt 0.511535 0.578909
vt 0.486841 0.918582
vt 0.452695 0.581418
vt 0.486841 0.581418
vt 0.400000 1.000000
vt 0.300000 0.500000
vt 0.400000 0.500000
vt 0.300000 1.000000
vt 0.200000 0.500000
vt 0.900000 1.000000
vt 0.200000 1.000000
vt 0.100000 0.500000
vt 0.100000 1.000000
vt -0.000000 0.500000
vt 0.978254 0.175836
vt 0.521746 0.175836
vt 0.608932 0.444164
vt -0.000000 1.000000
vt 0.500000 1.000000
vt 0.600000 1.000000
vt 0.328319 0.357797
vt 0.250000 0.383245
vt 0.250000 0.250000
vt 0.171681 0.357797
vt 0.185878 0.338256
vt 0.211527 0.302954
vt 0.123277 0.291175
vt 0.160229 0.373559
vt 0.134580 0.408862
vt 0.123277 0.208825
vt 0.171681 0.142203
vt 0.185878 0.161744
vt 0.237176 0.232349
vt 0.250000 0.116755
vt 0.173054 0.144092
vt 0.134580 0.091138
vt 0.328319 0.142203
vt 0.376723 0.208825
vt 0.376723 0.291175
vt 0.250000 0.463723
vt 0.375623 0.422905
vt 0.453262 0.316044
vt 0.453262 0.183956
vt 0.375623 0.077095
vt 0.124377 0.077095
vt 0.250000 0.036277
vt 0.046738 0.183956
vt 0.046738 0.316044
vt 0.124377 0.422905
vt 0.250000 0.490000
vt 0.478254 0.324164
vt 0.391068 0.444164
vt 0.478254 0.175836
vt 0.391068 0.055836
vt 0.108932 0.055836
vt 0.250000 0.010000
vt 0.021746 0.175836
vt 0.108932 0.444164
vt 0.021746 0.324164
vt 0.572248 0.568628
vt 0.588216 0.956044
vt 0.572248 0.931372
vt 0.560464 0.561086
vt 0.500000 0.500000
vt 0.560464 0.938914
vt 0.500000 0.938914
vt 0.439536 0.561086
vt 0.500000 0.561086
vt 0.439536 0.938914
vt 0.427507 0.931216
vt 0.412028 0.544869
vt 0.427507 0.568784
vt 0.588216 0.543956
vt 0.412028 0.955131
vt 0.452695 0.918582
vt 0.548929 0.921091
vt 1.000000 0.500000
vt 0.750000 0.490000
vt 0.891068 0.444164
vt 0.978254 0.324164
vt 0.891068 0.055836
vt 0.750000 0.010000
vt 0.608932 0.055836
vt 0.521746 0.324164
vt 0.121756 0.426513
vt 0.147405 0.391210
vt 0.173054 0.355908
vt 0.198702 0.320605
vt 0.224351 0.285303
vt 0.237176 0.267651
vt 0.121756 0.073487
vt 0.147405 0.108790
vt 0.160229 0.126441
vt 0.211527 0.197046
vt 0.224351 0.214697
vt 0.198702 0.179395
s 0
f 2/1/1 31/2/1 3/3/1
f 31/2/2 6/4/2 5/5/2
f 6/4/3 7/6/3 5/5/3
f 8/7/4 80/8/4 7/6/4
f 82/9/5 87/10/5 88/11/5
f 12/12/6 86/13/6 11/14/6
f 83/15/7 15/16/7 84/17/7
f 16/18/8 17/19/8 15/16/8
f 6/4/9 63/20/9 65/4/9
f 18/21/10 19/22/10 17/19/10
f 20/23/11 1/24/11 19/22/11
f 7/25/12 15/26/12 19/27/12
f 2/28/9 72/23/9 64/28/9
f 20/23/9 71/21/9 72/23/9
f 18/21/9 70/18/9 71/21/9
f 16/18/9 69/15/9 70/18/9
f 83/15/9 68/29/9 69/15/9
f 76/29/9 67/30/9 68/29/9
f 79/30/9 66/7/9 67/30/9
f 4/20/9 64/1/9 63/20/9
f 8/7/9 65/4/9 66/7/9
f 21/31/13 22/32/13 32/33/13
f 30/34/7 48/35/7 50/36/7
f 29/37/9 46/38/9 44/39/9
f 29/37/14 28/40/14 32/33/14
f 27/41/4 38/42/4 42/43/4
f 26/44/9 37/45/9 34/46/9
f 26/44/15 25/47/15 32/33/15
f 25/47/16 24/48/16 32/33/16
f 24/48/17 23/49/17 32/33/17
f 23/49/18 21/31/18 32/33/18
f 21/31/19 54/50/19 22/32/19
f 23/49/18 53/51/18 21/31/18
f 24/48/9 55/52/9 23/49/9
f 25/47/9 56/53/9 24/48/9
f 26/44/20 57/54/20 25/47/20
f 26/44/21 59/55/21 58/56/21
f 28/40/9 59/55/9 27/41/9
f 29/37/22 60/57/22 28/40/22
f 30/34/23 61/58/23 29/37/23
f 22/32/9 62/59/9 30/34/9
f 53/51/24 64/60/24 54/50/24
f 53/51/9 65/61/9 63/62/9
f 56/53/25 65/61/25 55/52/25
f 57/54/26 66/63/26 56/53/26
f 58/56/27 67/64/27 57/54/27
f 58/56/9 69/65/9 68/66/9
f 59/55/28 70/67/28 69/65/28
f 61/58/29 70/67/29 60/57/29
f 61/58/9 72/68/9 71/69/9
f 54/50/30 72/68/30 62/59/30
f 9/70/31 73/71/31 10/72/31
f 94/73/32 75/74/32 80/8/32
f 93/75/33 76/29/33 91/76/33
f 89/77/34 75/74/34 92/78/34
f 90/79/35 76/29/35 83/15/35
f 14/80/36 77/81/36 13/82/36
f 74/83/31 79/30/31 73/71/31
f 10/72/37 94/73/37 9/70/37
f 73/71/38 93/75/38 10/72/38
f 74/83/39 94/73/39 80/8/39
f 78/84/36 84/17/36 77/81/36
f 14/80/40 89/77/40 90/79/40
f 77/81/41 89/77/41 13/82/41
f 78/84/42 90/79/42 83/15/42
f 12/12/43 92/78/43 91/76/43
f 86/13/44 92/78/44 11/14/44
f 85/85/45 91/76/45 90/79/45
f 85/85/46 89/77/46 86/13/46
f 87/10/47 92/78/47 88/11/47
f 81/86/48 94/73/48 93/75/48
f 82/9/49 92/78/49 94/73/49
f 81/86/50 91/76/50 87/10/50
f 3/3/1 1/87/1 2/1/1
f 2/1/1 4/20/1 31/2/1
f 5/5/2 3/3/2 31/2/2
f 31/2/2 4/20/2 6/4/2
f 6/4/3 8/7/3 7/6/3
f 8/7/4 79/30/4 80/8/4
f 82/9/5 81/86/5 87/10/5
f 12/12/6 85/85/6 86/13/6
f 83/15/7 16/18/7 15/16/7
f 16/18/8 18/21/8 17/19/8
f 6/4/9 4/20/9 63/20/9
f 18/21/10 20/23/10 19/22/10
f 20/23/11 2/28/11 1/24/11
f 19/27/12 1/88/12 3/89/12
f 3/89/12 5/90/12 7/25/12
f 7/25/12 80/91/12 75/92/12
f 75/92/12 84/93/12 15/26/12
f 15/26/12 17/94/12 19/27/12
f 19/27/12 3/89/12 7/25/12
f 7/25/12 75/92/12 15/26/12
f 2/28/9 20/23/9 72/23/9
f 20/23/9 18/21/9 71/21/9
f 18/21/9 16/18/9 70/18/9
f 16/18/9 83/15/9 69/15/9
f 83/15/9 76/29/9 68/29/9
f 76/29/9 79/30/9 67/30/9
f 79/30/9 8/7/9 66/7/9
f 4/20/9 2/1/9 64/1/9
f 8/7/9 6/4/9 65/4/9
f 32/33/51 22/32/51 30/34/51
f 30/34/7 43/95/7 44/39/7
f 44/39/12 45/96/12 46/38/12
f 46/38/12 47/97/12 48/35/12
f 48/35/12 49/98/12 50/36/12
f 50/36/12 51/99/12 52/100/12
f 52/100/7 32/33/7 30/34/7
f 30/34/7 44/39/7 46/38/7
f 30/34/7 46/38/7 48/35/7
f 50/36/7 52/100/7 30/34/7
f 43/95/52 30/34/52 29/37/52
f 29/37/9 32/33/9 52/100/9
f 49/98/9 48/35/9 47/97/9
f 29/37/9 52/100/9 50/36/9
f 50/36/9 49/98/9 47/97/9
f 50/36/53 47/97/53 46/38/53
f 44/39/9 43/95/9 29/37/9
f 29/37/9 50/36/9 46/38/9
f 32/33/54 28/40/54 27/41/54
f 27/41/4 33/101/4 34/46/4
f 34/46/9 35/102/9 36/103/9
f 36/103/9 37/45/9 38/42/9
f 34/46/12 36/103/12 38/42/12
f 42/43/4 32/33/4 27/41/4
f 40/104/9 41/105/9 42/43/9
f 39/106/12 40/104/12 42/43/12
f 27/41/4 34/46/4 38/42/4
f 38/42/55 39/106/55 42/43/55
f 33/101/56 27/41/56 26/44/56
f 26/44/9 32/33/9 42/43/9
f 39/106/12 38/42/12 37/45/12
f 34/46/9 33/101/9 26/44/9
f 42/43/53 39/106/53 37/45/53
f 37/45/9 36/103/9 34/46/9
f 26/44/9 42/43/9 37/45/9
f 21/31/57 53/51/57 54/50/57
f 23/49/58 55/52/58 53/51/58
f 24/48/9 56/53/9 55/52/9
f 25/47/9 57/54/9 56/53/9
f 26/44/59 58/56/59 57/54/59
f 26/44/60 27/41/60 59/55/60
f 28/40/9 60/57/9 59/55/9
f 29/37/61 61/58/61 60/57/61
f 30/34/62 62/59/62 61/58/62
f 22/32/9 54/50/9 62/59/9
f 53/51/9 63/62/9 64/60/9
f 53/51/63 55/52/63 65/61/63
f 56/53/25 66/63/25 65/61/25
f 57/54/26 67/64/26 66/63/26
f 58/56/9 68/66/9 67/64/9
f 58/56/64 59/55/64 69/65/64
f 59/55/28 60/57/28 70/67/28
f 61/58/9 71/69/9 70/67/9
f 61/58/65 62/59/65 72/68/65
f 54/50/30 64/60/30 72/68/30
f 9/70/31 74/83/31 73/71/31
f 94/73/66 92/78/66 75/74/66
f 93/75/67 79/30/67 76/29/67
f 89/77/68 84/17/68 75/74/68
f 90/79/69 91/76/69 76/29/69
f 14/80/36 78/84/36 77/81/36
f 74/83/31 80/8/31 79/30/31
f 10/72/70 93/75/70 94/73/70
f 73/71/71 79/30/71 93/75/71
f 74/83/72 9/70/72 94/73/72
f 78/84/36 83/15/36 84/17/36
f 14/80/73 13/82/73 89/77/73
f 77/81/74 84/17/74 89/77/74
f 78/84/75 14/80/75 90/79/75
f 12/12/76 11/14/76 92/78/76
f 86/13/77 89/77/77 92/78/77
f 85/85/78 12/12/78 91/76/78
f 85/85/79 90/79/79 89/77/79
f 87/10/80 91/76/80 92/78/80
f 81/86/81 82/9/81 94/73/81
f 82/9/82 88/11/82 92/78/82
f 81/86/83 93/75/83 91/76/83
