{
	"asset":{
		"generator":"Khronos glTF Blender I/O v5.1.19",
		"version":"2.0"
	},
	"scene":0,
	"scenes":[
		{
			"name":"Scene",
			"nodes":[
				0
			]
		}
	],
	"nodes":[
		{
			"mesh":0,
			"name":"Cube.019",
			"scale":[
				5.019414901733398,
				0.1734524965286255,
				0.2592218816280365
			],
			"translation":[
				-0.2667001485824585,
				4.890998840332031,
				-3.9074041843414307
			]
		}
	],
	"materials":[
		{
			"doubleSided":true,
			"name":"\u30de\u30c6\u30ea\u30a2\u30eb.004",
			"pbrMetallicRoughness":{
				"baseColorFactor":[
					0.5455541610717773,
					0.8000074625015259,
					0,
					1
				],
				"metallicFactor":0,
				"roughnessFactor":0.5
			}
		}
	],
	"meshes":[
		{
			"name":"Cube.019",
			"primitives":[
				{
					"attributes":{
						"POSITION":0,
						"NORMAL":1,
						"TEXCOORD_0":2
					},
					"indices":3,
					"material":0
				}
			]
		}
	],
	"accessors":[
		{
			"bufferView":0,
			"componentType":5126,
			"count":456,
			"max":[
				1.0531336069107056,
				1.0000019073486328,
				33.79188537597656
			],
			"min":[
				-1.0048906803131104,
				-29.20839500427246,
				-3.553314208984375
			],
			"type":"VEC3"
		},
		{
			"bufferView":1,
			"componentType":5126,
			"count":456,
			"type":"VEC3"
		},
		{
			"bufferView":2,
			"componentType":5126,
			"count":456,
			"type":"VEC2"
		},
		{
			"bufferView":3,
			"componentType":5123,
			"count":684,
			"type":"SCALAR"
		}
	],
	"bufferViews":[
		{
			"buffer":0,
			"byteLength":5472,
			"byteOffset":0,
			"target":34962
		},
		{
			"buffer":0,
			"byteLength":5472,
			"byteOffset":5472,
			"target":34962
		},
		{
			"buffer":0,
			"byteLength":3648,
			"byteOffset":10944,
			"target":34962
		},
		{
			"buffer":0,
			"byteLength":1368,
			"byteOffset":14592,
			"target":34963
		}
	],
	"buffers":[
		{
			"byteLength":15960,
			"uri":"VolumetricFog.bin"
		}
	]
}
