# Blender 4.5.1 LTS
# www.blender.org
mtllib cube.mtl
o 立方体
v -0.500000 -0.500000 0.500000
v -0.500000 0.500000 0.500000
v -0.500000 -0.500000 -0.500000
v -0.500000 0.500000 -0.500000
v 0.500000 -0.500000 0.500000
v 0.500000 0.500000 0.500000
v 0.500000 -0.500000 -0.500000
v 0.500000 0.500000 -0.500000
vn -1.0000 -0.0000 -0.0000
vn -0.0000 -0.0000 -1.0000
vn 1.0000 -0.0000 -0.0000
vn -0.0000 -0.0000 1.0000
vn -0.0000 -1.0000 -0.0000
vn -0.0000 1.0000 -0.0000
vt 0.563320 0.061680
vt 0.436680 0.188320
vt 0.436680 0.061680
vt 0.554850 0.320150
vt 0.445150 0.429850
vt 0.445150 0.320150
vt 0.625000 0.500000
vt 0.375000 0.750000
vt 0.375000 0.500000
vt 0.535318 0.839682
vt 0.464682 0.910318
vt 0.464682 0.839682
vt 0.293693 0.581307
vt 0.206307 0.668693
vt 0.206307 0.581307
vt 0.933912 0.564905
vt 0.804198 0.694619
vt 0.804198 0.564905
vt 0.563320 0.188320
vt 0.554850 0.429850
vt 0.625000 0.750000
vt 0.535318 0.910318
vt 0.293693 0.668693
vt 0.933912 0.694619
s 0
usemtl マテリアル
f 2/1/1 3/2/1 1/3/1
f 4/4/2 7/5/2 3/6/2
f 8/7/3 5/8/3 7/9/3
f 6/10/4 1/11/4 5/12/4
f 7/13/5 1/14/5 3/15/5
f 4/16/6 6/17/6 8/18/6
f 2/1/1 4/19/1 3/2/1
f 4/4/2 8/20/2 7/5/2
f 8/7/3 6/21/3 5/8/3
f 6/10/4 2/22/4 1/11/4
f 7/13/5 5/23/5 1/14/5
f 4/16/6 2/24/6 6/17/6
