# Blender 4.5.1 LTS
# www.blender.org
mtllib normalCube.mtl
o 立方体
v -0.500000 -0.500000 0.500000
v -0.500000 0.500000 0.500000
v -0.500000 -0.500000 -0.500000
v -0.500000 0.500000 -0.500000
v 0.500000 -0.500000 0.500000
v 0.500000 0.500000 0.500000
v 0.500000 -0.500000 -0.500000
v 0.500000 0.500000 -0.500000
vn -1.0000 -0.0000 -0.0000
vn -0.0000 -0.0000 -1.0000
vn 1.0000 -0.0000 -0.0000
vn -0.0000 -0.0000 1.0000
vn -0.0000 -1.0000 -0.0000
vn -0.0000 1.0000 -0.0000
vt 0.000100 0.999900
vt 0.999900 0.000100
vt 0.999900 0.999900
vt 0.999900 0.000100
vt 0.000100 0.999900
vt 0.000100 0.000100
vt 0.999900 0.999900
vt 0.000100 0.000100
vt 0.999900 0.000100
vt 0.000100 0.999900
vt 0.999900 0.000100
vt 0.999900 0.999900
vt 0.000100 0.000100
vt 0.000100 0.999900
vt 0.000100 0.000100
s 0
f 2/1/1 3/2/1 1/3/1
f 4/1/2 7/2/2 3/3/2
f 8/4/3 5/5/3 7/6/3
f 6/4/4 1/5/4 5/6/4
f 7/7/5 1/8/5 3/9/5
f 4/10/6 6/11/6 8/12/6
f 2/1/1 4/13/1 3/2/1
f 4/1/2 8/13/2 7/2/2
f 8/4/3 6/7/3 5/5/3
f 6/4/4 2/7/4 1/5/4
f 7/7/5 5/14/5 1/8/5
f 4/10/6 2/15/6 6/11/6
