{
	"asset":{
		"generator":"Khronos glTF Blender I/O v5.0.21",
		"version":"2.0"
	},
	"scene":0,
	"scenes":[
		{
			"name":"Scene",
			"nodes":[
				0
			]
		}
	],
	"nodes":[
		{
			"mesh":0,
			"name":"\u7acb\u65b9\u4f53"
		}
	],
	"materials":[
		{
			"doubleSided":true,
			"name":"grave",
			"pbrMetallicRoughness":{
				"baseColorFactor":[
					0.800000011920929,
					0.800000011920929,
					0.800000011920929,
					1
				],
				"metallicFactor":0,
				"roughnessFactor":0.5
			}
		},
		{
			"doubleSided":true,
			"name":"mark",
			"pbrMetallicRoughness":{
				"baseColorFactor":[
					0.800000011920929,
					0.800000011920929,
					0.800000011920929,
					1
				],
				"metallicFactor":0,
				"roughnessFactor":0.5
			}
		},
		{
			"doubleSided":true,
			"name":"R.I.P",
			"pbrMetallicRoughness":{
				"baseColorFactor":[
					0.8000074625015259,
					0.2440141886472702,
					0.3147803843021393,
					1
				],
				"metallicFactor":0,
				"roughnessFactor":0.5
			}
		}
	],
	"meshes":[
		{
			"name":"\u7acb\u65b9\u4f53",
			"primitives":[
				{
					"attributes":{
						"POSITION":0,
						"NORMAL":1,
						"TEXCOORD_0":2,
						"TEXCOORD_1":3
					},
					"indices":4,
					"material":0
				},
				{
					"attributes":{
						"POSITION":5,
						"NORMAL":6,
						"TEXCOORD_0":7,
						"TEXCOORD_1":8
					},
					"indices":9,
					"material":1
				},
				{
					"attributes":{
						"POSITION":10,
						"NORMAL":11,
						"TEXCOORD_0":12,
						"TEXCOORD_1":13
					},
					"indices":14,
					"material":2
				}
			]
		}
	],
	"accessors":[
		{
			"bufferView":0,
			"componentType":5126,
			"count":138,
			"max":[
				1.1883312463760376,
				2.648850202560425,
				0.5092871785163879
			],
			"min":[
				-1.1883312463760376,
				0.0513451024889946,
				-0.5092871785163879
			],
			"type":"VEC3"
		},
		{
			"bufferView":1,
			"componentType":5126,
			"count":138,
			"type":"VEC3"
		},
		{
			"bufferView":2,
			"componentType":5126,
			"count":138,
			"type":"VEC2"
		},
		{
			"bufferView":3,
			"componentType":5126,
			"count":138,
			"type":"VEC2"
		},
		{
			"bufferView":4,
			"componentType":5123,
			"count":228,
			"type":"SCALAR"
		},
		{
			"bufferView":5,
			"componentType":5126,
			"count":96,
			"max":[
				0.31311675906181335,
				1.882986307144165,
				0.15083761513233185
			],
			"min":[
				-0.31311672925949097,
				1.2567529678344727,
				0.12298443168401718
			],
			"type":"VEC3"
		},
		{
			"bufferView":6,
			"componentType":5126,
			"count":96,
			"type":"VEC3"
		},
		{
			"bufferView":7,
			"componentType":5126,
			"count":96,
			"type":"VEC2"
		},
		{
			"bufferView":8,
			"componentType":5126,
			"count":96,
			"type":"VEC2"
		},
		{
			"bufferView":9,
			"componentType":5123,
			"count":144,
			"type":"SCALAR"
		},
		{
			"bufferView":10,
			"componentType":5126,
			"count":4172,
			"max":[
				0.3011047840118408,
				1.1482815742492676,
				0.16438083350658417
			],
			"min":[
				-0.29383721947669983,
				0.9537675380706787,
				0.09368889033794403
			],
			"type":"VEC3"
		},
		{
			"bufferView":11,
			"componentType":5126,
			"count":4172,
			"type":"VEC3"
		},
		{
			"bufferView":12,
			"componentType":5126,
			"count":4172,
			"type":"VEC2"
		},
		{
			"bufferView":13,
			"componentType":5126,
			"count":4172,
			"type":"VEC2"
		},
		{
			"bufferView":14,
			"componentType":5123,
			"count":11256,
			"type":"SCALAR"
		}
	],
	"bufferViews":[
		{
			"buffer":0,
			"byteLength":1656,
			"byteOffset":0,
			"target":34962
		},
		{
			"buffer":0,
			"byteLength":1656,
			"byteOffset":1656,
			"target":34962
		},
		{
			"buffer":0,
			"byteLength":1104,
			"byteOffset":3312,
			"target":34962
		},
		{
			"buffer":0,
			"byteLength":1104,
			"byteOffset":4416,
			"target":34962
		},
		{
			"buffer":0,
			"byteLength":456,
			"byteOffset":5520,
			"target":34963
		},
		{
			"buffer":0,
			"byteLength":1152,
			"byteOffset":5976,
			"target":34962
		},
		{
			"buffer":0,
			"byteLength":1152,
			"byteOffset":7128,
			"target":34962
		},
		{
			"buffer":0,
			"byteLength":768,
			"byteOffset":8280,
			"target":34962
		},
		{
			"buffer":0,
			"byteLength":768,
			"byteOffset":9048,
			"target":34962
		},
		{
			"buffer":0,
			"byteLength":288,
			"byteOffset":9816,
			"target":34963
		},
		{
			"buffer":0,
			"byteLength":50064,
			"byteOffset":10104,
			"target":34962
		},
		{
			"buffer":0,
			"byteLength":50064,
			"byteOffset":60168,
			"target":34962
		},
		{
			"buffer":0,
			"byteLength":33376,
			"byteOffset":110232,
			"target":34962
		},
		{
			"buffer":0,
			"byteLength":33376,
			"byteOffset":143608,
			"target":34962
		},
		{
			"buffer":0,
			"byteLength":22512,
			"byteOffset":176984,
			"target":34963
		}
	],
	"buffers":[
		{
			"byteLength":199496,
			"uri":"grave.bin"
		}
	]
}
