{
	"asset":{
		"generator":"Khronos glTF Blender I/O v5.0.21",
		"version":"2.0"
	},
	"extensionsUsed":[
		"KHR_materials_specular"
	],
	"scene":0,
	"scenes":[
		{
			"name":"Scene",
			"nodes":[
				34
			]
		}
	],
	"nodes":[
		{
			"name":"mixamorig:HeadTop_End",
			"rotation":[
				9.926167350636332e-24,
				-3.308722450212111e-24,
				0,
				1
			],
			"translation":[
				-1.331576893193187e-08,
				1.1966172456741333,
				0.15533190965652466
			]
		},
		{
			"children":[
				0
			],
			"name":"mixamorig:Head",
			"rotation":[
				2.1610976119745828e-08,
				-3.970466940254533e-23,
				3.174282651373329e-15,
				1
			],
			"translation":[
				-1.6963322968521766e-09,
				0.15244042873382568,
				0.01978815533220768
			]
		},
		{
			"children":[
				1
			],
			"name":"mixamorig:Neck",
			"rotation":[
				0.06985674053430557,
				-4.2142739298256515e-10,
				6.0179536909288345e-09,
				0.9975570440292358
			],
			"scale":[
				1,
				0.9999998807907104,
				0.9999999403953552
			],
			"translation":[
				-1.2953107350285355e-15,
				0.15512774884700775,
				2.9802322387695312e-08
			]
		},
		{
			"name":"mixamorig:LeftHandIndex4",
			"rotation":[
				1.2200324306377297e-07,
				1.862644793959589e-08,
				9.313223525708736e-10,
				1
			],
			"scale":[
				1.0000001192092896,
				1.0000001192092896,
				1.0000001192092896
			],
			"translation":[
				0.006569616496562958,
				0.009237993508577347,
				-0.0038648657500743866
			]
		},
		{
			"children":[
				3
			],
			"name":"mixamorig:LeftHandIndex3",
			"rotation":[
				-2.3562461137771606e-06,
				1.0203570127487183e-05,
				-4.346482455730438e-06,
				1
			],
			"scale":[
				1,
				0.9999999403953552,
				1
			],
			"translation":[
				0.018223432824015617,
				-0.006837500259280205,
				0.043926917016506195
			]
		},
		{
			"children":[
				4
			],
			"name":"mixamorig:LeftHandIndex2",
			"rotation":[
				-3.259629011154175e-08,
				-2.233311306554242e-06,
				1.589767521181784e-06,
				1
			],
			"scale":[
				1.0000001192092896,
				1,
				1.0000001192092896
			],
			"translation":[
				4.1443854570388794e-08,
				0.05797116830945015,
				9.872019290924072e-08
			]
		},
		{
			"children":[
				5
			],
			"name":"mixamorig:LeftHandIndex1",
			"rotation":[
				0.042404722422361374,
				0.9494289755821228,
				-0.2743065655231476,
				0.14677339792251587
			],
			"scale":[
				0.9999999403953552,
				0.9999997615814209,
				0.9999999403953552
			],
			"translation":[
				-1.5058321878314018e-07,
				0.06210198998451233,
				3.364402800798416e-08
			]
		},
		{
			"children":[
				6
			],
			"name":"mixamorig:LeftHand",
			"rotation":[
				0.4843173623085022,
				-0.5148081183433533,
				0.4788554906845093,
				0.5206791162490845
			],
			"scale":[
				1.0000001192092896,
				1,
				1
			],
			"translation":[
				-1.862645149230957e-08,
				0.36936455965042114,
				1.2200325727462769e-07
			]
		},
		{
			"children":[
				7
			],
			"name":"mixamorig:LeftForeArm",
			"rotation":[
				-0.024520259350538254,
				-0.00022189579613041133,
				0.009048083797097206,
				0.9996584057807922
			],
			"scale":[
				0.9999997615814209,
				0.9999999403953552,
				0.9999998807907104
			],
			"translation":[
				-1.6763806343078613e-08,
				0.4683324098587036,
				4.7497451305389404e-08
			]
		},
		{
			"children":[
				8
			],
			"name":"mixamorig:LeftArm",
			"rotation":[
				-0.05355251207947731,
				-0.0008049063035286963,
				0.015008498914539814,
				0.9984518885612488
			],
			"scale":[
				0.9999999403953552,
				1.0000001192092896,
				1
			],
			"translation":[
				-5.587935447692871e-09,
				0.3542444407939911,
				1.862645149230957e-08
			]
		},
		{
			"children":[
				9
			],
			"name":"mixamorig:LeftShoulder",
			"rotation":[
				0.526565670967102,
				0.473227858543396,
				-0.5353654623031616,
				0.4606167674064636
			],
			"scale":[
				1.0000001192092896,
				1,
				1
			],
			"translation":[
				0.18272095918655396,
				0.13731329143047333,
				-0.003149501048028469
			]
		},
		{
			"name":"mixamorig:RightHandIndex4",
			"rotation":[
				-3.3117830753326416e-06,
				4.0978193283081055e-08,
				1.2852251529693604e-06,
				1
			],
			"translation":[
				-0.002726837992668152,
				-0.007011003792285919,
				-0.013066165149211884
			]
		},
		{
			"children":[
				11
			],
			"name":"mixamorig:RightHandIndex3",
			"rotation":[
				3.509223461151123e-06,
				-5.424022674560547e-06,
				7.450581307466564e-08,
				1
			],
			"scale":[
				0.9999999403953552,
				1,
				1
			],
			"translation":[
				0.029589422047138214,
				0.0041524507105350494,
				-0.006802724674344063
			]
		},
		{
			"children":[
				12
			],
			"name":"mixamorig:RightHandIndex2",
			"rotation":[
				1.4603137969970703e-06,
				3.047287691515521e-06,
				-3.1702222713647643e-06,
				1
			],
			"scale":[
				0.9999999403953552,
				1,
				1
			],
			"translation":[
				-9.313225746154785e-09,
				0.016810093075037003,
				4.842877388000488e-08
			]
		},
		{
			"children":[
				13
			],
			"name":"mixamorig:RightHandIndex1",
			"rotation":[
				0.38724562525749207,
				0.5988420248031616,
				-0.5717911124229431,
				0.40556618571281433
			],
			"scale":[
				1.0000001192092896,
				1.000000238418579,
				1
			],
			"translation":[
				-2.9802322387695312e-08,
				0.07140141725540161,
				6.332993507385254e-08
			]
		},
		{
			"children":[
				14
			],
			"name":"mixamorig:RightHand",
			"rotation":[
				0.49773845076560974,
				0.11116130650043488,
				-0.06450529396533966,
				0.8577521443367004
			],
			"translation":[
				-1.862645149230957e-08,
				0.36970189213752747,
				-1.1175870895385742e-07
			]
		},
		{
			"children":[
				15
			],
			"name":"mixamorig:RightForeArm",
			"rotation":[
				-0.028700880706310272,
				-0.0006174271693453193,
				0.0215010829269886,
				0.9993566274642944
			],
			"scale":[
				0.9999999403953552,
				0.9999998807907104,
				1
			],
			"translation":[
				2.1595042198896408e-08,
				0.46830227971076965,
				8.102506399154663e-08
			]
		},
		{
			"children":[
				16
			],
			"name":"mixamorig:RightArm",
			"rotation":[
				-0.054699644446372986,
				0.00036685896338894963,
				-0.006698879878968,
				0.9984803199768066
			],
			"scale":[
				1,
				0.9999999403953552,
				0.9999999403953552
			],
			"translation":[
				-7.450580596923828e-09,
				0.3542444407939911,
				7.916241884231567e-08
			]
		},
		{
			"children":[
				17
			],
			"name":"mixamorig:RightShoulder",
			"rotation":[
				0.5286309719085693,
				-0.4712297022342682,
				0.533795177936554,
				0.46211957931518555
			],
			"scale":[
				1.0000001192092896,
				1,
				1
			],
			"translation":[
				-0.18272095918655396,
				0.13713601231575012,
				-0.0018900120630860329
			]
		},
		{
			"children":[
				2,
				10,
				18
			],
			"name":"mixamorig:Spine2",
			"rotation":[
				-4.842877388000488e-08,
				-1.6930901125533637e-15,
				-5.164990071922226e-15,
				1
			],
			"translation":[
				1.6679597037995127e-15,
				0.13789121806621552,
				7.450580596923828e-09
			]
		},
		{
			"children":[
				19
			],
			"name":"mixamorig:Spine1",
			"rotation":[
				-6.33299421792799e-08,
				-1.7486012637846216e-15,
				-5.7779196296979096e-15,
				1
			],
			"scale":[
				1,
				0.9999999403953552,
				0.9999999403953552
			],
			"translation":[
				1.4432899320127035e-15,
				0.12065495550632477,
				-7.450580596923828e-09
			]
		},
		{
			"children":[
				20
			],
			"name":"mixamorig:Spine",
			"rotation":[
				-0.06985663622617722,
				-4.2557643520346744e-10,
				-6.077260028547471e-09,
				0.9975570440292358
			],
			"translation":[
				1.26008137257827e-09,
				0.10240906476974487,
				-0.014413653872907162
			]
		},
		{
			"name":"mixamorig:LeftToe_End",
			"rotation":[
				4.190951585769653e-09,
				4.377216100692749e-08,
				6.766640581190586e-08,
				1
			],
			"translation":[
				-4.866160452365875e-08,
				0.14111395180225372,
				-4.190951585769653e-09
			]
		},
		{
			"children":[
				22
			],
			"name":"mixamorig:LeftToeBase",
			"rotation":[
				-0.0566595084965229,
				-0.002060362370684743,
				0.0363708920776844,
				0.997728705406189
			],
			"scale":[
				1,
				1,
				1.0000001192092896
			],
			"translation":[
				-2.1245796233415604e-08,
				0.17179618775844574,
				-6.984919309616089e-09
			]
		},
		{
			"children":[
				23
			],
			"name":"mixamorig:LeftFoot",
			"rotation":[
				0.7358908653259277,
				-0.19985835254192352,
				0.2457537055015564,
				0.5984366536140442
			],
			"translation":[
				1.6676494851708412e-08,
				0.3652637004852295,
				-1.0710209608078003e-08
			]
		},
		{
			"children":[
				24
			],
			"name":"mixamorig:LeftLeg",
			"rotation":[
				-0.06870102882385254,
				0.005722966510802507,
				-0.08281824737787247,
				0.9941773414611816
			],
			"scale":[
				0.9999999403953552,
				1.0000001192092896,
				0.9999999403953552
			],
			"translation":[
				1.4646502677351236e-08,
				0.45472896099090576,
				1.0506067127380447e-09
			]
		},
		{
			"children":[
				25
			],
			"name":"mixamorig:LeftUpLeg",
			"rotation":[
				-0.00048111999058164656,
				-0.009810132905840874,
				-0.9987392425537109,
				0.04922904819250107
			],
			"scale":[
				1.0000243186950684,
				1,
				1.0000009536743164
			],
			"translation":[
				0.22016923129558563,
				-0.05657219514250755,
				-0.0735955536365509
			]
		},
		{
			"name":"mixamorig:RightToe_End",
			"rotation":[
				-2.0721927285194397e-08,
				-2.1653249859809875e-08,
				8.805363904684782e-08,
				1
			],
			"translation":[
				-5.617039278149605e-09,
				0.14118464291095734,
				-2.7939677238464355e-09
			]
		},
		{
			"children":[
				27
			],
			"name":"mixamorig:RightToeBase",
			"rotation":[
				-0.05560629814863205,
				0.0027216582093387842,
				-0.04887201264500618,
				0.9972522854804993
			],
			"scale":[
				0.9999998807907104,
				1,
				0.9999999403953552
			],
			"translation":[
				-1.4202669262886047e-08,
				0.1779593825340271,
				3.6088749766349792e-09
			]
		},
		{
			"children":[
				28
			],
			"name":"mixamorig:RightFoot",
			"rotation":[
				0.7405224442481995,
				0.19137854874134064,
				-0.2365008443593979,
				0.5992229580879211
			],
			"scale":[
				1,
				1.0000001192092896,
				1.0000001192092896
			],
			"translation":[
				-6.945697350602131e-10,
				0.36564478278160095,
				-1.932494342327118e-08
			]
		},
		{
			"children":[
				29
			],
			"name":"mixamorig:RightLeg",
			"rotation":[
				-0.0631033256649971,
				-0.005251931492239237,
				0.08277200162410736,
				0.9945547580718994
			],
			"scale":[
				0.9999999403953552,
				1.0000001192092896,
				0.9999999403953552
			],
			"translation":[
				-2.5351994281663792e-08,
				0.4546421468257904,
				-4.700357436604463e-09
			]
		},
		{
			"children":[
				30
			],
			"name":"mixamorig:RightUpLeg",
			"rotation":[
				2.9560424081864767e-06,
				-6.042760287527926e-05,
				0.9987869262695312,
				0.049240902066230774
			],
			"scale":[
				1.0000231266021729,
				1.0000001192092896,
				1
			],
			"translation":[
				-0.22016923129558563,
				-0.05657219514250755,
				-0.06786733120679855
			]
		},
		{
			"children":[
				21,
				26,
				31
			],
			"name":"mixamorig:Hips",
			"rotation":[
				0.7071067690849304,
				3.0908619663705394e-08,
				3.0908619663705394e-08,
				0.7071067690849304
			],
			"translation":[
				0,
				-0.0038515727501362562,
				0.8984977602958679
			]
		},
		{
			"mesh":0,
			"name":"Character",
			"skin":0
		},
		{
			"children":[
				33,
				32
			],
			"name":"Armature"
		}
	],
	"animations":[
		{
			"channels":[
				{
					"sampler":0,
					"target":{
						"node":32,
						"path":"translation"
					}
				},
				{
					"sampler":1,
					"target":{
						"node":32,
						"path":"rotation"
					}
				},
				{
					"sampler":2,
					"target":{
						"node":32,
						"path":"scale"
					}
				},
				{
					"sampler":3,
					"target":{
						"node":21,
						"path":"translation"
					}
				},
				{
					"sampler":4,
					"target":{
						"node":21,
						"path":"rotation"
					}
				},
				{
					"sampler":5,
					"target":{
						"node":21,
						"path":"scale"
					}
				},
				{
					"sampler":6,
					"target":{
						"node":20,
						"path":"translation"
					}
				},
				{
					"sampler":7,
					"target":{
						"node":20,
						"path":"rotation"
					}
				},
				{
					"sampler":8,
					"target":{
						"node":20,
						"path":"scale"
					}
				},
				{
					"sampler":9,
					"target":{
						"node":19,
						"path":"translation"
					}
				},
				{
					"sampler":10,
					"target":{
						"node":19,
						"path":"rotation"
					}
				},
				{
					"sampler":11,
					"target":{
						"node":19,
						"path":"scale"
					}
				},
				{
					"sampler":12,
					"target":{
						"node":2,
						"path":"translation"
					}
				},
				{
					"sampler":13,
					"target":{
						"node":2,
						"path":"rotation"
					}
				},
				{
					"sampler":14,
					"target":{
						"node":2,
						"path":"scale"
					}
				},
				{
					"sampler":15,
					"target":{
						"node":1,
						"path":"translation"
					}
				},
				{
					"sampler":16,
					"target":{
						"node":1,
						"path":"rotation"
					}
				},
				{
					"sampler":17,
					"target":{
						"node":1,
						"path":"scale"
					}
				},
				{
					"sampler":18,
					"target":{
						"node":0,
						"path":"translation"
					}
				},
				{
					"sampler":19,
					"target":{
						"node":0,
						"path":"rotation"
					}
				},
				{
					"sampler":20,
					"target":{
						"node":0,
						"path":"scale"
					}
				},
				{
					"sampler":21,
					"target":{
						"node":10,
						"path":"translation"
					}
				},
				{
					"sampler":22,
					"target":{
						"node":10,
						"path":"rotation"
					}
				},
				{
					"sampler":23,
					"target":{
						"node":10,
						"path":"scale"
					}
				},
				{
					"sampler":24,
					"target":{
						"node":9,
						"path":"translation"
					}
				},
				{
					"sampler":25,
					"target":{
						"node":9,
						"path":"rotation"
					}
				},
				{
					"sampler":26,
					"target":{
						"node":9,
						"path":"scale"
					}
				},
				{
					"sampler":27,
					"target":{
						"node":8,
						"path":"translation"
					}
				},
				{
					"sampler":28,
					"target":{
						"node":8,
						"path":"rotation"
					}
				},
				{
					"sampler":29,
					"target":{
						"node":8,
						"path":"scale"
					}
				},
				{
					"sampler":30,
					"target":{
						"node":7,
						"path":"translation"
					}
				},
				{
					"sampler":31,
					"target":{
						"node":7,
						"path":"rotation"
					}
				},
				{
					"sampler":32,
					"target":{
						"node":7,
						"path":"scale"
					}
				},
				{
					"sampler":33,
					"target":{
						"node":6,
						"path":"translation"
					}
				},
				{
					"sampler":34,
					"target":{
						"node":6,
						"path":"rotation"
					}
				},
				{
					"sampler":35,
					"target":{
						"node":6,
						"path":"scale"
					}
				},
				{
					"sampler":36,
					"target":{
						"node":5,
						"path":"translation"
					}
				},
				{
					"sampler":37,
					"target":{
						"node":5,
						"path":"rotation"
					}
				},
				{
					"sampler":38,
					"target":{
						"node":5,
						"path":"scale"
					}
				},
				{
					"sampler":39,
					"target":{
						"node":4,
						"path":"translation"
					}
				},
				{
					"sampler":40,
					"target":{
						"node":4,
						"path":"rotation"
					}
				},
				{
					"sampler":41,
					"target":{
						"node":4,
						"path":"scale"
					}
				},
				{
					"sampler":42,
					"target":{
						"node":3,
						"path":"translation"
					}
				},
				{
					"sampler":43,
					"target":{
						"node":3,
						"path":"rotation"
					}
				},
				{
					"sampler":44,
					"target":{
						"node":3,
						"path":"scale"
					}
				},
				{
					"sampler":45,
					"target":{
						"node":18,
						"path":"translation"
					}
				},
				{
					"sampler":46,
					"target":{
						"node":18,
						"path":"rotation"
					}
				},
				{
					"sampler":47,
					"target":{
						"node":18,
						"path":"scale"
					}
				},
				{
					"sampler":48,
					"target":{
						"node":17,
						"path":"translation"
					}
				},
				{
					"sampler":49,
					"target":{
						"node":17,
						"path":"rotation"
					}
				},
				{
					"sampler":50,
					"target":{
						"node":17,
						"path":"scale"
					}
				},
				{
					"sampler":51,
					"target":{
						"node":16,
						"path":"translation"
					}
				},
				{
					"sampler":52,
					"target":{
						"node":16,
						"path":"rotation"
					}
				},
				{
					"sampler":53,
					"target":{
						"node":16,
						"path":"scale"
					}
				},
				{
					"sampler":54,
					"target":{
						"node":15,
						"path":"translation"
					}
				},
				{
					"sampler":55,
					"target":{
						"node":15,
						"path":"rotation"
					}
				},
				{
					"sampler":56,
					"target":{
						"node":15,
						"path":"scale"
					}
				},
				{
					"sampler":57,
					"target":{
						"node":14,
						"path":"translation"
					}
				},
				{
					"sampler":58,
					"target":{
						"node":14,
						"path":"rotation"
					}
				},
				{
					"sampler":59,
					"target":{
						"node":14,
						"path":"scale"
					}
				},
				{
					"sampler":60,
					"target":{
						"node":13,
						"path":"translation"
					}
				},
				{
					"sampler":61,
					"target":{
						"node":13,
						"path":"rotation"
					}
				},
				{
					"sampler":62,
					"target":{
						"node":13,
						"path":"scale"
					}
				},
				{
					"sampler":63,
					"target":{
						"node":12,
						"path":"translation"
					}
				},
				{
					"sampler":64,
					"target":{
						"node":12,
						"path":"rotation"
					}
				},
				{
					"sampler":65,
					"target":{
						"node":12,
						"path":"scale"
					}
				},
				{
					"sampler":66,
					"target":{
						"node":11,
						"path":"translation"
					}
				},
				{
					"sampler":67,
					"target":{
						"node":11,
						"path":"rotation"
					}
				},
				{
					"sampler":68,
					"target":{
						"node":11,
						"path":"scale"
					}
				},
				{
					"sampler":69,
					"target":{
						"node":26,
						"path":"translation"
					}
				},
				{
					"sampler":70,
					"target":{
						"node":26,
						"path":"rotation"
					}
				},
				{
					"sampler":71,
					"target":{
						"node":26,
						"path":"scale"
					}
				},
				{
					"sampler":72,
					"target":{
						"node":25,
						"path":"translation"
					}
				},
				{
					"sampler":73,
					"target":{
						"node":25,
						"path":"rotation"
					}
				},
				{
					"sampler":74,
					"target":{
						"node":25,
						"path":"scale"
					}
				},
				{
					"sampler":75,
					"target":{
						"node":24,
						"path":"translation"
					}
				},
				{
					"sampler":76,
					"target":{
						"node":24,
						"path":"rotation"
					}
				},
				{
					"sampler":77,
					"target":{
						"node":24,
						"path":"scale"
					}
				},
				{
					"sampler":78,
					"target":{
						"node":23,
						"path":"translation"
					}
				},
				{
					"sampler":79,
					"target":{
						"node":23,
						"path":"rotation"
					}
				},
				{
					"sampler":80,
					"target":{
						"node":23,
						"path":"scale"
					}
				},
				{
					"sampler":81,
					"target":{
						"node":22,
						"path":"translation"
					}
				},
				{
					"sampler":82,
					"target":{
						"node":22,
						"path":"rotation"
					}
				},
				{
					"sampler":83,
					"target":{
						"node":22,
						"path":"scale"
					}
				},
				{
					"sampler":84,
					"target":{
						"node":31,
						"path":"translation"
					}
				},
				{
					"sampler":85,
					"target":{
						"node":31,
						"path":"rotation"
					}
				},
				{
					"sampler":86,
					"target":{
						"node":31,
						"path":"scale"
					}
				},
				{
					"sampler":87,
					"target":{
						"node":30,
						"path":"translation"
					}
				},
				{
					"sampler":88,
					"target":{
						"node":30,
						"path":"rotation"
					}
				},
				{
					"sampler":89,
					"target":{
						"node":30,
						"path":"scale"
					}
				},
				{
					"sampler":90,
					"target":{
						"node":29,
						"path":"translation"
					}
				},
				{
					"sampler":91,
					"target":{
						"node":29,
						"path":"rotation"
					}
				},
				{
					"sampler":92,
					"target":{
						"node":29,
						"path":"scale"
					}
				},
				{
					"sampler":93,
					"target":{
						"node":28,
						"path":"translation"
					}
				},
				{
					"sampler":94,
					"target":{
						"node":28,
						"path":"rotation"
					}
				},
				{
					"sampler":95,
					"target":{
						"node":28,
						"path":"scale"
					}
				},
				{
					"sampler":96,
					"target":{
						"node":27,
						"path":"translation"
					}
				},
				{
					"sampler":97,
					"target":{
						"node":27,
						"path":"rotation"
					}
				},
				{
					"sampler":98,
					"target":{
						"node":27,
						"path":"scale"
					}
				}
			],
			"name":"mixamo.com",
			"samplers":[
				{
					"input":7,
					"interpolation":"LINEAR",
					"output":8
				},
				{
					"input":7,
					"interpolation":"LINEAR",
					"output":9
				},
				{
					"input":10,
					"interpolation":"STEP",
					"output":11
				},
				{
					"input":10,
					"interpolation":"LINEAR",
					"output":12
				},
				{
					"input":7,
					"interpolation":"LINEAR",
					"output":13
				},
				{
					"input":10,
					"interpolation":"STEP",
					"output":14
				},
				{
					"input":10,
					"interpolation":"LINEAR",
					"output":15
				},
				{
					"input":7,
					"interpolation":"LINEAR",
					"output":16
				},
				{
					"input":10,
					"interpolation":"STEP",
					"output":17
				},
				{
					"input":10,
					"interpolation":"LINEAR",
					"output":18
				},
				{
					"input":7,
					"interpolation":"LINEAR",
					"output":19
				},
				{
					"input":10,
					"interpolation":"LINEAR",
					"output":20
				},
				{
					"input":10,
					"interpolation":"LINEAR",
					"output":21
				},
				{
					"input":7,
					"interpolation":"LINEAR",
					"output":22
				},
				{
					"input":10,
					"interpolation":"STEP",
					"output":23
				},
				{
					"input":10,
					"interpolation":"LINEAR",
					"output":24
				},
				{
					"input":7,
					"interpolation":"LINEAR",
					"output":25
				},
				{
					"input":10,
					"interpolation":"LINEAR",
					"output":26
				},
				{
					"input":10,
					"interpolation":"STEP",
					"output":27
				},
				{
					"input":10,
					"interpolation":"STEP",
					"output":28
				},
				{
					"input":10,
					"interpolation":"STEP",
					"output":29
				},
				{
					"input":10,
					"interpolation":"LINEAR",
					"output":30
				},
				{
					"input":7,
					"interpolation":"LINEAR",
					"output":31
				},
				{
					"input":10,
					"interpolation":"STEP",
					"output":32
				},
				{
					"input":10,
					"interpolation":"LINEAR",
					"output":33
				},
				{
					"input":7,
					"interpolation":"LINEAR",
					"output":34
				},
				{
					"input":10,
					"interpolation":"LINEAR",
					"output":35
				},
				{
					"input":10,
					"interpolation":"LINEAR",
					"output":36
				},
				{
					"input":7,
					"interpolation":"LINEAR",
					"output":37
				},
				{
					"input":10,
					"interpolation":"LINEAR",
					"output":38
				},
				{
					"input":10,
					"interpolation":"LINEAR",
					"output":39
				},
				{
					"input":7,
					"interpolation":"LINEAR",
					"output":40
				},
				{
					"input":10,
					"interpolation":"LINEAR",
					"output":41
				},
				{
					"input":10,
					"interpolation":"LINEAR",
					"output":42
				},
				{
					"input":7,
					"interpolation":"LINEAR",
					"output":43
				},
				{
					"input":10,
					"interpolation":"LINEAR",
					"output":44
				},
				{
					"input":10,
					"interpolation":"LINEAR",
					"output":45
				},
				{
					"input":7,
					"interpolation":"LINEAR",
					"output":46
				},
				{
					"input":10,
					"interpolation":"LINEAR",
					"output":47
				},
				{
					"input":10,
					"interpolation":"LINEAR",
					"output":48
				},
				{
					"input":7,
					"interpolation":"LINEAR",
					"output":49
				},
				{
					"input":10,
					"interpolation":"LINEAR",
					"output":50
				},
				{
					"input":10,
					"interpolation":"STEP",
					"output":51
				},
				{
					"input":10,
					"interpolation":"STEP",
					"output":52
				},
				{
					"input":10,
					"interpolation":"STEP",
					"output":53
				},
				{
					"input":10,
					"interpolation":"LINEAR",
					"output":54
				},
				{
					"input":7,
					"interpolation":"LINEAR",
					"output":55
				},
				{
					"input":10,
					"interpolation":"STEP",
					"output":56
				},
				{
					"input":10,
					"interpolation":"LINEAR",
					"output":57
				},
				{
					"input":7,
					"interpolation":"LINEAR",
					"output":58
				},
				{
					"input":10,
					"interpolation":"LINEAR",
					"output":59
				},
				{
					"input":10,
					"interpolation":"LINEAR",
					"output":60
				},
				{
					"input":7,
					"interpolation":"LINEAR",
					"output":61
				},
				{
					"input":10,
					"interpolation":"LINEAR",
					"output":62
				},
				{
					"input":10,
					"interpolation":"LINEAR",
					"output":63
				},
				{
					"input":7,
					"interpolation":"LINEAR",
					"output":64
				},
				{
					"input":10,
					"interpolation":"LINEAR",
					"output":65
				},
				{
					"input":10,
					"interpolation":"LINEAR",
					"output":66
				},
				{
					"input":7,
					"interpolation":"LINEAR",
					"output":67
				},
				{
					"input":10,
					"interpolation":"STEP",
					"output":68
				},
				{
					"input":10,
					"interpolation":"LINEAR",
					"output":69
				},
				{
					"input":7,
					"interpolation":"LINEAR",
					"output":70
				},
				{
					"input":10,
					"interpolation":"STEP",
					"output":71
				},
				{
					"input":10,
					"interpolation":"LINEAR",
					"output":72
				},
				{
					"input":7,
					"interpolation":"LINEAR",
					"output":73
				},
				{
					"input":10,
					"interpolation":"STEP",
					"output":74
				},
				{
					"input":10,
					"interpolation":"STEP",
					"output":75
				},
				{
					"input":10,
					"interpolation":"STEP",
					"output":76
				},
				{
					"input":10,
					"interpolation":"STEP",
					"output":77
				},
				{
					"input":10,
					"interpolation":"LINEAR",
					"output":78
				},
				{
					"input":7,
					"interpolation":"LINEAR",
					"output":79
				},
				{
					"input":10,
					"interpolation":"STEP",
					"output":80
				},
				{
					"input":10,
					"interpolation":"LINEAR",
					"output":81
				},
				{
					"input":7,
					"interpolation":"LINEAR",
					"output":82
				},
				{
					"input":10,
					"interpolation":"STEP",
					"output":83
				},
				{
					"input":10,
					"interpolation":"LINEAR",
					"output":84
				},
				{
					"input":7,
					"interpolation":"LINEAR",
					"output":85
				},
				{
					"input":10,
					"interpolation":"STEP",
					"output":86
				},
				{
					"input":10,
					"interpolation":"LINEAR",
					"output":87
				},
				{
					"input":7,
					"interpolation":"LINEAR",
					"output":88
				},
				{
					"input":10,
					"interpolation":"STEP",
					"output":89
				},
				{
					"input":10,
					"interpolation":"STEP",
					"output":90
				},
				{
					"input":10,
					"interpolation":"STEP",
					"output":91
				},
				{
					"input":10,
					"interpolation":"STEP",
					"output":92
				},
				{
					"input":10,
					"interpolation":"LINEAR",
					"output":93
				},
				{
					"input":7,
					"interpolation":"LINEAR",
					"output":94
				},
				{
					"input":10,
					"interpolation":"STEP",
					"output":95
				},
				{
					"input":10,
					"interpolation":"LINEAR",
					"output":96
				},
				{
					"input":7,
					"interpolation":"LINEAR",
					"output":97
				},
				{
					"input":10,
					"interpolation":"STEP",
					"output":98
				},
				{
					"input":10,
					"interpolation":"LINEAR",
					"output":99
				},
				{
					"input":7,
					"interpolation":"LINEAR",
					"output":100
				},
				{
					"input":10,
					"interpolation":"LINEAR",
					"output":101
				},
				{
					"input":10,
					"interpolation":"LINEAR",
					"output":102
				},
				{
					"input":7,
					"interpolation":"LINEAR",
					"output":103
				},
				{
					"input":10,
					"interpolation":"LINEAR",
					"output":104
				},
				{
					"input":10,
					"interpolation":"STEP",
					"output":105
				},
				{
					"input":10,
					"interpolation":"STEP",
					"output":106
				},
				{
					"input":10,
					"interpolation":"STEP",
					"output":107
				}
			]
		}
	],
	"materials":[
		{
			"doubleSided":true,
			"extensions":{
				"KHR_materials_specular":{
					"specularColorFactor":[
						0.800000011920929,
						0.800000011920929,
						0.800000011920929
					]
				}
			},
			"name":"Atlas",
			"pbrMetallicRoughness":{
				"metallicFactor":0,
				"roughnessFactor":0.5
			}
		}
	],
	"meshes":[
		{
			"name":"Cube.000",
			"primitives":[
				{
					"attributes":{
						"POSITION":0,
						"NORMAL":1,
						"TEXCOORD_0":2,
						"JOINTS_0":3,
						"WEIGHTS_0":4
					},
					"indices":5,
					"material":0
				}
			]
		}
	],
	"skins":[
		{
			"inverseBindMatrices":6,
			"joints":[
				32,
				21,
				20,
				19,
				2,
				1,
				0,
				10,
				9,
				8,
				7,
				6,
				5,
				4,
				3,
				18,
				17,
				16,
				15,
				14,
				13,
				12,
				11,
				26,
				25,
				24,
				23,
				22,
				31,
				30,
				29,
				28,
				27
			],
			"name":"Armature"
		}
	],
	"accessors":[
		{
			"bufferView":0,
			"componentType":5126,
			"count":1794,
			"max":[
				1.4459128379821777,
				0.5706996917724609,
				2.8388023376464844
			],
			"min":[
				-1.4459128379821777,
				-0.5706993937492371,
				0.00260995258577168
			],
			"type":"VEC3"
		},
		{
			"bufferView":1,
			"componentType":5126,
			"count":1794,
			"type":"VEC3"
		},
		{
			"bufferView":2,
			"componentType":5126,
			"count":1794,
			"type":"VEC2"
		},
		{
			"bufferView":3,
			"componentType":5121,
			"count":1794,
			"type":"VEC4"
		},
		{
			"bufferView":4,
			"componentType":5126,
			"count":1794,
			"type":"VEC4"
		},
		{
			"bufferView":5,
			"componentType":5123,
			"count":9366,
			"type":"SCALAR"
		},
		{
			"bufferView":6,
			"componentType":5126,
			"count":33,
			"type":"MAT4"
		},
		{
			"bufferView":7,
			"componentType":5126,
			"count":154,
			"max":[
				5.133333333333334
			],
			"min":[
				0.03333333333333333
			],
			"type":"SCALAR"
		},
		{
			"bufferView":8,
			"componentType":5126,
			"count":154,
			"type":"VEC3"
		},
		{
			"bufferView":9,
			"componentType":5126,
			"count":154,
			"type":"VEC4"
		},
		{
			"bufferView":10,
			"componentType":5126,
			"count":2,
			"max":[
				5.133333333333334
			],
			"min":[
				0.03333333333333333
			],
			"type":"SCALAR"
		},
		{
			"bufferView":11,
			"componentType":5126,
			"count":2,
			"type":"VEC3"
		},
		{
			"bufferView":12,
			"componentType":5126,
			"count":2,
			"type":"VEC3"
		},
		{
			"bufferView":13,
			"componentType":5126,
			"count":154,
			"type":"VEC4"
		},
		{
			"bufferView":14,
			"componentType":5126,
			"count":2,
			"type":"VEC3"
		},
		{
			"bufferView":15,
			"componentType":5126,
			"count":2,
			"type":"VEC3"
		},
		{
			"bufferView":16,
			"componentType":5126,
			"count":154,
			"type":"VEC4"
		},
		{
			"bufferView":17,
			"componentType":5126,
			"count":2,
			"type":"VEC3"
		},
		{
			"bufferView":18,
			"componentType":5126,
			"count":2,
			"type":"VEC3"
		},
		{
			"bufferView":19,
			"componentType":5126,
			"count":154,
			"type":"VEC4"
		},
		{
			"bufferView":20,
			"componentType":5126,
			"count":2,
			"type":"VEC3"
		},
		{
			"bufferView":21,
			"componentType":5126,
			"count":2,
			"type":"VEC3"
		},
		{
			"bufferView":22,
			"componentType":5126,
			"count":154,
			"type":"VEC4"
		},
		{
			"bufferView":23,
			"componentType":5126,
			"count":2,
			"type":"VEC3"
		},
		{
			"bufferView":24,
			"componentType":5126,
			"count":2,
			"type":"VEC3"
		},
		{
			"bufferView":25,
			"componentType":5126,
			"count":154,
			"type":"VEC4"
		},
		{
			"bufferView":26,
			"componentType":5126,
			"count":2,
			"type":"VEC3"
		},
		{
			"bufferView":27,
			"componentType":5126,
			"count":2,
			"type":"VEC3"
		},
		{
			"bufferView":28,
			"componentType":5126,
			"count":2,
			"type":"VEC4"
		},
		{
			"bufferView":29,
			"componentType":5126,
			"count":2,
			"type":"VEC3"
		},
		{
			"bufferView":30,
			"componentType":5126,
			"count":2,
			"type":"VEC3"
		},
		{
			"bufferView":31,
			"componentType":5126,
			"count":154,
			"type":"VEC4"
		},
		{
			"bufferView":32,
			"componentType":5126,
			"count":2,
			"type":"VEC3"
		},
		{
			"bufferView":33,
			"componentType":5126,
			"count":2,
			"type":"VEC3"
		},
		{
			"bufferView":34,
			"componentType":5126,
			"count":154,
			"type":"VEC4"
		},
		{
			"bufferView":35,
			"componentType":5126,
			"count":2,
			"type":"VEC3"
		},
		{
			"bufferView":36,
			"componentType":5126,
			"count":2,
			"type":"VEC3"
		},
		{
			"bufferView":37,
			"componentType":5126,
			"count":154,
			"type":"VEC4"
		},
		{
			"bufferView":38,
			"componentType":5126,
			"count":2,
			"type":"VEC3"
		},
		{
			"bufferView":39,
			"componentType":5126,
			"count":2,
			"type":"VEC3"
		},
		{
			"bufferView":40,
			"componentType":5126,
			"count":154,
			"type":"VEC4"
		},
		{
			"bufferView":41,
			"componentType":5126,
			"count":2,
			"type":"VEC3"
		},
		{
			"bufferView":42,
			"componentType":5126,
			"count":2,
			"type":"VEC3"
		},
		{
			"bufferView":43,
			"componentType":5126,
			"count":154,
			"type":"VEC4"
		},
		{
			"bufferView":44,
			"componentType":5126,
			"count":2,
			"type":"VEC3"
		},
		{
			"bufferView":45,
			"componentType":5126,
			"count":2,
			"type":"VEC3"
		},
		{
			"bufferView":46,
			"componentType":5126,
			"count":154,
			"type":"VEC4"
		},
		{
			"bufferView":47,
			"componentType":5126,
			"count":2,
			"type":"VEC3"
		},
		{
			"bufferView":48,
			"componentType":5126,
			"count":2,
			"type":"VEC3"
		},
		{
			"bufferView":49,
			"componentType":5126,
			"count":154,
			"type":"VEC4"
		},
		{
			"bufferView":50,
			"componentType":5126,
			"count":2,
			"type":"VEC3"
		},
		{
			"bufferView":51,
			"componentType":5126,
			"count":2,
			"type":"VEC3"
		},
		{
			"bufferView":52,
			"componentType":5126,
			"count":2,
			"type":"VEC4"
		},
		{
			"bufferView":53,
			"componentType":5126,
			"count":2,
			"type":"VEC3"
		},
		{
			"bufferView":54,
			"componentType":5126,
			"count":2,
			"type":"VEC3"
		},
		{
			"bufferView":55,
			"componentType":5126,
			"count":154,
			"type":"VEC4"
		},
		{
			"bufferView":56,
			"componentType":5126,
			"count":2,
			"type":"VEC3"
		},
		{
			"bufferView":57,
			"componentType":5126,
			"count":2,
			"type":"VEC3"
		},
		{
			"bufferView":58,
			"componentType":5126,
			"count":154,
			"type":"VEC4"
		},
		{
			"bufferView":59,
			"componentType":5126,
			"count":2,
			"type":"VEC3"
		},
		{
			"bufferView":60,
			"componentType":5126,
			"count":2,
			"type":"VEC3"
		},
		{
			"bufferView":61,
			"componentType":5126,
			"count":154,
			"type":"VEC4"
		},
		{
			"bufferView":62,
			"componentType":5126,
			"count":2,
			"type":"VEC3"
		},
		{
			"bufferView":63,
			"componentType":5126,
			"count":2,
			"type":"VEC3"
		},
		{
			"bufferView":64,
			"componentType":5126,
			"count":154,
			"type":"VEC4"
		},
		{
			"bufferView":65,
			"componentType":5126,
			"count":2,
			"type":"VEC3"
		},
		{
			"bufferView":66,
			"componentType":5126,
			"count":2,
			"type":"VEC3"
		},
		{
			"bufferView":67,
			"componentType":5126,
			"count":154,
			"type":"VEC4"
		},
		{
			"bufferView":68,
			"componentType":5126,
			"count":2,
			"type":"VEC3"
		},
		{
			"bufferView":69,
			"componentType":5126,
			"count":2,
			"type":"VEC3"
		},
		{
			"bufferView":70,
			"componentType":5126,
			"count":154,
			"type":"VEC4"
		},
		{
			"bufferView":71,
			"componentType":5126,
			"count":2,
			"type":"VEC3"
		},
		{
			"bufferView":72,
			"componentType":5126,
			"count":2,
			"type":"VEC3"
		},
		{
			"bufferView":73,
			"componentType":5126,
			"count":154,
			"type":"VEC4"
		},
		{
			"bufferView":74,
			"componentType":5126,
			"count":2,
			"type":"VEC3"
		},
		{
			"bufferView":75,
			"componentType":5126,
			"count":2,
			"type":"VEC3"
		},
		{
			"bufferView":76,
			"componentType":5126,
			"count":2,
			"type":"VEC4"
		},
		{
			"bufferView":77,
			"componentType":5126,
			"count":2,
			"type":"VEC3"
		},
		{
			"bufferView":78,
			"componentType":5126,
			"count":2,
			"type":"VEC3"
		},
		{
			"bufferView":79,
			"componentType":5126,
			"count":154,
			"type":"VEC4"
		},
		{
			"bufferView":80,
			"componentType":5126,
			"count":2,
			"type":"VEC3"
		},
		{
			"bufferView":81,
			"componentType":5126,
			"count":2,
			"type":"VEC3"
		},
		{
			"bufferView":82,
			"componentType":5126,
			"count":154,
			"type":"VEC4"
		},
		{
			"bufferView":83,
			"componentType":5126,
			"count":2,
			"type":"VEC3"
		},
		{
			"bufferView":84,
			"componentType":5126,
			"count":2,
			"type":"VEC3"
		},
		{
			"bufferView":85,
			"componentType":5126,
			"count":154,
			"type":"VEC4"
		},
		{
			"bufferView":86,
			"componentType":5126,
			"count":2,
			"type":"VEC3"
		},
		{
			"bufferView":87,
			"componentType":5126,
			"count":2,
			"type":"VEC3"
		},
		{
			"bufferView":88,
			"componentType":5126,
			"count":154,
			"type":"VEC4"
		},
		{
			"bufferView":89,
			"componentType":5126,
			"count":2,
			"type":"VEC3"
		},
		{
			"bufferView":90,
			"componentType":5126,
			"count":2,
			"type":"VEC3"
		},
		{
			"bufferView":91,
			"componentType":5126,
			"count":2,
			"type":"VEC4"
		},
		{
			"bufferView":92,
			"componentType":5126,
			"count":2,
			"type":"VEC3"
		},
		{
			"bufferView":93,
			"componentType":5126,
			"count":2,
			"type":"VEC3"
		},
		{
			"bufferView":94,
			"componentType":5126,
			"count":154,
			"type":"VEC4"
		},
		{
			"bufferView":95,
			"componentType":5126,
			"count":2,
			"type":"VEC3"
		},
		{
			"bufferView":96,
			"componentType":5126,
			"count":2,
			"type":"VEC3"
		},
		{
			"bufferView":97,
			"componentType":5126,
			"count":154,
			"type":"VEC4"
		},
		{
			"bufferView":98,
			"componentType":5126,
			"count":2,
			"type":"VEC3"
		},
		{
			"bufferView":99,
			"componentType":5126,
			"count":2,
			"type":"VEC3"
		},
		{
			"bufferView":100,
			"componentType":5126,
			"count":154,
			"type":"VEC4"
		},
		{
			"bufferView":101,
			"componentType":5126,
			"count":2,
			"type":"VEC3"
		},
		{
			"bufferView":102,
			"componentType":5126,
			"count":2,
			"type":"VEC3"
		},
		{
			"bufferView":103,
			"componentType":5126,
			"count":154,
			"type":"VEC4"
		},
		{
			"bufferView":104,
			"componentType":5126,
			"count":2,
			"type":"VEC3"
		},
		{
			"bufferView":105,
			"componentType":5126,
			"count":2,
			"type":"VEC3"
		},
		{
			"bufferView":106,
			"componentType":5126,
			"count":2,
			"type":"VEC4"
		},
		{
			"bufferView":107,
			"componentType":5126,
			"count":2,
			"type":"VEC3"
		}
	],
	"bufferViews":[
		{
			"buffer":0,
			"byteLength":21528,
			"byteOffset":0,
			"target":34962
		},
		{
			"buffer":0,
			"byteLength":21528,
			"byteOffset":21528,
			"target":34962
		},
		{
			"buffer":0,
			"byteLength":14352,
			"byteOffset":43056,
			"target":34962
		},
		{
			"buffer":0,
			"byteLength":7176,
			"byteOffset":57408,
			"target":34962
		},
		{
			"buffer":0,
			"byteLength":28704,
			"byteOffset":64584,
			"target":34962
		},
		{
			"buffer":0,
			"byteLength":18732,
			"byteOffset":93288,
			"target":34963
		},
		{
			"buffer":0,
			"byteLength":2112,
			"byteOffset":112020
		},
		{
			"buffer":0,
			"byteLength":616,
			"byteOffset":114132
		},
		{
			"buffer":0,
			"byteLength":1848,
			"byteOffset":114748
		},
		{
			"buffer":0,
			"byteLength":2464,
			"byteOffset":116596
		},
		{
			"buffer":0,
			"byteLength":8,
			"byteOffset":119060
		},
		{
			"buffer":0,
			"byteLength":24,
			"byteOffset":119068
		},
		{
			"buffer":0,
			"byteLength":24,
			"byteOffset":119092
		},
		{
			"buffer":0,
			"byteLength":2464,
			"byteOffset":119116
		},
		{
			"buffer":0,
			"byteLength":24,
			"byteOffset":121580
		},
		{
			"buffer":0,
			"byteLength":24,
			"byteOffset":121604
		},
		{
			"buffer":0,
			"byteLength":2464,
			"byteOffset":121628
		},
		{
			"buffer":0,
			"byteLength":24,
			"byteOffset":124092
		},
		{
			"buffer":0,
			"byteLength":24,
			"byteOffset":124116
		},
		{
			"buffer":0,
			"byteLength":2464,
			"byteOffset":124140
		},
		{
			"buffer":0,
			"byteLength":24,
			"byteOffset":126604
		},
		{
			"buffer":0,
			"byteLength":24,
			"byteOffset":126628
		},
		{
			"buffer":0,
			"byteLength":2464,
			"byteOffset":126652
		},
		{
			"buffer":0,
			"byteLength":24,
			"byteOffset":129116
		},
		{
			"buffer":0,
			"byteLength":24,
			"byteOffset":129140
		},
		{
			"buffer":0,
			"byteLength":2464,
			"byteOffset":129164
		},
		{
			"buffer":0,
			"byteLength":24,
			"byteOffset":131628
		},
		{
			"buffer":0,
			"byteLength":24,
			"byteOffset":131652
		},
		{
			"buffer":0,
			"byteLength":32,
			"byteOffset":131676
		},
		{
			"buffer":0,
			"byteLength":24,
			"byteOffset":131708
		},
		{
			"buffer":0,
			"byteLength":24,
			"byteOffset":131732
		},
		{
			"buffer":0,
			"byteLength":2464,
			"byteOffset":131756
		},
		{
			"buffer":0,
			"byteLength":24,
			"byteOffset":134220
		},
		{
			"buffer":0,
			"byteLength":24,
			"byteOffset":134244
		},
		{
			"buffer":0,
			"byteLength":2464,
			"byteOffset":134268
		},
		{
			"buffer":0,
			"byteLength":24,
			"byteOffset":136732
		},
		{
			"buffer":0,
			"byteLength":24,
			"byteOffset":136756
		},
		{
			"buffer":0,
			"byteLength":2464,
			"byteOffset":136780
		},
		{
			"buffer":0,
			"byteLength":24,
			"byteOffset":139244
		},
		{
			"buffer":0,
			"byteLength":24,
			"byteOffset":139268
		},
		{
			"buffer":0,
			"byteLength":2464,
			"byteOffset":139292
		},
		{
			"buffer":0,
			"byteLength":24,
			"byteOffset":141756
		},
		{
			"buffer":0,
			"byteLength":24,
			"byteOffset":141780
		},
		{
			"buffer":0,
			"byteLength":2464,
			"byteOffset":141804
		},
		{
			"buffer":0,
			"byteLength":24,
			"byteOffset":144268
		},
		{
			"buffer":0,
			"byteLength":24,
			"byteOffset":144292
		},
		{
			"buffer":0,
			"byteLength":2464,
			"byteOffset":144316
		},
		{
			"buffer":0,
			"byteLength":24,
			"byteOffset":146780
		},
		{
			"buffer":0,
			"byteLength":24,
			"byteOffset":146804
		},
		{
			"buffer":0,
			"byteLength":2464,
			"byteOffset":146828
		},
		{
			"buffer":0,
			"byteLength":24,
			"byteOffset":149292
		},
		{
			"buffer":0,
			"byteLength":24,
			"byteOffset":149316
		},
		{
			"buffer":0,
			"byteLength":32,
			"byteOffset":149340
		},
		{
			"buffer":0,
			"byteLength":24,
			"byteOffset":149372
		},
		{
			"buffer":0,
			"byteLength":24,
			"byteOffset":149396
		},
		{
			"buffer":0,
			"byteLength":2464,
			"byteOffset":149420
		},
		{
			"buffer":0,
			"byteLength":24,
			"byteOffset":151884
		},
		{
			"buffer":0,
			"byteLength":24,
			"byteOffset":151908
		},
		{
			"buffer":0,
			"byteLength":2464,
			"byteOffset":151932
		},
		{
			"buffer":0,
			"byteLength":24,
			"byteOffset":154396
		},
		{
			"buffer":0,
			"byteLength":24,
			"byteOffset":154420
		},
		{
			"buffer":0,
			"byteLength":2464,
			"byteOffset":154444
		},
		{
			"buffer":0,
			"byteLength":24,
			"byteOffset":156908
		},
		{
			"buffer":0,
			"byteLength":24,
			"byteOffset":156932
		},
		{
			"buffer":0,
			"byteLength":2464,
			"byteOffset":156956
		},
		{
			"buffer":0,
			"byteLength":24,
			"byteOffset":159420
		},
		{
			"buffer":0,
			"byteLength":24,
			"byteOffset":159444
		},
		{
			"buffer":0,
			"byteLength":2464,
			"byteOffset":159468
		},
		{
			"buffer":0,
			"byteLength":24,
			"byteOffset":161932
		},
		{
			"buffer":0,
			"byteLength":24,
			"byteOffset":161956
		},
		{
			"buffer":0,
			"byteLength":2464,
			"byteOffset":161980
		},
		{
			"buffer":0,
			"byteLength":24,
			"byteOffset":164444
		},
		{
			"buffer":0,
			"byteLength":24,
			"byteOffset":164468
		},
		{
			"buffer":0,
			"byteLength":2464,
			"byteOffset":164492
		},
		{
			"buffer":0,
			"byteLength":24,
			"byteOffset":166956
		},
		{
			"buffer":0,
			"byteLength":24,
			"byteOffset":166980
		},
		{
			"buffer":0,
			"byteLength":32,
			"byteOffset":167004
		},
		{
			"buffer":0,
			"byteLength":24,
			"byteOffset":167036
		},
		{
			"buffer":0,
			"byteLength":24,
			"byteOffset":167060
		},
		{
			"buffer":0,
			"byteLength":2464,
			"byteOffset":167084
		},
		{
			"buffer":0,
			"byteLength":24,
			"byteOffset":169548
		},
		{
			"buffer":0,
			"byteLength":24,
			"byteOffset":169572
		},
		{
			"buffer":0,
			"byteLength":2464,
			"byteOffset":169596
		},
		{
			"buffer":0,
			"byteLength":24,
			"byteOffset":172060
		},
		{
			"buffer":0,
			"byteLength":24,
			"byteOffset":172084
		},
		{
			"buffer":0,
			"byteLength":2464,
			"byteOffset":172108
		},
		{
			"buffer":0,
			"byteLength":24,
			"byteOffset":174572
		},
		{
			"buffer":0,
			"byteLength":24,
			"byteOffset":174596
		},
		{
			"buffer":0,
			"byteLength":2464,
			"byteOffset":174620
		},
		{
			"buffer":0,
			"byteLength":24,
			"byteOffset":177084
		},
		{
			"buffer":0,
			"byteLength":24,
			"byteOffset":177108
		},
		{
			"buffer":0,
			"byteLength":32,
			"byteOffset":177132
		},
		{
			"buffer":0,
			"byteLength":24,
			"byteOffset":177164
		},
		{
			"buffer":0,
			"byteLength":24,
			"byteOffset":177188
		},
		{
			"buffer":0,
			"byteLength":2464,
			"byteOffset":177212
		},
		{
			"buffer":0,
			"byteLength":24,
			"byteOffset":179676
		},
		{
			"buffer":0,
			"byteLength":24,
			"byteOffset":179700
		},
		{
			"buffer":0,
			"byteLength":2464,
			"byteOffset":179724
		},
		{
			"buffer":0,
			"byteLength":24,
			"byteOffset":182188
		},
		{
			"buffer":0,
			"byteLength":24,
			"byteOffset":182212
		},
		{
			"buffer":0,
			"byteLength":2464,
			"byteOffset":182236
		},
		{
			"buffer":0,
			"byteLength":24,
			"byteOffset":184700
		},
		{
			"buffer":0,
			"byteLength":24,
			"byteOffset":184724
		},
		{
			"buffer":0,
			"byteLength":2464,
			"byteOffset":184748
		},
		{
			"buffer":0,
			"byteLength":24,
			"byteOffset":187212
		},
		{
			"buffer":0,
			"byteLength":24,
			"byteOffset":187236
		},
		{
			"buffer":0,
			"byteLength":32,
			"byteOffset":187260
		},
		{
			"buffer":0,
			"byteLength":24,
			"byteOffset":187292
		}
	],
	"buffers":[
		{
			"byteLength":187316,
			"uri":"playerIdle.bin"
		}
	]
}
