{
	"asset":{
		"generator":"Khronos glTF Blender I/O v5.0.21",
		"version":"2.0"
	},
	"extensionsUsed":[
		"KHR_materials_specular"
	],
	"scene":0,
	"scenes":[
		{
			"name":"Scene",
			"nodes":[
				26
			]
		}
	],
	"nodes":[
		{
			"name":"mixamorig:HeadTop_End",
			"rotation":[
				0.7071066498756409,
				0,
				0,
				0.70710688829422
			],
			"scale":[
				1,
				0.9999999403953552,
				1.0000001192092896
			],
			"translation":[
				0,
				-17.333648681640625,
				124.43080139160156
			]
		},
		{
			"children":[
				0
			],
			"name":"mixamorig:Head",
			"rotation":[
				-1.518198899930212e-08,
				0,
				0,
				1
			],
			"scale":[
				1,
				0.9999998807907104,
				1
			],
			"translation":[
				0,
				-1.4603954553604126,
				10.48358154296875
			]
		},
		{
			"children":[
				1
			],
			"name":"mixamorig:Neck",
			"rotation":[
				-0.6604800820350647,
				0,
				0,
				0.7508435845375061
			],
			"scale":[
				1,
				0.9999999403953552,
				0.9999999403953552
			],
			"translation":[
				0,
				16.49493408203125,
				4.76837158203125e-07
			]
		},
		{
			"name":"mixamorig:LeftHand",
			"rotation":[
				1.1641521080463235e-10,
				7.275957614183426e-10,
				-1.280568540096283e-09,
				1
			],
			"scale":[
				1,
				0.9999999403953552,
				1
			],
			"translation":[
				-2.6226043701171875e-06,
				42.062496185302734,
				-1.6868114471435547e-05
			]
		},
		{
			"children":[
				3
			],
			"name":"mixamorig:LeftForeArm",
			"rotation":[
				-0.03537910059094429,
				-0.0002442740660626441,
				0.006900820415467024,
				0.9993501305580139
			],
			"scale":[
				0.9999998807907104,
				0.9999999403953552,
				1
			],
			"translation":[
				3.5762786865234375e-07,
				45.12580871582031,
				-6.616115570068359e-06
			]
		},
		{
			"children":[
				4
			],
			"name":"mixamorig:LeftArm",
			"rotation":[
				-0.05036405846476555,
				-0.0008467244915664196,
				0.016788600012660027,
				0.9985894560813904
			],
			"scale":[
				0.9999999403953552,
				0.9999998211860657,
				0.9999998807907104
			],
			"translation":[
				7.152557373046875e-07,
				35.42158889770508,
				7.68899917602539e-06
			]
		},
		{
			"children":[
				5
			],
			"name":"mixamorig:LeftShoulder",
			"rotation":[
				0.5258997678756714,
				0.4735005795955658,
				-0.5364885926246643,
				0.459789901971817
			],
			"scale":[
				1,
				1,
				0.9999999403953552
			],
			"translation":[
				18.264684677124023,
				14.700643539428711,
				-0.37044572830200195
			]
		},
		{
			"name":"mixamorig:RightHand",
			"rotation":[
				6.548361852765083e-09,
				1.088301360141486e-08,
				-3.4924593772522883e-10,
				1
			],
			"scale":[
				1.0000001192092896,
				1,
				1
			],
			"translation":[
				-3.1441450119018555e-06,
				42.05713653564453,
				1.0192394256591797e-05
			]
		},
		{
			"children":[
				7
			],
			"name":"mixamorig:RightForeArm",
			"rotation":[
				-0.03605785220861435,
				5.665123535436578e-05,
				-0.0015716716879978776,
				0.9993484616279602
			],
			"scale":[
				0.9999998807907104,
				0.9999999403953552,
				0.9999999403953552
			],
			"translation":[
				9.5367431640625e-07,
				45.12214660644531,
				-2.968311309814453e-05
			]
		},
		{
			"children":[
				8
			],
			"name":"mixamorig:RightArm",
			"rotation":[
				-0.052243009209632874,
				9.978884918382391e-05,
				-0.0019057663157582283,
				0.998632550239563
			],
			"scale":[
				1.0000001192092896,
				0.9999999403953552,
				1.0000001192092896
			],
			"translation":[
				-3.2782554626464844e-07,
				35.421592712402344,
				-1.0371208190917969e-05
			]
		},
		{
			"children":[
				9
			],
			"name":"mixamorig:RightShoulder",
			"rotation":[
				0.5303770303726196,
				-0.4691983461380005,
				0.5329993367195129,
				0.4631035327911377
			],
			"scale":[
				0.9999998807907104,
				1,
				0.9999998807907104
			],
			"translation":[
				-18.264684677124023,
				14.66529369354248,
				-0.09552717208862305
			]
		},
		{
			"children":[
				2,
				6,
				10
			],
			"name":"mixamorig:Spine2",
			"scale":[
				1,
				0.9999999403953552,
				0.9999999403953552
			],
			"translation":[
				0,
				14.662147521972656,
				-2.86102294921875e-06
			]
		},
		{
			"children":[
				11
			],
			"name":"mixamorig:Spine1",
			"rotation":[
				-2.980232594040899e-08,
				0,
				0,
				1
			],
			"scale":[
				1,
				0.9999999403953552,
				0.9999999403953552
			],
			"translation":[
				0,
				12.829399108886719,
				7.152557373046875e-07
			]
		},
		{
			"children":[
				12
			],
			"name":"mixamorig:Spine",
			"rotation":[
				0.6604801416397095,
				0,
				0,
				0.7508435249328613
			],
			"scale":[
				1,
				0.9999999403953552,
				0.9999999403953552
			],
			"translation":[
				0,
				1.4024219512939453,
				10.906837463378906
			]
		},
		{
			"name":"mixamorig:LeftToe_End",
			"rotation":[
				-6.926712092791831e-09,
				-3.550667315721512e-09,
				2.898741513490677e-08,
				1
			],
			"scale":[
				1,
				0.9999999403953552,
				1
			],
			"translation":[
				-1.385807991027832e-06,
				13.9861478805542,
				-9.685754776000977e-08
			]
		},
		{
			"children":[
				14
			],
			"name":"mixamorig:LeftToeBase",
			"rotation":[
				-0.05698902904987335,
				-0.001990712247788906,
				0.03485282137989998,
				0.9977642893791199
			],
			"scale":[
				0.9999998211860657,
				1,
				1
			],
			"translation":[
				5.21540641784668e-07,
				17.05361557006836,
				6.109476089477539e-07
			]
		},
		{
			"children":[
				15
			],
			"name":"mixamorig:LeftFoot",
			"rotation":[
				0.7300658226013184,
				-0.19964417815208435,
				0.23972086608409882,
				0.6080132126808167
			],
			"scale":[
				1.0000001192092896,
				1.0000001192092896,
				1
			],
			"translation":[
				-1.271720975637436e-06,
				35.743045806884766,
				1.8700957298278809e-06
			]
		},
		{
			"children":[
				16
			],
			"name":"mixamorig:LeftLeg",
			"rotation":[
				-0.06445956975221634,
				0.003988189622759819,
				-0.06162435561418533,
				0.9960078001022339
			],
			"scale":[
				0.9999998807907104,
				0.9999998807907104,
				0.9999999403953552
			],
			"translation":[
				2.9401853680610657e-06,
				42.34907531738281,
				-8.238949931183015e-07
			]
		},
		{
			"children":[
				17
			],
			"name":"mixamorig:LeftUpLeg",
			"rotation":[
				0.03041987493634224,
				0.7009931206703186,
				-0.71184903383255,
				0.030890977010130882
			],
			"scale":[
				1,
				1.000000238418579,
				1
			],
			"translation":[
				22.0686092376709,
				7.364545822143555,
				-6.0588603019714355
			]
		},
		{
			"name":"mixamorig:RightToe_End",
			"rotation":[
				1.0302754205326892e-08,
				-2.0721925508837558e-08,
				-2.3079333999476148e-08,
				1
			],
			"scale":[
				1.0000001192092896,
				1.0000001192092896,
				1.0000001192092896
			],
			"translation":[
				-1.385807991027832e-06,
				14.280529022216797,
				-8.940696716308594e-08
			]
		},
		{
			"children":[
				19
			],
			"name":"mixamorig:RightToeBase",
			"rotation":[
				-0.05657524988055229,
				0.0013243115972727537,
				-0.023361220955848694,
				0.9981240630149841
			],
			"scale":[
				0.9999998807907104,
				1,
				1
			],
			"translation":[
				5.9157609939575195e-06,
				16.939199447631836,
				0
			]
		},
		{
			"children":[
				20
			],
			"name":"mixamorig:RightFoot",
			"rotation":[
				0.7317318916320801,
				0.20045211911201477,
				-0.2426060140132904,
				0.6045905947685242
			],
			"scale":[
				0.9999999403953552,
				0.9999998211860657,
				0.9999999403953552
			],
			"translation":[
				2.0186416804790497e-06,
				35.782772064208984,
				1.4454126358032227e-06
			]
		},
		{
			"children":[
				21
			],
			"name":"mixamorig:RightLeg",
			"rotation":[
				-0.06513458490371704,
				-0.004029109608381987,
				0.06160815432667732,
				0.9959647059440613
			],
			"scale":[
				0.9999998807907104,
				0.9999998211860657,
				1
			],
			"translation":[
				2.6263296604156494e-07,
				42.34524917602539,
				3.1122687005336047e-07
			]
		},
		{
			"children":[
				22
			],
			"name":"mixamorig:RightUpLeg",
			"rotation":[
				0.03054618649184704,
				-0.7038397789001465,
				0.7090343236923218,
				0.03077162802219391
			],
			"scale":[
				0.9999999403953552,
				1,
				0.9999998807907104
			],
			"translation":[
				-22.0686092376709,
				6.7940592765808105,
				-6.0588603019714355
			]
		},
		{
			"children":[
				13,
				18,
				23
			],
			"name":"mixamorig:Hips",
			"rotation":[
				-0.7071067690849304,
				0,
				0,
				0.7071067690849304
			],
			"translation":[
				0,
				86.53807067871094,
				0.3850058913230896
			]
		},
		{
			"mesh":0,
			"name":"Character",
			"skin":0
		},
		{
			"children":[
				25,
				24
			],
			"name":"Armature",
			"rotation":[
				0.7071068286895752,
				0,
				0,
				0.7071068286895752
			],
			"scale":[
				0.009999999776482582,
				0.009999999776482582,
				0.009999999776482582
			]
		}
	],
	"animations":[
		{
			"channels":[
				{
					"sampler":0,
					"target":{
						"node":24,
						"path":"translation"
					}
				},
				{
					"sampler":1,
					"target":{
						"node":24,
						"path":"rotation"
					}
				},
				{
					"sampler":2,
					"target":{
						"node":24,
						"path":"scale"
					}
				},
				{
					"sampler":3,
					"target":{
						"node":13,
						"path":"translation"
					}
				},
				{
					"sampler":4,
					"target":{
						"node":13,
						"path":"rotation"
					}
				},
				{
					"sampler":5,
					"target":{
						"node":13,
						"path":"scale"
					}
				},
				{
					"sampler":6,
					"target":{
						"node":12,
						"path":"translation"
					}
				},
				{
					"sampler":7,
					"target":{
						"node":12,
						"path":"rotation"
					}
				},
				{
					"sampler":8,
					"target":{
						"node":12,
						"path":"scale"
					}
				},
				{
					"sampler":9,
					"target":{
						"node":11,
						"path":"translation"
					}
				},
				{
					"sampler":10,
					"target":{
						"node":11,
						"path":"rotation"
					}
				},
				{
					"sampler":11,
					"target":{
						"node":11,
						"path":"scale"
					}
				},
				{
					"sampler":12,
					"target":{
						"node":2,
						"path":"translation"
					}
				},
				{
					"sampler":13,
					"target":{
						"node":2,
						"path":"rotation"
					}
				},
				{
					"sampler":14,
					"target":{
						"node":2,
						"path":"scale"
					}
				},
				{
					"sampler":15,
					"target":{
						"node":1,
						"path":"translation"
					}
				},
				{
					"sampler":16,
					"target":{
						"node":1,
						"path":"rotation"
					}
				},
				{
					"sampler":17,
					"target":{
						"node":1,
						"path":"scale"
					}
				},
				{
					"sampler":18,
					"target":{
						"node":0,
						"path":"translation"
					}
				},
				{
					"sampler":19,
					"target":{
						"node":0,
						"path":"rotation"
					}
				},
				{
					"sampler":20,
					"target":{
						"node":0,
						"path":"scale"
					}
				},
				{
					"sampler":21,
					"target":{
						"node":6,
						"path":"translation"
					}
				},
				{
					"sampler":22,
					"target":{
						"node":6,
						"path":"rotation"
					}
				},
				{
					"sampler":23,
					"target":{
						"node":6,
						"path":"scale"
					}
				},
				{
					"sampler":24,
					"target":{
						"node":5,
						"path":"translation"
					}
				},
				{
					"sampler":25,
					"target":{
						"node":5,
						"path":"rotation"
					}
				},
				{
					"sampler":26,
					"target":{
						"node":5,
						"path":"scale"
					}
				},
				{
					"sampler":27,
					"target":{
						"node":4,
						"path":"translation"
					}
				},
				{
					"sampler":28,
					"target":{
						"node":4,
						"path":"rotation"
					}
				},
				{
					"sampler":29,
					"target":{
						"node":4,
						"path":"scale"
					}
				},
				{
					"sampler":30,
					"target":{
						"node":3,
						"path":"translation"
					}
				},
				{
					"sampler":31,
					"target":{
						"node":3,
						"path":"rotation"
					}
				},
				{
					"sampler":32,
					"target":{
						"node":3,
						"path":"scale"
					}
				},
				{
					"sampler":33,
					"target":{
						"node":10,
						"path":"translation"
					}
				},
				{
					"sampler":34,
					"target":{
						"node":10,
						"path":"rotation"
					}
				},
				{
					"sampler":35,
					"target":{
						"node":10,
						"path":"scale"
					}
				},
				{
					"sampler":36,
					"target":{
						"node":9,
						"path":"translation"
					}
				},
				{
					"sampler":37,
					"target":{
						"node":9,
						"path":"rotation"
					}
				},
				{
					"sampler":38,
					"target":{
						"node":9,
						"path":"scale"
					}
				},
				{
					"sampler":39,
					"target":{
						"node":8,
						"path":"translation"
					}
				},
				{
					"sampler":40,
					"target":{
						"node":8,
						"path":"rotation"
					}
				},
				{
					"sampler":41,
					"target":{
						"node":8,
						"path":"scale"
					}
				},
				{
					"sampler":42,
					"target":{
						"node":7,
						"path":"translation"
					}
				},
				{
					"sampler":43,
					"target":{
						"node":7,
						"path":"rotation"
					}
				},
				{
					"sampler":44,
					"target":{
						"node":7,
						"path":"scale"
					}
				},
				{
					"sampler":45,
					"target":{
						"node":18,
						"path":"translation"
					}
				},
				{
					"sampler":46,
					"target":{
						"node":18,
						"path":"rotation"
					}
				},
				{
					"sampler":47,
					"target":{
						"node":18,
						"path":"scale"
					}
				},
				{
					"sampler":48,
					"target":{
						"node":17,
						"path":"translation"
					}
				},
				{
					"sampler":49,
					"target":{
						"node":17,
						"path":"rotation"
					}
				},
				{
					"sampler":50,
					"target":{
						"node":17,
						"path":"scale"
					}
				},
				{
					"sampler":51,
					"target":{
						"node":16,
						"path":"translation"
					}
				},
				{
					"sampler":52,
					"target":{
						"node":16,
						"path":"rotation"
					}
				},
				{
					"sampler":53,
					"target":{
						"node":16,
						"path":"scale"
					}
				},
				{
					"sampler":54,
					"target":{
						"node":15,
						"path":"translation"
					}
				},
				{
					"sampler":55,
					"target":{
						"node":15,
						"path":"rotation"
					}
				},
				{
					"sampler":56,
					"target":{
						"node":15,
						"path":"scale"
					}
				},
				{
					"sampler":57,
					"target":{
						"node":14,
						"path":"translation"
					}
				},
				{
					"sampler":58,
					"target":{
						"node":14,
						"path":"rotation"
					}
				},
				{
					"sampler":59,
					"target":{
						"node":14,
						"path":"scale"
					}
				},
				{
					"sampler":60,
					"target":{
						"node":23,
						"path":"translation"
					}
				},
				{
					"sampler":61,
					"target":{
						"node":23,
						"path":"rotation"
					}
				},
				{
					"sampler":62,
					"target":{
						"node":23,
						"path":"scale"
					}
				},
				{
					"sampler":63,
					"target":{
						"node":22,
						"path":"translation"
					}
				},
				{
					"sampler":64,
					"target":{
						"node":22,
						"path":"rotation"
					}
				},
				{
					"sampler":65,
					"target":{
						"node":22,
						"path":"scale"
					}
				},
				{
					"sampler":66,
					"target":{
						"node":21,
						"path":"translation"
					}
				},
				{
					"sampler":67,
					"target":{
						"node":21,
						"path":"rotation"
					}
				},
				{
					"sampler":68,
					"target":{
						"node":21,
						"path":"scale"
					}
				},
				{
					"sampler":69,
					"target":{
						"node":20,
						"path":"translation"
					}
				},
				{
					"sampler":70,
					"target":{
						"node":20,
						"path":"rotation"
					}
				},
				{
					"sampler":71,
					"target":{
						"node":20,
						"path":"scale"
					}
				},
				{
					"sampler":72,
					"target":{
						"node":19,
						"path":"translation"
					}
				},
				{
					"sampler":73,
					"target":{
						"node":19,
						"path":"rotation"
					}
				},
				{
					"sampler":74,
					"target":{
						"node":19,
						"path":"scale"
					}
				}
			],
			"name":"mixamo.com",
			"samplers":[
				{
					"input":7,
					"interpolation":"LINEAR",
					"output":8
				},
				{
					"input":7,
					"interpolation":"LINEAR",
					"output":9
				},
				{
					"input":10,
					"interpolation":"STEP",
					"output":11
				},
				{
					"input":10,
					"interpolation":"LINEAR",
					"output":12
				},
				{
					"input":7,
					"interpolation":"LINEAR",
					"output":13
				},
				{
					"input":10,
					"interpolation":"STEP",
					"output":14
				},
				{
					"input":10,
					"interpolation":"LINEAR",
					"output":15
				},
				{
					"input":7,
					"interpolation":"LINEAR",
					"output":16
				},
				{
					"input":10,
					"interpolation":"STEP",
					"output":17
				},
				{
					"input":10,
					"interpolation":"LINEAR",
					"output":18
				},
				{
					"input":7,
					"interpolation":"LINEAR",
					"output":19
				},
				{
					"input":10,
					"interpolation":"STEP",
					"output":20
				},
				{
					"input":10,
					"interpolation":"LINEAR",
					"output":21
				},
				{
					"input":7,
					"interpolation":"LINEAR",
					"output":22
				},
				{
					"input":10,
					"interpolation":"LINEAR",
					"output":23
				},
				{
					"input":10,
					"interpolation":"LINEAR",
					"output":24
				},
				{
					"input":7,
					"interpolation":"LINEAR",
					"output":25
				},
				{
					"input":10,
					"interpolation":"LINEAR",
					"output":26
				},
				{
					"input":7,
					"interpolation":"LINEAR",
					"output":27
				},
				{
					"input":10,
					"interpolation":"STEP",
					"output":28
				},
				{
					"input":10,
					"interpolation":"STEP",
					"output":29
				},
				{
					"input":10,
					"interpolation":"LINEAR",
					"output":30
				},
				{
					"input":7,
					"interpolation":"LINEAR",
					"output":31
				},
				{
					"input":10,
					"interpolation":"LINEAR",
					"output":32
				},
				{
					"input":10,
					"interpolation":"LINEAR",
					"output":33
				},
				{
					"input":7,
					"interpolation":"LINEAR",
					"output":34
				},
				{
					"input":10,
					"interpolation":"STEP",
					"output":35
				},
				{
					"input":10,
					"interpolation":"LINEAR",
					"output":36
				},
				{
					"input":7,
					"interpolation":"LINEAR",
					"output":37
				},
				{
					"input":10,
					"interpolation":"LINEAR",
					"output":38
				},
				{
					"input":10,
					"interpolation":"STEP",
					"output":39
				},
				{
					"input":10,
					"interpolation":"STEP",
					"output":40
				},
				{
					"input":10,
					"interpolation":"STEP",
					"output":41
				},
				{
					"input":10,
					"interpolation":"LINEAR",
					"output":42
				},
				{
					"input":7,
					"interpolation":"LINEAR",
					"output":43
				},
				{
					"input":10,
					"interpolation":"LINEAR",
					"output":44
				},
				{
					"input":10,
					"interpolation":"LINEAR",
					"output":45
				},
				{
					"input":7,
					"interpolation":"LINEAR",
					"output":46
				},
				{
					"input":10,
					"interpolation":"LINEAR",
					"output":47
				},
				{
					"input":10,
					"interpolation":"LINEAR",
					"output":48
				},
				{
					"input":7,
					"interpolation":"LINEAR",
					"output":49
				},
				{
					"input":10,
					"interpolation":"LINEAR",
					"output":50
				},
				{
					"input":10,
					"interpolation":"STEP",
					"output":51
				},
				{
					"input":10,
					"interpolation":"STEP",
					"output":52
				},
				{
					"input":10,
					"interpolation":"STEP",
					"output":53
				},
				{
					"input":10,
					"interpolation":"LINEAR",
					"output":54
				},
				{
					"input":7,
					"interpolation":"LINEAR",
					"output":55
				},
				{
					"input":10,
					"interpolation":"STEP",
					"output":56
				},
				{
					"input":10,
					"interpolation":"LINEAR",
					"output":57
				},
				{
					"input":7,
					"interpolation":"LINEAR",
					"output":58
				},
				{
					"input":10,
					"interpolation":"STEP",
					"output":59
				},
				{
					"input":10,
					"interpolation":"LINEAR",
					"output":60
				},
				{
					"input":7,
					"interpolation":"LINEAR",
					"output":61
				},
				{
					"input":10,
					"interpolation":"STEP",
					"output":62
				},
				{
					"input":10,
					"interpolation":"LINEAR",
					"output":63
				},
				{
					"input":7,
					"interpolation":"LINEAR",
					"output":64
				},
				{
					"input":10,
					"interpolation":"LINEAR",
					"output":65
				},
				{
					"input":10,
					"interpolation":"STEP",
					"output":66
				},
				{
					"input":10,
					"interpolation":"STEP",
					"output":67
				},
				{
					"input":10,
					"interpolation":"STEP",
					"output":68
				},
				{
					"input":10,
					"interpolation":"LINEAR",
					"output":69
				},
				{
					"input":7,
					"interpolation":"LINEAR",
					"output":70
				},
				{
					"input":10,
					"interpolation":"LINEAR",
					"output":71
				},
				{
					"input":10,
					"interpolation":"LINEAR",
					"output":72
				},
				{
					"input":7,
					"interpolation":"LINEAR",
					"output":73
				},
				{
					"input":10,
					"interpolation":"STEP",
					"output":74
				},
				{
					"input":10,
					"interpolation":"LINEAR",
					"output":75
				},
				{
					"input":7,
					"interpolation":"LINEAR",
					"output":76
				},
				{
					"input":10,
					"interpolation":"STEP",
					"output":77
				},
				{
					"input":10,
					"interpolation":"LINEAR",
					"output":78
				},
				{
					"input":7,
					"interpolation":"LINEAR",
					"output":79
				},
				{
					"input":10,
					"interpolation":"STEP",
					"output":80
				},
				{
					"input":10,
					"interpolation":"STEP",
					"output":81
				},
				{
					"input":10,
					"interpolation":"STEP",
					"output":82
				},
				{
					"input":10,
					"interpolation":"STEP",
					"output":83
				}
			]
		}
	],
	"materials":[
		{
			"doubleSided":true,
			"extensions":{
				"KHR_materials_specular":{
					"specularColorFactor":[
						0.800000011920929,
						0.800000011920929,
						0.800000011920929
					]
				}
			},
			"name":"Atlas",
			"pbrMetallicRoughness":{
				"metallicFactor":0,
				"roughnessFactor":0.5
			}
		}
	],
	"meshes":[
		{
			"name":"Cube.000",
			"primitives":[
				{
					"attributes":{
						"POSITION":0,
						"NORMAL":1,
						"TEXCOORD_0":2,
						"JOINTS_0":3,
						"WEIGHTS_0":4
					},
					"indices":5,
					"material":0
				}
			]
		}
	],
	"skins":[
		{
			"inverseBindMatrices":6,
			"joints":[
				24,
				13,
				12,
				11,
				2,
				1,
				0,
				6,
				5,
				4,
				3,
				10,
				9,
				8,
				7,
				18,
				17,
				16,
				15,
				14,
				23,
				22,
				21,
				20,
				19
			],
			"name":"Armature"
		}
	],
	"accessors":[
		{
			"bufferView":0,
			"componentType":5126,
			"count":1794,
			"max":[
				1.4459128379821777,
				0.5706996917724609,
				2.8388023376464844
			],
			"min":[
				-1.4459128379821777,
				-0.5706993937492371,
				0.00260995258577168
			],
			"type":"VEC3"
		},
		{
			"bufferView":1,
			"componentType":5126,
			"count":1794,
			"type":"VEC3"
		},
		{
			"bufferView":2,
			"componentType":5126,
			"count":1794,
			"type":"VEC2"
		},
		{
			"bufferView":3,
			"componentType":5121,
			"count":1794,
			"type":"VEC4"
		},
		{
			"bufferView":4,
			"componentType":5126,
			"count":1794,
			"type":"VEC4"
		},
		{
			"bufferView":5,
			"componentType":5123,
			"count":9366,
			"type":"SCALAR"
		},
		{
			"bufferView":6,
			"componentType":5126,
			"count":25,
			"type":"MAT4"
		},
		{
			"bufferView":7,
			"componentType":5126,
			"count":78,
			"max":[
				2.6
			],
			"min":[
				0.03333333333333333
			],
			"type":"SCALAR"
		},
		{
			"bufferView":8,
			"componentType":5126,
			"count":78,
			"type":"VEC3"
		},
		{
			"bufferView":9,
			"componentType":5126,
			"count":78,
			"type":"VEC4"
		},
		{
			"bufferView":10,
			"componentType":5126,
			"count":2,
			"max":[
				2.6
			],
			"min":[
				0.03333333333333333
			],
			"type":"SCALAR"
		},
		{
			"bufferView":11,
			"componentType":5126,
			"count":2,
			"type":"VEC3"
		},
		{
			"bufferView":12,
			"componentType":5126,
			"count":2,
			"type":"VEC3"
		},
		{
			"bufferView":13,
			"componentType":5126,
			"count":78,
			"type":"VEC4"
		},
		{
			"bufferView":14,
			"componentType":5126,
			"count":2,
			"type":"VEC3"
		},
		{
			"bufferView":15,
			"componentType":5126,
			"count":2,
			"type":"VEC3"
		},
		{
			"bufferView":16,
			"componentType":5126,
			"count":78,
			"type":"VEC4"
		},
		{
			"bufferView":17,
			"componentType":5126,
			"count":2,
			"type":"VEC3"
		},
		{
			"bufferView":18,
			"componentType":5126,
			"count":2,
			"type":"VEC3"
		},
		{
			"bufferView":19,
			"componentType":5126,
			"count":78,
			"type":"VEC4"
		},
		{
			"bufferView":20,
			"componentType":5126,
			"count":2,
			"type":"VEC3"
		},
		{
			"bufferView":21,
			"componentType":5126,
			"count":2,
			"type":"VEC3"
		},
		{
			"bufferView":22,
			"componentType":5126,
			"count":78,
			"type":"VEC4"
		},
		{
			"bufferView":23,
			"componentType":5126,
			"count":2,
			"type":"VEC3"
		},
		{
			"bufferView":24,
			"componentType":5126,
			"count":2,
			"type":"VEC3"
		},
		{
			"bufferView":25,
			"componentType":5126,
			"count":78,
			"type":"VEC4"
		},
		{
			"bufferView":26,
			"componentType":5126,
			"count":2,
			"type":"VEC3"
		},
		{
			"bufferView":27,
			"componentType":5126,
			"count":78,
			"type":"VEC3"
		},
		{
			"bufferView":28,
			"componentType":5126,
			"count":2,
			"type":"VEC4"
		},
		{
			"bufferView":29,
			"componentType":5126,
			"count":2,
			"type":"VEC3"
		},
		{
			"bufferView":30,
			"componentType":5126,
			"count":2,
			"type":"VEC3"
		},
		{
			"bufferView":31,
			"componentType":5126,
			"count":78,
			"type":"VEC4"
		},
		{
			"bufferView":32,
			"componentType":5126,
			"count":2,
			"type":"VEC3"
		},
		{
			"bufferView":33,
			"componentType":5126,
			"count":2,
			"type":"VEC3"
		},
		{
			"bufferView":34,
			"componentType":5126,
			"count":78,
			"type":"VEC4"
		},
		{
			"bufferView":35,
			"componentType":5126,
			"count":2,
			"type":"VEC3"
		},
		{
			"bufferView":36,
			"componentType":5126,
			"count":2,
			"type":"VEC3"
		},
		{
			"bufferView":37,
			"componentType":5126,
			"count":78,
			"type":"VEC4"
		},
		{
			"bufferView":38,
			"componentType":5126,
			"count":2,
			"type":"VEC3"
		},
		{
			"bufferView":39,
			"componentType":5126,
			"count":2,
			"type":"VEC3"
		},
		{
			"bufferView":40,
			"componentType":5126,
			"count":2,
			"type":"VEC4"
		},
		{
			"bufferView":41,
			"componentType":5126,
			"count":2,
			"type":"VEC3"
		},
		{
			"bufferView":42,
			"componentType":5126,
			"count":2,
			"type":"VEC3"
		},
		{
			"bufferView":43,
			"componentType":5126,
			"count":78,
			"type":"VEC4"
		},
		{
			"bufferView":44,
			"componentType":5126,
			"count":2,
			"type":"VEC3"
		},
		{
			"bufferView":45,
			"componentType":5126,
			"count":2,
			"type":"VEC3"
		},
		{
			"bufferView":46,
			"componentType":5126,
			"count":78,
			"type":"VEC4"
		},
		{
			"bufferView":47,
			"componentType":5126,
			"count":2,
			"type":"VEC3"
		},
		{
			"bufferView":48,
			"componentType":5126,
			"count":2,
			"type":"VEC3"
		},
		{
			"bufferView":49,
			"componentType":5126,
			"count":78,
			"type":"VEC4"
		},
		{
			"bufferView":50,
			"componentType":5126,
			"count":2,
			"type":"VEC3"
		},
		{
			"bufferView":51,
			"componentType":5126,
			"count":2,
			"type":"VEC3"
		},
		{
			"bufferView":52,
			"componentType":5126,
			"count":2,
			"type":"VEC4"
		},
		{
			"bufferView":53,
			"componentType":5126,
			"count":2,
			"type":"VEC3"
		},
		{
			"bufferView":54,
			"componentType":5126,
			"count":2,
			"type":"VEC3"
		},
		{
			"bufferView":55,
			"componentType":5126,
			"count":78,
			"type":"VEC4"
		},
		{
			"bufferView":56,
			"componentType":5126,
			"count":2,
			"type":"VEC3"
		},
		{
			"bufferView":57,
			"componentType":5126,
			"count":2,
			"type":"VEC3"
		},
		{
			"bufferView":58,
			"componentType":5126,
			"count":78,
			"type":"VEC4"
		},
		{
			"bufferView":59,
			"componentType":5126,
			"count":2,
			"type":"VEC3"
		},
		{
			"bufferView":60,
			"componentType":5126,
			"count":2,
			"type":"VEC3"
		},
		{
			"bufferView":61,
			"componentType":5126,
			"count":78,
			"type":"VEC4"
		},
		{
			"bufferView":62,
			"componentType":5126,
			"count":2,
			"type":"VEC3"
		},
		{
			"bufferView":63,
			"componentType":5126,
			"count":2,
			"type":"VEC3"
		},
		{
			"bufferView":64,
			"componentType":5126,
			"count":78,
			"type":"VEC4"
		},
		{
			"bufferView":65,
			"componentType":5126,
			"count":2,
			"type":"VEC3"
		},
		{
			"bufferView":66,
			"componentType":5126,
			"count":2,
			"type":"VEC3"
		},
		{
			"bufferView":67,
			"componentType":5126,
			"count":2,
			"type":"VEC4"
		},
		{
			"bufferView":68,
			"componentType":5126,
			"count":2,
			"type":"VEC3"
		},
		{
			"bufferView":69,
			"componentType":5126,
			"count":2,
			"type":"VEC3"
		},
		{
			"bufferView":70,
			"componentType":5126,
			"count":78,
			"type":"VEC4"
		},
		{
			"bufferView":71,
			"componentType":5126,
			"count":2,
			"type":"VEC3"
		},
		{
			"bufferView":72,
			"componentType":5126,
			"count":2,
			"type":"VEC3"
		},
		{
			"bufferView":73,
			"componentType":5126,
			"count":78,
			"type":"VEC4"
		},
		{
			"bufferView":74,
			"componentType":5126,
			"count":2,
			"type":"VEC3"
		},
		{
			"bufferView":75,
			"componentType":5126,
			"count":2,
			"type":"VEC3"
		},
		{
			"bufferView":76,
			"componentType":5126,
			"count":78,
			"type":"VEC4"
		},
		{
			"bufferView":77,
			"componentType":5126,
			"count":2,
			"type":"VEC3"
		},
		{
			"bufferView":78,
			"componentType":5126,
			"count":2,
			"type":"VEC3"
		},
		{
			"bufferView":79,
			"componentType":5126,
			"count":78,
			"type":"VEC4"
		},
		{
			"bufferView":80,
			"componentType":5126,
			"count":2,
			"type":"VEC3"
		},
		{
			"bufferView":81,
			"componentType":5126,
			"count":2,
			"type":"VEC3"
		},
		{
			"bufferView":82,
			"componentType":5126,
			"count":2,
			"type":"VEC4"
		},
		{
			"bufferView":83,
			"componentType":5126,
			"count":2,
			"type":"VEC3"
		}
	],
	"bufferViews":[
		{
			"buffer":0,
			"byteLength":21528,
			"byteOffset":0,
			"target":34962
		},
		{
			"buffer":0,
			"byteLength":21528,
			"byteOffset":21528,
			"target":34962
		},
		{
			"buffer":0,
			"byteLength":14352,
			"byteOffset":43056,
			"target":34962
		},
		{
			"buffer":0,
			"byteLength":7176,
			"byteOffset":57408,
			"target":34962
		},
		{
			"buffer":0,
			"byteLength":28704,
			"byteOffset":64584,
			"target":34962
		},
		{
			"buffer":0,
			"byteLength":18732,
			"byteOffset":93288,
			"target":34963
		},
		{
			"buffer":0,
			"byteLength":1600,
			"byteOffset":112020
		},
		{
			"buffer":0,
			"byteLength":312,
			"byteOffset":113620
		},
		{
			"buffer":0,
			"byteLength":936,
			"byteOffset":113932
		},
		{
			"buffer":0,
			"byteLength":1248,
			"byteOffset":114868
		},
		{
			"buffer":0,
			"byteLength":8,
			"byteOffset":116116
		},
		{
			"buffer":0,
			"byteLength":24,
			"byteOffset":116124
		},
		{
			"buffer":0,
			"byteLength":24,
			"byteOffset":116148
		},
		{
			"buffer":0,
			"byteLength":1248,
			"byteOffset":116172
		},
		{
			"buffer":0,
			"byteLength":24,
			"byteOffset":117420
		},
		{
			"buffer":0,
			"byteLength":24,
			"byteOffset":117444
		},
		{
			"buffer":0,
			"byteLength":1248,
			"byteOffset":117468
		},
		{
			"buffer":0,
			"byteLength":24,
			"byteOffset":118716
		},
		{
			"buffer":0,
			"byteLength":24,
			"byteOffset":118740
		},
		{
			"buffer":0,
			"byteLength":1248,
			"byteOffset":118764
		},
		{
			"buffer":0,
			"byteLength":24,
			"byteOffset":120012
		},
		{
			"buffer":0,
			"byteLength":24,
			"byteOffset":120036
		},
		{
			"buffer":0,
			"byteLength":1248,
			"byteOffset":120060
		},
		{
			"buffer":0,
			"byteLength":24,
			"byteOffset":121308
		},
		{
			"buffer":0,
			"byteLength":24,
			"byteOffset":121332
		},
		{
			"buffer":0,
			"byteLength":1248,
			"byteOffset":121356
		},
		{
			"buffer":0,
			"byteLength":24,
			"byteOffset":122604
		},
		{
			"buffer":0,
			"byteLength":936,
			"byteOffset":122628
		},
		{
			"buffer":0,
			"byteLength":32,
			"byteOffset":123564
		},
		{
			"buffer":0,
			"byteLength":24,
			"byteOffset":123596
		},
		{
			"buffer":0,
			"byteLength":24,
			"byteOffset":123620
		},
		{
			"buffer":0,
			"byteLength":1248,
			"byteOffset":123644
		},
		{
			"buffer":0,
			"byteLength":24,
			"byteOffset":124892
		},
		{
			"buffer":0,
			"byteLength":24,
			"byteOffset":124916
		},
		{
			"buffer":0,
			"byteLength":1248,
			"byteOffset":124940
		},
		{
			"buffer":0,
			"byteLength":24,
			"byteOffset":126188
		},
		{
			"buffer":0,
			"byteLength":24,
			"byteOffset":126212
		},
		{
			"buffer":0,
			"byteLength":1248,
			"byteOffset":126236
		},
		{
			"buffer":0,
			"byteLength":24,
			"byteOffset":127484
		},
		{
			"buffer":0,
			"byteLength":24,
			"byteOffset":127508
		},
		{
			"buffer":0,
			"byteLength":32,
			"byteOffset":127532
		},
		{
			"buffer":0,
			"byteLength":24,
			"byteOffset":127564
		},
		{
			"buffer":0,
			"byteLength":24,
			"byteOffset":127588
		},
		{
			"buffer":0,
			"byteLength":1248,
			"byteOffset":127612
		},
		{
			"buffer":0,
			"byteLength":24,
			"byteOffset":128860
		},
		{
			"buffer":0,
			"byteLength":24,
			"byteOffset":128884
		},
		{
			"buffer":0,
			"byteLength":1248,
			"byteOffset":128908
		},
		{
			"buffer":0,
			"byteLength":24,
			"byteOffset":130156
		},
		{
			"buffer":0,
			"byteLength":24,
			"byteOffset":130180
		},
		{
			"buffer":0,
			"byteLength":1248,
			"byteOffset":130204
		},
		{
			"buffer":0,
			"byteLength":24,
			"byteOffset":131452
		},
		{
			"buffer":0,
			"byteLength":24,
			"byteOffset":131476
		},
		{
			"buffer":0,
			"byteLength":32,
			"byteOffset":131500
		},
		{
			"buffer":0,
			"byteLength":24,
			"byteOffset":131532
		},
		{
			"buffer":0,
			"byteLength":24,
			"byteOffset":131556
		},
		{
			"buffer":0,
			"byteLength":1248,
			"byteOffset":131580
		},
		{
			"buffer":0,
			"byteLength":24,
			"byteOffset":132828
		},
		{
			"buffer":0,
			"byteLength":24,
			"byteOffset":132852
		},
		{
			"buffer":0,
			"byteLength":1248,
			"byteOffset":132876
		},
		{
			"buffer":0,
			"byteLength":24,
			"byteOffset":134124
		},
		{
			"buffer":0,
			"byteLength":24,
			"byteOffset":134148
		},
		{
			"buffer":0,
			"byteLength":1248,
			"byteOffset":134172
		},
		{
			"buffer":0,
			"byteLength":24,
			"byteOffset":135420
		},
		{
			"buffer":0,
			"byteLength":24,
			"byteOffset":135444
		},
		{
			"buffer":0,
			"byteLength":1248,
			"byteOffset":135468
		},
		{
			"buffer":0,
			"byteLength":24,
			"byteOffset":136716
		},
		{
			"buffer":0,
			"byteLength":24,
			"byteOffset":136740
		},
		{
			"buffer":0,
			"byteLength":32,
			"byteOffset":136764
		},
		{
			"buffer":0,
			"byteLength":24,
			"byteOffset":136796
		},
		{
			"buffer":0,
			"byteLength":24,
			"byteOffset":136820
		},
		{
			"buffer":0,
			"byteLength":1248,
			"byteOffset":136844
		},
		{
			"buffer":0,
			"byteLength":24,
			"byteOffset":138092
		},
		{
			"buffer":0,
			"byteLength":24,
			"byteOffset":138116
		},
		{
			"buffer":0,
			"byteLength":1248,
			"byteOffset":138140
		},
		{
			"buffer":0,
			"byteLength":24,
			"byteOffset":139388
		},
		{
			"buffer":0,
			"byteLength":24,
			"byteOffset":139412
		},
		{
			"buffer":0,
			"byteLength":1248,
			"byteOffset":139436
		},
		{
			"buffer":0,
			"byteLength":24,
			"byteOffset":140684
		},
		{
			"buffer":0,
			"byteLength":24,
			"byteOffset":140708
		},
		{
			"buffer":0,
			"byteLength":1248,
			"byteOffset":140732
		},
		{
			"buffer":0,
			"byteLength":24,
			"byteOffset":141980
		},
		{
			"buffer":0,
			"byteLength":24,
			"byteOffset":142004
		},
		{
			"buffer":0,
			"byteLength":32,
			"byteOffset":142028
		},
		{
			"buffer":0,
			"byteLength":24,
			"byteOffset":142060
		}
	],
	"buffers":[
		{
			"byteLength":142084,
			"uri":"player.bin"
		}
	]
}
