{
	"asset":{
		"generator":"Khronos glTF Blender I/O v5.1.20",
		"version":"2.0"
	},
	"scene":0,
	"scenes":[
		{
			"name":"Scene",
			"nodes":[
				5
			]
		}
	],
	"nodes":[
		{
			"mesh":0,
			"name":"Box001_Material #4_0",
			"translation":[
				0,
				-3.753054215849261e-06,
				0
			]
		},
		{
			"children":[
				0
			],
			"name":"Box001",
			"rotation":[
				0,
				-0.7071066498756409,
				0,
				0.70710688829422
			],
			"translation":[
				0,
				63.80255889892578,
				0.36563387513160706
			]
		},
		{
			"name":"Object002",
			"rotation":[
				0,
				-0.7071066498756409,
				0,
				0.70710688829422
			],
			"translation":[
				0,
				63.80255889892578,
				0.36563387513160706
			]
		},
		{
			"children":[
				1,
				2
			],
			"name":"RootNode"
		},
		{
			"children":[
				3
			],
			"name":"drone.FBX",
			"rotation":[
				0.70710688829422,
				0,
				0,
				0.7071066498756409
			]
		},
		{
			"children":[
				4
			],
			"name":"Sketchfab_model",
			"rotation":[
				-0.7071067690849304,
				0,
				0,
				0.7071068286895752
			],
			"scale":[
				0.01508084312081337,
				0.01508084312081337,
				0.01508084312081337
			]
		}
	],
	"materials":[
		{
			"doubleSided":true,
			"name":"body",
			"pbrMetallicRoughness":{
				"baseColorFactor":[
					0.013241009786725044,
					0.2513388395309448,
					0.8000156879425049,
					1
				],
				"metallicFactor":0,
				"roughnessFactor":0.5
			}
		},
		{
			"doubleSided":true,
			"name":"parts",
			"pbrMetallicRoughness":{
				"baseColorFactor":[
					0.800000011920929,
					0.800000011920929,
					0.800000011920929,
					1
				],
				"metallicFactor":0,
				"roughnessFactor":0.5
			}
		},
		{
			"doubleSided":true,
			"name":"eyes",
			"pbrMetallicRoughness":{
				"baseColorFactor":[
					0.800000011920929,
					0.800000011920929,
					0.800000011920929,
					1
				],
				"metallicFactor":0,
				"roughnessFactor":0.5
			}
		}
	],
	"meshes":[
		{
			"name":"Box001_Material #4_0",
			"primitives":[
				{
					"attributes":{
						"POSITION":0,
						"NORMAL":1,
						"TEXCOORD_0":2
					},
					"indices":3
				},
				{
					"attributes":{
						"POSITION":4,
						"NORMAL":5,
						"TEXCOORD_0":6
					},
					"indices":7,
					"material":0
				},
				{
					"attributes":{
						"POSITION":8,
						"NORMAL":9,
						"TEXCOORD_0":10
					},
					"indices":11,
					"material":1
				},
				{
					"attributes":{
						"POSITION":12,
						"NORMAL":13,
						"TEXCOORD_0":14
					},
					"indices":15,
					"material":2
				}
			]
		}
	],
	"accessors":[
		{
			"bufferView":0,
			"componentType":5126,
			"count":55,
			"max":[
				105.83502197265625,
				1.6945173740386963,
				42.120365142822266
			],
			"min":[
				-42.733482360839844,
				-54.359519958496094,
				-42.53672409057617
			],
			"type":"VEC3"
		},
		{
			"bufferView":1,
			"componentType":5126,
			"count":55,
			"type":"VEC3"
		},
		{
			"bufferView":2,
			"componentType":5126,
			"count":55,
			"type":"VEC2"
		},
		{
			"bufferView":3,
			"componentType":5123,
			"count":135,
			"type":"SCALAR"
		},
		{
			"bufferView":4,
			"componentType":5126,
			"count":745,
			"max":[
				138.65821838378906,
				34.39588928222656,
				49.13306427001953
			],
			"min":[
				-77.88008880615234,
				-71.91448974609375,
				-49.13306427001953
			],
			"type":"VEC3"
		},
		{
			"bufferView":5,
			"componentType":5126,
			"count":745,
			"type":"VEC3"
		},
		{
			"bufferView":6,
			"componentType":5126,
			"count":745,
			"type":"VEC2"
		},
		{
			"bufferView":7,
			"componentType":5123,
			"count":1983,
			"type":"SCALAR"
		},
		{
			"bufferView":8,
			"componentType":5126,
			"count":862,
			"max":[
				43.198326110839844,
				-0.7742271423339844,
				49.10094451904297
			],
			"min":[
				-75.6407470703125,
				-83.102783203125,
				-49.10094451904297
			],
			"type":"VEC3"
		},
		{
			"bufferView":9,
			"componentType":5126,
			"count":862,
			"type":"VEC3"
		},
		{
			"bufferView":10,
			"componentType":5126,
			"count":862,
			"type":"VEC2"
		},
		{
			"bufferView":11,
			"componentType":5123,
			"count":3024,
			"type":"SCALAR"
		},
		{
			"bufferView":12,
			"componentType":5126,
			"count":56,
			"max":[
				-68.97522735595703,
				-10.612988471984863,
				28.576641082763672
			],
			"min":[
				-69.26344299316406,
				-27.922035217285156,
				-28.576641082763672
			],
			"type":"VEC3"
		},
		{
			"bufferView":13,
			"componentType":5126,
			"count":56,
			"type":"VEC3"
		},
		{
			"bufferView":14,
			"componentType":5126,
			"count":56,
			"type":"VEC2"
		},
		{
			"bufferView":15,
			"componentType":5123,
			"count":240,
			"type":"SCALAR"
		}
	],
	"bufferViews":[
		{
			"buffer":0,
			"byteLength":660,
			"byteOffset":0,
			"target":34962
		},
		{
			"buffer":0,
			"byteLength":660,
			"byteOffset":660,
			"target":34962
		},
		{
			"buffer":0,
			"byteLength":440,
			"byteOffset":1320,
			"target":34962
		},
		{
			"buffer":0,
			"byteLength":270,
			"byteOffset":1760,
			"target":34963
		},
		{
			"buffer":0,
			"byteLength":8940,
			"byteOffset":2032,
			"target":34962
		},
		{
			"buffer":0,
			"byteLength":8940,
			"byteOffset":10972,
			"target":34962
		},
		{
			"buffer":0,
			"byteLength":5960,
			"byteOffset":19912,
			"target":34962
		},
		{
			"buffer":0,
			"byteLength":3966,
			"byteOffset":25872,
			"target":34963
		},
		{
			"buffer":0,
			"byteLength":10344,
			"byteOffset":29840,
			"target":34962
		},
		{
			"buffer":0,
			"byteLength":10344,
			"byteOffset":40184,
			"target":34962
		},
		{
			"buffer":0,
			"byteLength":6896,
			"byteOffset":50528,
			"target":34962
		},
		{
			"buffer":0,
			"byteLength":6048,
			"byteOffset":57424,
			"target":34963
		},
		{
			"buffer":0,
			"byteLength":672,
			"byteOffset":63472,
			"target":34962
		},
		{
			"buffer":0,
			"byteLength":672,
			"byteOffset":64144,
			"target":34962
		},
		{
			"buffer":0,
			"byteLength":448,
			"byteOffset":64816,
			"target":34962
		},
		{
			"buffer":0,
			"byteLength":480,
			"byteOffset":65264,
			"target":34963
		}
	],
	"buffers":[
		{
			"byteLength":65744,
			"uri":"Enemy.bin"
		}
	]
}
