{
	"asset":{
		"generator":"Khronos glTF Blender I/O v5.0.21",
		"version":"2.0"
	},
	"extensionsUsed":[
		"KHR_materials_specular"
	],
	"scene":0,
	"scenes":[
		{
			"name":"Scene",
			"nodes":[
				26
			]
		}
	],
	"nodes":[
		{
			"name":"mixamorig:HeadTop_End",
			"rotation":[
				0.7071067690849304,
				0,
				0,
				0.7071067690849304
			],
			"translation":[
				0,
				-24.08123016357422,
				100.20449829101562
			]
		},
		{
			"children":[
				0
			],
			"name":"mixamorig:Head",
			"translation":[
				0,
				-2.1846160888671875,
				9.090407371520996
			]
		},
		{
			"children":[
				1
			],
			"name":"mixamorig:Neck",
			"rotation":[
				-0.7003625631332397,
				0,
				0,
				0.7137872576713562
			],
			"scale":[
				1,
				0.9999999403953552,
				0.9999999403953552
			],
			"translation":[
				0,
				23.830493927001953,
				-2.384185791015625e-07
			]
		},
		{
			"name":"mixamorig:LeftHand",
			"rotation":[
				8.585631094959467e-10,
				-1.2332749266263932e-09,
				3.0941014195207117e-09,
				1
			],
			"scale":[
				0.9999999403953552,
				0.9999998807907104,
				0.9999998807907104
			],
			"translation":[
				7.152557373046875e-07,
				33.60904312133789,
				1.169741153717041e-05
			]
		},
		{
			"children":[
				3
			],
			"name":"mixamorig:LeftForeArm",
			"rotation":[
				-0.028462009504437447,
				-0.0007267303881235421,
				0.02551579475402832,
				0.9992689490318298
			],
			"scale":[
				0.9999999403953552,
				1.0000001192092896,
				0.9999999403953552
			],
			"translation":[
				4.76837158203125e-07,
				42.75212097167969,
				2.492964267730713e-05
			]
		},
		{
			"children":[
				4
			],
			"name":"mixamorig:LeftArm",
			"rotation":[
				-0.027989838272333145,
				0.00017061147082131356,
				-0.006091760937124491,
				0.9995896816253662
			],
			"scale":[
				0.9999999403953552,
				1.0000001192092896,
				1
			],
			"translation":[
				1.1920928955078125e-07,
				29.408641815185547,
				-2.2277235984802246e-05
			]
		},
		{
			"children":[
				5
			],
			"name":"mixamorig:LeftShoulder",
			"rotation":[
				0.5240062475204468,
				0.4738869369029999,
				-0.5313151478767395,
				0.46749645471572876
			],
			"scale":[
				1,
				1,
				0.9999999403953552
			],
			"translation":[
				14.52053165435791,
				22.050125122070312,
				-0.20238256454467773
			]
		},
		{
			"name":"mixamorig:RightHand",
			"rotation":[
				-4.630237526725978e-09,
				4.488641125455217e-10,
				-6.6320358094174026e-09,
				1
			],
			"scale":[
				0.9999999403953552,
				1,
				0.9999999403953552
			],
			"translation":[
				-8.940696716308594e-08,
				33.5984992980957,
				-1.376122236251831e-05
			]
		},
		{
			"children":[
				7
			],
			"name":"mixamorig:RightForeArm",
			"rotation":[
				-0.02854139544069767,
				0.0007973842439241707,
				-0.02791525609791279,
				0.9992024302482605
			],
			"translation":[
				1.0728836059570312e-06,
				42.7984619140625,
				1.1451542377471924e-05
			]
		},
		{
			"children":[
				8
			],
			"name":"mixamorig:RightArm",
			"rotation":[
				-0.02838309295475483,
				-0.0008980840211734176,
				0.03160734102129936,
				0.9990969300270081
			],
			"scale":[
				0.9999998807907104,
				0.9999999403953552,
				0.9999999403953552
			],
			"translation":[
				-1.341104507446289e-06,
				29.40864372253418,
				-8.299946784973145e-06
			]
		},
		{
			"children":[
				9
			],
			"name":"mixamorig:RightShoulder",
			"rotation":[
				0.5302262306213379,
				-0.4683675467967987,
				0.5253152251243591,
				0.4727957844734192
			],
			"scale":[
				0.9999998807907104,
				1,
				1
			],
			"translation":[
				-14.52053165435791,
				22.04375457763672,
				0.13465118408203125
			]
		},
		{
			"children":[
				2,
				6,
				10
			],
			"name":"mixamorig:Spine2",
			"rotation":[
				3.725290742551124e-09,
				0,
				0,
				1
			],
			"scale":[
				1,
				0.9999999403953552,
				0.9999999403953552
			],
			"translation":[
				0,
				21.182676315307617,
				-7.152557373046875e-07
			]
		},
		{
			"children":[
				11
			],
			"name":"mixamorig:Spine1",
			"rotation":[
				2.2351745343485163e-08,
				0,
				0,
				1
			],
			"scale":[
				1,
				0.9999999403953552,
				0.9999999403953552
			],
			"translation":[
				0,
				18.534820556640625,
				-7.152557373046875e-07
			]
		},
		{
			"children":[
				12
			],
			"name":"mixamorig:Spine",
			"rotation":[
				0.7003625631332397,
				0,
				0,
				0.7137872576713562
			],
			"translation":[
				0,
				0.301606148481369,
				15.884146690368652
			]
		},
		{
			"name":"mixamorig:LeftToe_End",
			"rotation":[
				6.856134149302306e-08,
				2.8536303986470557e-08,
				2.2100722640860937e-10,
				1
			],
			"scale":[
				1,
				1.0000001192092896,
				1.0000001192092896
			],
			"translation":[
				-1.2479722499847412e-06,
				11.089644432067871,
				1.7881393432617188e-07
			]
		},
		{
			"children":[
				14
			],
			"name":"mixamorig:LeftToeBase",
			"rotation":[
				0.3198626935482025,
				-0.010914509184658527,
				0.0036850685719400644,
				0.9473938941955566
			],
			"scale":[
				0.9999998807907104,
				1.0000001192092896,
				0.9999998211860657
			],
			"translation":[
				-3.769993782043457e-06,
				24.199554443359375,
				5.066394805908203e-06
			]
		},
		{
			"children":[
				15
			],
			"name":"mixamorig:LeftFoot",
			"rotation":[
				0.45064398646354675,
				-0.0021728407591581345,
				0.0010968835558742285,
				0.8927004337310791
			],
			"scale":[
				1,
				0.9999998807907104,
				0.9999999403953552
			],
			"translation":[
				1.4528632164001465e-07,
				22.675092697143555,
				-8.391216397285461e-07
			]
		},
		{
			"children":[
				16
			],
			"name":"mixamorig:LeftLeg",
			"rotation":[
				0.02071569114923477,
				-0.00041140796383842826,
				-0.019851230084896088,
				0.9995882511138916
			],
			"scale":[
				0.9999999403953552,
				0.9999998807907104,
				0.9999999403953552
			],
			"translation":[
				-1.4472752809524536e-06,
				36.342803955078125,
				1.3726578345085727e-06
			]
		},
		{
			"children":[
				17
			],
			"name":"mixamorig:LeftUpLeg",
			"rotation":[
				0.017639879137277603,
				0.7254653573036194,
				-0.687829315662384,
				0.01672469824552536
			],
			"scale":[
				0.9999999403953552,
				1.0000001192092896,
				1
			],
			"translation":[
				25.343128204345703,
				1.1603707075119019,
				-8.844254493713379
			]
		},
		{
			"name":"mixamorig:RightToe_End",
			"rotation":[
				-4.9287343983905885e-08,
				1.867010723799467e-08,
				-1.551598072246918e-09,
				1
			],
			"scale":[
				1,
				0.9999999403953552,
				0.9999999403953552
			],
			"translation":[
				1.7844140529632568e-06,
				10.970362663269043,
				1.4901161193847656e-07
			]
		},
		{
			"children":[
				19
			],
			"name":"mixamorig:RightToeBase",
			"rotation":[
				0.34223729372024536,
				0.009878353215754032,
				-0.0035980651155114174,
				0.939554750919342
			],
			"scale":[
				1.0000001192092896,
				1,
				1
			],
			"translation":[
				-1.7434358596801758e-06,
				22.797382354736328,
				3.56137752532959e-06
			]
		},
		{
			"children":[
				20
			],
			"name":"mixamorig:RightFoot",
			"rotation":[
				0.40798220038414,
				0.0026907469145953655,
				-0.0012024618918076158,
				0.9129851460456848
			],
			"scale":[
				1,
				1.0000001192092896,
				1.0000001192092896
			],
			"translation":[
				1.3578683137893677e-06,
				22.68759536743164,
				-3.725290298461914e-09
			]
		},
		{
			"children":[
				21
			],
			"name":"mixamorig:RightLeg",
			"rotation":[
				0.06553483009338379,
				0.001294395187869668,
				0.01970425806939602,
				0.9976548552513123
			],
			"scale":[
				1,
				0.9999999403953552,
				1.0000001192092896
			],
			"translation":[
				8.419156074523926e-07,
				36.458248138427734,
				1.3169808426027885e-06
			]
		},
		{
			"children":[
				22
			],
			"name":"mixamorig:RightUpLeg",
			"rotation":[
				0.01793479733169079,
				-0.7399390935897827,
				0.6722373366355896,
				0.016293756663799286
			],
			"scale":[
				0.9999999403953552,
				1.0000001192092896,
				1
			],
			"translation":[
				-25.343128204345703,
				-0.5389166474342346,
				-8.844254493713379
			]
		},
		{
			"children":[
				13,
				18,
				23
			],
			"name":"mixamorig:Hips",
			"rotation":[
				-0.7071067690849304,
				0,
				0,
				0.7071067690849304
			],
			"translation":[
				0,
				85.4610824584961,
				10.19560432434082
			]
		},
		{
			"mesh":0,
			"name":"Demon",
			"skin":0
		},
		{
			"children":[
				25,
				24
			],
			"name":"Armature",
			"rotation":[
				0.7071068286895752,
				0,
				0,
				0.7071068286895752
			],
			"scale":[
				0.009999999776482582,
				0.009999999776482582,
				0.009999999776482582
			]
		}
	],
	"animations":[
		{
			"channels":[
				{
					"sampler":0,
					"target":{
						"node":24,
						"path":"translation"
					}
				},
				{
					"sampler":1,
					"target":{
						"node":24,
						"path":"rotation"
					}
				},
				{
					"sampler":2,
					"target":{
						"node":24,
						"path":"scale"
					}
				},
				{
					"sampler":3,
					"target":{
						"node":13,
						"path":"translation"
					}
				},
				{
					"sampler":4,
					"target":{
						"node":13,
						"path":"rotation"
					}
				},
				{
					"sampler":5,
					"target":{
						"node":13,
						"path":"scale"
					}
				},
				{
					"sampler":6,
					"target":{
						"node":12,
						"path":"translation"
					}
				},
				{
					"sampler":7,
					"target":{
						"node":12,
						"path":"rotation"
					}
				},
				{
					"sampler":8,
					"target":{
						"node":12,
						"path":"scale"
					}
				},
				{
					"sampler":9,
					"target":{
						"node":11,
						"path":"translation"
					}
				},
				{
					"sampler":10,
					"target":{
						"node":11,
						"path":"rotation"
					}
				},
				{
					"sampler":11,
					"target":{
						"node":11,
						"path":"scale"
					}
				},
				{
					"sampler":12,
					"target":{
						"node":2,
						"path":"translation"
					}
				},
				{
					"sampler":13,
					"target":{
						"node":2,
						"path":"rotation"
					}
				},
				{
					"sampler":14,
					"target":{
						"node":2,
						"path":"scale"
					}
				},
				{
					"sampler":15,
					"target":{
						"node":1,
						"path":"translation"
					}
				},
				{
					"sampler":16,
					"target":{
						"node":1,
						"path":"rotation"
					}
				},
				{
					"sampler":17,
					"target":{
						"node":1,
						"path":"scale"
					}
				},
				{
					"sampler":18,
					"target":{
						"node":0,
						"path":"translation"
					}
				},
				{
					"sampler":19,
					"target":{
						"node":0,
						"path":"rotation"
					}
				},
				{
					"sampler":20,
					"target":{
						"node":0,
						"path":"scale"
					}
				},
				{
					"sampler":21,
					"target":{
						"node":6,
						"path":"translation"
					}
				},
				{
					"sampler":22,
					"target":{
						"node":6,
						"path":"rotation"
					}
				},
				{
					"sampler":23,
					"target":{
						"node":6,
						"path":"scale"
					}
				},
				{
					"sampler":24,
					"target":{
						"node":5,
						"path":"translation"
					}
				},
				{
					"sampler":25,
					"target":{
						"node":5,
						"path":"rotation"
					}
				},
				{
					"sampler":26,
					"target":{
						"node":5,
						"path":"scale"
					}
				},
				{
					"sampler":27,
					"target":{
						"node":4,
						"path":"translation"
					}
				},
				{
					"sampler":28,
					"target":{
						"node":4,
						"path":"rotation"
					}
				},
				{
					"sampler":29,
					"target":{
						"node":4,
						"path":"scale"
					}
				},
				{
					"sampler":30,
					"target":{
						"node":3,
						"path":"translation"
					}
				},
				{
					"sampler":31,
					"target":{
						"node":3,
						"path":"rotation"
					}
				},
				{
					"sampler":32,
					"target":{
						"node":3,
						"path":"scale"
					}
				},
				{
					"sampler":33,
					"target":{
						"node":10,
						"path":"translation"
					}
				},
				{
					"sampler":34,
					"target":{
						"node":10,
						"path":"rotation"
					}
				},
				{
					"sampler":35,
					"target":{
						"node":10,
						"path":"scale"
					}
				},
				{
					"sampler":36,
					"target":{
						"node":9,
						"path":"translation"
					}
				},
				{
					"sampler":37,
					"target":{
						"node":9,
						"path":"rotation"
					}
				},
				{
					"sampler":38,
					"target":{
						"node":9,
						"path":"scale"
					}
				},
				{
					"sampler":39,
					"target":{
						"node":8,
						"path":"translation"
					}
				},
				{
					"sampler":40,
					"target":{
						"node":8,
						"path":"rotation"
					}
				},
				{
					"sampler":41,
					"target":{
						"node":8,
						"path":"scale"
					}
				},
				{
					"sampler":42,
					"target":{
						"node":7,
						"path":"translation"
					}
				},
				{
					"sampler":43,
					"target":{
						"node":7,
						"path":"rotation"
					}
				},
				{
					"sampler":44,
					"target":{
						"node":7,
						"path":"scale"
					}
				},
				{
					"sampler":45,
					"target":{
						"node":18,
						"path":"translation"
					}
				},
				{
					"sampler":46,
					"target":{
						"node":18,
						"path":"rotation"
					}
				},
				{
					"sampler":47,
					"target":{
						"node":18,
						"path":"scale"
					}
				},
				{
					"sampler":48,
					"target":{
						"node":17,
						"path":"translation"
					}
				},
				{
					"sampler":49,
					"target":{
						"node":17,
						"path":"rotation"
					}
				},
				{
					"sampler":50,
					"target":{
						"node":17,
						"path":"scale"
					}
				},
				{
					"sampler":51,
					"target":{
						"node":16,
						"path":"translation"
					}
				},
				{
					"sampler":52,
					"target":{
						"node":16,
						"path":"rotation"
					}
				},
				{
					"sampler":53,
					"target":{
						"node":16,
						"path":"scale"
					}
				},
				{
					"sampler":54,
					"target":{
						"node":15,
						"path":"translation"
					}
				},
				{
					"sampler":55,
					"target":{
						"node":15,
						"path":"rotation"
					}
				},
				{
					"sampler":56,
					"target":{
						"node":15,
						"path":"scale"
					}
				},
				{
					"sampler":57,
					"target":{
						"node":14,
						"path":"translation"
					}
				},
				{
					"sampler":58,
					"target":{
						"node":14,
						"path":"rotation"
					}
				},
				{
					"sampler":59,
					"target":{
						"node":14,
						"path":"scale"
					}
				},
				{
					"sampler":60,
					"target":{
						"node":23,
						"path":"translation"
					}
				},
				{
					"sampler":61,
					"target":{
						"node":23,
						"path":"rotation"
					}
				},
				{
					"sampler":62,
					"target":{
						"node":23,
						"path":"scale"
					}
				},
				{
					"sampler":63,
					"target":{
						"node":22,
						"path":"translation"
					}
				},
				{
					"sampler":64,
					"target":{
						"node":22,
						"path":"rotation"
					}
				},
				{
					"sampler":65,
					"target":{
						"node":22,
						"path":"scale"
					}
				},
				{
					"sampler":66,
					"target":{
						"node":21,
						"path":"translation"
					}
				},
				{
					"sampler":67,
					"target":{
						"node":21,
						"path":"rotation"
					}
				},
				{
					"sampler":68,
					"target":{
						"node":21,
						"path":"scale"
					}
				},
				{
					"sampler":69,
					"target":{
						"node":20,
						"path":"translation"
					}
				},
				{
					"sampler":70,
					"target":{
						"node":20,
						"path":"rotation"
					}
				},
				{
					"sampler":71,
					"target":{
						"node":20,
						"path":"scale"
					}
				},
				{
					"sampler":72,
					"target":{
						"node":19,
						"path":"translation"
					}
				},
				{
					"sampler":73,
					"target":{
						"node":19,
						"path":"rotation"
					}
				},
				{
					"sampler":74,
					"target":{
						"node":19,
						"path":"scale"
					}
				}
			],
			"name":"mixamo.com",
			"samplers":[
				{
					"input":7,
					"interpolation":"LINEAR",
					"output":8
				},
				{
					"input":7,
					"interpolation":"LINEAR",
					"output":9
				},
				{
					"input":10,
					"interpolation":"STEP",
					"output":11
				},
				{
					"input":10,
					"interpolation":"LINEAR",
					"output":12
				},
				{
					"input":7,
					"interpolation":"LINEAR",
					"output":13
				},
				{
					"input":10,
					"interpolation":"STEP",
					"output":14
				},
				{
					"input":10,
					"interpolation":"LINEAR",
					"output":15
				},
				{
					"input":7,
					"interpolation":"LINEAR",
					"output":16
				},
				{
					"input":10,
					"interpolation":"STEP",
					"output":17
				},
				{
					"input":10,
					"interpolation":"LINEAR",
					"output":18
				},
				{
					"input":7,
					"interpolation":"LINEAR",
					"output":19
				},
				{
					"input":10,
					"interpolation":"LINEAR",
					"output":20
				},
				{
					"input":10,
					"interpolation":"LINEAR",
					"output":21
				},
				{
					"input":7,
					"interpolation":"LINEAR",
					"output":22
				},
				{
					"input":10,
					"interpolation":"LINEAR",
					"output":23
				},
				{
					"input":10,
					"interpolation":"LINEAR",
					"output":24
				},
				{
					"input":7,
					"interpolation":"LINEAR",
					"output":25
				},
				{
					"input":10,
					"interpolation":"STEP",
					"output":26
				},
				{
					"input":10,
					"interpolation":"STEP",
					"output":27
				},
				{
					"input":10,
					"interpolation":"STEP",
					"output":28
				},
				{
					"input":10,
					"interpolation":"STEP",
					"output":29
				},
				{
					"input":10,
					"interpolation":"LINEAR",
					"output":30
				},
				{
					"input":7,
					"interpolation":"LINEAR",
					"output":31
				},
				{
					"input":10,
					"interpolation":"LINEAR",
					"output":32
				},
				{
					"input":10,
					"interpolation":"LINEAR",
					"output":33
				},
				{
					"input":7,
					"interpolation":"LINEAR",
					"output":34
				},
				{
					"input":10,
					"interpolation":"LINEAR",
					"output":35
				},
				{
					"input":10,
					"interpolation":"LINEAR",
					"output":36
				},
				{
					"input":7,
					"interpolation":"LINEAR",
					"output":37
				},
				{
					"input":10,
					"interpolation":"STEP",
					"output":38
				},
				{
					"input":10,
					"interpolation":"STEP",
					"output":39
				},
				{
					"input":10,
					"interpolation":"STEP",
					"output":40
				},
				{
					"input":10,
					"interpolation":"STEP",
					"output":41
				},
				{
					"input":10,
					"interpolation":"LINEAR",
					"output":42
				},
				{
					"input":7,
					"interpolation":"LINEAR",
					"output":43
				},
				{
					"input":10,
					"interpolation":"STEP",
					"output":44
				},
				{
					"input":10,
					"interpolation":"LINEAR",
					"output":45
				},
				{
					"input":7,
					"interpolation":"LINEAR",
					"output":46
				},
				{
					"input":10,
					"interpolation":"LINEAR",
					"output":47
				},
				{
					"input":10,
					"interpolation":"LINEAR",
					"output":48
				},
				{
					"input":7,
					"interpolation":"LINEAR",
					"output":49
				},
				{
					"input":10,
					"interpolation":"STEP",
					"output":50
				},
				{
					"input":10,
					"interpolation":"STEP",
					"output":51
				},
				{
					"input":10,
					"interpolation":"STEP",
					"output":52
				},
				{
					"input":10,
					"interpolation":"STEP",
					"output":53
				},
				{
					"input":10,
					"interpolation":"LINEAR",
					"output":54
				},
				{
					"input":7,
					"interpolation":"LINEAR",
					"output":55
				},
				{
					"input":10,
					"interpolation":"STEP",
					"output":56
				},
				{
					"input":10,
					"interpolation":"LINEAR",
					"output":57
				},
				{
					"input":7,
					"interpolation":"LINEAR",
					"output":58
				},
				{
					"input":10,
					"interpolation":"LINEAR",
					"output":59
				},
				{
					"input":10,
					"interpolation":"LINEAR",
					"output":60
				},
				{
					"input":7,
					"interpolation":"LINEAR",
					"output":61
				},
				{
					"input":10,
					"interpolation":"STEP",
					"output":62
				},
				{
					"input":10,
					"interpolation":"LINEAR",
					"output":63
				},
				{
					"input":7,
					"interpolation":"LINEAR",
					"output":64
				},
				{
					"input":10,
					"interpolation":"STEP",
					"output":65
				},
				{
					"input":10,
					"interpolation":"STEP",
					"output":66
				},
				{
					"input":10,
					"interpolation":"STEP",
					"output":67
				},
				{
					"input":10,
					"interpolation":"STEP",
					"output":68
				},
				{
					"input":10,
					"interpolation":"LINEAR",
					"output":69
				},
				{
					"input":7,
					"interpolation":"LINEAR",
					"output":70
				},
				{
					"input":10,
					"interpolation":"LINEAR",
					"output":71
				},
				{
					"input":10,
					"interpolation":"LINEAR",
					"output":72
				},
				{
					"input":7,
					"interpolation":"LINEAR",
					"output":73
				},
				{
					"input":10,
					"interpolation":"LINEAR",
					"output":74
				},
				{
					"input":10,
					"interpolation":"LINEAR",
					"output":75
				},
				{
					"input":7,
					"interpolation":"LINEAR",
					"output":76
				},
				{
					"input":10,
					"interpolation":"LINEAR",
					"output":77
				},
				{
					"input":10,
					"interpolation":"LINEAR",
					"output":78
				},
				{
					"input":7,
					"interpolation":"LINEAR",
					"output":79
				},
				{
					"input":10,
					"interpolation":"STEP",
					"output":80
				},
				{
					"input":10,
					"interpolation":"STEP",
					"output":81
				},
				{
					"input":10,
					"interpolation":"STEP",
					"output":82
				},
				{
					"input":10,
					"interpolation":"STEP",
					"output":83
				}
			]
		}
	],
	"materials":[
		{
			"doubleSided":true,
			"extensions":{
				"KHR_materials_specular":{
					"specularColorFactor":[
						0.800000011920929,
						0.800000011920929,
						0.800000011920929
					]
				}
			},
			"name":"Atlas.001",
			"pbrMetallicRoughness":{
				"baseColorFactor":[
					0.800000011920929,
					0.800000011920929,
					0.800000011920929,
					1
				],
				"metallicFactor":0,
				"roughnessFactor":0.5
			}
		}
	],
	"meshes":[
		{
			"name":"Cube.002",
			"primitives":[
				{
					"attributes":{
						"POSITION":0,
						"NORMAL":1,
						"TEXCOORD_0":2,
						"JOINTS_0":3,
						"WEIGHTS_0":4
					},
					"indices":5,
					"material":0
				}
			]
		}
	],
	"skins":[
		{
			"inverseBindMatrices":6,
			"joints":[
				24,
				13,
				12,
				11,
				2,
				1,
				0,
				6,
				5,
				4,
				3,
				10,
				9,
				8,
				7,
				18,
				17,
				16,
				15,
				14,
				23,
				22,
				21,
				20,
				19
			],
			"name":"Armature"
		}
	],
	"accessors":[
		{
			"bufferView":0,
			"componentType":5126,
			"count":2802,
			"max":[
				1.6303704977035522,
				0.3371671438217163,
				2.743065595626831
			],
			"min":[
				-1.6303704977035522,
				-0.7598766684532166,
				0.014450392685830593
			],
			"type":"VEC3"
		},
		{
			"bufferView":1,
			"componentType":5126,
			"count":2802,
			"type":"VEC3"
		},
		{
			"bufferView":2,
			"componentType":5126,
			"count":2802,
			"type":"VEC2"
		},
		{
			"bufferView":3,
			"componentType":5121,
			"count":2802,
			"type":"VEC4"
		},
		{
			"bufferView":4,
			"componentType":5126,
			"count":2802,
			"type":"VEC4"
		},
		{
			"bufferView":5,
			"componentType":5123,
			"count":9876,
			"type":"SCALAR"
		},
		{
			"bufferView":6,
			"componentType":5126,
			"count":25,
			"type":"MAT4"
		},
		{
			"bufferView":7,
			"componentType":5126,
			"count":42,
			"max":[
				1.4
			],
			"min":[
				0.03333333333333333
			],
			"type":"SCALAR"
		},
		{
			"bufferView":8,
			"componentType":5126,
			"count":42,
			"type":"VEC3"
		},
		{
			"bufferView":9,
			"componentType":5126,
			"count":42,
			"type":"VEC4"
		},
		{
			"bufferView":10,
			"componentType":5126,
			"count":2,
			"max":[
				1.4
			],
			"min":[
				0.03333333333333333
			],
			"type":"SCALAR"
		},
		{
			"bufferView":11,
			"componentType":5126,
			"count":2,
			"type":"VEC3"
		},
		{
			"bufferView":12,
			"componentType":5126,
			"count":2,
			"type":"VEC3"
		},
		{
			"bufferView":13,
			"componentType":5126,
			"count":42,
			"type":"VEC4"
		},
		{
			"bufferView":14,
			"componentType":5126,
			"count":2,
			"type":"VEC3"
		},
		{
			"bufferView":15,
			"componentType":5126,
			"count":2,
			"type":"VEC3"
		},
		{
			"bufferView":16,
			"componentType":5126,
			"count":42,
			"type":"VEC4"
		},
		{
			"bufferView":17,
			"componentType":5126,
			"count":2,
			"type":"VEC3"
		},
		{
			"bufferView":18,
			"componentType":5126,
			"count":2,
			"type":"VEC3"
		},
		{
			"bufferView":19,
			"componentType":5126,
			"count":42,
			"type":"VEC4"
		},
		{
			"bufferView":20,
			"componentType":5126,
			"count":2,
			"type":"VEC3"
		},
		{
			"bufferView":21,
			"componentType":5126,
			"count":2,
			"type":"VEC3"
		},
		{
			"bufferView":22,
			"componentType":5126,
			"count":42,
			"type":"VEC4"
		},
		{
			"bufferView":23,
			"componentType":5126,
			"count":2,
			"type":"VEC3"
		},
		{
			"bufferView":24,
			"componentType":5126,
			"count":2,
			"type":"VEC3"
		},
		{
			"bufferView":25,
			"componentType":5126,
			"count":42,
			"type":"VEC4"
		},
		{
			"bufferView":26,
			"componentType":5126,
			"count":2,
			"type":"VEC3"
		},
		{
			"bufferView":27,
			"componentType":5126,
			"count":2,
			"type":"VEC3"
		},
		{
			"bufferView":28,
			"componentType":5126,
			"count":2,
			"type":"VEC4"
		},
		{
			"bufferView":29,
			"componentType":5126,
			"count":2,
			"type":"VEC3"
		},
		{
			"bufferView":30,
			"componentType":5126,
			"count":2,
			"type":"VEC3"
		},
		{
			"bufferView":31,
			"componentType":5126,
			"count":42,
			"type":"VEC4"
		},
		{
			"bufferView":32,
			"componentType":5126,
			"count":2,
			"type":"VEC3"
		},
		{
			"bufferView":33,
			"componentType":5126,
			"count":2,
			"type":"VEC3"
		},
		{
			"bufferView":34,
			"componentType":5126,
			"count":42,
			"type":"VEC4"
		},
		{
			"bufferView":35,
			"componentType":5126,
			"count":2,
			"type":"VEC3"
		},
		{
			"bufferView":36,
			"componentType":5126,
			"count":2,
			"type":"VEC3"
		},
		{
			"bufferView":37,
			"componentType":5126,
			"count":42,
			"type":"VEC4"
		},
		{
			"bufferView":38,
			"componentType":5126,
			"count":2,
			"type":"VEC3"
		},
		{
			"bufferView":39,
			"componentType":5126,
			"count":2,
			"type":"VEC3"
		},
		{
			"bufferView":40,
			"componentType":5126,
			"count":2,
			"type":"VEC4"
		},
		{
			"bufferView":41,
			"componentType":5126,
			"count":2,
			"type":"VEC3"
		},
		{
			"bufferView":42,
			"componentType":5126,
			"count":2,
			"type":"VEC3"
		},
		{
			"bufferView":43,
			"componentType":5126,
			"count":42,
			"type":"VEC4"
		},
		{
			"bufferView":44,
			"componentType":5126,
			"count":2,
			"type":"VEC3"
		},
		{
			"bufferView":45,
			"componentType":5126,
			"count":2,
			"type":"VEC3"
		},
		{
			"bufferView":46,
			"componentType":5126,
			"count":42,
			"type":"VEC4"
		},
		{
			"bufferView":47,
			"componentType":5126,
			"count":2,
			"type":"VEC3"
		},
		{
			"bufferView":48,
			"componentType":5126,
			"count":2,
			"type":"VEC3"
		},
		{
			"bufferView":49,
			"componentType":5126,
			"count":42,
			"type":"VEC4"
		},
		{
			"bufferView":50,
			"componentType":5126,
			"count":2,
			"type":"VEC3"
		},
		{
			"bufferView":51,
			"componentType":5126,
			"count":2,
			"type":"VEC3"
		},
		{
			"bufferView":52,
			"componentType":5126,
			"count":2,
			"type":"VEC4"
		},
		{
			"bufferView":53,
			"componentType":5126,
			"count":2,
			"type":"VEC3"
		},
		{
			"bufferView":54,
			"componentType":5126,
			"count":2,
			"type":"VEC3"
		},
		{
			"bufferView":55,
			"componentType":5126,
			"count":42,
			"type":"VEC4"
		},
		{
			"bufferView":56,
			"componentType":5126,
			"count":2,
			"type":"VEC3"
		},
		{
			"bufferView":57,
			"componentType":5126,
			"count":2,
			"type":"VEC3"
		},
		{
			"bufferView":58,
			"componentType":5126,
			"count":42,
			"type":"VEC4"
		},
		{
			"bufferView":59,
			"componentType":5126,
			"count":2,
			"type":"VEC3"
		},
		{
			"bufferView":60,
			"componentType":5126,
			"count":2,
			"type":"VEC3"
		},
		{
			"bufferView":61,
			"componentType":5126,
			"count":42,
			"type":"VEC4"
		},
		{
			"bufferView":62,
			"componentType":5126,
			"count":2,
			"type":"VEC3"
		},
		{
			"bufferView":63,
			"componentType":5126,
			"count":2,
			"type":"VEC3"
		},
		{
			"bufferView":64,
			"componentType":5126,
			"count":42,
			"type":"VEC4"
		},
		{
			"bufferView":65,
			"componentType":5126,
			"count":2,
			"type":"VEC3"
		},
		{
			"bufferView":66,
			"componentType":5126,
			"count":2,
			"type":"VEC3"
		},
		{
			"bufferView":67,
			"componentType":5126,
			"count":2,
			"type":"VEC4"
		},
		{
			"bufferView":68,
			"componentType":5126,
			"count":2,
			"type":"VEC3"
		},
		{
			"bufferView":69,
			"componentType":5126,
			"count":2,
			"type":"VEC3"
		},
		{
			"bufferView":70,
			"componentType":5126,
			"count":42,
			"type":"VEC4"
		},
		{
			"bufferView":71,
			"componentType":5126,
			"count":2,
			"type":"VEC3"
		},
		{
			"bufferView":72,
			"componentType":5126,
			"count":2,
			"type":"VEC3"
		},
		{
			"bufferView":73,
			"componentType":5126,
			"count":42,
			"type":"VEC4"
		},
		{
			"bufferView":74,
			"componentType":5126,
			"count":2,
			"type":"VEC3"
		},
		{
			"bufferView":75,
			"componentType":5126,
			"count":2,
			"type":"VEC3"
		},
		{
			"bufferView":76,
			"componentType":5126,
			"count":42,
			"type":"VEC4"
		},
		{
			"bufferView":77,
			"componentType":5126,
			"count":2,
			"type":"VEC3"
		},
		{
			"bufferView":78,
			"componentType":5126,
			"count":2,
			"type":"VEC3"
		},
		{
			"bufferView":79,
			"componentType":5126,
			"count":42,
			"type":"VEC4"
		},
		{
			"bufferView":80,
			"componentType":5126,
			"count":2,
			"type":"VEC3"
		},
		{
			"bufferView":81,
			"componentType":5126,
			"count":2,
			"type":"VEC3"
		},
		{
			"bufferView":82,
			"componentType":5126,
			"count":2,
			"type":"VEC4"
		},
		{
			"bufferView":83,
			"componentType":5126,
			"count":2,
			"type":"VEC3"
		}
	],
	"bufferViews":[
		{
			"buffer":0,
			"byteLength":33624,
			"byteOffset":0,
			"target":34962
		},
		{
			"buffer":0,
			"byteLength":33624,
			"byteOffset":33624,
			"target":34962
		},
		{
			"buffer":0,
			"byteLength":22416,
			"byteOffset":67248,
			"target":34962
		},
		{
			"buffer":0,
			"byteLength":11208,
			"byteOffset":89664,
			"target":34962
		},
		{
			"buffer":0,
			"byteLength":44832,
			"byteOffset":100872,
			"target":34962
		},
		{
			"buffer":0,
			"byteLength":19752,
			"byteOffset":145704,
			"target":34963
		},
		{
			"buffer":0,
			"byteLength":1600,
			"byteOffset":165456
		},
		{
			"buffer":0,
			"byteLength":168,
			"byteOffset":167056
		},
		{
			"buffer":0,
			"byteLength":504,
			"byteOffset":167224
		},
		{
			"buffer":0,
			"byteLength":672,
			"byteOffset":167728
		},
		{
			"buffer":0,
			"byteLength":8,
			"byteOffset":168400
		},
		{
			"buffer":0,
			"byteLength":24,
			"byteOffset":168408
		},
		{
			"buffer":0,
			"byteLength":24,
			"byteOffset":168432
		},
		{
			"buffer":0,
			"byteLength":672,
			"byteOffset":168456
		},
		{
			"buffer":0,
			"byteLength":24,
			"byteOffset":169128
		},
		{
			"buffer":0,
			"byteLength":24,
			"byteOffset":169152
		},
		{
			"buffer":0,
			"byteLength":672,
			"byteOffset":169176
		},
		{
			"buffer":0,
			"byteLength":24,
			"byteOffset":169848
		},
		{
			"buffer":0,
			"byteLength":24,
			"byteOffset":169872
		},
		{
			"buffer":0,
			"byteLength":672,
			"byteOffset":169896
		},
		{
			"buffer":0,
			"byteLength":24,
			"byteOffset":170568
		},
		{
			"buffer":0,
			"byteLength":24,
			"byteOffset":170592
		},
		{
			"buffer":0,
			"byteLength":672,
			"byteOffset":170616
		},
		{
			"buffer":0,
			"byteLength":24,
			"byteOffset":171288
		},
		{
			"buffer":0,
			"byteLength":24,
			"byteOffset":171312
		},
		{
			"buffer":0,
			"byteLength":672,
			"byteOffset":171336
		},
		{
			"buffer":0,
			"byteLength":24,
			"byteOffset":172008
		},
		{
			"buffer":0,
			"byteLength":24,
			"byteOffset":172032
		},
		{
			"buffer":0,
			"byteLength":32,
			"byteOffset":172056
		},
		{
			"buffer":0,
			"byteLength":24,
			"byteOffset":172088
		},
		{
			"buffer":0,
			"byteLength":24,
			"byteOffset":172112
		},
		{
			"buffer":0,
			"byteLength":672,
			"byteOffset":172136
		},
		{
			"buffer":0,
			"byteLength":24,
			"byteOffset":172808
		},
		{
			"buffer":0,
			"byteLength":24,
			"byteOffset":172832
		},
		{
			"buffer":0,
			"byteLength":672,
			"byteOffset":172856
		},
		{
			"buffer":0,
			"byteLength":24,
			"byteOffset":173528
		},
		{
			"buffer":0,
			"byteLength":24,
			"byteOffset":173552
		},
		{
			"buffer":0,
			"byteLength":672,
			"byteOffset":173576
		},
		{
			"buffer":0,
			"byteLength":24,
			"byteOffset":174248
		},
		{
			"buffer":0,
			"byteLength":24,
			"byteOffset":174272
		},
		{
			"buffer":0,
			"byteLength":32,
			"byteOffset":174296
		},
		{
			"buffer":0,
			"byteLength":24,
			"byteOffset":174328
		},
		{
			"buffer":0,
			"byteLength":24,
			"byteOffset":174352
		},
		{
			"buffer":0,
			"byteLength":672,
			"byteOffset":174376
		},
		{
			"buffer":0,
			"byteLength":24,
			"byteOffset":175048
		},
		{
			"buffer":0,
			"byteLength":24,
			"byteOffset":175072
		},
		{
			"buffer":0,
			"byteLength":672,
			"byteOffset":175096
		},
		{
			"buffer":0,
			"byteLength":24,
			"byteOffset":175768
		},
		{
			"buffer":0,
			"byteLength":24,
			"byteOffset":175792
		},
		{
			"buffer":0,
			"byteLength":672,
			"byteOffset":175816
		},
		{
			"buffer":0,
			"byteLength":24,
			"byteOffset":176488
		},
		{
			"buffer":0,
			"byteLength":24,
			"byteOffset":176512
		},
		{
			"buffer":0,
			"byteLength":32,
			"byteOffset":176536
		},
		{
			"buffer":0,
			"byteLength":24,
			"byteOffset":176568
		},
		{
			"buffer":0,
			"byteLength":24,
			"byteOffset":176592
		},
		{
			"buffer":0,
			"byteLength":672,
			"byteOffset":176616
		},
		{
			"buffer":0,
			"byteLength":24,
			"byteOffset":177288
		},
		{
			"buffer":0,
			"byteLength":24,
			"byteOffset":177312
		},
		{
			"buffer":0,
			"byteLength":672,
			"byteOffset":177336
		},
		{
			"buffer":0,
			"byteLength":24,
			"byteOffset":178008
		},
		{
			"buffer":0,
			"byteLength":24,
			"byteOffset":178032
		},
		{
			"buffer":0,
			"byteLength":672,
			"byteOffset":178056
		},
		{
			"buffer":0,
			"byteLength":24,
			"byteOffset":178728
		},
		{
			"buffer":0,
			"byteLength":24,
			"byteOffset":178752
		},
		{
			"buffer":0,
			"byteLength":672,
			"byteOffset":178776
		},
		{
			"buffer":0,
			"byteLength":24,
			"byteOffset":179448
		},
		{
			"buffer":0,
			"byteLength":24,
			"byteOffset":179472
		},
		{
			"buffer":0,
			"byteLength":32,
			"byteOffset":179496
		},
		{
			"buffer":0,
			"byteLength":24,
			"byteOffset":179528
		},
		{
			"buffer":0,
			"byteLength":24,
			"byteOffset":179552
		},
		{
			"buffer":0,
			"byteLength":672,
			"byteOffset":179576
		},
		{
			"buffer":0,
			"byteLength":24,
			"byteOffset":180248
		},
		{
			"buffer":0,
			"byteLength":24,
			"byteOffset":180272
		},
		{
			"buffer":0,
			"byteLength":672,
			"byteOffset":180296
		},
		{
			"buffer":0,
			"byteLength":24,
			"byteOffset":180968
		},
		{
			"buffer":0,
			"byteLength":24,
			"byteOffset":180992
		},
		{
			"buffer":0,
			"byteLength":672,
			"byteOffset":181016
		},
		{
			"buffer":0,
			"byteLength":24,
			"byteOffset":181688
		},
		{
			"buffer":0,
			"byteLength":24,
			"byteOffset":181712
		},
		{
			"buffer":0,
			"byteLength":672,
			"byteOffset":181736
		},
		{
			"buffer":0,
			"byteLength":24,
			"byteOffset":182408
		},
		{
			"buffer":0,
			"byteLength":24,
			"byteOffset":182432
		},
		{
			"buffer":0,
			"byteLength":32,
			"byteOffset":182456
		},
		{
			"buffer":0,
			"byteLength":24,
			"byteOffset":182488
		}
	],
	"buffers":[
		{
			"byteLength":182512,
			"uri":"zombi.bin"
		}
	]
}
