{
	"asset":{
		"generator":"Khronos glTF Blender I/O v5.1.19",
		"version":"2.0"
	},
	"scene":0,
	"scenes":[
		{
			"name":"Scene",
			"nodes":[
				0
			]
		}
	],
	"nodes":[
		{
			"mesh":0,
			"name":"Cube.019",
			"scale":[
				5.019414901733398,
				0.1734524965286255,
				0.2592218816280365
			],
			"translation":[
				-0.2667001485824585,
				4.890998840332031,
				-3.9074041843414307
			]
		}
	],
	"materials":[
		{
			"doubleSided":true,
			"name":"\u30de\u30c6\u30ea\u30a2\u30eb.004",
			"pbrMetallicRoughness":{
				"baseColorFactor":[
					0.800054669380188,
					0.049301475286483765,
					0.5337560772895813,
					1
				],
				"metallicFactor":0,
				"roughnessFactor":0.5
			}
		}
	],
	"meshes":[
		{
			"name":"Cube.019",
			"primitives":[
				{
					"attributes":{
						"POSITION":0,
						"NORMAL":1,
						"TEXCOORD_0":2,
						"TEXCOORD_1":3
					},
					"indices":4,
					"material":0
				}
			]
		}
	],
	"accessors":[
		{
			"bufferView":0,
			"componentType":5126,
			"count":506,
			"max":[
				1.053133487701416,
				3.839107036590576,
				33.7918815612793
			],
			"min":[
				-1.0048905611038208,
				-29.208393096923828,
				-3.5533127784729004
			],
			"type":"VEC3"
		},
		{
			"bufferView":1,
			"componentType":5126,
			"count":506,
			"type":"VEC3"
		},
		{
			"bufferView":2,
			"componentType":5126,
			"count":506,
			"type":"VEC2"
		},
		{
			"bufferView":3,
			"componentType":5126,
			"count":506,
			"type":"VEC2"
		},
		{
			"bufferView":4,
			"componentType":5123,
			"count":756,
			"type":"SCALAR"
		}
	],
	"bufferViews":[
		{
			"buffer":0,
			"byteLength":6072,
			"byteOffset":0,
			"target":34962
		},
		{
			"buffer":0,
			"byteLength":6072,
			"byteOffset":6072,
			"target":34962
		},
		{
			"buffer":0,
			"byteLength":4048,
			"byteOffset":12144,
			"target":34962
		},
		{
			"buffer":0,
			"byteLength":4048,
			"byteOffset":16192,
			"target":34962
		},
		{
			"buffer":0,
			"byteLength":1512,
			"byteOffset":20240,
			"target":34963
		}
	],
	"buffers":[
		{
			"byteLength":21752,
			"uri":"VolumetricFog.bin"
		}
	]
}
