# Blender 4.4.1
# www.blender.org
mtllib leftHand.mtl
o 立方体
v 0.022958 -0.081857 -0.148620
v 0.198071 0.072097 -0.148620
v 0.616554 -0.719835 -0.082605
v 0.713884 -0.634264 -0.082605
v 0.022958 -0.081857 0.148620
v 0.198071 0.072097 0.148620
v 0.616554 -0.719835 0.082605
v 0.713884 -0.634264 0.082605
vn 0.0499 -0.0568 -0.9971
vn 0.6603 -0.7510 -0.0000
vn 0.0499 -0.0568 0.9971
vn -0.6603 0.7510 -0.0000
vn -0.7321 -0.6812 -0.0000
vn 0.8076 0.5897 -0.0000
vt 0.375000 0.000000
vt 0.625000 0.250000
vt 0.375000 0.250000
vt 0.625000 0.500000
vt 0.375000 0.500000
vt 0.375000 0.750000
vt 0.625000 0.750000
vt 0.375000 1.000000
vt 0.125000 0.750000
vt 0.125000 0.500000
vt 0.875000 0.500000
vt 0.625000 0.000000
vt 0.625000 1.000000
vt 0.875000 0.750000
s 0
f 1/1/1 4/2/1 3/3/1
f 3/3/2 8/4/2 7/5/2
f 8/4/3 5/6/3 7/5/3
f 6/7/4 1/8/4 5/6/4
f 7/5/5 1/9/5 3/10/5
f 4/11/6 6/7/6 8/4/6
f 1/1/1 2/12/1 4/2/1
f 3/3/2 4/2/2 8/4/2
f 8/4/3 6/7/3 5/6/3
f 6/7/4 2/13/4 1/8/4
f 7/5/5 5/6/5 1/9/5
f 4/11/6 2/14/6 6/7/6
