# Blender 4.4.1
# www.blender.org
mtllib blaze.mtl
o Blaze
v -0.400000 1.775330 -0.400000
v 0.400000 1.775330 -0.400000
v -0.400000 2.575330 -0.400000
v 0.400000 2.575330 -0.400000
v -0.400000 1.775330 0.400000
v 0.400000 1.775330 0.400000
v -0.400000 2.575330 0.400000
v 0.400000 2.575330 0.400000
v -0.900000 1.775330 0.700000
v -0.700000 1.775330 0.700000
v -0.900000 2.575330 0.700000
v -0.700000 2.575330 0.700000
v -0.900000 1.775330 0.900000
v -0.700000 1.775330 0.900000
v -0.900000 2.575330 0.900000
v -0.700000 2.575330 0.900000
v 0.700000 1.775330 0.700000
v 0.900000 1.775330 0.700000
v 0.700000 2.575330 0.700000
v 0.900000 2.575330 0.700000
v 0.700000 1.775330 0.900000
v 0.900000 1.775330 0.900000
v 0.700000 2.575330 0.900000
v 0.900000 2.575330 0.900000
v 0.700000 1.775330 -0.900000
v 0.900000 1.775330 -0.900000
v 0.700000 2.575330 -0.900000
v 0.900000 2.575330 -0.900000
v 0.700000 1.775330 -0.700000
v 0.900000 1.775330 -0.700000
v 0.700000 2.575330 -0.700000
v 0.900000 2.575330 -0.700000
v -0.800000 1.173924 -0.141421
v -0.658579 1.173924 0.000000
v -0.800000 1.973924 -0.141421
v -0.658579 1.973924 0.000000
v -0.941421 1.173924 0.000000
v -0.800000 1.173924 0.141422
v -0.941422 1.973924 0.000000
v -0.800000 1.973924 0.141421
v -0.000000 1.173924 -0.941421
v 0.141421 1.173924 -0.800000
v -0.000000 1.973924 -0.941421
v 0.141421 1.973924 -0.800000
v -0.141421 1.173924 -0.800000
v -0.000000 1.173924 -0.658579
v -0.141422 1.973924 -0.800000
v -0.000000 1.973924 -0.658579
v 0.000000 1.173924 0.658579
v 0.141422 1.173924 0.800000
v 0.000000 1.973924 0.658579
v 0.141421 1.973924 0.800000
v -0.141421 1.173924 0.800000
v 0.000000 1.173924 0.941421
v -0.141421 1.973924 0.800000
v 0.000000 1.973924 0.941421
v 0.800000 1.173924 -0.141421
v 0.941421 1.173924 -0.000000
v 0.800000 1.973924 -0.141421
v 0.941421 1.973924 -0.000000
v 0.658579 1.173924 -0.000000
v 0.800000 1.173924 0.141421
v 0.658579 1.973924 -0.000000
v 0.800000 1.973924 0.141421
v -0.500000 0.169426 0.300000
v -0.300000 0.169426 0.300000
v -0.500000 0.969426 0.300000
v -0.300000 0.969426 0.300000
v -0.500000 0.169426 0.500000
v -0.300000 0.169426 0.500000
v -0.500000 0.969426 0.500000
v -0.300000 0.969426 0.500000
v 0.300000 0.169426 -0.500000
v 0.500000 0.169426 -0.500000
v 0.300000 0.969426 -0.500000
v 0.500000 0.969426 -0.500000
v 0.300000 0.169426 -0.300000
v 0.500000 0.169426 -0.300000
v 0.300000 0.969426 -0.300000
v 0.500000 0.969426 -0.300000
v -0.500000 0.169426 -0.500000
v -0.300000 0.169426 -0.500000
v -0.500000 0.969426 -0.500000
v -0.300000 0.969426 -0.500000
v -0.500000 0.169426 -0.300000
v -0.300000 0.169426 -0.300000
v -0.500000 0.969426 -0.300000
v -0.300000 0.969426 -0.300000
v 0.300000 0.169426 0.300000
v 0.500000 0.169426 0.300000
v 0.300000 0.969426 0.300000
v 0.500000 0.969426 0.300000
v 0.300000 0.169426 0.500000
v 0.500000 0.169426 0.500000
v 0.300000 0.969426 0.500000
v 0.500000 0.969426 0.500000
v -0.900000 1.775330 -0.900000
v -0.700000 1.775330 -0.900000
v -0.900000 2.575330 -0.900000
v -0.700000 2.575330 -0.900000
v -0.900000 1.775330 -0.700000
v -0.700000 1.775330 -0.700000
v -0.900000 2.575330 -0.700000
v -0.700000 2.575330 -0.700000
vn -0.0000 -0.0000 -1.0000
vn -0.0000 -0.0000 1.0000
vn -0.0000 -1.0000 -0.0000
vn 1.0000 -0.0000 -0.0000
vn -0.0000 1.0000 -0.0000
vn -1.0000 -0.0000 -0.0000
vn 0.7071 -0.0000 -0.7071
vn -0.7071 -0.0000 0.7071
vn 0.7071 -0.0000 0.7071
vn -0.7071 -0.0000 -0.7071
vt 0.000485 0.000485
vt 0.199126 0.000485
vt 0.199126 0.199126
vt 0.000485 0.199126
vt 0.000485 0.596409
vt 0.000485 0.397768
vt 0.199126 0.397768
vt 0.199127 0.596409
vt 0.199126 0.994662
vt 0.199126 0.796020
vt 0.000485 0.796021
vt 0.000485 0.994662
vt 0.397768 0.397768
vt 0.397768 0.596409
vt 0.199127 0.795050
vt 0.000485 0.795050
vt 0.547604 0.000485
vt 0.547604 0.198744
vt 0.498062 0.198744
vt 0.498062 0.000485
vt 0.398738 0.000485
vt 0.448284 0.000485
vt 0.448284 0.198744
vt 0.398738 0.198744
vt 0.897771 0.896702
vt 0.897771 0.846924
vt 0.848248 0.846924
vt 0.848248 0.896702
vt 0.448284 0.248266
vt 0.398738 0.248266
vt 0.848248 0.198744
vt 0.848248 0.000485
vt 0.898023 0.000485
vt 0.898023 0.198744
vt 0.547604 0.249237
vt 0.547604 0.447495
vt 0.498062 0.447495
vt 0.498062 0.249237
vt 0.398738 0.249237
vt 0.448284 0.249237
vt 0.448284 0.447495
vt 0.398738 0.447495
vt 0.897771 0.947451
vt 0.897771 0.897673
vt 0.848248 0.897673
vt 0.848248 0.947451
vt 0.448284 0.497018
vt 0.398738 0.497018
vt 0.848248 0.447495
vt 0.848248 0.249237
vt 0.898023 0.249237
vt 0.898023 0.447495
vt 0.697441 0.000485
vt 0.697441 0.198744
vt 0.647899 0.198744
vt 0.647899 0.000485
vt 0.548575 0.000485
vt 0.598120 0.000485
vt 0.598120 0.198744
vt 0.548575 0.198744
vt 0.948264 0.947451
vt 0.948264 0.897673
vt 0.898742 0.897673
vt 0.898742 0.947451
vt 0.598120 0.248266
vt 0.548575 0.248266
vt 0.848248 0.646724
vt 0.848248 0.448466
vt 0.898023 0.448466
vt 0.898023 0.646724
vt 0.697441 0.249237
vt 0.697441 0.447495
vt 0.647899 0.447495
vt 0.647899 0.249237
vt 0.548575 0.249237
vt 0.598120 0.249237
vt 0.598120 0.447495
vt 0.548575 0.447495
vt 0.948264 0.896702
vt 0.948264 0.846924
vt 0.898742 0.846924
vt 0.898742 0.896702
vt 0.598120 0.497018
vt 0.548575 0.497018
vt 0.848248 0.845953
vt 0.848248 0.647695
vt 0.898023 0.647695
vt 0.898023 0.845953
vt 0.547604 0.497989
vt 0.547604 0.696247
vt 0.498062 0.696247
vt 0.498062 0.497989
vt 0.398738 0.497989
vt 0.448284 0.497989
vt 0.448284 0.696247
vt 0.398738 0.696247
vt 0.897771 0.998201
vt 0.897771 0.948422
vt 0.848248 0.948422
vt 0.848248 0.998201
vt 0.448284 0.745770
vt 0.398738 0.745770
vt 0.898994 0.198744
vt 0.898994 0.000485
vt 0.948769 0.000485
vt 0.948769 0.198744
vt 0.697441 0.497989
vt 0.697441 0.696247
vt 0.647899 0.696247
vt 0.647899 0.497989
vt 0.548575 0.497989
vt 0.598120 0.497989
vt 0.598120 0.696247
vt 0.548575 0.696247
vt 0.948264 0.998201
vt 0.948264 0.948422
vt 0.898742 0.948422
vt 0.898742 0.998201
vt 0.598120 0.745770
vt 0.548575 0.745770
vt 0.898994 0.397972
vt 0.898994 0.199714
vt 0.948769 0.199714
vt 0.948769 0.397972
vt 0.847278 0.000485
vt 0.847278 0.198744
vt 0.797736 0.198744
vt 0.797736 0.000485
vt 0.698412 0.000485
vt 0.747957 0.000485
vt 0.747957 0.198744
vt 0.698412 0.198744
vt 0.998758 0.896702
vt 0.998758 0.846924
vt 0.949235 0.846924
vt 0.949235 0.896702
vt 0.747957 0.248266
vt 0.698412 0.248266
vt 0.898994 0.597201
vt 0.898994 0.398943
vt 0.948769 0.398943
vt 0.948769 0.597201
vt 0.847278 0.249237
vt 0.847278 0.447495
vt 0.797736 0.447495
vt 0.797736 0.249237
vt 0.698412 0.249237
vt 0.747957 0.249237
vt 0.747957 0.447495
vt 0.698412 0.447495
vt 0.998758 0.947451
vt 0.998758 0.897673
vt 0.949235 0.897673
vt 0.949235 0.947451
vt 0.747957 0.497018
vt 0.698412 0.497018
vt 0.898994 0.845953
vt 0.898994 0.647695
vt 0.948769 0.647695
vt 0.948769 0.845953
vt 0.847278 0.497989
vt 0.847278 0.696247
vt 0.797736 0.696247
vt 0.797736 0.497989
vt 0.698412 0.497989
vt 0.747957 0.497989
vt 0.747957 0.696247
vt 0.698412 0.696247
vt 0.998758 0.998201
vt 0.998758 0.948422
vt 0.949235 0.948422
vt 0.949235 0.998201
vt 0.747957 0.745770
vt 0.698412 0.745770
vt 0.200097 0.994279
vt 0.200097 0.796021
vt 0.249872 0.796021
vt 0.249872 0.994279
vt 0.547604 0.746740
vt 0.547604 0.944999
vt 0.498062 0.944999
vt 0.498062 0.746740
vt 0.398738 0.746740
vt 0.448284 0.746740
vt 0.448284 0.944999
vt 0.398738 0.944999
vt 0.999262 0.249493
vt 0.999262 0.199714
vt 0.949740 0.199714
vt 0.949740 0.249493
vt 0.448284 0.994521
vt 0.398738 0.994521
vt 0.250843 0.994279
vt 0.250843 0.796021
vt 0.300618 0.796021
vt 0.300618 0.994279
vt 0.697441 0.746740
vt 0.697441 0.944999
vt 0.647899 0.944999
vt 0.647899 0.746740
vt 0.548575 0.746740
vt 0.598120 0.746740
vt 0.598120 0.944999
vt 0.548575 0.944999
vt 0.999262 0.300242
vt 0.999262 0.250463
vt 0.949740 0.250463
vt 0.949740 0.300242
vt 0.598120 0.994521
vt 0.548575 0.994521
vt 0.347992 0.994279
vt 0.347992 0.796021
vt 0.397768 0.796021
vt 0.397768 0.994279
vt 0.847278 0.746740
vt 0.847278 0.944999
vt 0.797736 0.944999
vt 0.797736 0.746740
vt 0.698412 0.746740
vt 0.747957 0.746740
vt 0.747957 0.944999
vt 0.698412 0.944999
vt 0.999262 0.350991
vt 0.999262 0.301213
vt 0.949740 0.301213
vt 0.949740 0.350991
vt 0.747957 0.994521
vt 0.698412 0.994521
vt 0.949740 0.198744
vt 0.949740 0.000485
vt 0.999515 0.000485
vt 0.999515 0.198744
s 1
usemtl Blaze
f 1/1/1 3/2/1 4/3/1 2/4/1
f 5/5/2 6/6/2 8/7/2 7/8/2
f 1/9/3 2/10/3 6/11/3 5/12/3
f 2/4/4 4/3/4 8/7/4 6/6/4
f 4/13/5 3/14/5 7/8/5 8/7/5
f 3/15/6 1/16/6 5/5/6 7/8/6
f 9/17/1 11/18/1 12/19/1 10/20/1
f 13/21/2 14/22/2 16/23/2 15/24/2
f 9/25/3 10/26/3 14/27/3 13/28/3
f 10/20/4 12/19/4 16/23/4 14/22/4
f 12/29/5 11/30/5 15/24/5 16/23/5
f 11/31/6 9/32/6 13/33/6 15/34/6
f 17/35/1 19/36/1 20/37/1 18/38/1
f 21/39/2 22/40/2 24/41/2 23/42/2
f 17/43/3 18/44/3 22/45/3 21/46/3
f 18/38/4 20/37/4 24/41/4 22/40/4
f 20/47/5 19/48/5 23/42/5 24/41/5
f 19/49/6 17/50/6 21/51/6 23/52/6
f 25/53/1 27/54/1 28/55/1 26/56/1
f 29/57/2 30/58/2 32/59/2 31/60/2
f 25/61/3 26/62/3 30/63/3 29/64/3
f 26/56/4 28/55/4 32/59/4 30/58/4
f 28/65/5 27/66/5 31/60/5 32/59/5
f 27/67/6 25/68/6 29/69/6 31/70/6
f 33/71/7 35/72/7 36/73/7 34/74/7
f 37/75/8 38/76/8 40/77/8 39/78/8
f 33/79/3 34/80/3 38/81/3 37/82/3
f 34/74/9 36/73/9 40/77/9 38/76/9
f 36/83/5 35/84/5 39/78/5 40/77/5
f 35/85/10 33/86/10 37/87/10 39/88/10
f 41/89/7 43/90/7 44/91/7 42/92/7
f 45/93/8 46/94/8 48/95/8 47/96/8
f 41/97/3 42/98/3 46/99/3 45/100/3
f 42/92/9 44/91/9 48/95/9 46/94/9
f 44/101/5 43/102/5 47/96/5 48/95/5
f 43/103/10 41/104/10 45/105/10 47/106/10
f 49/107/7 51/108/7 52/109/7 50/110/7
f 53/111/8 54/112/8 56/113/8 55/114/8
f 49/115/3 50/116/3 54/117/3 53/118/3
f 50/110/9 52/109/9 56/113/9 54/112/9
f 52/119/5 51/120/5 55/114/5 56/113/5
f 51/121/10 49/122/10 53/123/10 55/124/10
f 57/125/7 59/126/7 60/127/7 58/128/7
f 61/129/8 62/130/8 64/131/8 63/132/8
f 57/133/3 58/134/3 62/135/3 61/136/3
f 58/128/9 60/127/9 64/131/9 62/130/9
f 60/137/5 59/138/5 63/132/5 64/131/5
f 59/139/10 57/140/10 61/141/10 63/142/10
f 65/143/1 67/144/1 68/145/1 66/146/1
f 69/147/2 70/148/2 72/149/2 71/150/2
f 65/151/3 66/152/3 70/153/3 69/154/3
f 66/146/4 68/145/4 72/149/4 70/148/4
f 68/155/5 67/156/5 71/150/5 72/149/5
f 67/157/6 65/158/6 69/159/6 71/160/6
f 73/161/1 75/162/1 76/163/1 74/164/1
f 77/165/2 78/166/2 80/167/2 79/168/2
f 73/169/3 74/170/3 78/171/3 77/172/3
f 74/164/4 76/163/4 80/167/4 78/166/4
f 76/173/5 75/174/5 79/168/5 80/167/5
f 75/175/6 73/176/6 77/177/6 79/178/6
f 81/179/1 83/180/1 84/181/1 82/182/1
f 85/183/2 86/184/2 88/185/2 87/186/2
f 81/187/3 82/188/3 86/189/3 85/190/3
f 82/182/4 84/181/4 88/185/4 86/184/4
f 84/191/5 83/192/5 87/186/5 88/185/5
f 83/193/6 81/194/6 85/195/6 87/196/6
f 89/197/1 91/198/1 92/199/1 90/200/1
f 93/201/2 94/202/2 96/203/2 95/204/2
f 89/205/3 90/206/3 94/207/3 93/208/3
f 90/200/4 92/199/4 96/203/4 94/202/4
f 92/209/5 91/210/5 95/204/5 96/203/5
f 91/211/6 89/212/6 93/213/6 95/214/6
f 97/215/1 99/216/1 100/217/1 98/218/1
f 101/219/2 102/220/2 104/221/2 103/222/2
f 97/223/3 98/224/3 102/225/3 101/226/3
f 98/218/4 100/217/4 104/221/4 102/220/4
f 100/227/5 99/228/5 103/222/5 104/221/5
f 99/229/6 97/230/6 101/231/6 103/232/6
