{
	"asset":{
		"generator":"Khronos glTF Blender I/O v5.0.21",
		"version":"2.0"
	},
	"extensionsUsed":[
		"KHR_materials_specular"
	],
	"scene":0,
	"scenes":[
		{
			"name":"Scene",
			"nodes":[
				34
			]
		}
	],
	"nodes":[
		{
			"name":"mixamorig:HeadTop_End",
			"rotation":[
				3.951721616601844e-09,
				0,
				0,
				1
			],
			"translation":[
				0,
				119.66177368164062,
				15.53318977355957
			]
		},
		{
			"children":[
				0
			],
			"name":"mixamorig:Head",
			"rotation":[
				6.915509498384154e-09,
				0,
				0,
				1
			],
			"scale":[
				1,
				0.9999999403953552,
				1
			],
			"translation":[
				0,
				15.244033813476562,
				1.9788150787353516
			]
		},
		{
			"children":[
				1
			],
			"name":"mixamorig:Neck",
			"rotation":[
				0.06985671073198318,
				0,
				0,
				0.9975570440292358
			],
			"scale":[
				1,
				0.9999998807907104,
				0.9999998211860657
			],
			"translation":[
				0,
				15.512777328491211,
				9.5367431640625e-07
			]
		},
		{
			"name":"mixamorig:LeftHandIndex4",
			"rotation":[
				-9.033830394855613e-08,
				1.6763806343078613e-08,
				5.587935891782081e-09,
				1
			],
			"scale":[
				1,
				0.9999998807907104,
				0.9999998807907104
			],
			"translation":[
				0.6569883823394775,
				0.92378830909729,
				-0.3864741325378418
			]
		},
		{
			"children":[
				3
			],
			"name":"mixamorig:LeftHandIndex3",
			"rotation":[
				-1.5830153188289842e-06,
				1.0192393347097095e-05,
				-2.737156819421216e-06,
				1
			],
			"scale":[
				1.0000001192092896,
				1.0000001192092896,
				1.0000001192092896
			],
			"translation":[
				1.822340965270996,
				-0.6837599277496338,
				4.392711639404297
			]
		},
		{
			"children":[
				4
			],
			"name":"mixamorig:LeftHandIndex2",
			"rotation":[
				6.53555616736412e-07,
				-2.246350049972534e-06,
				5.21540641784668e-07,
				1
			],
			"scale":[
				1,
				0.9999999403953552,
				1
			],
			"translation":[
				3.159046173095703e-06,
				5.79711389541626,
				4.5299530029296875e-06
			]
		},
		{
			"children":[
				5
			],
			"name":"mixamorig:LeftHandIndex1",
			"rotation":[
				0.042405594140291214,
				0.9494289755821228,
				-0.2743060886859894,
				0.14677368104457855
			],
			"scale":[
				1,
				0.9999998807907104,
				1
			],
			"translation":[
				2.7939677238464355e-06,
				6.210201263427734,
				-7.253140211105347e-06
			]
		},
		{
			"children":[
				6
			],
			"name":"mixamorig:LeftHand",
			"rotation":[
				0.48431700468063354,
				-0.5148084759712219,
				0.47885560989379883,
				0.5206789970397949
			],
			"scale":[
				0.9999998211860657,
				0.9999997615814209,
				0.9999999403953552
			],
			"translation":[
				-1.9073486328125e-06,
				36.93643569946289,
				-5.841255187988281e-06
			]
		},
		{
			"children":[
				7
			],
			"name":"mixamorig:LeftForeArm",
			"rotation":[
				-0.024520201608538628,
				-0.0002218967565568164,
				0.00904807634651661,
				0.9996584057807922
			],
			"scale":[
				0.9999997615814209,
				0.9999999403953552,
				0.9999998807907104
			],
			"translation":[
				-3.5762786865234375e-07,
				46.83324432373047,
				1.341104507446289e-05
			]
		},
		{
			"children":[
				8
			],
			"name":"mixamorig:LeftArm",
			"rotation":[
				-0.05355261638760567,
				-0.0008049049647524953,
				0.015008482150733471,
				0.9984518885612488
			],
			"scale":[
				1,
				1.0000001192092896,
				0.9999998807907104
			],
			"translation":[
				-1.0728836059570312e-06,
				35.42444610595703,
				-3.0994415283203125e-06
			]
		},
		{
			"children":[
				9
			],
			"name":"mixamorig:LeftShoulder",
			"rotation":[
				0.5265657901763916,
				0.473227858543396,
				-0.5353654623031616,
				0.46061670780181885
			],
			"scale":[
				1,
				1.0000001192092896,
				0.9999998807907104
			],
			"translation":[
				18.272096633911133,
				13.731342315673828,
				-0.3149528503417969
			]
		},
		{
			"name":"mixamorig:RightHandIndex4",
			"rotation":[
				-2.9802318834981634e-08,
				5.215405707303944e-08,
				-2.9802318834981634e-08,
				1
			],
			"scale":[
				1.0000001192092896,
				1.0000001192092896,
				1.0000001192092896
			],
			"translation":[
				-0.27271032333374023,
				-0.7011070251464844,
				-1.3066140413284302
			]
		},
		{
			"children":[
				11
			],
			"name":"mixamorig:RightHandIndex3",
			"rotation":[
				2.2016467937646667e-06,
				-5.438924290501745e-06,
				-3.725290742551124e-09,
				1
			],
			"scale":[
				0.9999999403953552,
				0.9999998807907104,
				0.9999998807907104
			],
			"translation":[
				2.9589622020721436,
				0.4152340888977051,
				-0.6802800893783569
			]
		},
		{
			"children":[
				12
			],
			"name":"mixamorig:RightHandIndex2",
			"rotation":[
				-7.897615432739258e-07,
				3.0472874641418457e-06,
				-6.370246410369873e-07,
				1
			],
			"translation":[
				-8.106231689453125e-06,
				1.6810014247894287,
				1.7523765563964844e-05
			]
		},
		{
			"children":[
				13
			],
			"name":"mixamorig:RightHandIndex1",
			"rotation":[
				0.3872458040714264,
				0.5988413691520691,
				-0.5717926025390625,
				0.4055649936199188
			],
			"scale":[
				0.9999999403953552,
				0.9999998807907104,
				0.9999998807907104
			],
			"translation":[
				-4.76837158203125e-07,
				7.140131950378418,
				1.7523765563964844e-05
			]
		},
		{
			"children":[
				14
			],
			"name":"mixamorig:RightHand",
			"rotation":[
				0.49773845076560974,
				0.11116129904985428,
				-0.06450523436069489,
				0.8577521443367004
			],
			"scale":[
				0.9999999403953552,
				1.0000001192092896,
				0.9999999403953552
			],
			"translation":[
				1.9073486328125e-06,
				36.970184326171875,
				-5.125999450683594e-06
			]
		},
		{
			"children":[
				15
			],
			"name":"mixamorig:RightForeArm",
			"rotation":[
				-0.028700800612568855,
				-0.000617420650087297,
				0.021501094102859497,
				0.9993566274642944
			],
			"scale":[
				0.9999999403953552,
				1.0000001192092896,
				1
			],
			"translation":[
				1.5869736671447754e-06,
				46.83024597167969,
				-9.5367431640625e-07
			]
		},
		{
			"children":[
				16
			],
			"name":"mixamorig:RightArm",
			"rotation":[
				-0.054699745029211044,
				0.0003668649587780237,
				-0.006698891054838896,
				0.9984803199768066
			],
			"scale":[
				1,
				1.0000001192092896,
				1.0000001192092896
			],
			"translation":[
				-2.384185791015625e-07,
				35.42444610595703,
				-6.556510925292969e-06
			]
		},
		{
			"children":[
				17
			],
			"name":"mixamorig:RightShoulder",
			"rotation":[
				0.5286310911178589,
				-0.4712296426296234,
				0.533795177936554,
				0.46211954951286316
			],
			"scale":[
				1,
				1.0000001192092896,
				0.9999999403953552
			],
			"translation":[
				-18.272096633911133,
				13.713615417480469,
				-0.18900060653686523
			]
		},
		{
			"children":[
				2,
				10,
				18
			],
			"name":"mixamorig:Spine2",
			"rotation":[
				1.4901161193847656e-08,
				0,
				0,
				1
			],
			"scale":[
				1,
				0.9999998807907104,
				1
			],
			"translation":[
				0,
				13.789138793945312,
				0
			]
		},
		{
			"children":[
				19
			],
			"name":"mixamorig:Spine1",
			"rotation":[
				-8.568167686462402e-08,
				0,
				0,
				1
			],
			"translation":[
				0,
				12.065502166748047,
				9.5367431640625e-07
			]
		},
		{
			"children":[
				20
			],
			"name":"mixamorig:Spine",
			"rotation":[
				-0.069856658577919,
				0,
				0,
				0.9975570440292358
			],
			"scale":[
				1,
				0.9999998807907104,
				1
			],
			"translation":[
				0,
				10.24090576171875,
				-1.4413650035858154
			]
		},
		{
			"name":"mixamorig:LeftToe_End",
			"rotation":[
				8.847563570668626e-09,
				4.423781874152155e-08,
				-1.9739669454565956e-08,
				1
			],
			"scale":[
				1,
				1.0000001192092896,
				1.0000001192092896
			],
			"translation":[
				-3.423541784286499e-06,
				14.111395835876465,
				-1.7881393432617188e-07
			]
		},
		{
			"children":[
				22
			],
			"name":"mixamorig:LeftToeBase",
			"rotation":[
				-0.056659579277038574,
				-0.002060375642031431,
				0.03637068346142769,
				0.9977287650108337
			],
			"scale":[
				1,
				0.9999999403953552,
				0.9999999403953552
			],
			"translation":[
				-2.168118953704834e-06,
				17.179622650146484,
				-1.7881393432617188e-07
			]
		},
		{
			"children":[
				23
			],
			"name":"mixamorig:LeftFoot",
			"rotation":[
				0.7358918190002441,
				-0.1998549997806549,
				0.2457510083913803,
				0.5984377264976501
			],
			"scale":[
				1,
				1.0000001192092896,
				1.0000001192092896
			],
			"translation":[
				1.8402934074401855e-06,
				36.526371002197266,
				-5.364418029785156e-07
			]
		},
		{
			"children":[
				24
			],
			"name":"mixamorig:LeftLeg",
			"rotation":[
				-0.06870181113481522,
				0.005723075941205025,
				-0.08281760662794113,
				0.9941773414611816
			],
			"scale":[
				0.9999999403953552,
				0.9999999403953552,
				1
			],
			"translation":[
				3.951601684093475e-06,
				45.472904205322266,
				4.746834747493267e-08
			]
		},
		{
			"children":[
				25
			],
			"name":"mixamorig:LeftUpLeg",
			"rotation":[
				-0.0004859167383983731,
				-0.009810371324419975,
				-0.9987392425537109,
				0.04922900348901749
			],
			"scale":[
				1.0000243186950684,
				0.9999998807907104,
				1.0000009536743164
			],
			"translation":[
				22.016923904418945,
				-5.657219409942627,
				-7.359555721282959
			]
		},
		{
			"name":"mixamorig:RightToe_End",
			"rotation":[
				-1.3969837731053758e-08,
				-2.4214385163645602e-08,
				5.145557224750519e-08,
				1
			],
			"scale":[
				1,
				1,
				1.0000001192092896
			],
			"translation":[
				-3.691762685775757e-06,
				14.118462562561035,
				0
			]
		},
		{
			"children":[
				27
			],
			"name":"mixamorig:RightToeBase",
			"rotation":[
				-0.055606305599212646,
				0.002721654949709773,
				-0.04887211695313454,
				0.9972522854804993
			],
			"scale":[
				0.9999998211860657,
				0.9999998807907104,
				0.9999998211860657
			],
			"translation":[
				2.51084566116333e-06,
				17.79593849182129,
				-5.513429641723633e-07
			]
		},
		{
			"children":[
				28
			],
			"name":"mixamorig:RightFoot",
			"rotation":[
				0.7405224442481995,
				0.19137851893901825,
				-0.23650075495243073,
				0.5992230176925659
			],
			"scale":[
				0.9999998807907104,
				0.9999998807907104,
				1
			],
			"translation":[
				-8.930437616072595e-07,
				36.564483642578125,
				-6.705522537231445e-07
			]
		},
		{
			"children":[
				29
			],
			"name":"mixamorig:RightLeg",
			"rotation":[
				-0.0631033182144165,
				-0.005251929629594088,
				0.08277201652526855,
				0.9945547580718994
			],
			"scale":[
				0.9999998211860657,
				0.9999997615814209,
				0.9999997615814209
			],
			"translation":[
				1.5537007129751146e-06,
				45.46420669555664,
				1.867152036538755e-06
			]
		},
		{
			"children":[
				30
			],
			"name":"mixamorig:RightUpLeg",
			"rotation":[
				2.98529744213738e-06,
				-6.0411988670239225e-05,
				0.9987869262695312,
				0.04924090951681137
			],
			"scale":[
				1.0000231266021729,
				1,
				1
			],
			"translation":[
				-22.016923904418945,
				-5.657219409942627,
				-6.786730766296387
			]
		},
		{
			"children":[
				21,
				26,
				31
			],
			"name":"mixamorig:Hips",
			"rotation":[
				4.0600411921332125e-08,
				0,
				0,
				1
			],
			"translation":[
				0,
				89.84977722167969,
				0.3851640820503235
			]
		},
		{
			"mesh":0,
			"name":"Character",
			"skin":0
		},
		{
			"children":[
				33,
				32
			],
			"name":"Armature",
			"rotation":[
				0.7071068286895752,
				0,
				0,
				0.7071068286895752
			],
			"scale":[
				0.009999999776482582,
				0.009999999776482582,
				0.009999999776482582
			]
		}
	],
	"animations":[
		{
			"channels":[
				{
					"sampler":0,
					"target":{
						"node":32,
						"path":"translation"
					}
				},
				{
					"sampler":1,
					"target":{
						"node":32,
						"path":"rotation"
					}
				},
				{
					"sampler":2,
					"target":{
						"node":32,
						"path":"scale"
					}
				},
				{
					"sampler":3,
					"target":{
						"node":21,
						"path":"translation"
					}
				},
				{
					"sampler":4,
					"target":{
						"node":21,
						"path":"rotation"
					}
				},
				{
					"sampler":5,
					"target":{
						"node":21,
						"path":"scale"
					}
				},
				{
					"sampler":6,
					"target":{
						"node":20,
						"path":"translation"
					}
				},
				{
					"sampler":7,
					"target":{
						"node":20,
						"path":"rotation"
					}
				},
				{
					"sampler":8,
					"target":{
						"node":20,
						"path":"scale"
					}
				},
				{
					"sampler":9,
					"target":{
						"node":19,
						"path":"translation"
					}
				},
				{
					"sampler":10,
					"target":{
						"node":19,
						"path":"rotation"
					}
				},
				{
					"sampler":11,
					"target":{
						"node":19,
						"path":"scale"
					}
				},
				{
					"sampler":12,
					"target":{
						"node":2,
						"path":"translation"
					}
				},
				{
					"sampler":13,
					"target":{
						"node":2,
						"path":"rotation"
					}
				},
				{
					"sampler":14,
					"target":{
						"node":2,
						"path":"scale"
					}
				},
				{
					"sampler":15,
					"target":{
						"node":1,
						"path":"translation"
					}
				},
				{
					"sampler":16,
					"target":{
						"node":1,
						"path":"rotation"
					}
				},
				{
					"sampler":17,
					"target":{
						"node":1,
						"path":"scale"
					}
				},
				{
					"sampler":18,
					"target":{
						"node":0,
						"path":"translation"
					}
				},
				{
					"sampler":19,
					"target":{
						"node":0,
						"path":"rotation"
					}
				},
				{
					"sampler":20,
					"target":{
						"node":0,
						"path":"scale"
					}
				},
				{
					"sampler":21,
					"target":{
						"node":10,
						"path":"translation"
					}
				},
				{
					"sampler":22,
					"target":{
						"node":10,
						"path":"rotation"
					}
				},
				{
					"sampler":23,
					"target":{
						"node":10,
						"path":"scale"
					}
				},
				{
					"sampler":24,
					"target":{
						"node":9,
						"path":"translation"
					}
				},
				{
					"sampler":25,
					"target":{
						"node":9,
						"path":"rotation"
					}
				},
				{
					"sampler":26,
					"target":{
						"node":9,
						"path":"scale"
					}
				},
				{
					"sampler":27,
					"target":{
						"node":8,
						"path":"translation"
					}
				},
				{
					"sampler":28,
					"target":{
						"node":8,
						"path":"rotation"
					}
				},
				{
					"sampler":29,
					"target":{
						"node":8,
						"path":"scale"
					}
				},
				{
					"sampler":30,
					"target":{
						"node":7,
						"path":"translation"
					}
				},
				{
					"sampler":31,
					"target":{
						"node":7,
						"path":"rotation"
					}
				},
				{
					"sampler":32,
					"target":{
						"node":7,
						"path":"scale"
					}
				},
				{
					"sampler":33,
					"target":{
						"node":6,
						"path":"translation"
					}
				},
				{
					"sampler":34,
					"target":{
						"node":6,
						"path":"rotation"
					}
				},
				{
					"sampler":35,
					"target":{
						"node":6,
						"path":"scale"
					}
				},
				{
					"sampler":36,
					"target":{
						"node":5,
						"path":"translation"
					}
				},
				{
					"sampler":37,
					"target":{
						"node":5,
						"path":"rotation"
					}
				},
				{
					"sampler":38,
					"target":{
						"node":5,
						"path":"scale"
					}
				},
				{
					"sampler":39,
					"target":{
						"node":4,
						"path":"translation"
					}
				},
				{
					"sampler":40,
					"target":{
						"node":4,
						"path":"rotation"
					}
				},
				{
					"sampler":41,
					"target":{
						"node":4,
						"path":"scale"
					}
				},
				{
					"sampler":42,
					"target":{
						"node":3,
						"path":"translation"
					}
				},
				{
					"sampler":43,
					"target":{
						"node":3,
						"path":"rotation"
					}
				},
				{
					"sampler":44,
					"target":{
						"node":3,
						"path":"scale"
					}
				},
				{
					"sampler":45,
					"target":{
						"node":18,
						"path":"translation"
					}
				},
				{
					"sampler":46,
					"target":{
						"node":18,
						"path":"rotation"
					}
				},
				{
					"sampler":47,
					"target":{
						"node":18,
						"path":"scale"
					}
				},
				{
					"sampler":48,
					"target":{
						"node":17,
						"path":"translation"
					}
				},
				{
					"sampler":49,
					"target":{
						"node":17,
						"path":"rotation"
					}
				},
				{
					"sampler":50,
					"target":{
						"node":17,
						"path":"scale"
					}
				},
				{
					"sampler":51,
					"target":{
						"node":16,
						"path":"translation"
					}
				},
				{
					"sampler":52,
					"target":{
						"node":16,
						"path":"rotation"
					}
				},
				{
					"sampler":53,
					"target":{
						"node":16,
						"path":"scale"
					}
				},
				{
					"sampler":54,
					"target":{
						"node":15,
						"path":"translation"
					}
				},
				{
					"sampler":55,
					"target":{
						"node":15,
						"path":"rotation"
					}
				},
				{
					"sampler":56,
					"target":{
						"node":15,
						"path":"scale"
					}
				},
				{
					"sampler":57,
					"target":{
						"node":14,
						"path":"translation"
					}
				},
				{
					"sampler":58,
					"target":{
						"node":14,
						"path":"rotation"
					}
				},
				{
					"sampler":59,
					"target":{
						"node":14,
						"path":"scale"
					}
				},
				{
					"sampler":60,
					"target":{
						"node":13,
						"path":"translation"
					}
				},
				{
					"sampler":61,
					"target":{
						"node":13,
						"path":"rotation"
					}
				},
				{
					"sampler":62,
					"target":{
						"node":13,
						"path":"scale"
					}
				},
				{
					"sampler":63,
					"target":{
						"node":12,
						"path":"translation"
					}
				},
				{
					"sampler":64,
					"target":{
						"node":12,
						"path":"rotation"
					}
				},
				{
					"sampler":65,
					"target":{
						"node":12,
						"path":"scale"
					}
				},
				{
					"sampler":66,
					"target":{
						"node":11,
						"path":"translation"
					}
				},
				{
					"sampler":67,
					"target":{
						"node":11,
						"path":"rotation"
					}
				},
				{
					"sampler":68,
					"target":{
						"node":11,
						"path":"scale"
					}
				},
				{
					"sampler":69,
					"target":{
						"node":26,
						"path":"translation"
					}
				},
				{
					"sampler":70,
					"target":{
						"node":26,
						"path":"rotation"
					}
				},
				{
					"sampler":71,
					"target":{
						"node":26,
						"path":"scale"
					}
				},
				{
					"sampler":72,
					"target":{
						"node":25,
						"path":"translation"
					}
				},
				{
					"sampler":73,
					"target":{
						"node":25,
						"path":"rotation"
					}
				},
				{
					"sampler":74,
					"target":{
						"node":25,
						"path":"scale"
					}
				},
				{
					"sampler":75,
					"target":{
						"node":24,
						"path":"translation"
					}
				},
				{
					"sampler":76,
					"target":{
						"node":24,
						"path":"rotation"
					}
				},
				{
					"sampler":77,
					"target":{
						"node":24,
						"path":"scale"
					}
				},
				{
					"sampler":78,
					"target":{
						"node":23,
						"path":"translation"
					}
				},
				{
					"sampler":79,
					"target":{
						"node":23,
						"path":"rotation"
					}
				},
				{
					"sampler":80,
					"target":{
						"node":23,
						"path":"scale"
					}
				},
				{
					"sampler":81,
					"target":{
						"node":22,
						"path":"translation"
					}
				},
				{
					"sampler":82,
					"target":{
						"node":22,
						"path":"rotation"
					}
				},
				{
					"sampler":83,
					"target":{
						"node":22,
						"path":"scale"
					}
				},
				{
					"sampler":84,
					"target":{
						"node":31,
						"path":"translation"
					}
				},
				{
					"sampler":85,
					"target":{
						"node":31,
						"path":"rotation"
					}
				},
				{
					"sampler":86,
					"target":{
						"node":31,
						"path":"scale"
					}
				},
				{
					"sampler":87,
					"target":{
						"node":30,
						"path":"translation"
					}
				},
				{
					"sampler":88,
					"target":{
						"node":30,
						"path":"rotation"
					}
				},
				{
					"sampler":89,
					"target":{
						"node":30,
						"path":"scale"
					}
				},
				{
					"sampler":90,
					"target":{
						"node":29,
						"path":"translation"
					}
				},
				{
					"sampler":91,
					"target":{
						"node":29,
						"path":"rotation"
					}
				},
				{
					"sampler":92,
					"target":{
						"node":29,
						"path":"scale"
					}
				},
				{
					"sampler":93,
					"target":{
						"node":28,
						"path":"translation"
					}
				},
				{
					"sampler":94,
					"target":{
						"node":28,
						"path":"rotation"
					}
				},
				{
					"sampler":95,
					"target":{
						"node":28,
						"path":"scale"
					}
				},
				{
					"sampler":96,
					"target":{
						"node":27,
						"path":"translation"
					}
				},
				{
					"sampler":97,
					"target":{
						"node":27,
						"path":"rotation"
					}
				},
				{
					"sampler":98,
					"target":{
						"node":27,
						"path":"scale"
					}
				}
			],
			"name":"mixamo.com",
			"samplers":[
				{
					"input":7,
					"interpolation":"LINEAR",
					"output":8
				},
				{
					"input":7,
					"interpolation":"LINEAR",
					"output":9
				},
				{
					"input":10,
					"interpolation":"STEP",
					"output":11
				},
				{
					"input":10,
					"interpolation":"LINEAR",
					"output":12
				},
				{
					"input":7,
					"interpolation":"LINEAR",
					"output":13
				},
				{
					"input":10,
					"interpolation":"LINEAR",
					"output":14
				},
				{
					"input":10,
					"interpolation":"LINEAR",
					"output":15
				},
				{
					"input":7,
					"interpolation":"LINEAR",
					"output":16
				},
				{
					"input":10,
					"interpolation":"STEP",
					"output":17
				},
				{
					"input":10,
					"interpolation":"LINEAR",
					"output":18
				},
				{
					"input":7,
					"interpolation":"LINEAR",
					"output":19
				},
				{
					"input":10,
					"interpolation":"STEP",
					"output":20
				},
				{
					"input":10,
					"interpolation":"LINEAR",
					"output":21
				},
				{
					"input":7,
					"interpolation":"LINEAR",
					"output":22
				},
				{
					"input":10,
					"interpolation":"LINEAR",
					"output":23
				},
				{
					"input":10,
					"interpolation":"LINEAR",
					"output":24
				},
				{
					"input":7,
					"interpolation":"LINEAR",
					"output":25
				},
				{
					"input":10,
					"interpolation":"LINEAR",
					"output":26
				},
				{
					"input":7,
					"interpolation":"LINEAR",
					"output":27
				},
				{
					"input":10,
					"interpolation":"STEP",
					"output":28
				},
				{
					"input":10,
					"interpolation":"STEP",
					"output":29
				},
				{
					"input":10,
					"interpolation":"LINEAR",
					"output":30
				},
				{
					"input":7,
					"interpolation":"LINEAR",
					"output":31
				},
				{
					"input":10,
					"interpolation":"LINEAR",
					"output":32
				},
				{
					"input":10,
					"interpolation":"LINEAR",
					"output":33
				},
				{
					"input":7,
					"interpolation":"LINEAR",
					"output":34
				},
				{
					"input":10,
					"interpolation":"LINEAR",
					"output":35
				},
				{
					"input":10,
					"interpolation":"LINEAR",
					"output":36
				},
				{
					"input":7,
					"interpolation":"LINEAR",
					"output":37
				},
				{
					"input":10,
					"interpolation":"LINEAR",
					"output":38
				},
				{
					"input":10,
					"interpolation":"LINEAR",
					"output":39
				},
				{
					"input":7,
					"interpolation":"LINEAR",
					"output":40
				},
				{
					"input":10,
					"interpolation":"LINEAR",
					"output":41
				},
				{
					"input":10,
					"interpolation":"LINEAR",
					"output":42
				},
				{
					"input":7,
					"interpolation":"LINEAR",
					"output":43
				},
				{
					"input":10,
					"interpolation":"STEP",
					"output":44
				},
				{
					"input":10,
					"interpolation":"LINEAR",
					"output":45
				},
				{
					"input":7,
					"interpolation":"LINEAR",
					"output":46
				},
				{
					"input":10,
					"interpolation":"STEP",
					"output":32
				},
				{
					"input":10,
					"interpolation":"LINEAR",
					"output":47
				},
				{
					"input":7,
					"interpolation":"LINEAR",
					"output":48
				},
				{
					"input":10,
					"interpolation":"LINEAR",
					"output":49
				},
				{
					"input":10,
					"interpolation":"STEP",
					"output":50
				},
				{
					"input":10,
					"interpolation":"STEP",
					"output":51
				},
				{
					"input":10,
					"interpolation":"STEP",
					"output":52
				},
				{
					"input":10,
					"interpolation":"LINEAR",
					"output":53
				},
				{
					"input":7,
					"interpolation":"LINEAR",
					"output":54
				},
				{
					"input":10,
					"interpolation":"LINEAR",
					"output":55
				},
				{
					"input":10,
					"interpolation":"LINEAR",
					"output":56
				},
				{
					"input":7,
					"interpolation":"LINEAR",
					"output":57
				},
				{
					"input":10,
					"interpolation":"LINEAR",
					"output":58
				},
				{
					"input":10,
					"interpolation":"LINEAR",
					"output":59
				},
				{
					"input":7,
					"interpolation":"LINEAR",
					"output":60
				},
				{
					"input":10,
					"interpolation":"STEP",
					"output":61
				},
				{
					"input":10,
					"interpolation":"LINEAR",
					"output":62
				},
				{
					"input":7,
					"interpolation":"LINEAR",
					"output":63
				},
				{
					"input":10,
					"interpolation":"LINEAR",
					"output":64
				},
				{
					"input":10,
					"interpolation":"LINEAR",
					"output":65
				},
				{
					"input":7,
					"interpolation":"LINEAR",
					"output":66
				},
				{
					"input":10,
					"interpolation":"LINEAR",
					"output":67
				},
				{
					"input":10,
					"interpolation":"LINEAR",
					"output":68
				},
				{
					"input":7,
					"interpolation":"LINEAR",
					"output":69
				},
				{
					"input":10,
					"interpolation":"STEP",
					"output":70
				},
				{
					"input":10,
					"interpolation":"LINEAR",
					"output":71
				},
				{
					"input":7,
					"interpolation":"LINEAR",
					"output":72
				},
				{
					"input":10,
					"interpolation":"LINEAR",
					"output":73
				},
				{
					"input":10,
					"interpolation":"STEP",
					"output":74
				},
				{
					"input":10,
					"interpolation":"STEP",
					"output":75
				},
				{
					"input":10,
					"interpolation":"STEP",
					"output":76
				},
				{
					"input":10,
					"interpolation":"LINEAR",
					"output":77
				},
				{
					"input":7,
					"interpolation":"LINEAR",
					"output":78
				},
				{
					"input":10,
					"interpolation":"STEP",
					"output":79
				},
				{
					"input":10,
					"interpolation":"LINEAR",
					"output":80
				},
				{
					"input":7,
					"interpolation":"LINEAR",
					"output":81
				},
				{
					"input":10,
					"interpolation":"LINEAR",
					"output":82
				},
				{
					"input":10,
					"interpolation":"LINEAR",
					"output":83
				},
				{
					"input":7,
					"interpolation":"LINEAR",
					"output":84
				},
				{
					"input":10,
					"interpolation":"LINEAR",
					"output":85
				},
				{
					"input":10,
					"interpolation":"LINEAR",
					"output":86
				},
				{
					"input":7,
					"interpolation":"LINEAR",
					"output":87
				},
				{
					"input":10,
					"interpolation":"LINEAR",
					"output":88
				},
				{
					"input":10,
					"interpolation":"STEP",
					"output":89
				},
				{
					"input":10,
					"interpolation":"STEP",
					"output":90
				},
				{
					"input":10,
					"interpolation":"STEP",
					"output":91
				},
				{
					"input":10,
					"interpolation":"LINEAR",
					"output":92
				},
				{
					"input":7,
					"interpolation":"LINEAR",
					"output":93
				},
				{
					"input":10,
					"interpolation":"STEP",
					"output":94
				},
				{
					"input":10,
					"interpolation":"LINEAR",
					"output":95
				},
				{
					"input":7,
					"interpolation":"LINEAR",
					"output":96
				},
				{
					"input":10,
					"interpolation":"STEP",
					"output":97
				},
				{
					"input":10,
					"interpolation":"LINEAR",
					"output":98
				},
				{
					"input":7,
					"interpolation":"LINEAR",
					"output":99
				},
				{
					"input":10,
					"interpolation":"LINEAR",
					"output":100
				},
				{
					"input":10,
					"interpolation":"LINEAR",
					"output":101
				},
				{
					"input":7,
					"interpolation":"LINEAR",
					"output":102
				},
				{
					"input":10,
					"interpolation":"STEP",
					"output":103
				},
				{
					"input":10,
					"interpolation":"STEP",
					"output":104
				},
				{
					"input":10,
					"interpolation":"STEP",
					"output":105
				},
				{
					"input":10,
					"interpolation":"STEP",
					"output":106
				}
			]
		}
	],
	"materials":[
		{
			"doubleSided":true,
			"extensions":{
				"KHR_materials_specular":{
					"specularColorFactor":[
						0.800000011920929,
						0.800000011920929,
						0.800000011920929
					]
				}
			},
			"name":"Atlas",
			"pbrMetallicRoughness":{
				"metallicFactor":0,
				"roughnessFactor":0.5
			}
		}
	],
	"meshes":[
		{
			"name":"Cube.000",
			"primitives":[
				{
					"attributes":{
						"POSITION":0,
						"NORMAL":1,
						"TEXCOORD_0":2,
						"JOINTS_0":3,
						"WEIGHTS_0":4
					},
					"indices":5,
					"material":0
				}
			]
		}
	],
	"skins":[
		{
			"inverseBindMatrices":6,
			"joints":[
				32,
				21,
				20,
				19,
				2,
				1,
				0,
				10,
				9,
				8,
				7,
				6,
				5,
				4,
				3,
				18,
				17,
				16,
				15,
				14,
				13,
				12,
				11,
				26,
				25,
				24,
				23,
				22,
				31,
				30,
				29,
				28,
				27
			],
			"name":"Armature"
		}
	],
	"accessors":[
		{
			"bufferView":0,
			"componentType":5126,
			"count":1794,
			"max":[
				1.4459128379821777,
				0.5706996917724609,
				2.8388023376464844
			],
			"min":[
				-1.4459128379821777,
				-0.5706993937492371,
				0.00260995258577168
			],
			"type":"VEC3"
		},
		{
			"bufferView":1,
			"componentType":5126,
			"count":1794,
			"type":"VEC3"
		},
		{
			"bufferView":2,
			"componentType":5126,
			"count":1794,
			"type":"VEC2"
		},
		{
			"bufferView":3,
			"componentType":5121,
			"count":1794,
			"type":"VEC4"
		},
		{
			"bufferView":4,
			"componentType":5126,
			"count":1794,
			"type":"VEC4"
		},
		{
			"bufferView":5,
			"componentType":5123,
			"count":9366,
			"type":"SCALAR"
		},
		{
			"bufferView":6,
			"componentType":5126,
			"count":33,
			"type":"MAT4"
		},
		{
			"bufferView":7,
			"componentType":5126,
			"count":267,
			"max":[
				8.9
			],
			"min":[
				0.03333333333333333
			],
			"type":"SCALAR"
		},
		{
			"bufferView":8,
			"componentType":5126,
			"count":267,
			"type":"VEC3"
		},
		{
			"bufferView":9,
			"componentType":5126,
			"count":267,
			"type":"VEC4"
		},
		{
			"bufferView":10,
			"componentType":5126,
			"count":2,
			"max":[
				8.9
			],
			"min":[
				0.03333333333333333
			],
			"type":"SCALAR"
		},
		{
			"bufferView":11,
			"componentType":5126,
			"count":2,
			"type":"VEC3"
		},
		{
			"bufferView":12,
			"componentType":5126,
			"count":2,
			"type":"VEC3"
		},
		{
			"bufferView":13,
			"componentType":5126,
			"count":267,
			"type":"VEC4"
		},
		{
			"bufferView":14,
			"componentType":5126,
			"count":2,
			"type":"VEC3"
		},
		{
			"bufferView":15,
			"componentType":5126,
			"count":2,
			"type":"VEC3"
		},
		{
			"bufferView":16,
			"componentType":5126,
			"count":267,
			"type":"VEC4"
		},
		{
			"bufferView":17,
			"componentType":5126,
			"count":2,
			"type":"VEC3"
		},
		{
			"bufferView":18,
			"componentType":5126,
			"count":2,
			"type":"VEC3"
		},
		{
			"bufferView":19,
			"componentType":5126,
			"count":267,
			"type":"VEC4"
		},
		{
			"bufferView":20,
			"componentType":5126,
			"count":2,
			"type":"VEC3"
		},
		{
			"bufferView":21,
			"componentType":5126,
			"count":2,
			"type":"VEC3"
		},
		{
			"bufferView":22,
			"componentType":5126,
			"count":267,
			"type":"VEC4"
		},
		{
			"bufferView":23,
			"componentType":5126,
			"count":2,
			"type":"VEC3"
		},
		{
			"bufferView":24,
			"componentType":5126,
			"count":2,
			"type":"VEC3"
		},
		{
			"bufferView":25,
			"componentType":5126,
			"count":267,
			"type":"VEC4"
		},
		{
			"bufferView":26,
			"componentType":5126,
			"count":2,
			"type":"VEC3"
		},
		{
			"bufferView":27,
			"componentType":5126,
			"count":267,
			"type":"VEC3"
		},
		{
			"bufferView":28,
			"componentType":5126,
			"count":2,
			"type":"VEC4"
		},
		{
			"bufferView":29,
			"componentType":5126,
			"count":2,
			"type":"VEC3"
		},
		{
			"bufferView":30,
			"componentType":5126,
			"count":2,
			"type":"VEC3"
		},
		{
			"bufferView":31,
			"componentType":5126,
			"count":267,
			"type":"VEC4"
		},
		{
			"bufferView":32,
			"componentType":5126,
			"count":2,
			"type":"VEC3"
		},
		{
			"bufferView":33,
			"componentType":5126,
			"count":2,
			"type":"VEC3"
		},
		{
			"bufferView":34,
			"componentType":5126,
			"count":267,
			"type":"VEC4"
		},
		{
			"bufferView":35,
			"componentType":5126,
			"count":2,
			"type":"VEC3"
		},
		{
			"bufferView":36,
			"componentType":5126,
			"count":2,
			"type":"VEC3"
		},
		{
			"bufferView":37,
			"componentType":5126,
			"count":267,
			"type":"VEC4"
		},
		{
			"bufferView":38,
			"componentType":5126,
			"count":2,
			"type":"VEC3"
		},
		{
			"bufferView":39,
			"componentType":5126,
			"count":2,
			"type":"VEC3"
		},
		{
			"bufferView":40,
			"componentType":5126,
			"count":267,
			"type":"VEC4"
		},
		{
			"bufferView":41,
			"componentType":5126,
			"count":2,
			"type":"VEC3"
		},
		{
			"bufferView":42,
			"componentType":5126,
			"count":2,
			"type":"VEC3"
		},
		{
			"bufferView":43,
			"componentType":5126,
			"count":267,
			"type":"VEC4"
		},
		{
			"bufferView":44,
			"componentType":5126,
			"count":2,
			"type":"VEC3"
		},
		{
			"bufferView":45,
			"componentType":5126,
			"count":2,
			"type":"VEC3"
		},
		{
			"bufferView":46,
			"componentType":5126,
			"count":267,
			"type":"VEC4"
		},
		{
			"bufferView":47,
			"componentType":5126,
			"count":2,
			"type":"VEC3"
		},
		{
			"bufferView":48,
			"componentType":5126,
			"count":267,
			"type":"VEC4"
		},
		{
			"bufferView":49,
			"componentType":5126,
			"count":2,
			"type":"VEC3"
		},
		{
			"bufferView":50,
			"componentType":5126,
			"count":2,
			"type":"VEC3"
		},
		{
			"bufferView":51,
			"componentType":5126,
			"count":2,
			"type":"VEC4"
		},
		{
			"bufferView":52,
			"componentType":5126,
			"count":2,
			"type":"VEC3"
		},
		{
			"bufferView":53,
			"componentType":5126,
			"count":2,
			"type":"VEC3"
		},
		{
			"bufferView":54,
			"componentType":5126,
			"count":267,
			"type":"VEC4"
		},
		{
			"bufferView":55,
			"componentType":5126,
			"count":2,
			"type":"VEC3"
		},
		{
			"bufferView":56,
			"componentType":5126,
			"count":2,
			"type":"VEC3"
		},
		{
			"bufferView":57,
			"componentType":5126,
			"count":267,
			"type":"VEC4"
		},
		{
			"bufferView":58,
			"componentType":5126,
			"count":2,
			"type":"VEC3"
		},
		{
			"bufferView":59,
			"componentType":5126,
			"count":2,
			"type":"VEC3"
		},
		{
			"bufferView":60,
			"componentType":5126,
			"count":267,
			"type":"VEC4"
		},
		{
			"bufferView":61,
			"componentType":5126,
			"count":2,
			"type":"VEC3"
		},
		{
			"bufferView":62,
			"componentType":5126,
			"count":2,
			"type":"VEC3"
		},
		{
			"bufferView":63,
			"componentType":5126,
			"count":267,
			"type":"VEC4"
		},
		{
			"bufferView":64,
			"componentType":5126,
			"count":2,
			"type":"VEC3"
		},
		{
			"bufferView":65,
			"componentType":5126,
			"count":2,
			"type":"VEC3"
		},
		{
			"bufferView":66,
			"componentType":5126,
			"count":267,
			"type":"VEC4"
		},
		{
			"bufferView":67,
			"componentType":5126,
			"count":2,
			"type":"VEC3"
		},
		{
			"bufferView":68,
			"componentType":5126,
			"count":2,
			"type":"VEC3"
		},
		{
			"bufferView":69,
			"componentType":5126,
			"count":267,
			"type":"VEC4"
		},
		{
			"bufferView":70,
			"componentType":5126,
			"count":2,
			"type":"VEC3"
		},
		{
			"bufferView":71,
			"componentType":5126,
			"count":2,
			"type":"VEC3"
		},
		{
			"bufferView":72,
			"componentType":5126,
			"count":267,
			"type":"VEC4"
		},
		{
			"bufferView":73,
			"componentType":5126,
			"count":2,
			"type":"VEC3"
		},
		{
			"bufferView":74,
			"componentType":5126,
			"count":2,
			"type":"VEC3"
		},
		{
			"bufferView":75,
			"componentType":5126,
			"count":2,
			"type":"VEC4"
		},
		{
			"bufferView":76,
			"componentType":5126,
			"count":2,
			"type":"VEC3"
		},
		{
			"bufferView":77,
			"componentType":5126,
			"count":2,
			"type":"VEC3"
		},
		{
			"bufferView":78,
			"componentType":5126,
			"count":267,
			"type":"VEC4"
		},
		{
			"bufferView":79,
			"componentType":5126,
			"count":2,
			"type":"VEC3"
		},
		{
			"bufferView":80,
			"componentType":5126,
			"count":2,
			"type":"VEC3"
		},
		{
			"bufferView":81,
			"componentType":5126,
			"count":267,
			"type":"VEC4"
		},
		{
			"bufferView":82,
			"componentType":5126,
			"count":2,
			"type":"VEC3"
		},
		{
			"bufferView":83,
			"componentType":5126,
			"count":2,
			"type":"VEC3"
		},
		{
			"bufferView":84,
			"componentType":5126,
			"count":267,
			"type":"VEC4"
		},
		{
			"bufferView":85,
			"componentType":5126,
			"count":2,
			"type":"VEC3"
		},
		{
			"bufferView":86,
			"componentType":5126,
			"count":2,
			"type":"VEC3"
		},
		{
			"bufferView":87,
			"componentType":5126,
			"count":267,
			"type":"VEC4"
		},
		{
			"bufferView":88,
			"componentType":5126,
			"count":2,
			"type":"VEC3"
		},
		{
			"bufferView":89,
			"componentType":5126,
			"count":2,
			"type":"VEC3"
		},
		{
			"bufferView":90,
			"componentType":5126,
			"count":2,
			"type":"VEC4"
		},
		{
			"bufferView":91,
			"componentType":5126,
			"count":2,
			"type":"VEC3"
		},
		{
			"bufferView":92,
			"componentType":5126,
			"count":2,
			"type":"VEC3"
		},
		{
			"bufferView":93,
			"componentType":5126,
			"count":267,
			"type":"VEC4"
		},
		{
			"bufferView":94,
			"componentType":5126,
			"count":2,
			"type":"VEC3"
		},
		{
			"bufferView":95,
			"componentType":5126,
			"count":2,
			"type":"VEC3"
		},
		{
			"bufferView":96,
			"componentType":5126,
			"count":267,
			"type":"VEC4"
		},
		{
			"bufferView":97,
			"componentType":5126,
			"count":2,
			"type":"VEC3"
		},
		{
			"bufferView":98,
			"componentType":5126,
			"count":2,
			"type":"VEC3"
		},
		{
			"bufferView":99,
			"componentType":5126,
			"count":267,
			"type":"VEC4"
		},
		{
			"bufferView":100,
			"componentType":5126,
			"count":2,
			"type":"VEC3"
		},
		{
			"bufferView":101,
			"componentType":5126,
			"count":2,
			"type":"VEC3"
		},
		{
			"bufferView":102,
			"componentType":5126,
			"count":267,
			"type":"VEC4"
		},
		{
			"bufferView":103,
			"componentType":5126,
			"count":2,
			"type":"VEC3"
		},
		{
			"bufferView":104,
			"componentType":5126,
			"count":2,
			"type":"VEC3"
		},
		{
			"bufferView":105,
			"componentType":5126,
			"count":2,
			"type":"VEC4"
		},
		{
			"bufferView":106,
			"componentType":5126,
			"count":2,
			"type":"VEC3"
		}
	],
	"bufferViews":[
		{
			"buffer":0,
			"byteLength":21528,
			"byteOffset":0,
			"target":34962
		},
		{
			"buffer":0,
			"byteLength":21528,
			"byteOffset":21528,
			"target":34962
		},
		{
			"buffer":0,
			"byteLength":14352,
			"byteOffset":43056,
			"target":34962
		},
		{
			"buffer":0,
			"byteLength":7176,
			"byteOffset":57408,
			"target":34962
		},
		{
			"buffer":0,
			"byteLength":28704,
			"byteOffset":64584,
			"target":34962
		},
		{
			"buffer":0,
			"byteLength":18732,
			"byteOffset":93288,
			"target":34963
		},
		{
			"buffer":0,
			"byteLength":2112,
			"byteOffset":112020
		},
		{
			"buffer":0,
			"byteLength":1068,
			"byteOffset":114132
		},
		{
			"buffer":0,
			"byteLength":3204,
			"byteOffset":115200
		},
		{
			"buffer":0,
			"byteLength":4272,
			"byteOffset":118404
		},
		{
			"buffer":0,
			"byteLength":8,
			"byteOffset":122676
		},
		{
			"buffer":0,
			"byteLength":24,
			"byteOffset":122684
		},
		{
			"buffer":0,
			"byteLength":24,
			"byteOffset":122708
		},
		{
			"buffer":0,
			"byteLength":4272,
			"byteOffset":122732
		},
		{
			"buffer":0,
			"byteLength":24,
			"byteOffset":127004
		},
		{
			"buffer":0,
			"byteLength":24,
			"byteOffset":127028
		},
		{
			"buffer":0,
			"byteLength":4272,
			"byteOffset":127052
		},
		{
			"buffer":0,
			"byteLength":24,
			"byteOffset":131324
		},
		{
			"buffer":0,
			"byteLength":24,
			"byteOffset":131348
		},
		{
			"buffer":0,
			"byteLength":4272,
			"byteOffset":131372
		},
		{
			"buffer":0,
			"byteLength":24,
			"byteOffset":135644
		},
		{
			"buffer":0,
			"byteLength":24,
			"byteOffset":135668
		},
		{
			"buffer":0,
			"byteLength":4272,
			"byteOffset":135692
		},
		{
			"buffer":0,
			"byteLength":24,
			"byteOffset":139964
		},
		{
			"buffer":0,
			"byteLength":24,
			"byteOffset":139988
		},
		{
			"buffer":0,
			"byteLength":4272,
			"byteOffset":140012
		},
		{
			"buffer":0,
			"byteLength":24,
			"byteOffset":144284
		},
		{
			"buffer":0,
			"byteLength":3204,
			"byteOffset":144308
		},
		{
			"buffer":0,
			"byteLength":32,
			"byteOffset":147512
		},
		{
			"buffer":0,
			"byteLength":24,
			"byteOffset":147544
		},
		{
			"buffer":0,
			"byteLength":24,
			"byteOffset":147568
		},
		{
			"buffer":0,
			"byteLength":4272,
			"byteOffset":147592
		},
		{
			"buffer":0,
			"byteLength":24,
			"byteOffset":151864
		},
		{
			"buffer":0,
			"byteLength":24,
			"byteOffset":151888
		},
		{
			"buffer":0,
			"byteLength":4272,
			"byteOffset":151912
		},
		{
			"buffer":0,
			"byteLength":24,
			"byteOffset":156184
		},
		{
			"buffer":0,
			"byteLength":24,
			"byteOffset":156208
		},
		{
			"buffer":0,
			"byteLength":4272,
			"byteOffset":156232
		},
		{
			"buffer":0,
			"byteLength":24,
			"byteOffset":160504
		},
		{
			"buffer":0,
			"byteLength":24,
			"byteOffset":160528
		},
		{
			"buffer":0,
			"byteLength":4272,
			"byteOffset":160552
		},
		{
			"buffer":0,
			"byteLength":24,
			"byteOffset":164824
		},
		{
			"buffer":0,
			"byteLength":24,
			"byteOffset":164848
		},
		{
			"buffer":0,
			"byteLength":4272,
			"byteOffset":164872
		},
		{
			"buffer":0,
			"byteLength":24,
			"byteOffset":169144
		},
		{
			"buffer":0,
			"byteLength":24,
			"byteOffset":169168
		},
		{
			"buffer":0,
			"byteLength":4272,
			"byteOffset":169192
		},
		{
			"buffer":0,
			"byteLength":24,
			"byteOffset":173464
		},
		{
			"buffer":0,
			"byteLength":4272,
			"byteOffset":173488
		},
		{
			"buffer":0,
			"byteLength":24,
			"byteOffset":177760
		},
		{
			"buffer":0,
			"byteLength":24,
			"byteOffset":177784
		},
		{
			"buffer":0,
			"byteLength":32,
			"byteOffset":177808
		},
		{
			"buffer":0,
			"byteLength":24,
			"byteOffset":177840
		},
		{
			"buffer":0,
			"byteLength":24,
			"byteOffset":177864
		},
		{
			"buffer":0,
			"byteLength":4272,
			"byteOffset":177888
		},
		{
			"buffer":0,
			"byteLength":24,
			"byteOffset":182160
		},
		{
			"buffer":0,
			"byteLength":24,
			"byteOffset":182184
		},
		{
			"buffer":0,
			"byteLength":4272,
			"byteOffset":182208
		},
		{
			"buffer":0,
			"byteLength":24,
			"byteOffset":186480
		},
		{
			"buffer":0,
			"byteLength":24,
			"byteOffset":186504
		},
		{
			"buffer":0,
			"byteLength":4272,
			"byteOffset":186528
		},
		{
			"buffer":0,
			"byteLength":24,
			"byteOffset":190800
		},
		{
			"buffer":0,
			"byteLength":24,
			"byteOffset":190824
		},
		{
			"buffer":0,
			"byteLength":4272,
			"byteOffset":190848
		},
		{
			"buffer":0,
			"byteLength":24,
			"byteOffset":195120
		},
		{
			"buffer":0,
			"byteLength":24,
			"byteOffset":195144
		},
		{
			"buffer":0,
			"byteLength":4272,
			"byteOffset":195168
		},
		{
			"buffer":0,
			"byteLength":24,
			"byteOffset":199440
		},
		{
			"buffer":0,
			"byteLength":24,
			"byteOffset":199464
		},
		{
			"buffer":0,
			"byteLength":4272,
			"byteOffset":199488
		},
		{
			"buffer":0,
			"byteLength":24,
			"byteOffset":203760
		},
		{
			"buffer":0,
			"byteLength":24,
			"byteOffset":203784
		},
		{
			"buffer":0,
			"byteLength":4272,
			"byteOffset":203808
		},
		{
			"buffer":0,
			"byteLength":24,
			"byteOffset":208080
		},
		{
			"buffer":0,
			"byteLength":24,
			"byteOffset":208104
		},
		{
			"buffer":0,
			"byteLength":32,
			"byteOffset":208128
		},
		{
			"buffer":0,
			"byteLength":24,
			"byteOffset":208160
		},
		{
			"buffer":0,
			"byteLength":24,
			"byteOffset":208184
		},
		{
			"buffer":0,
			"byteLength":4272,
			"byteOffset":208208
		},
		{
			"buffer":0,
			"byteLength":24,
			"byteOffset":212480
		},
		{
			"buffer":0,
			"byteLength":24,
			"byteOffset":212504
		},
		{
			"buffer":0,
			"byteLength":4272,
			"byteOffset":212528
		},
		{
			"buffer":0,
			"byteLength":24,
			"byteOffset":216800
		},
		{
			"buffer":0,
			"byteLength":24,
			"byteOffset":216824
		},
		{
			"buffer":0,
			"byteLength":4272,
			"byteOffset":216848
		},
		{
			"buffer":0,
			"byteLength":24,
			"byteOffset":221120
		},
		{
			"buffer":0,
			"byteLength":24,
			"byteOffset":221144
		},
		{
			"buffer":0,
			"byteLength":4272,
			"byteOffset":221168
		},
		{
			"buffer":0,
			"byteLength":24,
			"byteOffset":225440
		},
		{
			"buffer":0,
			"byteLength":24,
			"byteOffset":225464
		},
		{
			"buffer":0,
			"byteLength":32,
			"byteOffset":225488
		},
		{
			"buffer":0,
			"byteLength":24,
			"byteOffset":225520
		},
		{
			"buffer":0,
			"byteLength":24,
			"byteOffset":225544
		},
		{
			"buffer":0,
			"byteLength":4272,
			"byteOffset":225568
		},
		{
			"buffer":0,
			"byteLength":24,
			"byteOffset":229840
		},
		{
			"buffer":0,
			"byteLength":24,
			"byteOffset":229864
		},
		{
			"buffer":0,
			"byteLength":4272,
			"byteOffset":229888
		},
		{
			"buffer":0,
			"byteLength":24,
			"byteOffset":234160
		},
		{
			"buffer":0,
			"byteLength":24,
			"byteOffset":234184
		},
		{
			"buffer":0,
			"byteLength":4272,
			"byteOffset":234208
		},
		{
			"buffer":0,
			"byteLength":24,
			"byteOffset":238480
		},
		{
			"buffer":0,
			"byteLength":24,
			"byteOffset":238504
		},
		{
			"buffer":0,
			"byteLength":4272,
			"byteOffset":238528
		},
		{
			"buffer":0,
			"byteLength":24,
			"byteOffset":242800
		},
		{
			"buffer":0,
			"byteLength":24,
			"byteOffset":242824
		},
		{
			"buffer":0,
			"byteLength":32,
			"byteOffset":242848
		},
		{
			"buffer":0,
			"byteLength":24,
			"byteOffset":242880
		}
	],
	"buffers":[
		{
			"byteLength":242904,
			"uri":"idle.bin"
		}
	]
}
