{
	"asset":{
		"generator":"Khronos glTF Blender I/O v5.2.39",
		"version":"2.0"
	},
	"scene":0,
	"scenes":[
		{
			"name":"Scene",
			"nodes":[
				0,
				1
			]
		}
	],
	"nodes":[
		{
			"mesh":0,
			"name":"0_treelarge_bark1_0",
			"scale":[
				0.002624274231493473,
				0.0026242746971547604,
				0.0026242746971547604
			],
			"translation":[
				0,
				0.009668580256402493,
				0
			]
		},
		{
			"mesh":1,
			"name":"leafplanes_197_leaf1_0",
			"rotation":[
				-0.11661293357610703,
				-0.13445791602134705,
				-0.015936022624373436,
				0.9839047789573669
			],
			"scale":[
				0.0026242739986628294,
				0.0026242746971547604,
				0.0026242744643241167
			],
			"translation":[
				-0.09348440915346146,
				0.6197457313537598,
				-0.06271465122699738
			]
		}
	],
	"materials":[
		{
			"name":"0_trunk",
			"normalTexture":{
				"index":0
			},
			"pbrMetallicRoughness":{
				"baseColorTexture":{
					"index":1
				},
				"metallicFactor":0,
				"metallicRoughnessTexture":{
					"index":2
				}
			}
		},
		{
			"alphaCutoff":0.6541539430618286,
			"alphaMode":"MASK",
			"doubleSided":true,
			"name":"1_leaf1",
			"normalTexture":{
				"index":3
			},
			"pbrMetallicRoughness":{
				"baseColorTexture":{
					"index":4
				},
				"metallicFactor":0,
				"metallicRoughnessTexture":{
					"index":5
				}
			}
		}
	],
	"meshes":[
		{
			"name":"treelarge_bark1_0",
			"primitives":[
				{
					"attributes":{
						"POSITION":0,
						"NORMAL":1,
						"TEXCOORD_0":2,
						"TEXCOORD_1":3
					},
					"indices":4,
					"material":0
				}
			]
		},
		{
			"name":"leafplanes_197_leaf1_0",
			"primitives":[
				{
					"attributes":{
						"POSITION":5,
						"NORMAL":6,
						"TEXCOORD_0":7,
						"TEXCOORD_1":8
					},
					"indices":9,
					"material":1
				}
			]
		}
	],
	"textures":[
		{
			"sampler":0,
			"source":0
		},
		{
			"sampler":0,
			"source":1
		},
		{
			"sampler":0,
			"source":2
		},
		{
			"sampler":0,
			"source":3
		},
		{
			"sampler":0,
			"source":4
		},
		{
			"sampler":0,
			"source":5
		}
	],
	"images":[
		{
			"mimeType":"image/png",
			"name":"bark1_normal",
			"uri":"bark1_normal.png"
		},
		{
			"mimeType":"image/png",
			"name":"bark1_baseColor",
			"uri":"bark1_baseColor.png"
		},
		{
			"mimeType":"image/png",
			"name":"bark1_metallicRoughness",
			"uri":"bark1_metallicRoughness.png"
		},
		{
			"mimeType":"image/png",
			"name":"leaf1_normal",
			"uri":"leaf1_normal.png"
		},
		{
			"mimeType":"image/png",
			"name":"leaf1_baseColor",
			"uri":"leaf1_baseColor.png"
		},
		{
			"mimeType":"image/png",
			"name":"leaf1_metallicRoughness",
			"uri":"leaf1_metallicRoughness.png"
		}
	],
	"accessors":[
		{
			"bufferView":0,
			"componentType":5126,
			"count":3889,
			"max":[
				212.45352172851562,
				659.8382568359375,
				264.41131591796875
			],
			"min":[
				-199.02171325683594,
				-9.617806434631348,
				-150.8486785888672
			],
			"type":"VEC3"
		},
		{
			"bufferView":1,
			"componentType":5126,
			"count":3889,
			"type":"VEC3"
		},
		{
			"bufferView":2,
			"componentType":5126,
			"count":3889,
			"type":"VEC2"
		},
		{
			"bufferView":3,
			"componentType":5126,
			"count":3889,
			"type":"VEC2"
		},
		{
			"bufferView":4,
			"componentType":5123,
			"count":17916,
			"type":"SCALAR"
		},
		{
			"bufferView":5,
			"componentType":5126,
			"count":1645,
			"max":[
				368.69384765625,
				505.2322082519531,
				397.32110595703125
			],
			"min":[
				-273.2948303222656,
				-111.18927764892578,
				-241.19737243652344
			],
			"type":"VEC3"
		},
		{
			"bufferView":6,
			"componentType":5126,
			"count":1645,
			"type":"VEC3"
		},
		{
			"bufferView":7,
			"componentType":5126,
			"count":1645,
			"type":"VEC2"
		},
		{
			"bufferView":8,
			"componentType":5126,
			"count":1645,
			"type":"VEC2"
		},
		{
			"bufferView":9,
			"componentType":5123,
			"count":5307,
			"type":"SCALAR"
		}
	],
	"bufferViews":[
		{
			"buffer":0,
			"byteLength":46668,
			"byteOffset":0,
			"target":34962
		},
		{
			"buffer":0,
			"byteLength":46668,
			"byteOffset":46668,
			"target":34962
		},
		{
			"buffer":0,
			"byteLength":31112,
			"byteOffset":93336,
			"target":34962
		},
		{
			"buffer":0,
			"byteLength":31112,
			"byteOffset":124448,
			"target":34962
		},
		{
			"buffer":0,
			"byteLength":35832,
			"byteOffset":155560,
			"target":34963
		},
		{
			"buffer":0,
			"byteLength":19740,
			"byteOffset":191392,
			"target":34962
		},
		{
			"buffer":0,
			"byteLength":19740,
			"byteOffset":211132,
			"target":34962
		},
		{
			"buffer":0,
			"byteLength":13160,
			"byteOffset":230872,
			"target":34962
		},
		{
			"buffer":0,
			"byteLength":13160,
			"byteOffset":244032,
			"target":34962
		},
		{
			"buffer":0,
			"byteLength":10614,
			"byteOffset":257192,
			"target":34963
		}
	],
	"samplers":[
		{
			"magFilter":9729,
			"minFilter":9987
		}
	],
	"buffers":[
		{
			"byteLength":267808,
			"uri":"oakTree1.bin"
		}
	]
}
