{
	"asset":{
		"generator":"Khronos glTF Blender I/O v5.2.39",
		"version":"2.0"
	},
	"scene":0,
	"scenes":[
		{
			"name":"Scene",
			"nodes":[
				4,
				11
			]
		}
	],
	"nodes":[
		{
			"name":"Tree_1"
		},
		{
			"children":[
				0
			],
			"name":"Tree_0"
		},
		{
			"children":[
				1
			],
			"name":"RootNode"
		},
		{
			"children":[
				2
			],
			"name":"Pine.fbx",
			"rotation":[
				0.70710688829422,
				0,
				0,
				0.7071066498756409
			],
			"scale":[
				0.009999999776482582,
				0.010000000707805157,
				0.010000000707805157
			]
		},
		{
			"children":[
				3
			],
			"name":"Sketchfab_model",
			"rotation":[
				-0.70710688829422,
				0,
				0,
				0.7071066498756409
			]
		},
		{
			"mesh":0,
			"name":"Tree_0_Tree_0Mat_0"
		},
		{
			"mesh":1,
			"name":"Tree_1_Tree_1Mat_0"
		},
		{
			"children":[
				6
			],
			"name":"Tree_1.001"
		},
		{
			"children":[
				5,
				7
			],
			"name":"Tree_0.001"
		},
		{
			"children":[
				8
			],
			"name":"RootNode.001"
		},
		{
			"children":[
				9
			],
			"name":"Pine.fbx.001",
			"rotation":[
				0.70710688829422,
				0,
				0,
				0.7071066498756409
			],
			"scale":[
				0.009999999776482582,
				0.010000000707805157,
				0.010000000707805157
			]
		},
		{
			"children":[
				10
			],
			"name":"Sketchfab_model.001",
			"rotation":[
				-0.70710688829422,
				0,
				0,
				0.7071066498756409
			]
		}
	],
	"materials":[
		{
			"name":"Tree_0Mat.001",
			"normalTexture":{
				"index":0
			},
			"pbrMetallicRoughness":{
				"baseColorTexture":{
					"index":1
				},
				"metallicFactor":0,
				"metallicRoughnessTexture":{
					"index":2
				}
			}
		},
		{
			"alphaCutoff":0.20798662304878235,
			"alphaMode":"MASK",
			"doubleSided":true,
			"name":"Tree_1Mat.001",
			"normalTexture":{
				"index":3
			},
			"pbrMetallicRoughness":{
				"baseColorTexture":{
					"index":4
				},
				"metallicFactor":0,
				"metallicRoughnessTexture":{
					"index":5
				}
			}
		}
	],
	"meshes":[
		{
			"name":"Tree_0_Tree_0Mat_0.001",
			"primitives":[
				{
					"attributes":{
						"POSITION":0,
						"NORMAL":1,
						"TEXCOORD_0":2
					},
					"indices":3,
					"material":0
				}
			]
		},
		{
			"name":"Tree_1_Tree_1Mat_0.001",
			"primitives":[
				{
					"attributes":{
						"POSITION":4,
						"NORMAL":5,
						"TEXCOORD_0":6
					},
					"indices":7,
					"material":1
				}
			]
		}
	],
	"textures":[
		{
			"sampler":0,
			"source":0
		},
		{
			"sampler":0,
			"source":1
		},
		{
			"sampler":0,
			"source":2
		},
		{
			"sampler":0,
			"source":3
		},
		{
			"sampler":0,
			"source":4
		},
		{
			"sampler":0,
			"source":5
		}
	],
	"images":[
		{
			"mimeType":"image/png",
			"name":"Tree_0Mat_normal",
			"uri":"Tree_0Mat_normal.png"
		},
		{
			"mimeType":"image/png",
			"name":"Tree_0Mat_baseColor",
			"uri":"Tree_0Mat_baseColor.png"
		},
		{
			"mimeType":"image/png",
			"name":"Tree_0Mat_metallicRoughness",
			"uri":"Tree_0Mat_metallicRoughness.png"
		},
		{
			"mimeType":"image/png",
			"name":"Tree_1Mat_normal",
			"uri":"Tree_1Mat_normal.png"
		},
		{
			"mimeType":"image/png",
			"name":"Tree_1Mat_baseColor",
			"uri":"Tree_1Mat_baseColor.png"
		},
		{
			"mimeType":"image/png",
			"name":"Tree_1Mat_metallicRoughness",
			"uri":"Tree_1Mat_metallicRoughness.png"
		}
	],
	"accessors":[
		{
			"bufferView":0,
			"componentType":5126,
			"count":3004,
			"max":[
				69.4262466430664,
				481.18365478515625,
				69.42398071289062
			],
			"min":[
				-65.84308624267578,
				0,
				-63.81229019165039
			],
			"type":"VEC3"
		},
		{
			"bufferView":1,
			"componentType":5126,
			"count":3004,
			"type":"VEC3"
		},
		{
			"bufferView":2,
			"componentType":5126,
			"count":3004,
			"type":"VEC2"
		},
		{
			"bufferView":3,
			"componentType":5123,
			"count":13617,
			"type":"SCALAR"
		},
		{
			"bufferView":4,
			"componentType":5126,
			"count":1088,
			"max":[
				110.62384033203125,
				531.5150756835938,
				111.54609680175781
			],
			"min":[
				-107.67622375488281,
				202.52426147460938,
				-105.10630798339844
			],
			"type":"VEC3"
		},
		{
			"bufferView":5,
			"componentType":5126,
			"count":1088,
			"type":"VEC3"
		},
		{
			"bufferView":6,
			"componentType":5126,
			"count":1088,
			"type":"VEC2"
		},
		{
			"bufferView":7,
			"componentType":5123,
			"count":3264,
			"type":"SCALAR"
		}
	],
	"bufferViews":[
		{
			"buffer":0,
			"byteLength":36048,
			"byteOffset":0,
			"target":34962
		},
		{
			"buffer":0,
			"byteLength":36048,
			"byteOffset":36048,
			"target":34962
		},
		{
			"buffer":0,
			"byteLength":24032,
			"byteOffset":72096,
			"target":34962
		},
		{
			"buffer":0,
			"byteLength":27234,
			"byteOffset":96128,
			"target":34963
		},
		{
			"buffer":0,
			"byteLength":13056,
			"byteOffset":123364,
			"target":34962
		},
		{
			"buffer":0,
			"byteLength":13056,
			"byteOffset":136420,
			"target":34962
		},
		{
			"buffer":0,
			"byteLength":8704,
			"byteOffset":149476,
			"target":34962
		},
		{
			"buffer":0,
			"byteLength":6528,
			"byteOffset":158180,
			"target":34963
		}
	],
	"samplers":[
		{
			"magFilter":9729,
			"minFilter":9987
		}
	],
	"buffers":[
		{
			"byteLength":164708,
			"uri":"tree.bin"
		}
	]
}
