# Blender 4.4.1
# www.blender.org
mtllib head.mtl
o 立方体
v -0.328382 0.333886 -0.431578
v -0.328382 -0.322825 -0.439912
v -0.182520 0.176975 0.438061
v -0.182520 -0.188036 0.433429
v 0.328382 0.333886 -0.431578
v 0.328382 -0.322825 -0.439912
v 0.182520 0.176975 0.438061
v 0.182520 -0.188036 0.433429
vn -0.9863 -0.0021 0.1650
vn -0.0000 -0.0127 0.9999
vn 0.9863 -0.0021 0.1650
vn -0.0000 0.0127 -0.9999
vn -0.0000 0.9841 0.1776
vn -0.0000 -0.9883 0.1525
vt 0.625000 0.000000
vt 0.375000 0.250000
vt 0.375000 0.000000
vt 0.625000 0.250000
vt 0.375000 0.500000
vt 0.625000 0.500000
vt 0.375000 0.750000
vt 0.625000 0.750000
vt 0.375000 1.000000
vt 0.125000 0.750000
vt 0.125000 0.500000
vt 0.875000 0.500000
vt 0.625000 1.000000
vt 0.875000 0.750000
s 0
f 2/1/1 3/2/1 1/3/1
f 4/4/2 7/5/2 3/2/2
f 8/6/3 5/7/3 7/5/3
f 6/8/4 1/9/4 5/7/4
f 7/5/5 1/10/5 3/11/5
f 4/12/6 6/8/6 8/6/6
f 2/1/1 4/4/1 3/2/1
f 4/4/2 8/6/2 7/5/2
f 8/6/3 6/8/3 5/7/3
f 6/8/4 2/13/4 1/9/4
f 7/5/5 5/7/5 1/10/5
f 4/12/6 2/14/6 6/8/6
