{
	"asset":{
		"generator":"Khronos glTF Blender I/O v5.2.40",
		"version":"2.0"
	},
	"scene":0,
	"scenes":[
		{
			"name":"Scene",
			"nodes":[
				6
			]
		}
	],
	"nodes":[
		{
			"mesh":0,
			"name":"Bullet_0",
			"translation":[
				0,
				-16.606748580932617,
				0
			]
		},
		{
			"children":[
				0
			],
			"name":"Bullet"
		},
		{
			"name":"Case"
		},
		{
			"mesh":1,
			"name":"Small Pistol Small Rifle_0",
			"translation":[
				0,
				-16.606748580932617,
				0
			]
		},
		{
			"children":[
				3
			],
			"name":"Small Pistol Small Rifle"
		},
		{
			"children":[
				1,
				2,
				4
			],
			"name":"Root"
		},
		{
			"children":[
				5
			],
			"name":"Sketchfab_model",
			"scale":[
				0.0700136050581932,
				0.0700136050581932,
				0.0700136050581932
			],
			"translation":[
				-0.0012744218111038208,
				-0.00019028782844543457,
				0.0005514621734619141
			]
		}
	],
	"materials":[
		{
			"doubleSided":true,
			"name":"\u30de\u30c6\u30ea\u30a2\u30eb.004",
			"pbrMetallicRoughness":{
				"baseColorFactor":[
					0.8000229597091675,
					0.24535836279392242,
					0.6258968114852905,
					1
				],
				"metallicFactor":0,
				"roughnessFactor":0.5
			}
		},
		{
			"doubleSided":true,
			"name":"\u30de\u30c6\u30ea\u30a2\u30eb.003",
			"pbrMetallicRoughness":{
				"baseColorFactor":[
					0.8000229597091675,
					0.4206162691116333,
					0.26044541597366333,
					1
				],
				"metallicFactor":0,
				"roughnessFactor":0.5
			}
		}
	],
	"meshes":[
		{
			"name":"Bullet_0",
			"primitives":[
				{
					"attributes":{
						"POSITION":0,
						"NORMAL":1,
						"TEXCOORD_0":2
					},
					"indices":3,
					"material":0
				}
			]
		},
		{
			"name":"Small Pistol Small Rifle_0",
			"primitives":[
				{
					"attributes":{
						"POSITION":4,
						"NORMAL":5,
						"TEXCOORD_0":6
					},
					"indices":7,
					"material":1
				}
			]
		}
	],
	"accessors":[
		{
			"bufferView":0,
			"componentType":5126,
			"count":782,
			"max":[
				2.8499999046325684,
				40.5,
				2.8499910831451416
			],
			"min":[
				-2.8499999046325684,
				28.89999008178711,
				-2.850008964538574
			],
			"type":"VEC3"
		},
		{
			"bufferView":1,
			"componentType":5126,
			"count":782,
			"type":"VEC3"
		},
		{
			"bufferView":2,
			"componentType":5126,
			"count":782,
			"type":"VEC2"
		},
		{
			"bufferView":3,
			"componentType":5123,
			"count":1146,
			"type":"SCALAR"
		},
		{
			"bufferView":4,
			"componentType":5126,
			"count":1124,
			"max":[
				3.9749999046325684,
				28.900001525878906,
				3.974998950958252
			],
			"min":[
				-3.9749999046325684,
				-1.0966655281663407e-06,
				-3.9750068187713623
			],
			"type":"VEC3"
		},
		{
			"bufferView":5,
			"componentType":5126,
			"count":1124,
			"type":"VEC3"
		},
		{
			"bufferView":6,
			"componentType":5126,
			"count":1124,
			"type":"VEC2"
		},
		{
			"bufferView":7,
			"componentType":5123,
			"count":1860,
			"type":"SCALAR"
		}
	],
	"bufferViews":[
		{
			"buffer":0,
			"byteLength":9384,
			"byteOffset":0,
			"target":34962
		},
		{
			"buffer":0,
			"byteLength":9384,
			"byteOffset":9384,
			"target":34962
		},
		{
			"buffer":0,
			"byteLength":6256,
			"byteOffset":18768,
			"target":34962
		},
		{
			"buffer":0,
			"byteLength":2292,
			"byteOffset":25024,
			"target":34963
		},
		{
			"buffer":0,
			"byteLength":13488,
			"byteOffset":27316,
			"target":34962
		},
		{
			"buffer":0,
			"byteLength":13488,
			"byteOffset":40804,
			"target":34962
		},
		{
			"buffer":0,
			"byteLength":8992,
			"byteOffset":54292,
			"target":34962
		},
		{
			"buffer":0,
			"byteLength":3720,
			"byteOffset":63284,
			"target":34963
		}
	],
	"buffers":[
		{
			"byteLength":67004,
			"uri":"bullet.bin"
		}
	]
}
