{
	"asset":{
		"generator":"Khronos glTF Blender I/O v5.2.40",
		"version":"2.0"
	},
	"extensionsUsed":[
		"KHR_materials_specular"
	],
	"scene":0,
	"scenes":[
		{
			"name":"Scene",
			"nodes":[
				0,
				1,
				2,
				3,
				4,
				8
			]
		}
	],
	"nodes":[
		{
			"name":"Cube_10"
		},
		{
			"mesh":0,
			"name":"Object_7"
		},
		{
			"mesh":1,
			"name":"Object_8"
		},
		{
			"mesh":2,
			"name":"Object_10"
		},
		{
			"mesh":3,
			"name":"Object_11"
		},
		{
			"name":"Armature_11",
			"rotation":[
				0,
				0,
				-0.09345828741788864,
				0.9956232905387878
			],
			"translation":[
				-1.9524213075637817,
				-0.922748327255249,
				0
			]
		},
		{
			"children":[
				5
			],
			"name":"GLTF_SceneRootNode",
			"rotation":[
				0.70710688829422,
				0,
				0,
				0.7071066498756409
			]
		},
		{
			"children":[
				6
			],
			"name":"root"
		},
		{
			"children":[
				7
			],
			"name":"Sketchfab_model",
			"rotation":[
				-0.70710688829422,
				0,
				0,
				0.7071066498756409
			]
		}
	],
	"materials":[
		{
			"doubleSided":true,
			"name":"\u30de\u30c6\u30ea\u30a2\u30eb.005",
			"pbrMetallicRoughness":{
				"baseColorFactor":[
					0.06309351325035095,
					0.026238087564706802,
					0.8000074625015259,
					1
				],
				"metallicFactor":0,
				"roughnessFactor":0.5
			}
		},
		{
			"doubleSided":true,
			"extensions":{
				"KHR_materials_specular":{
					"specularFactor":0
				}
			},
			"name":"Material.024",
			"pbrMetallicRoughness":{
				"baseColorFactor":[
					0.013410599902272224,
					0.013410599902272224,
					0.013410599902272224,
					1
				],
				"metallicFactor":0
			}
		},
		{
			"doubleSided":true,
			"name":"\u30de\u30c6\u30ea\u30a2\u30eb.006",
			"pbrMetallicRoughness":{
				"baseColorFactor":[
					0.03203389793634415,
					0.8000074625015259,
					0,
					1
				],
				"metallicFactor":0,
				"roughnessFactor":0.5
			}
		},
		{
			"doubleSided":true,
			"name":"\u30de\u30c6\u30ea\u30a2\u30eb.004",
			"pbrMetallicRoughness":{
				"baseColorFactor":[
					0.029584411531686783,
					0.0037198737263679504,
					0.8000156879425049,
					1
				],
				"metallicFactor":0,
				"roughnessFactor":0.5
			}
		}
	],
	"meshes":[
		{
			"name":"Object_0.002",
			"primitives":[
				{
					"attributes":{
						"POSITION":0,
						"NORMAL":1,
						"TEXCOORD_0":2
					},
					"indices":3,
					"material":0
				}
			]
		},
		{
			"name":"Object_1.002",
			"primitives":[
				{
					"attributes":{
						"POSITION":4,
						"NORMAL":5,
						"TEXCOORD_0":6
					},
					"indices":7,
					"material":1
				}
			]
		},
		{
			"name":"Object_3.002",
			"primitives":[
				{
					"attributes":{
						"POSITION":8,
						"NORMAL":9,
						"TEXCOORD_0":10
					},
					"indices":11,
					"material":2
				}
			]
		},
		{
			"name":"Object_4.002",
			"primitives":[
				{
					"attributes":{
						"POSITION":12,
						"NORMAL":13,
						"TEXCOORD_0":14
					},
					"indices":15,
					"material":3
				}
			]
		}
	],
	"accessors":[
		{
			"bufferView":0,
			"componentType":5126,
			"count":2307,
			"max":[
				1.787786602973938,
				1.669494390487671,
				0.2915183901786804
			],
			"min":[
				-2.403139591217041,
				-1.6796609163284302,
				-0.3118908107280731
			],
			"type":"VEC3"
		},
		{
			"bufferView":1,
			"componentType":5126,
			"count":2307,
			"type":"VEC3"
		},
		{
			"bufferView":2,
			"componentType":5126,
			"count":2307,
			"type":"VEC2"
		},
		{
			"bufferView":3,
			"componentType":5123,
			"count":2394,
			"type":"SCALAR"
		},
		{
			"bufferView":4,
			"componentType":5126,
			"count":1951,
			"max":[
				2.203726291656494,
				1.5594830513000488,
				0.28385016322135925
			],
			"min":[
				-2.2115237712860107,
				0.6901839971542358,
				-0.30422258377075195
			],
			"type":"VEC3"
		},
		{
			"bufferView":5,
			"componentType":5126,
			"count":1951,
			"type":"VEC3"
		},
		{
			"bufferView":6,
			"componentType":5126,
			"count":1951,
			"type":"VEC2"
		},
		{
			"bufferView":7,
			"componentType":5123,
			"count":2136,
			"type":"SCALAR"
		},
		{
			"bufferView":8,
			"componentType":5126,
			"count":1191,
			"max":[
				2.221062660217285,
				1.6572093963623047,
				0.20940175652503967
			],
			"min":[
				-1.9764715433120728,
				-1.5229809284210205,
				-0.22977447509765625
			],
			"type":"VEC3"
		},
		{
			"bufferView":9,
			"componentType":5126,
			"count":1191,
			"type":"VEC3"
		},
		{
			"bufferView":10,
			"componentType":5126,
			"count":1191,
			"type":"VEC2"
		},
		{
			"bufferView":11,
			"componentType":5123,
			"count":1218,
			"type":"SCALAR"
		},
		{
			"bufferView":12,
			"componentType":5126,
			"count":973,
			"max":[
				0.2634623050689697,
				1.5468884706497192,
				0.41687268018722534
			],
			"min":[
				-2.197885274887085,
				0.01940562017261982,
				-0.43724513053894043
			],
			"type":"VEC3"
		},
		{
			"bufferView":13,
			"componentType":5126,
			"count":973,
			"type":"VEC3"
		},
		{
			"bufferView":14,
			"componentType":5126,
			"count":973,
			"type":"VEC2"
		},
		{
			"bufferView":15,
			"componentType":5123,
			"count":1074,
			"type":"SCALAR"
		}
	],
	"bufferViews":[
		{
			"buffer":0,
			"byteLength":27684,
			"byteOffset":0,
			"target":34962
		},
		{
			"buffer":0,
			"byteLength":27684,
			"byteOffset":27684,
			"target":34962
		},
		{
			"buffer":0,
			"byteLength":18456,
			"byteOffset":55368,
			"target":34962
		},
		{
			"buffer":0,
			"byteLength":4788,
			"byteOffset":73824,
			"target":34963
		},
		{
			"buffer":0,
			"byteLength":23412,
			"byteOffset":78612,
			"target":34962
		},
		{
			"buffer":0,
			"byteLength":23412,
			"byteOffset":102024,
			"target":34962
		},
		{
			"buffer":0,
			"byteLength":15608,
			"byteOffset":125436,
			"target":34962
		},
		{
			"buffer":0,
			"byteLength":4272,
			"byteOffset":141044,
			"target":34963
		},
		{
			"buffer":0,
			"byteLength":14292,
			"byteOffset":145316,
			"target":34962
		},
		{
			"buffer":0,
			"byteLength":14292,
			"byteOffset":159608,
			"target":34962
		},
		{
			"buffer":0,
			"byteLength":9528,
			"byteOffset":173900,
			"target":34962
		},
		{
			"buffer":0,
			"byteLength":2436,
			"byteOffset":183428,
			"target":34963
		},
		{
			"buffer":0,
			"byteLength":11676,
			"byteOffset":185864,
			"target":34962
		},
		{
			"buffer":0,
			"byteLength":11676,
			"byteOffset":197540,
			"target":34962
		},
		{
			"buffer":0,
			"byteLength":7784,
			"byteOffset":209216,
			"target":34962
		},
		{
			"buffer":0,
			"byteLength":2148,
			"byteOffset":217000,
			"target":34963
		}
	],
	"buffers":[
		{
			"byteLength":219148,
			"uri":"handGun_01.bin"
		}
	]
}
