{
	"asset":{
		"generator":"Khronos glTF Blender I/O v5.1.20",
		"version":"2.0"
	},
	"scene":0,
	"scenes":[
		{
			"name":"Scene",
			"nodes":[
				65
			]
		}
	],
	"nodes":[
		{
			"name":"mixamorig1:HeadTop_End",
			"rotation":[
				-1.7763570511584873e-15,
				0,
				0,
				1
			],
			"scale":[
				1,
				0.9999999403953552,
				0.9999999403953552
			],
			"translation":[
				0,
				20.999847412109375,
				6.162764072418213
			]
		},
		{
			"children":[
				0
			],
			"name":"mixamorig1:Head",
			"rotation":[
				-1.7763570511584873e-15,
				0,
				0,
				1
			],
			"scale":[
				1,
				0.9999999403953552,
				0.9999999403953552
			],
			"translation":[
				0,
				6.7201995849609375,
				1.97215735912323
			]
		},
		{
			"children":[
				1
			],
			"name":"mixamorig1:Neck",
			"rotation":[
				0.060396213084459305,
				0,
				0,
				0.9981744885444641
			],
			"scale":[
				1,
				1,
				0.9999998807907104
			],
			"translation":[
				0,
				14.683086395263672,
				-6.628036499023438e-05
			]
		},
		{
			"name":"mixamorig1:LeftHandThumb4",
			"rotation":[
				2.60770320892334e-08,
				1.434236764907837e-07,
				-5.681067349883051e-08,
				1
			],
			"scale":[
				1.0000001192092896,
				1,
				1
			],
			"translation":[
				0.4427154064178467,
				2.9790494441986084,
				0
			]
		},
		{
			"children":[
				3
			],
			"name":"mixamorig1:LeftHandThumb3",
			"rotation":[
				-0.00038490083534270525,
				8.745121249376098e-07,
				5.695039249076217e-07,
				0.9999999403953552
			],
			"scale":[
				0.9999999403953552,
				0.9999997615814209,
				0.9999999403953552
			],
			"translation":[
				-0.037314414978027344,
				3.5999860763549805,
				-5.328655242919922e-05
			]
		},
		{
			"children":[
				4
			],
			"name":"mixamorig1:LeftHandThumb2",
			"rotation":[
				0.08440301567316055,
				-4.7667546709817543e-07,
				-2.56563566836121e-07,
				0.9964317083358765
			],
			"scale":[
				0.9999999403953552,
				0.9999999403953552,
				0.9999999403953552
			],
			"translation":[
				-0.4054051637649536,
				3.9895730018615723,
				-1.7881393432617188e-07
			]
		},
		{
			"children":[
				5
			],
			"name":"mixamorig1:LeftHandThumb1",
			"rotation":[
				0.11589130014181137,
				0.031166864559054375,
				0.2578211724758148,
				0.9587106704711914
			],
			"scale":[
				1,
				0.9999998807907104,
				0.9999997615814209
			],
			"translation":[
				-2.8677101135253906,
				3.935791254043579,
				1.1883844137191772
			]
		},
		{
			"name":"mixamorig1:LeftHandIndex4",
			"rotation":[
				1.4901161193847656e-08,
				-6.51925802230835e-09,
				-1.4901161193847656e-08,
				1
			],
			"translation":[
				-0.016301631927490234,
				2.7120864391326904,
				2.0951032638549805e-05
			]
		},
		{
			"children":[
				7
			],
			"name":"mixamorig1:LeftHandIndex3",
			"rotation":[
				0.02511601336300373,
				9.12984035039699e-08,
				-4.192273639347377e-09,
				0.9996845126152039
			],
			"scale":[
				1.0000001192092896,
				1.0000001192092896,
				1
			],
			"translation":[
				-0.00681614875793457,
				3.0810439586639404,
				-3.7610530853271484e-05
			]
		},
		{
			"children":[
				8
			],
			"name":"mixamorig1:LeftHandIndex2",
			"rotation":[
				0.06093088909983635,
				-2.379293135845728e-07,
				-3.195717113158025e-08,
				0.9981420040130615
			],
			"scale":[
				1.0000001192092896,
				1.0000001192092896,
				1
			],
			"translation":[
				0.023113489151000977,
				3.2984213829040527,
				2.5197863578796387e-05
			]
		},
		{
			"children":[
				9
			],
			"name":"mixamorig1:LeftHandIndex1",
			"rotation":[
				0.018900228664278984,
				0.0011084716534242034,
				0.05852459743618965,
				0.9981064200401306
			],
			"scale":[
				1,
				0.9999998807907104,
				1
			],
			"translation":[
				-3.4842615127563477,
				11.757829666137695,
				0.11312126368284225
			]
		},
		{
			"name":"mixamorig1:LeftHandMiddle4",
			"rotation":[
				9.313226634333205e-09,
				3.026798367500305e-08,
				1.862645149230957e-09,
				1
			],
			"scale":[
				1.0000001192092896,
				0.9999999403953552,
				0.9999999403953552
			],
			"translation":[
				4.398822784423828e-05,
				2.8763773441314697,
				-3.3229589462280273e-05
			]
		},
		{
			"children":[
				11
			],
			"name":"mixamorig1:LeftHandMiddle3",
			"rotation":[
				-0.0275911632925272,
				-4.1459639277263705e-08,
				4.239131712324706e-08,
				0.9996193051338196
			],
			"scale":[
				1,
				1.0000001192092896,
				1
			],
			"translation":[
				-0.009975850582122803,
				3.160937547683716,
				-0.0001012459397315979
			]
		},
		{
			"children":[
				12
			],
			"name":"mixamorig1:LeftHandMiddle2",
			"rotation":[
				0.05267826095223427,
				-1.7509893268652377e-07,
				-9.792483268711294e-08,
				0.998611569404602
			],
			"scale":[
				1,
				0.9999999403953552,
				0.9999998807907104
			],
			"translation":[
				0.009944558143615723,
				3.4321157932281494,
				1.4141201972961426e-05
			]
		},
		{
			"children":[
				13
			],
			"name":"mixamorig1:LeftHandMiddle1",
			"rotation":[
				0.045832518488168716,
				-6.740133540006354e-05,
				-0.0014715129509568214,
				0.9989480972290039
			],
			"scale":[
				1,
				0.9999999403953552,
				0.9999999403953552
			],
			"translation":[
				-1.0293431282043457,
				12.347143173217773,
				-0.31577229499816895
			]
		},
		{
			"name":"mixamorig1:LeftHandRing4",
			"rotation":[
				-1.4551906346582655e-09,
				6.984919309616089e-10,
				-9.313224635931761e-10,
				1
			],
			"scale":[
				1,
				1.0000001192092896,
				1
			],
			"translation":[
				0.0031707286834716797,
				2.2269067764282227,
				1.2367963790893555e-05
			]
		},
		{
			"children":[
				15
			],
			"name":"mixamorig1:LeftHandRing3",
			"rotation":[
				-0.002144042169675231,
				8.614752999847042e-08,
				2.0442578829715785e-07,
				0.9999977350234985
			],
			"scale":[
				1,
				0.9999999403953552,
				1
			],
			"translation":[
				0.0034101009368896484,
				2.6202890872955322,
				-1.1175870895385742e-05
			]
		},
		{
			"children":[
				16
			],
			"name":"mixamorig1:LeftHandRing2",
			"rotation":[
				-0.03749580681324005,
				3.4576385132822907e-07,
				4.6132907272067314e-08,
				0.9992967844009399
			],
			"scale":[
				0.9999999403953552,
				1,
				0.9999998807907104
			],
			"translation":[
				-0.0065822601318359375,
				2.726125717163086,
				0.00011238455772399902
			]
		},
		{
			"children":[
				17
			],
			"name":"mixamorig1:LeftHandRing1",
			"rotation":[
				0.12271875143051147,
				-0.0029118505772203207,
				-0.023540573194622993,
				0.9921579957008362
			],
			"scale":[
				1,
				0.9999998807907104,
				0.9999998211860657
			],
			"translation":[
				1.2667875289916992,
				12.505849838256836,
				-0.2771129310131073
			]
		},
		{
			"name":"mixamorig1:LeftHandPinky4",
			"rotation":[
				-2.0023437130589627e-08,
				-3.2596294552433847e-09,
				-1.1641533292916506e-09,
				1
			],
			"scale":[
				1,
				0.9999999403953552,
				0.9999998807907104
			],
			"translation":[
				-0.0055119991302490234,
				1.9755439758300781,
				1.6033649444580078e-05
			]
		},
		{
			"children":[
				19
			],
			"name":"mixamorig1:LeftHandPinky3",
			"rotation":[
				0.013472843915224075,
				6.112359329790706e-08,
				2.2935900290121936e-07,
				0.9999092221260071
			],
			"scale":[
				1,
				1.0000001192092896,
				0.9999998807907104
			],
			"translation":[
				-0.0029088258743286133,
				2.193899154663086,
				-0.00010406970977783203
			]
		},
		{
			"children":[
				20
			],
			"name":"mixamorig1:LeftHandPinky2",
			"rotation":[
				0.03972912207245827,
				-1.1336161520603127e-07,
				-3.28084638567816e-07,
				0.99921053647995
			],
			"scale":[
				1,
				0.9999998211860657,
				0.9999998807907104
			],
			"translation":[
				0.008421540260314941,
				2.734663724899292,
				-2.9802322387695312e-05
			]
		},
		{
			"children":[
				21
			],
			"name":"mixamorig1:LeftHandPinky1",
			"rotation":[
				0.09523021429777145,
				-0.0050405352376401424,
				-0.05261421203613281,
				0.9940510988235474
			],
			"scale":[
				0.9999999403953552,
				0.9999998807907104,
				0.9999998211860657
			],
			"translation":[
				3.24680233001709,
				11.101895332336426,
				-0.11275583505630493
			]
		},
		{
			"children":[
				6,
				10,
				14,
				18,
				22
			],
			"name":"mixamorig1:LeftHand",
			"rotation":[
				0.05367695167660713,
				0.11436322331428528,
				0.021736454218626022,
				0.9917497038841248
			],
			"scale":[
				0.9999999403953552,
				1.0000001192092896,
				1.0000001192092896
			],
			"translation":[
				-2.7179718017578125e-05,
				23.40413475036621,
				-2.4646520614624023e-05
			]
		},
		{
			"children":[
				23
			],
			"name":"mixamorig1:LeftForeArm",
			"rotation":[
				-0.049151498824357986,
				-0.0027802782133221626,
				0.056402988731861115,
				0.9971936345100403
			],
			"scale":[
				0.9999998807907104,
				0.9999998211860657,
				1
			],
			"translation":[
				5.9604644775390625e-05,
				25.560758590698242,
				2.586841583251953e-05
			]
		},
		{
			"children":[
				24
			],
			"name":"mixamorig1:LeftArm",
			"rotation":[
				-0.09908166527748108,
				0.0015089234802871943,
				-0.01515127532184124,
				0.9949628114700317
			],
			"scale":[
				0.9999998807907104,
				0.9999999403953552,
				0.9999999403953552
			],
			"translation":[
				-8.857250213623047e-05,
				13.005995750427246,
				2.5093555450439453e-05
			]
		},
		{
			"children":[
				25
			],
			"name":"mixamorig1:LeftShoulder",
			"rotation":[
				0.5508512854576111,
				0.43766915798187256,
				-0.5720556974411011,
				0.42161715030670166
			],
			"scale":[
				0.9999999403953552,
				0.9999997615814209,
				0.9999999403953552
			],
			"translation":[
				6.140115737915039,
				13.000865936279297,
				-0.23370647430419922
			]
		},
		{
			"name":"mixamorig1:RightHandThumb4",
			"rotation":[
				3.725290742551124e-09,
				-1.089647554408657e-07,
				3.9115555239277455e-08,
				1
			],
			"scale":[
				0.9999999403953552,
				0.9999998807907104,
				0.9999999403953552
			],
			"translation":[
				-0.46489977836608887,
				2.873549699783325,
				1.7881393432617188e-06
			]
		},
		{
			"children":[
				27
			],
			"name":"mixamorig1:RightHandThumb3",
			"rotation":[
				-0.05049195513129234,
				1.6691967630322324e-07,
				3.4689455219449883e-07,
				0.9987244606018066
			],
			"scale":[
				0.9999999403953552,
				0.9999997615814209,
				0.9999999403953552
			],
			"translation":[
				0.03648877143859863,
				3.5303444862365723,
				8.07046890258789e-05
			]
		},
		{
			"children":[
				28
			],
			"name":"mixamorig1:RightHandThumb2",
			"rotation":[
				0.08713114261627197,
				-3.5525374642020324e-08,
				-5.4222933698611087e-08,
				0.9961968660354614
			],
			"scale":[
				0.9999999403953552,
				0.9999998807907104,
				0.9999998807907104
			],
			"translation":[
				0.42841577529907227,
				4.074845314025879,
				-5.4895877838134766e-05
			]
		},
		{
			"children":[
				29
			],
			"name":"mixamorig1:RightHandThumb1",
			"rotation":[
				0.11595267057418823,
				-0.03026624210178852,
				-0.25073814392089844,
				0.9606088399887085
			],
			"scale":[
				0.9999999403953552,
				1,
				1
			],
			"translation":[
				2.885014057159424,
				4.054296016693115,
				1.2119605541229248
			]
		},
		{
			"name":"mixamorig1:RightHandIndex4",
			"rotation":[
				-6.51925802230835e-09,
				-5.1222748709278676e-08,
				-3.539026138810186e-08,
				1
			],
			"scale":[
				0.9999999403953552,
				1,
				0.9999999403953552
			],
			"translation":[
				0.0052585601806640625,
				2.5346004962921143,
				3.56137752532959e-05
			]
		},
		{
			"children":[
				31
			],
			"name":"mixamorig1:RightHandIndex3",
			"rotation":[
				-0.0016008702805265784,
				7.171193772137485e-08,
				-1.909213764861306e-08,
				0.9999986886978149
			],
			"scale":[
				0.9999999403953552,
				1,
				0.9999998807907104
			],
			"translation":[
				0.0066100358963012695,
				2.8560502529144287,
				4.9561262130737305e-05
			]
		},
		{
			"children":[
				32
			],
			"name":"mixamorig1:RightHandIndex2",
			"rotation":[
				0.04199730232357979,
				-2.0926657384734426e-07,
				1.882932991748021e-07,
				0.9991176724433899
			],
			"scale":[
				1,
				1,
				0.9999998807907104
			],
			"translation":[
				-0.011867880821228027,
				3.117341995239258,
				-2.8505921363830566e-05
			]
		},
		{
			"children":[
				33
			],
			"name":"mixamorig1:RightHandIndex1",
			"rotation":[
				0.04454168677330017,
				-0.0013707076432183385,
				-0.030731184408068657,
				0.9985337853431702
			],
			"scale":[
				0.9999999403953552,
				1,
				0.9999999403953552
			],
			"translation":[
				3.614401340484619,
				12.346597671508789,
				-0.007858723402023315
			]
		},
		{
			"name":"mixamorig1:RightHandMiddle4",
			"rotation":[
				-5.820765203168321e-09,
				9.313224857976365e-09,
				7.4505797087454084e-09,
				1
			],
			"scale":[
				1.0000001192092896,
				1.0000001192092896,
				1.0000001192092896
			],
			"translation":[
				0.002488434314727783,
				2.927971363067627,
				1.84476375579834e-05
			]
		},
		{
			"children":[
				35
			],
			"name":"mixamorig1:RightHandMiddle3",
			"rotation":[
				-0.02725226990878582,
				2.1521545079394855e-07,
				1.4021613026216073e-07,
				0.9996286034584045
			],
			"scale":[
				0.9999999403953552,
				1.0000001192092896,
				1.0000001192092896
			],
			"translation":[
				0.013670086860656738,
				3.2260704040527344,
				-4.367530345916748e-05
			]
		},
		{
			"children":[
				36
			],
			"name":"mixamorig1:RightHandMiddle2",
			"rotation":[
				0.07132139801979065,
				-3.111556452495279e-07,
				-1.5079260151651397e-07,
				0.9974534511566162
			],
			"scale":[
				1,
				0.9999999403953552,
				1
			],
			"translation":[
				-0.01615285873413086,
				3.4791481494903564,
				4.9486756324768066e-05
			]
		},
		{
			"children":[
				37
			],
			"name":"mixamorig1:RightHandMiddle1",
			"rotation":[
				0.024431798607110977,
				3.4969878470292315e-05,
				0.0014183896128088236,
				0.9997004866600037
			],
			"scale":[
				1.0000001192092896,
				0.9999999403953552,
				1
			],
			"translation":[
				0.9223344326019287,
				12.176351547241211,
				-0.2223203182220459
			]
		},
		{
			"name":"mixamorig1:RightHandRing4",
			"rotation":[
				2.0183502869031145e-08,
				-4.132743924856186e-09,
				6.984919309616089e-10,
				1
			],
			"scale":[
				1,
				1.0000001192092896,
				1.0000001192092896
			],
			"translation":[
				-0.0040874481201171875,
				2.368464231491089,
				-1.5497207641601562e-06
			]
		},
		{
			"children":[
				39
			],
			"name":"mixamorig1:RightHandRing3",
			"rotation":[
				-0.04869871959090233,
				2.587489973393531e-07,
				-1.491886081339544e-08,
				0.9988135099411011
			],
			"scale":[
				1.0000001192092896,
				1,
				1.0000001192092896
			],
			"translation":[
				0.007792949676513672,
				2.687687397003174,
				8.296966552734375e-05
			]
		},
		{
			"children":[
				40
			],
			"name":"mixamorig1:RightHandRing2",
			"rotation":[
				0.044177841395139694,
				-6.473191405120815e-08,
				8.879516855131442e-08,
				0.9990236759185791
			],
			"scale":[
				1.0000001192092896,
				0.9999999403953552,
				1
			],
			"translation":[
				-0.0037021636962890625,
				2.821633815765381,
				-8.71121883392334e-05
			]
		},
		{
			"children":[
				41
			],
			"name":"mixamorig1:RightHandRing1",
			"rotation":[
				0.07069198787212372,
				0.003178223967552185,
				0.044798433780670166,
				0.9964866638183594
			],
			"scale":[
				0.9999999403953552,
				1.000000238418579,
				1
			],
			"translation":[
				-1.2166335582733154,
				12.282018661499023,
				-0.15101882815361023
			]
		},
		{
			"name":"mixamorig1:RightHandPinky4",
			"rotation":[
				1.641456037759781e-08,
				-5.785842205341396e-08,
				-4.656611762854368e-10,
				1
			],
			"scale":[
				0.9999999403953552,
				1,
				0.9999999403953552
			],
			"translation":[
				0.0024788379669189453,
				1.8884328603744507,
				1.823902130126953e-05
			]
		},
		{
			"children":[
				43
			],
			"name":"mixamorig1:RightHandPinky3",
			"rotation":[
				-0.019943835213780403,
				-1.0793847593504324e-07,
				1.1736999283584737e-07,
				0.9998011589050293
			],
			"scale":[
				0.9999999403953552,
				0.9999999403953552,
				0.9999998807907104
			],
			"translation":[
				0.005577683448791504,
				2.1491377353668213,
				1.1801719665527344e-05
			]
		},
		{
			"children":[
				44
			],
			"name":"mixamorig1:RightHandPinky2",
			"rotation":[
				0.06046305224299431,
				-2.82474758250828e-07,
				-2.2672622890240746e-07,
				0.9981704354286194
			],
			"scale":[
				0.9999999403953552,
				0.9999998807907104,
				0.9999999403953552
			],
			"translation":[
				-0.008056044578552246,
				2.640338659286499,
				4.5299530029296875e-05
			]
		},
		{
			"children":[
				45
			],
			"name":"mixamorig1:RightHandPinky1",
			"rotation":[
				0.08523719757795334,
				0.004960539285093546,
				0.057882968336343765,
				0.9946655631065369
			],
			"scale":[
				0.9999998807907104,
				1,
				1
			],
			"translation":[
				-3.3203940391540527,
				11.194604873657227,
				-0.13803070783615112
			]
		},
		{
			"children":[
				30,
				34,
				38,
				42,
				46
			],
			"name":"mixamorig1:RightHand",
			"rotation":[
				0.05487414449453354,
				-0.10942522436380386,
				-0.027996333315968513,
				0.992084264755249
			],
			"scale":[
				1,
				0.9999999403953552,
				1
			],
			"translation":[
				7.367134094238281e-05,
				23.401689529418945,
				1.761317253112793e-05
			]
		},
		{
			"children":[
				47
			],
			"name":"mixamorig1:RightForeArm",
			"rotation":[
				-0.0491519421339035,
				0.002866626251488924,
				-0.05815066397190094,
				0.9970929622650146
			],
			"scale":[
				1.0000001192092896,
				1.0000001192092896,
				1
			],
			"translation":[
				-2.5510787963867188e-05,
				25.571083068847656,
				9.500980377197266e-05
			]
		},
		{
			"children":[
				48
			],
			"name":"mixamorig1:RightArm",
			"rotation":[
				-0.09994298964738846,
				-0.0023182700388133526,
				0.023069843649864197,
				0.9947230219841003
			],
			"scale":[
				1,
				1,
				0.9999998807907104
			],
			"translation":[
				2.1398067474365234e-05,
				13.005958557128906,
				3.7848949432373047e-06
			]
		},
		{
			"children":[
				49
			],
			"name":"mixamorig1:RightShoulder",
			"rotation":[
				0.5537331700325012,
				-0.43542876839637756,
				0.5697388052940369,
				0.4232954680919647
			],
			"scale":[
				0.9999997615814209,
				0.9999998807907104,
				0.9999999403953552
			],
			"translation":[
				-6.140132904052734,
				12.993823051452637,
				-0.1759779453277588
			]
		},
		{
			"children":[
				2,
				26,
				50
			],
			"name":"mixamorig1:Spine2",
			"rotation":[
				2.0489096641540527e-08,
				0,
				0,
				1
			],
			"translation":[
				0,
				13.051568031311035,
				1.430511474609375e-06
			]
		},
		{
			"children":[
				51
			],
			"name":"mixamorig1:Spine1",
			"rotation":[
				1.862645149230957e-09,
				0,
				0,
				1
			],
			"translation":[
				0,
				11.420133590698242,
				1.683831214904785e-05
			]
		},
		{
			"children":[
				52
			],
			"name":"mixamorig1:Spine",
			"rotation":[
				-0.0603962317109108,
				0,
				0,
				0.9981744885444641
			],
			"scale":[
				1,
				1,
				0.9999999403953552
			],
			"translation":[
				0,
				9.717216491699219,
				-1.1802066564559937
			]
		},
		{
			"name":"mixamorig1:LeftToe_End",
			"rotation":[
				-1.1379595932226039e-08,
				1.1100199799329857e-06,
				2.179149083403331e-09,
				1
			],
			"scale":[
				1.0000001192092896,
				1.0000001192092896,
				1.0000001192092896
			],
			"translation":[
				-6.537884473800659e-07,
				6.205787181854248,
				-5.960464477539063e-08
			]
		},
		{
			"children":[
				54
			],
			"name":"mixamorig1:LeftToeBase",
			"rotation":[
				0.2901192605495453,
				-0.05651174858212471,
				0.01716403104364872,
				0.9551662802696228
			],
			"scale":[
				1.0000001192092896,
				1.0000001192092896,
				1
			],
			"translation":[
				1.4901161193847656e-08,
				16.182113647460938,
				-4.887580871582031e-06
			]
		},
		{
			"children":[
				55
			],
			"name":"mixamorig1:LeftFoot",
			"rotation":[
				0.4951220750808716,
				-0.014727724716067314,
				0.008394349366426468,
				0.8686580657958984
			],
			"scale":[
				0.9999999403953552,
				0.9999999403953552,
				1
			],
			"translation":[
				-4.66126948595047e-06,
				42.1737174987793,
				6.328802555799484e-06
			]
		},
		{
			"children":[
				56
			],
			"name":"mixamorig1:LeftLeg",
			"rotation":[
				-0.002659558318555355,
				-1.9508884179231245e-06,
				-0.003927543293684721,
				0.9999887943267822
			],
			"scale":[
				0.9999999403953552,
				1,
				0.9999998807907104
			],
			"translation":[
				-4.910980351269245e-06,
				42.789852142333984,
				4.4121406972408295e-08
			]
		},
		{
			"children":[
				57
			],
			"name":"mixamorig1:LeftUpLeg",
			"rotation":[
				0.0013976730406284332,
				0.031603988260030746,
				-0.9985412359237671,
				0.043756525963544846
			],
			"scale":[
				1.0000221729278564,
				1.000000238418579,
				1.0000114440917969
			],
			"translation":[
				8.078197479248047,
				-5.402374267578125,
				-0.5358664989471436
			]
		},
		{
			"name":"mixamorig1:RightToe_End",
			"rotation":[
				2.648448571562767e-09,
				-1.0913645382970572e-06,
				2.5138433557003736e-09,
				1
			],
			"scale":[
				1,
				0.9999999403953552,
				1
			],
			"translation":[
				-7.776543498039246e-07,
				6.17995023727417,
				-3.725290298461914e-08
			]
		},
		{
			"children":[
				59
			],
			"name":"mixamorig1:RightToeBase",
			"rotation":[
				0.28852972388267517,
				0.05736565589904785,
				-0.01732025481760502,
				0.955594003200531
			],
			"scale":[
				1,
				0.9999999403953552,
				0.9999999403953552
			],
			"translation":[
				-6.806105375289917e-06,
				16.260343551635742,
				-1.7881393432617188e-07
			]
		},
		{
			"children":[
				60
			],
			"name":"mixamorig1:RightFoot",
			"rotation":[
				0.4974384605884552,
				0.014419101178646088,
				-0.00826928112655878,
				0.8673400282859802
			],
			"scale":[
				0.9999998807907104,
				1,
				1
			],
			"translation":[
				1.065526157617569e-05,
				42.17967987060547,
				-2.7492642402648926e-06
			]
		},
		{
			"children":[
				61
			],
			"name":"mixamorig1:RightLeg",
			"rotation":[
				-0.006380947306752205,
				-1.469161725253798e-05,
				0.003944612108170986,
				0.999971866607666
			],
			"scale":[
				0.9999999403953552,
				0.9999998211860657,
				0.9999999403953552
			],
			"translation":[
				-9.676325134932995e-06,
				42.775875091552734,
				4.498870112001896e-07
			]
		},
		{
			"children":[
				62
			],
			"name":"mixamorig1:RightUpLeg",
			"rotation":[
				0.0012763699050992727,
				-0.02890319749712944,
				0.9986224174499512,
				0.04377465695142746
			],
			"scale":[
				1.0000206232070923,
				0.9999999403953552,
				1.0000090599060059
			],
			"translation":[
				-8.078202247619629,
				-5.40240478515625,
				-0.7517740726470947
			]
		},
		{
			"children":[
				53,
				58,
				63
			],
			"name":"mixamorig1:Hips",
			"rotation":[
				-0.7071067690849304,
				0,
				0,
				0.7071067690849304
			],
			"translation":[
				-2.2888199964654632e-05,
				3.0078823566436768,
				-99.75436401367188
			]
		},
		{
			"children":[
				64
			],
			"name":"Armature",
			"rotation":[
				0.7071068286895752,
				0,
				0,
				0.7071068286895752
			],
			"scale":[
				0.009999999776482582,
				0.009999999776482582,
				0.009999999776482582
			]
		}
	],
	"animations":[
		{
			"channels":[
				{
					"sampler":0,
					"target":{
						"node":64,
						"path":"translation"
					}
				},
				{
					"sampler":1,
					"target":{
						"node":64,
						"path":"rotation"
					}
				},
				{
					"sampler":2,
					"target":{
						"node":64,
						"path":"scale"
					}
				},
				{
					"sampler":3,
					"target":{
						"node":53,
						"path":"translation"
					}
				},
				{
					"sampler":4,
					"target":{
						"node":53,
						"path":"rotation"
					}
				},
				{
					"sampler":5,
					"target":{
						"node":53,
						"path":"scale"
					}
				},
				{
					"sampler":6,
					"target":{
						"node":52,
						"path":"translation"
					}
				},
				{
					"sampler":7,
					"target":{
						"node":52,
						"path":"rotation"
					}
				},
				{
					"sampler":8,
					"target":{
						"node":52,
						"path":"scale"
					}
				},
				{
					"sampler":9,
					"target":{
						"node":51,
						"path":"translation"
					}
				},
				{
					"sampler":10,
					"target":{
						"node":51,
						"path":"rotation"
					}
				},
				{
					"sampler":11,
					"target":{
						"node":51,
						"path":"scale"
					}
				},
				{
					"sampler":12,
					"target":{
						"node":2,
						"path":"translation"
					}
				},
				{
					"sampler":13,
					"target":{
						"node":2,
						"path":"rotation"
					}
				},
				{
					"sampler":14,
					"target":{
						"node":2,
						"path":"scale"
					}
				},
				{
					"sampler":15,
					"target":{
						"node":1,
						"path":"translation"
					}
				},
				{
					"sampler":16,
					"target":{
						"node":1,
						"path":"rotation"
					}
				},
				{
					"sampler":17,
					"target":{
						"node":1,
						"path":"scale"
					}
				},
				{
					"sampler":18,
					"target":{
						"node":0,
						"path":"translation"
					}
				},
				{
					"sampler":19,
					"target":{
						"node":0,
						"path":"rotation"
					}
				},
				{
					"sampler":20,
					"target":{
						"node":0,
						"path":"scale"
					}
				},
				{
					"sampler":21,
					"target":{
						"node":26,
						"path":"translation"
					}
				},
				{
					"sampler":22,
					"target":{
						"node":26,
						"path":"rotation"
					}
				},
				{
					"sampler":23,
					"target":{
						"node":26,
						"path":"scale"
					}
				},
				{
					"sampler":24,
					"target":{
						"node":25,
						"path":"translation"
					}
				},
				{
					"sampler":25,
					"target":{
						"node":25,
						"path":"rotation"
					}
				},
				{
					"sampler":26,
					"target":{
						"node":25,
						"path":"scale"
					}
				},
				{
					"sampler":27,
					"target":{
						"node":24,
						"path":"translation"
					}
				},
				{
					"sampler":28,
					"target":{
						"node":24,
						"path":"rotation"
					}
				},
				{
					"sampler":29,
					"target":{
						"node":24,
						"path":"scale"
					}
				},
				{
					"sampler":30,
					"target":{
						"node":23,
						"path":"translation"
					}
				},
				{
					"sampler":31,
					"target":{
						"node":23,
						"path":"rotation"
					}
				},
				{
					"sampler":32,
					"target":{
						"node":23,
						"path":"scale"
					}
				},
				{
					"sampler":33,
					"target":{
						"node":6,
						"path":"translation"
					}
				},
				{
					"sampler":34,
					"target":{
						"node":6,
						"path":"rotation"
					}
				},
				{
					"sampler":35,
					"target":{
						"node":6,
						"path":"scale"
					}
				},
				{
					"sampler":36,
					"target":{
						"node":5,
						"path":"translation"
					}
				},
				{
					"sampler":37,
					"target":{
						"node":5,
						"path":"rotation"
					}
				},
				{
					"sampler":38,
					"target":{
						"node":5,
						"path":"scale"
					}
				},
				{
					"sampler":39,
					"target":{
						"node":4,
						"path":"translation"
					}
				},
				{
					"sampler":40,
					"target":{
						"node":4,
						"path":"rotation"
					}
				},
				{
					"sampler":41,
					"target":{
						"node":4,
						"path":"scale"
					}
				},
				{
					"sampler":42,
					"target":{
						"node":3,
						"path":"translation"
					}
				},
				{
					"sampler":43,
					"target":{
						"node":3,
						"path":"rotation"
					}
				},
				{
					"sampler":44,
					"target":{
						"node":3,
						"path":"scale"
					}
				},
				{
					"sampler":45,
					"target":{
						"node":10,
						"path":"translation"
					}
				},
				{
					"sampler":46,
					"target":{
						"node":10,
						"path":"rotation"
					}
				},
				{
					"sampler":47,
					"target":{
						"node":10,
						"path":"scale"
					}
				},
				{
					"sampler":48,
					"target":{
						"node":9,
						"path":"translation"
					}
				},
				{
					"sampler":49,
					"target":{
						"node":9,
						"path":"rotation"
					}
				},
				{
					"sampler":50,
					"target":{
						"node":9,
						"path":"scale"
					}
				},
				{
					"sampler":51,
					"target":{
						"node":8,
						"path":"translation"
					}
				},
				{
					"sampler":52,
					"target":{
						"node":8,
						"path":"rotation"
					}
				},
				{
					"sampler":53,
					"target":{
						"node":8,
						"path":"scale"
					}
				},
				{
					"sampler":54,
					"target":{
						"node":7,
						"path":"translation"
					}
				},
				{
					"sampler":55,
					"target":{
						"node":7,
						"path":"rotation"
					}
				},
				{
					"sampler":56,
					"target":{
						"node":7,
						"path":"scale"
					}
				},
				{
					"sampler":57,
					"target":{
						"node":14,
						"path":"translation"
					}
				},
				{
					"sampler":58,
					"target":{
						"node":14,
						"path":"rotation"
					}
				},
				{
					"sampler":59,
					"target":{
						"node":14,
						"path":"scale"
					}
				},
				{
					"sampler":60,
					"target":{
						"node":13,
						"path":"translation"
					}
				},
				{
					"sampler":61,
					"target":{
						"node":13,
						"path":"rotation"
					}
				},
				{
					"sampler":62,
					"target":{
						"node":13,
						"path":"scale"
					}
				},
				{
					"sampler":63,
					"target":{
						"node":12,
						"path":"translation"
					}
				},
				{
					"sampler":64,
					"target":{
						"node":12,
						"path":"rotation"
					}
				},
				{
					"sampler":65,
					"target":{
						"node":12,
						"path":"scale"
					}
				},
				{
					"sampler":66,
					"target":{
						"node":11,
						"path":"translation"
					}
				},
				{
					"sampler":67,
					"target":{
						"node":11,
						"path":"rotation"
					}
				},
				{
					"sampler":68,
					"target":{
						"node":11,
						"path":"scale"
					}
				},
				{
					"sampler":69,
					"target":{
						"node":18,
						"path":"translation"
					}
				},
				{
					"sampler":70,
					"target":{
						"node":18,
						"path":"rotation"
					}
				},
				{
					"sampler":71,
					"target":{
						"node":18,
						"path":"scale"
					}
				},
				{
					"sampler":72,
					"target":{
						"node":17,
						"path":"translation"
					}
				},
				{
					"sampler":73,
					"target":{
						"node":17,
						"path":"rotation"
					}
				},
				{
					"sampler":74,
					"target":{
						"node":17,
						"path":"scale"
					}
				},
				{
					"sampler":75,
					"target":{
						"node":16,
						"path":"translation"
					}
				},
				{
					"sampler":76,
					"target":{
						"node":16,
						"path":"rotation"
					}
				},
				{
					"sampler":77,
					"target":{
						"node":16,
						"path":"scale"
					}
				},
				{
					"sampler":78,
					"target":{
						"node":15,
						"path":"translation"
					}
				},
				{
					"sampler":79,
					"target":{
						"node":15,
						"path":"rotation"
					}
				},
				{
					"sampler":80,
					"target":{
						"node":15,
						"path":"scale"
					}
				},
				{
					"sampler":81,
					"target":{
						"node":22,
						"path":"translation"
					}
				},
				{
					"sampler":82,
					"target":{
						"node":22,
						"path":"rotation"
					}
				},
				{
					"sampler":83,
					"target":{
						"node":22,
						"path":"scale"
					}
				},
				{
					"sampler":84,
					"target":{
						"node":21,
						"path":"translation"
					}
				},
				{
					"sampler":85,
					"target":{
						"node":21,
						"path":"rotation"
					}
				},
				{
					"sampler":86,
					"target":{
						"node":21,
						"path":"scale"
					}
				},
				{
					"sampler":87,
					"target":{
						"node":20,
						"path":"translation"
					}
				},
				{
					"sampler":88,
					"target":{
						"node":20,
						"path":"rotation"
					}
				},
				{
					"sampler":89,
					"target":{
						"node":20,
						"path":"scale"
					}
				},
				{
					"sampler":90,
					"target":{
						"node":19,
						"path":"translation"
					}
				},
				{
					"sampler":91,
					"target":{
						"node":19,
						"path":"rotation"
					}
				},
				{
					"sampler":92,
					"target":{
						"node":19,
						"path":"scale"
					}
				},
				{
					"sampler":93,
					"target":{
						"node":50,
						"path":"translation"
					}
				},
				{
					"sampler":94,
					"target":{
						"node":50,
						"path":"rotation"
					}
				},
				{
					"sampler":95,
					"target":{
						"node":50,
						"path":"scale"
					}
				},
				{
					"sampler":96,
					"target":{
						"node":49,
						"path":"translation"
					}
				},
				{
					"sampler":97,
					"target":{
						"node":49,
						"path":"rotation"
					}
				},
				{
					"sampler":98,
					"target":{
						"node":49,
						"path":"scale"
					}
				},
				{
					"sampler":99,
					"target":{
						"node":48,
						"path":"translation"
					}
				},
				{
					"sampler":100,
					"target":{
						"node":48,
						"path":"rotation"
					}
				},
				{
					"sampler":101,
					"target":{
						"node":48,
						"path":"scale"
					}
				},
				{
					"sampler":102,
					"target":{
						"node":47,
						"path":"translation"
					}
				},
				{
					"sampler":103,
					"target":{
						"node":47,
						"path":"rotation"
					}
				},
				{
					"sampler":104,
					"target":{
						"node":47,
						"path":"scale"
					}
				},
				{
					"sampler":105,
					"target":{
						"node":30,
						"path":"translation"
					}
				},
				{
					"sampler":106,
					"target":{
						"node":30,
						"path":"rotation"
					}
				},
				{
					"sampler":107,
					"target":{
						"node":30,
						"path":"scale"
					}
				},
				{
					"sampler":108,
					"target":{
						"node":29,
						"path":"translation"
					}
				},
				{
					"sampler":109,
					"target":{
						"node":29,
						"path":"rotation"
					}
				},
				{
					"sampler":110,
					"target":{
						"node":29,
						"path":"scale"
					}
				},
				{
					"sampler":111,
					"target":{
						"node":28,
						"path":"translation"
					}
				},
				{
					"sampler":112,
					"target":{
						"node":28,
						"path":"rotation"
					}
				},
				{
					"sampler":113,
					"target":{
						"node":28,
						"path":"scale"
					}
				},
				{
					"sampler":114,
					"target":{
						"node":27,
						"path":"translation"
					}
				},
				{
					"sampler":115,
					"target":{
						"node":27,
						"path":"rotation"
					}
				},
				{
					"sampler":116,
					"target":{
						"node":27,
						"path":"scale"
					}
				},
				{
					"sampler":117,
					"target":{
						"node":34,
						"path":"translation"
					}
				},
				{
					"sampler":118,
					"target":{
						"node":34,
						"path":"rotation"
					}
				},
				{
					"sampler":119,
					"target":{
						"node":34,
						"path":"scale"
					}
				},
				{
					"sampler":120,
					"target":{
						"node":33,
						"path":"translation"
					}
				},
				{
					"sampler":121,
					"target":{
						"node":33,
						"path":"rotation"
					}
				},
				{
					"sampler":122,
					"target":{
						"node":33,
						"path":"scale"
					}
				},
				{
					"sampler":123,
					"target":{
						"node":32,
						"path":"translation"
					}
				},
				{
					"sampler":124,
					"target":{
						"node":32,
						"path":"rotation"
					}
				},
				{
					"sampler":125,
					"target":{
						"node":32,
						"path":"scale"
					}
				},
				{
					"sampler":126,
					"target":{
						"node":31,
						"path":"translation"
					}
				},
				{
					"sampler":127,
					"target":{
						"node":31,
						"path":"rotation"
					}
				},
				{
					"sampler":128,
					"target":{
						"node":31,
						"path":"scale"
					}
				},
				{
					"sampler":129,
					"target":{
						"node":38,
						"path":"translation"
					}
				},
				{
					"sampler":130,
					"target":{
						"node":38,
						"path":"rotation"
					}
				},
				{
					"sampler":131,
					"target":{
						"node":38,
						"path":"scale"
					}
				},
				{
					"sampler":132,
					"target":{
						"node":37,
						"path":"translation"
					}
				},
				{
					"sampler":133,
					"target":{
						"node":37,
						"path":"rotation"
					}
				},
				{
					"sampler":134,
					"target":{
						"node":37,
						"path":"scale"
					}
				},
				{
					"sampler":135,
					"target":{
						"node":36,
						"path":"translation"
					}
				},
				{
					"sampler":136,
					"target":{
						"node":36,
						"path":"rotation"
					}
				},
				{
					"sampler":137,
					"target":{
						"node":36,
						"path":"scale"
					}
				},
				{
					"sampler":138,
					"target":{
						"node":35,
						"path":"translation"
					}
				},
				{
					"sampler":139,
					"target":{
						"node":35,
						"path":"rotation"
					}
				},
				{
					"sampler":140,
					"target":{
						"node":35,
						"path":"scale"
					}
				},
				{
					"sampler":141,
					"target":{
						"node":42,
						"path":"translation"
					}
				},
				{
					"sampler":142,
					"target":{
						"node":42,
						"path":"rotation"
					}
				},
				{
					"sampler":143,
					"target":{
						"node":42,
						"path":"scale"
					}
				},
				{
					"sampler":144,
					"target":{
						"node":41,
						"path":"translation"
					}
				},
				{
					"sampler":145,
					"target":{
						"node":41,
						"path":"rotation"
					}
				},
				{
					"sampler":146,
					"target":{
						"node":41,
						"path":"scale"
					}
				},
				{
					"sampler":147,
					"target":{
						"node":40,
						"path":"translation"
					}
				},
				{
					"sampler":148,
					"target":{
						"node":40,
						"path":"rotation"
					}
				},
				{
					"sampler":149,
					"target":{
						"node":40,
						"path":"scale"
					}
				},
				{
					"sampler":150,
					"target":{
						"node":39,
						"path":"translation"
					}
				},
				{
					"sampler":151,
					"target":{
						"node":39,
						"path":"rotation"
					}
				},
				{
					"sampler":152,
					"target":{
						"node":39,
						"path":"scale"
					}
				},
				{
					"sampler":153,
					"target":{
						"node":46,
						"path":"translation"
					}
				},
				{
					"sampler":154,
					"target":{
						"node":46,
						"path":"rotation"
					}
				},
				{
					"sampler":155,
					"target":{
						"node":46,
						"path":"scale"
					}
				},
				{
					"sampler":156,
					"target":{
						"node":45,
						"path":"translation"
					}
				},
				{
					"sampler":157,
					"target":{
						"node":45,
						"path":"rotation"
					}
				},
				{
					"sampler":158,
					"target":{
						"node":45,
						"path":"scale"
					}
				},
				{
					"sampler":159,
					"target":{
						"node":44,
						"path":"translation"
					}
				},
				{
					"sampler":160,
					"target":{
						"node":44,
						"path":"rotation"
					}
				},
				{
					"sampler":161,
					"target":{
						"node":44,
						"path":"scale"
					}
				},
				{
					"sampler":162,
					"target":{
						"node":43,
						"path":"translation"
					}
				},
				{
					"sampler":163,
					"target":{
						"node":43,
						"path":"rotation"
					}
				},
				{
					"sampler":164,
					"target":{
						"node":43,
						"path":"scale"
					}
				},
				{
					"sampler":165,
					"target":{
						"node":58,
						"path":"translation"
					}
				},
				{
					"sampler":166,
					"target":{
						"node":58,
						"path":"rotation"
					}
				},
				{
					"sampler":167,
					"target":{
						"node":58,
						"path":"scale"
					}
				},
				{
					"sampler":168,
					"target":{
						"node":57,
						"path":"translation"
					}
				},
				{
					"sampler":169,
					"target":{
						"node":57,
						"path":"rotation"
					}
				},
				{
					"sampler":170,
					"target":{
						"node":57,
						"path":"scale"
					}
				},
				{
					"sampler":171,
					"target":{
						"node":56,
						"path":"translation"
					}
				},
				{
					"sampler":172,
					"target":{
						"node":56,
						"path":"rotation"
					}
				},
				{
					"sampler":173,
					"target":{
						"node":56,
						"path":"scale"
					}
				},
				{
					"sampler":174,
					"target":{
						"node":55,
						"path":"translation"
					}
				},
				{
					"sampler":175,
					"target":{
						"node":55,
						"path":"rotation"
					}
				},
				{
					"sampler":176,
					"target":{
						"node":55,
						"path":"scale"
					}
				},
				{
					"sampler":177,
					"target":{
						"node":54,
						"path":"translation"
					}
				},
				{
					"sampler":178,
					"target":{
						"node":54,
						"path":"rotation"
					}
				},
				{
					"sampler":179,
					"target":{
						"node":54,
						"path":"scale"
					}
				},
				{
					"sampler":180,
					"target":{
						"node":63,
						"path":"translation"
					}
				},
				{
					"sampler":181,
					"target":{
						"node":63,
						"path":"rotation"
					}
				},
				{
					"sampler":182,
					"target":{
						"node":63,
						"path":"scale"
					}
				},
				{
					"sampler":183,
					"target":{
						"node":62,
						"path":"translation"
					}
				},
				{
					"sampler":184,
					"target":{
						"node":62,
						"path":"rotation"
					}
				},
				{
					"sampler":185,
					"target":{
						"node":62,
						"path":"scale"
					}
				},
				{
					"sampler":186,
					"target":{
						"node":61,
						"path":"translation"
					}
				},
				{
					"sampler":187,
					"target":{
						"node":61,
						"path":"rotation"
					}
				},
				{
					"sampler":188,
					"target":{
						"node":61,
						"path":"scale"
					}
				},
				{
					"sampler":189,
					"target":{
						"node":60,
						"path":"translation"
					}
				},
				{
					"sampler":190,
					"target":{
						"node":60,
						"path":"rotation"
					}
				},
				{
					"sampler":191,
					"target":{
						"node":60,
						"path":"scale"
					}
				},
				{
					"sampler":192,
					"target":{
						"node":59,
						"path":"translation"
					}
				},
				{
					"sampler":193,
					"target":{
						"node":59,
						"path":"rotation"
					}
				},
				{
					"sampler":194,
					"target":{
						"node":59,
						"path":"scale"
					}
				}
			],
			"name":"mixamo.com",
			"samplers":[
				{
					"input":0,
					"interpolation":"LINEAR",
					"output":1
				},
				{
					"input":0,
					"interpolation":"LINEAR",
					"output":2
				},
				{
					"input":3,
					"interpolation":"STEP",
					"output":4
				},
				{
					"input":3,
					"interpolation":"STEP",
					"output":5
				},
				{
					"input":0,
					"interpolation":"LINEAR",
					"output":6
				},
				{
					"input":3,
					"interpolation":"STEP",
					"output":7
				},
				{
					"input":3,
					"interpolation":"STEP",
					"output":8
				},
				{
					"input":0,
					"interpolation":"LINEAR",
					"output":9
				},
				{
					"input":3,
					"interpolation":"STEP",
					"output":10
				},
				{
					"input":3,
					"interpolation":"STEP",
					"output":11
				},
				{
					"input":0,
					"interpolation":"LINEAR",
					"output":12
				},
				{
					"input":3,
					"interpolation":"STEP",
					"output":13
				},
				{
					"input":3,
					"interpolation":"STEP",
					"output":14
				},
				{
					"input":0,
					"interpolation":"LINEAR",
					"output":15
				},
				{
					"input":3,
					"interpolation":"STEP",
					"output":16
				},
				{
					"input":3,
					"interpolation":"STEP",
					"output":17
				},
				{
					"input":0,
					"interpolation":"LINEAR",
					"output":18
				},
				{
					"input":3,
					"interpolation":"STEP",
					"output":19
				},
				{
					"input":3,
					"interpolation":"STEP",
					"output":20
				},
				{
					"input":3,
					"interpolation":"STEP",
					"output":21
				},
				{
					"input":3,
					"interpolation":"STEP",
					"output":22
				},
				{
					"input":3,
					"interpolation":"STEP",
					"output":23
				},
				{
					"input":0,
					"interpolation":"LINEAR",
					"output":24
				},
				{
					"input":3,
					"interpolation":"STEP",
					"output":25
				},
				{
					"input":3,
					"interpolation":"STEP",
					"output":26
				},
				{
					"input":0,
					"interpolation":"LINEAR",
					"output":27
				},
				{
					"input":3,
					"interpolation":"STEP",
					"output":28
				},
				{
					"input":3,
					"interpolation":"STEP",
					"output":29
				},
				{
					"input":0,
					"interpolation":"LINEAR",
					"output":30
				},
				{
					"input":3,
					"interpolation":"STEP",
					"output":31
				},
				{
					"input":3,
					"interpolation":"STEP",
					"output":32
				},
				{
					"input":0,
					"interpolation":"LINEAR",
					"output":33
				},
				{
					"input":3,
					"interpolation":"STEP",
					"output":34
				},
				{
					"input":3,
					"interpolation":"STEP",
					"output":35
				},
				{
					"input":3,
					"interpolation":"STEP",
					"output":36
				},
				{
					"input":3,
					"interpolation":"STEP",
					"output":37
				},
				{
					"input":3,
					"interpolation":"STEP",
					"output":38
				},
				{
					"input":3,
					"interpolation":"STEP",
					"output":39
				},
				{
					"input":3,
					"interpolation":"STEP",
					"output":40
				},
				{
					"input":3,
					"interpolation":"STEP",
					"output":41
				},
				{
					"input":3,
					"interpolation":"STEP",
					"output":42
				},
				{
					"input":3,
					"interpolation":"STEP",
					"output":43
				},
				{
					"input":3,
					"interpolation":"STEP",
					"output":44
				},
				{
					"input":3,
					"interpolation":"STEP",
					"output":45
				},
				{
					"input":3,
					"interpolation":"STEP",
					"output":4
				},
				{
					"input":3,
					"interpolation":"STEP",
					"output":46
				},
				{
					"input":3,
					"interpolation":"STEP",
					"output":47
				},
				{
					"input":3,
					"interpolation":"STEP",
					"output":48
				},
				{
					"input":3,
					"interpolation":"STEP",
					"output":49
				},
				{
					"input":3,
					"interpolation":"STEP",
					"output":50
				},
				{
					"input":3,
					"interpolation":"STEP",
					"output":51
				},
				{
					"input":3,
					"interpolation":"STEP",
					"output":52
				},
				{
					"input":3,
					"interpolation":"STEP",
					"output":53
				},
				{
					"input":3,
					"interpolation":"STEP",
					"output":54
				},
				{
					"input":3,
					"interpolation":"STEP",
					"output":55
				},
				{
					"input":3,
					"interpolation":"STEP",
					"output":56
				},
				{
					"input":3,
					"interpolation":"STEP",
					"output":4
				},
				{
					"input":3,
					"interpolation":"STEP",
					"output":57
				},
				{
					"input":3,
					"interpolation":"STEP",
					"output":58
				},
				{
					"input":3,
					"interpolation":"STEP",
					"output":59
				},
				{
					"input":3,
					"interpolation":"STEP",
					"output":60
				},
				{
					"input":3,
					"interpolation":"STEP",
					"output":61
				},
				{
					"input":3,
					"interpolation":"STEP",
					"output":62
				},
				{
					"input":3,
					"interpolation":"STEP",
					"output":63
				},
				{
					"input":3,
					"interpolation":"STEP",
					"output":64
				},
				{
					"input":3,
					"interpolation":"STEP",
					"output":65
				},
				{
					"input":3,
					"interpolation":"STEP",
					"output":66
				},
				{
					"input":3,
					"interpolation":"STEP",
					"output":67
				},
				{
					"input":3,
					"interpolation":"STEP",
					"output":19
				},
				{
					"input":3,
					"interpolation":"STEP",
					"output":68
				},
				{
					"input":3,
					"interpolation":"STEP",
					"output":69
				},
				{
					"input":3,
					"interpolation":"STEP",
					"output":70
				},
				{
					"input":3,
					"interpolation":"STEP",
					"output":71
				},
				{
					"input":3,
					"interpolation":"STEP",
					"output":72
				},
				{
					"input":3,
					"interpolation":"STEP",
					"output":73
				},
				{
					"input":3,
					"interpolation":"STEP",
					"output":74
				},
				{
					"input":3,
					"interpolation":"STEP",
					"output":75
				},
				{
					"input":3,
					"interpolation":"STEP",
					"output":76
				},
				{
					"input":3,
					"interpolation":"STEP",
					"output":77
				},
				{
					"input":3,
					"interpolation":"STEP",
					"output":78
				},
				{
					"input":3,
					"interpolation":"STEP",
					"output":22
				},
				{
					"input":3,
					"interpolation":"STEP",
					"output":79
				},
				{
					"input":3,
					"interpolation":"STEP",
					"output":80
				},
				{
					"input":3,
					"interpolation":"STEP",
					"output":81
				},
				{
					"input":3,
					"interpolation":"STEP",
					"output":82
				},
				{
					"input":3,
					"interpolation":"STEP",
					"output":83
				},
				{
					"input":3,
					"interpolation":"STEP",
					"output":84
				},
				{
					"input":3,
					"interpolation":"STEP",
					"output":85
				},
				{
					"input":3,
					"interpolation":"STEP",
					"output":86
				},
				{
					"input":3,
					"interpolation":"STEP",
					"output":87
				},
				{
					"input":3,
					"interpolation":"STEP",
					"output":88
				},
				{
					"input":3,
					"interpolation":"STEP",
					"output":89
				},
				{
					"input":3,
					"interpolation":"STEP",
					"output":4
				},
				{
					"input":3,
					"interpolation":"STEP",
					"output":90
				},
				{
					"input":0,
					"interpolation":"LINEAR",
					"output":91
				},
				{
					"input":3,
					"interpolation":"STEP",
					"output":92
				},
				{
					"input":3,
					"interpolation":"STEP",
					"output":93
				},
				{
					"input":0,
					"interpolation":"LINEAR",
					"output":94
				},
				{
					"input":3,
					"interpolation":"STEP",
					"output":95
				},
				{
					"input":3,
					"interpolation":"STEP",
					"output":96
				},
				{
					"input":0,
					"interpolation":"LINEAR",
					"output":97
				},
				{
					"input":3,
					"interpolation":"STEP",
					"output":98
				},
				{
					"input":3,
					"interpolation":"STEP",
					"output":99
				},
				{
					"input":0,
					"interpolation":"LINEAR",
					"output":100
				},
				{
					"input":3,
					"interpolation":"STEP",
					"output":101
				},
				{
					"input":3,
					"interpolation":"STEP",
					"output":102
				},
				{
					"input":3,
					"interpolation":"STEP",
					"output":103
				},
				{
					"input":3,
					"interpolation":"STEP",
					"output":104
				},
				{
					"input":3,
					"interpolation":"STEP",
					"output":105
				},
				{
					"input":3,
					"interpolation":"STEP",
					"output":106
				},
				{
					"input":3,
					"interpolation":"STEP",
					"output":107
				},
				{
					"input":3,
					"interpolation":"STEP",
					"output":108
				},
				{
					"input":3,
					"interpolation":"STEP",
					"output":109
				},
				{
					"input":3,
					"interpolation":"STEP",
					"output":110
				},
				{
					"input":3,
					"interpolation":"STEP",
					"output":111
				},
				{
					"input":3,
					"interpolation":"STEP",
					"output":112
				},
				{
					"input":3,
					"interpolation":"STEP",
					"output":113
				},
				{
					"input":3,
					"interpolation":"STEP",
					"output":114
				},
				{
					"input":3,
					"interpolation":"STEP",
					"output":115
				},
				{
					"input":3,
					"interpolation":"STEP",
					"output":116
				},
				{
					"input":3,
					"interpolation":"STEP",
					"output":117
				},
				{
					"input":3,
					"interpolation":"STEP",
					"output":118
				},
				{
					"input":3,
					"interpolation":"STEP",
					"output":119
				},
				{
					"input":3,
					"interpolation":"STEP",
					"output":120
				},
				{
					"input":3,
					"interpolation":"STEP",
					"output":121
				},
				{
					"input":3,
					"interpolation":"STEP",
					"output":73
				},
				{
					"input":3,
					"interpolation":"STEP",
					"output":122
				},
				{
					"input":3,
					"interpolation":"STEP",
					"output":123
				},
				{
					"input":3,
					"interpolation":"STEP",
					"output":124
				},
				{
					"input":3,
					"interpolation":"STEP",
					"output":125
				},
				{
					"input":3,
					"interpolation":"STEP",
					"output":126
				},
				{
					"input":3,
					"interpolation":"STEP",
					"output":127
				},
				{
					"input":3,
					"interpolation":"STEP",
					"output":128
				},
				{
					"input":3,
					"interpolation":"STEP",
					"output":129
				},
				{
					"input":3,
					"interpolation":"STEP",
					"output":73
				},
				{
					"input":3,
					"interpolation":"STEP",
					"output":130
				},
				{
					"input":3,
					"interpolation":"STEP",
					"output":131
				},
				{
					"input":3,
					"interpolation":"STEP",
					"output":132
				},
				{
					"input":3,
					"interpolation":"STEP",
					"output":133
				},
				{
					"input":3,
					"interpolation":"STEP",
					"output":134
				},
				{
					"input":3,
					"interpolation":"STEP",
					"output":4
				},
				{
					"input":3,
					"interpolation":"STEP",
					"output":135
				},
				{
					"input":3,
					"interpolation":"STEP",
					"output":136
				},
				{
					"input":3,
					"interpolation":"STEP",
					"output":137
				},
				{
					"input":3,
					"interpolation":"STEP",
					"output":138
				},
				{
					"input":3,
					"interpolation":"STEP",
					"output":139
				},
				{
					"input":3,
					"interpolation":"STEP",
					"output":140
				},
				{
					"input":3,
					"interpolation":"STEP",
					"output":141
				},
				{
					"input":3,
					"interpolation":"STEP",
					"output":142
				},
				{
					"input":3,
					"interpolation":"STEP",
					"output":143
				},
				{
					"input":3,
					"interpolation":"STEP",
					"output":144
				},
				{
					"input":3,
					"interpolation":"STEP",
					"output":145
				},
				{
					"input":3,
					"interpolation":"STEP",
					"output":124
				},
				{
					"input":3,
					"interpolation":"STEP",
					"output":146
				},
				{
					"input":3,
					"interpolation":"STEP",
					"output":147
				},
				{
					"input":3,
					"interpolation":"STEP",
					"output":148
				},
				{
					"input":3,
					"interpolation":"STEP",
					"output":149
				},
				{
					"input":3,
					"interpolation":"STEP",
					"output":150
				},
				{
					"input":3,
					"interpolation":"STEP",
					"output":151
				},
				{
					"input":3,
					"interpolation":"STEP",
					"output":152
				},
				{
					"input":3,
					"interpolation":"STEP",
					"output":153
				},
				{
					"input":3,
					"interpolation":"STEP",
					"output":154
				},
				{
					"input":3,
					"interpolation":"STEP",
					"output":155
				},
				{
					"input":3,
					"interpolation":"STEP",
					"output":156
				},
				{
					"input":3,
					"interpolation":"STEP",
					"output":4
				},
				{
					"input":3,
					"interpolation":"STEP",
					"output":157
				},
				{
					"input":0,
					"interpolation":"LINEAR",
					"output":158
				},
				{
					"input":3,
					"interpolation":"STEP",
					"output":159
				},
				{
					"input":3,
					"interpolation":"STEP",
					"output":160
				},
				{
					"input":0,
					"interpolation":"LINEAR",
					"output":161
				},
				{
					"input":3,
					"interpolation":"STEP",
					"output":162
				},
				{
					"input":3,
					"interpolation":"STEP",
					"output":163
				},
				{
					"input":0,
					"interpolation":"LINEAR",
					"output":164
				},
				{
					"input":3,
					"interpolation":"STEP",
					"output":165
				},
				{
					"input":3,
					"interpolation":"STEP",
					"output":166
				},
				{
					"input":0,
					"interpolation":"LINEAR",
					"output":167
				},
				{
					"input":3,
					"interpolation":"STEP",
					"output":168
				},
				{
					"input":3,
					"interpolation":"STEP",
					"output":169
				},
				{
					"input":3,
					"interpolation":"STEP",
					"output":170
				},
				{
					"input":3,
					"interpolation":"STEP",
					"output":4
				},
				{
					"input":3,
					"interpolation":"STEP",
					"output":171
				},
				{
					"input":0,
					"interpolation":"LINEAR",
					"output":172
				},
				{
					"input":3,
					"interpolation":"STEP",
					"output":173
				},
				{
					"input":3,
					"interpolation":"STEP",
					"output":174
				},
				{
					"input":0,
					"interpolation":"LINEAR",
					"output":175
				},
				{
					"input":3,
					"interpolation":"STEP",
					"output":176
				},
				{
					"input":3,
					"interpolation":"STEP",
					"output":177
				},
				{
					"input":0,
					"interpolation":"LINEAR",
					"output":178
				},
				{
					"input":3,
					"interpolation":"STEP",
					"output":179
				},
				{
					"input":3,
					"interpolation":"STEP",
					"output":180
				},
				{
					"input":0,
					"interpolation":"LINEAR",
					"output":181
				},
				{
					"input":3,
					"interpolation":"STEP",
					"output":182
				},
				{
					"input":3,
					"interpolation":"STEP",
					"output":183
				},
				{
					"input":3,
					"interpolation":"STEP",
					"output":184
				},
				{
					"input":3,
					"interpolation":"STEP",
					"output":4
				}
			]
		}
	],
	"skins":[
		{
			"inverseBindMatrices":185,
			"joints":[
				64,
				53,
				52,
				51,
				2,
				1,
				0,
				26,
				25,
				24,
				23,
				6,
				5,
				4,
				3,
				10,
				9,
				8,
				7,
				14,
				13,
				12,
				11,
				18,
				17,
				16,
				15,
				22,
				21,
				20,
				19,
				50,
				49,
				48,
				47,
				30,
				29,
				28,
				27,
				34,
				33,
				32,
				31,
				38,
				37,
				36,
				35,
				42,
				41,
				40,
				39,
				46,
				45,
				44,
				43,
				58,
				57,
				56,
				55,
				54,
				63,
				62,
				61,
				60,
				59
			],
			"name":"Armature"
		}
	],
	"accessors":[
		{
			"bufferView":0,
			"componentType":5126,
			"count":251,
			"max":[
				8.366666666666667
			],
			"min":[
				0.03333333333333333
			],
			"type":"SCALAR"
		},
		{
			"bufferView":1,
			"componentType":5126,
			"count":251,
			"type":"VEC3"
		},
		{
			"bufferView":2,
			"componentType":5126,
			"count":251,
			"type":"VEC4"
		},
		{
			"bufferView":3,
			"componentType":5126,
			"count":2,
			"max":[
				8.366666666666667
			],
			"min":[
				0.03333333333333333
			],
			"type":"SCALAR"
		},
		{
			"bufferView":4,
			"componentType":5126,
			"count":2,
			"type":"VEC3"
		},
		{
			"bufferView":5,
			"componentType":5126,
			"count":2,
			"type":"VEC3"
		},
		{
			"bufferView":6,
			"componentType":5126,
			"count":251,
			"type":"VEC4"
		},
		{
			"bufferView":7,
			"componentType":5126,
			"count":2,
			"type":"VEC3"
		},
		{
			"bufferView":8,
			"componentType":5126,
			"count":2,
			"type":"VEC3"
		},
		{
			"bufferView":9,
			"componentType":5126,
			"count":251,
			"type":"VEC4"
		},
		{
			"bufferView":10,
			"componentType":5126,
			"count":2,
			"type":"VEC3"
		},
		{
			"bufferView":11,
			"componentType":5126,
			"count":2,
			"type":"VEC3"
		},
		{
			"bufferView":12,
			"componentType":5126,
			"count":251,
			"type":"VEC4"
		},
		{
			"bufferView":13,
			"componentType":5126,
			"count":2,
			"type":"VEC3"
		},
		{
			"bufferView":14,
			"componentType":5126,
			"count":2,
			"type":"VEC3"
		},
		{
			"bufferView":15,
			"componentType":5126,
			"count":251,
			"type":"VEC4"
		},
		{
			"bufferView":16,
			"componentType":5126,
			"count":2,
			"type":"VEC3"
		},
		{
			"bufferView":17,
			"componentType":5126,
			"count":2,
			"type":"VEC3"
		},
		{
			"bufferView":18,
			"componentType":5126,
			"count":251,
			"type":"VEC4"
		},
		{
			"bufferView":19,
			"componentType":5126,
			"count":2,
			"type":"VEC3"
		},
		{
			"bufferView":20,
			"componentType":5126,
			"count":2,
			"type":"VEC3"
		},
		{
			"bufferView":21,
			"componentType":5126,
			"count":2,
			"type":"VEC4"
		},
		{
			"bufferView":22,
			"componentType":5126,
			"count":2,
			"type":"VEC3"
		},
		{
			"bufferView":23,
			"componentType":5126,
			"count":2,
			"type":"VEC3"
		},
		{
			"bufferView":24,
			"componentType":5126,
			"count":251,
			"type":"VEC4"
		},
		{
			"bufferView":25,
			"componentType":5126,
			"count":2,
			"type":"VEC3"
		},
		{
			"bufferView":26,
			"componentType":5126,
			"count":2,
			"type":"VEC3"
		},
		{
			"bufferView":27,
			"componentType":5126,
			"count":251,
			"type":"VEC4"
		},
		{
			"bufferView":28,
			"componentType":5126,
			"count":2,
			"type":"VEC3"
		},
		{
			"bufferView":29,
			"componentType":5126,
			"count":2,
			"type":"VEC3"
		},
		{
			"bufferView":30,
			"componentType":5126,
			"count":251,
			"type":"VEC4"
		},
		{
			"bufferView":31,
			"componentType":5126,
			"count":2,
			"type":"VEC3"
		},
		{
			"bufferView":32,
			"componentType":5126,
			"count":2,
			"type":"VEC3"
		},
		{
			"bufferView":33,
			"componentType":5126,
			"count":251,
			"type":"VEC4"
		},
		{
			"bufferView":34,
			"componentType":5126,
			"count":2,
			"type":"VEC3"
		},
		{
			"bufferView":35,
			"componentType":5126,
			"count":2,
			"type":"VEC3"
		},
		{
			"bufferView":36,
			"componentType":5126,
			"count":2,
			"type":"VEC4"
		},
		{
			"bufferView":37,
			"componentType":5126,
			"count":2,
			"type":"VEC3"
		},
		{
			"bufferView":38,
			"componentType":5126,
			"count":2,
			"type":"VEC3"
		},
		{
			"bufferView":39,
			"componentType":5126,
			"count":2,
			"type":"VEC4"
		},
		{
			"bufferView":40,
			"componentType":5126,
			"count":2,
			"type":"VEC3"
		},
		{
			"bufferView":41,
			"componentType":5126,
			"count":2,
			"type":"VEC3"
		},
		{
			"bufferView":42,
			"componentType":5126,
			"count":2,
			"type":"VEC4"
		},
		{
			"bufferView":43,
			"componentType":5126,
			"count":2,
			"type":"VEC3"
		},
		{
			"bufferView":44,
			"componentType":5126,
			"count":2,
			"type":"VEC3"
		},
		{
			"bufferView":45,
			"componentType":5126,
			"count":2,
			"type":"VEC4"
		},
		{
			"bufferView":46,
			"componentType":5126,
			"count":2,
			"type":"VEC3"
		},
		{
			"bufferView":47,
			"componentType":5126,
			"count":2,
			"type":"VEC4"
		},
		{
			"bufferView":48,
			"componentType":5126,
			"count":2,
			"type":"VEC3"
		},
		{
			"bufferView":49,
			"componentType":5126,
			"count":2,
			"type":"VEC3"
		},
		{
			"bufferView":50,
			"componentType":5126,
			"count":2,
			"type":"VEC4"
		},
		{
			"bufferView":51,
			"componentType":5126,
			"count":2,
			"type":"VEC3"
		},
		{
			"bufferView":52,
			"componentType":5126,
			"count":2,
			"type":"VEC3"
		},
		{
			"bufferView":53,
			"componentType":5126,
			"count":2,
			"type":"VEC4"
		},
		{
			"bufferView":54,
			"componentType":5126,
			"count":2,
			"type":"VEC3"
		},
		{
			"bufferView":55,
			"componentType":5126,
			"count":2,
			"type":"VEC3"
		},
		{
			"bufferView":56,
			"componentType":5126,
			"count":2,
			"type":"VEC4"
		},
		{
			"bufferView":57,
			"componentType":5126,
			"count":2,
			"type":"VEC3"
		},
		{
			"bufferView":58,
			"componentType":5126,
			"count":2,
			"type":"VEC4"
		},
		{
			"bufferView":59,
			"componentType":5126,
			"count":2,
			"type":"VEC3"
		},
		{
			"bufferView":60,
			"componentType":5126,
			"count":2,
			"type":"VEC3"
		},
		{
			"bufferView":61,
			"componentType":5126,
			"count":2,
			"type":"VEC4"
		},
		{
			"bufferView":62,
			"componentType":5126,
			"count":2,
			"type":"VEC3"
		},
		{
			"bufferView":63,
			"componentType":5126,
			"count":2,
			"type":"VEC3"
		},
		{
			"bufferView":64,
			"componentType":5126,
			"count":2,
			"type":"VEC4"
		},
		{
			"bufferView":65,
			"componentType":5126,
			"count":2,
			"type":"VEC3"
		},
		{
			"bufferView":66,
			"componentType":5126,
			"count":2,
			"type":"VEC3"
		},
		{
			"bufferView":67,
			"componentType":5126,
			"count":2,
			"type":"VEC4"
		},
		{
			"bufferView":68,
			"componentType":5126,
			"count":2,
			"type":"VEC3"
		},
		{
			"bufferView":69,
			"componentType":5126,
			"count":2,
			"type":"VEC4"
		},
		{
			"bufferView":70,
			"componentType":5126,
			"count":2,
			"type":"VEC3"
		},
		{
			"bufferView":71,
			"componentType":5126,
			"count":2,
			"type":"VEC3"
		},
		{
			"bufferView":72,
			"componentType":5126,
			"count":2,
			"type":"VEC4"
		},
		{
			"bufferView":73,
			"componentType":5126,
			"count":2,
			"type":"VEC3"
		},
		{
			"bufferView":74,
			"componentType":5126,
			"count":2,
			"type":"VEC3"
		},
		{
			"bufferView":75,
			"componentType":5126,
			"count":2,
			"type":"VEC4"
		},
		{
			"bufferView":76,
			"componentType":5126,
			"count":2,
			"type":"VEC3"
		},
		{
			"bufferView":77,
			"componentType":5126,
			"count":2,
			"type":"VEC3"
		},
		{
			"bufferView":78,
			"componentType":5126,
			"count":2,
			"type":"VEC4"
		},
		{
			"bufferView":79,
			"componentType":5126,
			"count":2,
			"type":"VEC3"
		},
		{
			"bufferView":80,
			"componentType":5126,
			"count":2,
			"type":"VEC4"
		},
		{
			"bufferView":81,
			"componentType":5126,
			"count":2,
			"type":"VEC3"
		},
		{
			"bufferView":82,
			"componentType":5126,
			"count":2,
			"type":"VEC3"
		},
		{
			"bufferView":83,
			"componentType":5126,
			"count":2,
			"type":"VEC4"
		},
		{
			"bufferView":84,
			"componentType":5126,
			"count":2,
			"type":"VEC3"
		},
		{
			"bufferView":85,
			"componentType":5126,
			"count":2,
			"type":"VEC3"
		},
		{
			"bufferView":86,
			"componentType":5126,
			"count":2,
			"type":"VEC4"
		},
		{
			"bufferView":87,
			"componentType":5126,
			"count":2,
			"type":"VEC3"
		},
		{
			"bufferView":88,
			"componentType":5126,
			"count":2,
			"type":"VEC3"
		},
		{
			"bufferView":89,
			"componentType":5126,
			"count":2,
			"type":"VEC4"
		},
		{
			"bufferView":90,
			"componentType":5126,
			"count":2,
			"type":"VEC3"
		},
		{
			"bufferView":91,
			"componentType":5126,
			"count":251,
			"type":"VEC4"
		},
		{
			"bufferView":92,
			"componentType":5126,
			"count":2,
			"type":"VEC3"
		},
		{
			"bufferView":93,
			"componentType":5126,
			"count":2,
			"type":"VEC3"
		},
		{
			"bufferView":94,
			"componentType":5126,
			"count":251,
			"type":"VEC4"
		},
		{
			"bufferView":95,
			"componentType":5126,
			"count":2,
			"type":"VEC3"
		},
		{
			"bufferView":96,
			"componentType":5126,
			"count":2,
			"type":"VEC3"
		},
		{
			"bufferView":97,
			"componentType":5126,
			"count":251,
			"type":"VEC4"
		},
		{
			"bufferView":98,
			"componentType":5126,
			"count":2,
			"type":"VEC3"
		},
		{
			"bufferView":99,
			"componentType":5126,
			"count":2,
			"type":"VEC3"
		},
		{
			"bufferView":100,
			"componentType":5126,
			"count":251,
			"type":"VEC4"
		},
		{
			"bufferView":101,
			"componentType":5126,
			"count":2,
			"type":"VEC3"
		},
		{
			"bufferView":102,
			"componentType":5126,
			"count":2,
			"type":"VEC3"
		},
		{
			"bufferView":103,
			"componentType":5126,
			"count":2,
			"type":"VEC4"
		},
		{
			"bufferView":104,
			"componentType":5126,
			"count":2,
			"type":"VEC3"
		},
		{
			"bufferView":105,
			"componentType":5126,
			"count":2,
			"type":"VEC3"
		},
		{
			"bufferView":106,
			"componentType":5126,
			"count":2,
			"type":"VEC4"
		},
		{
			"bufferView":107,
			"componentType":5126,
			"count":2,
			"type":"VEC3"
		},
		{
			"bufferView":108,
			"componentType":5126,
			"count":2,
			"type":"VEC3"
		},
		{
			"bufferView":109,
			"componentType":5126,
			"count":2,
			"type":"VEC4"
		},
		{
			"bufferView":110,
			"componentType":5126,
			"count":2,
			"type":"VEC3"
		},
		{
			"bufferView":111,
			"componentType":5126,
			"count":2,
			"type":"VEC3"
		},
		{
			"bufferView":112,
			"componentType":5126,
			"count":2,
			"type":"VEC4"
		},
		{
			"bufferView":113,
			"componentType":5126,
			"count":2,
			"type":"VEC3"
		},
		{
			"bufferView":114,
			"componentType":5126,
			"count":2,
			"type":"VEC3"
		},
		{
			"bufferView":115,
			"componentType":5126,
			"count":2,
			"type":"VEC4"
		},
		{
			"bufferView":116,
			"componentType":5126,
			"count":2,
			"type":"VEC3"
		},
		{
			"bufferView":117,
			"componentType":5126,
			"count":2,
			"type":"VEC3"
		},
		{
			"bufferView":118,
			"componentType":5126,
			"count":2,
			"type":"VEC4"
		},
		{
			"bufferView":119,
			"componentType":5126,
			"count":2,
			"type":"VEC3"
		},
		{
			"bufferView":120,
			"componentType":5126,
			"count":2,
			"type":"VEC3"
		},
		{
			"bufferView":121,
			"componentType":5126,
			"count":2,
			"type":"VEC4"
		},
		{
			"bufferView":122,
			"componentType":5126,
			"count":2,
			"type":"VEC3"
		},
		{
			"bufferView":123,
			"componentType":5126,
			"count":2,
			"type":"VEC4"
		},
		{
			"bufferView":124,
			"componentType":5126,
			"count":2,
			"type":"VEC3"
		},
		{
			"bufferView":125,
			"componentType":5126,
			"count":2,
			"type":"VEC3"
		},
		{
			"bufferView":126,
			"componentType":5126,
			"count":2,
			"type":"VEC4"
		},
		{
			"bufferView":127,
			"componentType":5126,
			"count":2,
			"type":"VEC3"
		},
		{
			"bufferView":128,
			"componentType":5126,
			"count":2,
			"type":"VEC3"
		},
		{
			"bufferView":129,
			"componentType":5126,
			"count":2,
			"type":"VEC4"
		},
		{
			"bufferView":130,
			"componentType":5126,
			"count":2,
			"type":"VEC3"
		},
		{
			"bufferView":131,
			"componentType":5126,
			"count":2,
			"type":"VEC4"
		},
		{
			"bufferView":132,
			"componentType":5126,
			"count":2,
			"type":"VEC3"
		},
		{
			"bufferView":133,
			"componentType":5126,
			"count":2,
			"type":"VEC3"
		},
		{
			"bufferView":134,
			"componentType":5126,
			"count":2,
			"type":"VEC4"
		},
		{
			"bufferView":135,
			"componentType":5126,
			"count":2,
			"type":"VEC3"
		},
		{
			"bufferView":136,
			"componentType":5126,
			"count":2,
			"type":"VEC4"
		},
		{
			"bufferView":137,
			"componentType":5126,
			"count":2,
			"type":"VEC3"
		},
		{
			"bufferView":138,
			"componentType":5126,
			"count":2,
			"type":"VEC3"
		},
		{
			"bufferView":139,
			"componentType":5126,
			"count":2,
			"type":"VEC4"
		},
		{
			"bufferView":140,
			"componentType":5126,
			"count":2,
			"type":"VEC3"
		},
		{
			"bufferView":141,
			"componentType":5126,
			"count":2,
			"type":"VEC3"
		},
		{
			"bufferView":142,
			"componentType":5126,
			"count":2,
			"type":"VEC4"
		},
		{
			"bufferView":143,
			"componentType":5126,
			"count":2,
			"type":"VEC3"
		},
		{
			"bufferView":144,
			"componentType":5126,
			"count":2,
			"type":"VEC3"
		},
		{
			"bufferView":145,
			"componentType":5126,
			"count":2,
			"type":"VEC4"
		},
		{
			"bufferView":146,
			"componentType":5126,
			"count":2,
			"type":"VEC3"
		},
		{
			"bufferView":147,
			"componentType":5126,
			"count":2,
			"type":"VEC4"
		},
		{
			"bufferView":148,
			"componentType":5126,
			"count":2,
			"type":"VEC3"
		},
		{
			"bufferView":149,
			"componentType":5126,
			"count":2,
			"type":"VEC3"
		},
		{
			"bufferView":150,
			"componentType":5126,
			"count":2,
			"type":"VEC4"
		},
		{
			"bufferView":151,
			"componentType":5126,
			"count":2,
			"type":"VEC3"
		},
		{
			"bufferView":152,
			"componentType":5126,
			"count":2,
			"type":"VEC3"
		},
		{
			"bufferView":153,
			"componentType":5126,
			"count":2,
			"type":"VEC4"
		},
		{
			"bufferView":154,
			"componentType":5126,
			"count":2,
			"type":"VEC3"
		},
		{
			"bufferView":155,
			"componentType":5126,
			"count":2,
			"type":"VEC3"
		},
		{
			"bufferView":156,
			"componentType":5126,
			"count":2,
			"type":"VEC4"
		},
		{
			"bufferView":157,
			"componentType":5126,
			"count":2,
			"type":"VEC3"
		},
		{
			"bufferView":158,
			"componentType":5126,
			"count":251,
			"type":"VEC4"
		},
		{
			"bufferView":159,
			"componentType":5126,
			"count":2,
			"type":"VEC3"
		},
		{
			"bufferView":160,
			"componentType":5126,
			"count":2,
			"type":"VEC3"
		},
		{
			"bufferView":161,
			"componentType":5126,
			"count":251,
			"type":"VEC4"
		},
		{
			"bufferView":162,
			"componentType":5126,
			"count":2,
			"type":"VEC3"
		},
		{
			"bufferView":163,
			"componentType":5126,
			"count":2,
			"type":"VEC3"
		},
		{
			"bufferView":164,
			"componentType":5126,
			"count":251,
			"type":"VEC4"
		},
		{
			"bufferView":165,
			"componentType":5126,
			"count":2,
			"type":"VEC3"
		},
		{
			"bufferView":166,
			"componentType":5126,
			"count":2,
			"type":"VEC3"
		},
		{
			"bufferView":167,
			"componentType":5126,
			"count":251,
			"type":"VEC4"
		},
		{
			"bufferView":168,
			"componentType":5126,
			"count":2,
			"type":"VEC3"
		},
		{
			"bufferView":169,
			"componentType":5126,
			"count":2,
			"type":"VEC3"
		},
		{
			"bufferView":170,
			"componentType":5126,
			"count":2,
			"type":"VEC4"
		},
		{
			"bufferView":171,
			"componentType":5126,
			"count":2,
			"type":"VEC3"
		},
		{
			"bufferView":172,
			"componentType":5126,
			"count":251,
			"type":"VEC4"
		},
		{
			"bufferView":173,
			"componentType":5126,
			"count":2,
			"type":"VEC3"
		},
		{
			"bufferView":174,
			"componentType":5126,
			"count":2,
			"type":"VEC3"
		},
		{
			"bufferView":175,
			"componentType":5126,
			"count":251,
			"type":"VEC4"
		},
		{
			"bufferView":176,
			"componentType":5126,
			"count":2,
			"type":"VEC3"
		},
		{
			"bufferView":177,
			"componentType":5126,
			"count":2,
			"type":"VEC3"
		},
		{
			"bufferView":178,
			"componentType":5126,
			"count":251,
			"type":"VEC4"
		},
		{
			"bufferView":179,
			"componentType":5126,
			"count":2,
			"type":"VEC3"
		},
		{
			"bufferView":180,
			"componentType":5126,
			"count":2,
			"type":"VEC3"
		},
		{
			"bufferView":181,
			"componentType":5126,
			"count":251,
			"type":"VEC4"
		},
		{
			"bufferView":182,
			"componentType":5126,
			"count":2,
			"type":"VEC3"
		},
		{
			"bufferView":183,
			"componentType":5126,
			"count":2,
			"type":"VEC3"
		},
		{
			"bufferView":184,
			"componentType":5126,
			"count":2,
			"type":"VEC4"
		},
		{
			"bufferView":185,
			"componentType":5126,
			"count":65,
			"type":"MAT4"
		}
	],
	"bufferViews":[
		{
			"buffer":0,
			"byteLength":1004,
			"byteOffset":0
		},
		{
			"buffer":0,
			"byteLength":3012,
			"byteOffset":1004
		},
		{
			"buffer":0,
			"byteLength":4016,
			"byteOffset":4016
		},
		{
			"buffer":0,
			"byteLength":8,
			"byteOffset":8032
		},
		{
			"buffer":0,
			"byteLength":24,
			"byteOffset":8040
		},
		{
			"buffer":0,
			"byteLength":24,
			"byteOffset":8064
		},
		{
			"buffer":0,
			"byteLength":4016,
			"byteOffset":8088
		},
		{
			"buffer":0,
			"byteLength":24,
			"byteOffset":12104
		},
		{
			"buffer":0,
			"byteLength":24,
			"byteOffset":12128
		},
		{
			"buffer":0,
			"byteLength":4016,
			"byteOffset":12152
		},
		{
			"buffer":0,
			"byteLength":24,
			"byteOffset":16168
		},
		{
			"buffer":0,
			"byteLength":24,
			"byteOffset":16192
		},
		{
			"buffer":0,
			"byteLength":4016,
			"byteOffset":16216
		},
		{
			"buffer":0,
			"byteLength":24,
			"byteOffset":20232
		},
		{
			"buffer":0,
			"byteLength":24,
			"byteOffset":20256
		},
		{
			"buffer":0,
			"byteLength":4016,
			"byteOffset":20280
		},
		{
			"buffer":0,
			"byteLength":24,
			"byteOffset":24296
		},
		{
			"buffer":0,
			"byteLength":24,
			"byteOffset":24320
		},
		{
			"buffer":0,
			"byteLength":4016,
			"byteOffset":24344
		},
		{
			"buffer":0,
			"byteLength":24,
			"byteOffset":28360
		},
		{
			"buffer":0,
			"byteLength":24,
			"byteOffset":28384
		},
		{
			"buffer":0,
			"byteLength":32,
			"byteOffset":28408
		},
		{
			"buffer":0,
			"byteLength":24,
			"byteOffset":28440
		},
		{
			"buffer":0,
			"byteLength":24,
			"byteOffset":28464
		},
		{
			"buffer":0,
			"byteLength":4016,
			"byteOffset":28488
		},
		{
			"buffer":0,
			"byteLength":24,
			"byteOffset":32504
		},
		{
			"buffer":0,
			"byteLength":24,
			"byteOffset":32528
		},
		{
			"buffer":0,
			"byteLength":4016,
			"byteOffset":32552
		},
		{
			"buffer":0,
			"byteLength":24,
			"byteOffset":36568
		},
		{
			"buffer":0,
			"byteLength":24,
			"byteOffset":36592
		},
		{
			"buffer":0,
			"byteLength":4016,
			"byteOffset":36616
		},
		{
			"buffer":0,
			"byteLength":24,
			"byteOffset":40632
		},
		{
			"buffer":0,
			"byteLength":24,
			"byteOffset":40656
		},
		{
			"buffer":0,
			"byteLength":4016,
			"byteOffset":40680
		},
		{
			"buffer":0,
			"byteLength":24,
			"byteOffset":44696
		},
		{
			"buffer":0,
			"byteLength":24,
			"byteOffset":44720
		},
		{
			"buffer":0,
			"byteLength":32,
			"byteOffset":44744
		},
		{
			"buffer":0,
			"byteLength":24,
			"byteOffset":44776
		},
		{
			"buffer":0,
			"byteLength":24,
			"byteOffset":44800
		},
		{
			"buffer":0,
			"byteLength":32,
			"byteOffset":44824
		},
		{
			"buffer":0,
			"byteLength":24,
			"byteOffset":44856
		},
		{
			"buffer":0,
			"byteLength":24,
			"byteOffset":44880
		},
		{
			"buffer":0,
			"byteLength":32,
			"byteOffset":44904
		},
		{
			"buffer":0,
			"byteLength":24,
			"byteOffset":44936
		},
		{
			"buffer":0,
			"byteLength":24,
			"byteOffset":44960
		},
		{
			"buffer":0,
			"byteLength":32,
			"byteOffset":44984
		},
		{
			"buffer":0,
			"byteLength":24,
			"byteOffset":45016
		},
		{
			"buffer":0,
			"byteLength":32,
			"byteOffset":45040
		},
		{
			"buffer":0,
			"byteLength":24,
			"byteOffset":45072
		},
		{
			"buffer":0,
			"byteLength":24,
			"byteOffset":45096
		},
		{
			"buffer":0,
			"byteLength":32,
			"byteOffset":45120
		},
		{
			"buffer":0,
			"byteLength":24,
			"byteOffset":45152
		},
		{
			"buffer":0,
			"byteLength":24,
			"byteOffset":45176
		},
		{
			"buffer":0,
			"byteLength":32,
			"byteOffset":45200
		},
		{
			"buffer":0,
			"byteLength":24,
			"byteOffset":45232
		},
		{
			"buffer":0,
			"byteLength":24,
			"byteOffset":45256
		},
		{
			"buffer":0,
			"byteLength":32,
			"byteOffset":45280
		},
		{
			"buffer":0,
			"byteLength":24,
			"byteOffset":45312
		},
		{
			"buffer":0,
			"byteLength":32,
			"byteOffset":45336
		},
		{
			"buffer":0,
			"byteLength":24,
			"byteOffset":45368
		},
		{
			"buffer":0,
			"byteLength":24,
			"byteOffset":45392
		},
		{
			"buffer":0,
			"byteLength":32,
			"byteOffset":45416
		},
		{
			"buffer":0,
			"byteLength":24,
			"byteOffset":45448
		},
		{
			"buffer":0,
			"byteLength":24,
			"byteOffset":45472
		},
		{
			"buffer":0,
			"byteLength":32,
			"byteOffset":45496
		},
		{
			"buffer":0,
			"byteLength":24,
			"byteOffset":45528
		},
		{
			"buffer":0,
			"byteLength":24,
			"byteOffset":45552
		},
		{
			"buffer":0,
			"byteLength":32,
			"byteOffset":45576
		},
		{
			"buffer":0,
			"byteLength":24,
			"byteOffset":45608
		},
		{
			"buffer":0,
			"byteLength":32,
			"byteOffset":45632
		},
		{
			"buffer":0,
			"byteLength":24,
			"byteOffset":45664
		},
		{
			"buffer":0,
			"byteLength":24,
			"byteOffset":45688
		},
		{
			"buffer":0,
			"byteLength":32,
			"byteOffset":45712
		},
		{
			"buffer":0,
			"byteLength":24,
			"byteOffset":45744
		},
		{
			"buffer":0,
			"byteLength":24,
			"byteOffset":45768
		},
		{
			"buffer":0,
			"byteLength":32,
			"byteOffset":45792
		},
		{
			"buffer":0,
			"byteLength":24,
			"byteOffset":45824
		},
		{
			"buffer":0,
			"byteLength":24,
			"byteOffset":45848
		},
		{
			"buffer":0,
			"byteLength":32,
			"byteOffset":45872
		},
		{
			"buffer":0,
			"byteLength":24,
			"byteOffset":45904
		},
		{
			"buffer":0,
			"byteLength":32,
			"byteOffset":45928
		},
		{
			"buffer":0,
			"byteLength":24,
			"byteOffset":45960
		},
		{
			"buffer":0,
			"byteLength":24,
			"byteOffset":45984
		},
		{
			"buffer":0,
			"byteLength":32,
			"byteOffset":46008
		},
		{
			"buffer":0,
			"byteLength":24,
			"byteOffset":46040
		},
		{
			"buffer":0,
			"byteLength":24,
			"byteOffset":46064
		},
		{
			"buffer":0,
			"byteLength":32,
			"byteOffset":46088
		},
		{
			"buffer":0,
			"byteLength":24,
			"byteOffset":46120
		},
		{
			"buffer":0,
			"byteLength":24,
			"byteOffset":46144
		},
		{
			"buffer":0,
			"byteLength":32,
			"byteOffset":46168
		},
		{
			"buffer":0,
			"byteLength":24,
			"byteOffset":46200
		},
		{
			"buffer":0,
			"byteLength":4016,
			"byteOffset":46224
		},
		{
			"buffer":0,
			"byteLength":24,
			"byteOffset":50240
		},
		{
			"buffer":0,
			"byteLength":24,
			"byteOffset":50264
		},
		{
			"buffer":0,
			"byteLength":4016,
			"byteOffset":50288
		},
		{
			"buffer":0,
			"byteLength":24,
			"byteOffset":54304
		},
		{
			"buffer":0,
			"byteLength":24,
			"byteOffset":54328
		},
		{
			"buffer":0,
			"byteLength":4016,
			"byteOffset":54352
		},
		{
			"buffer":0,
			"byteLength":24,
			"byteOffset":58368
		},
		{
			"buffer":0,
			"byteLength":24,
			"byteOffset":58392
		},
		{
			"buffer":0,
			"byteLength":4016,
			"byteOffset":58416
		},
		{
			"buffer":0,
			"byteLength":24,
			"byteOffset":62432
		},
		{
			"buffer":0,
			"byteLength":24,
			"byteOffset":62456
		},
		{
			"buffer":0,
			"byteLength":32,
			"byteOffset":62480
		},
		{
			"buffer":0,
			"byteLength":24,
			"byteOffset":62512
		},
		{
			"buffer":0,
			"byteLength":24,
			"byteOffset":62536
		},
		{
			"buffer":0,
			"byteLength":32,
			"byteOffset":62560
		},
		{
			"buffer":0,
			"byteLength":24,
			"byteOffset":62592
		},
		{
			"buffer":0,
			"byteLength":24,
			"byteOffset":62616
		},
		{
			"buffer":0,
			"byteLength":32,
			"byteOffset":62640
		},
		{
			"buffer":0,
			"byteLength":24,
			"byteOffset":62672
		},
		{
			"buffer":0,
			"byteLength":24,
			"byteOffset":62696
		},
		{
			"buffer":0,
			"byteLength":32,
			"byteOffset":62720
		},
		{
			"buffer":0,
			"byteLength":24,
			"byteOffset":62752
		},
		{
			"buffer":0,
			"byteLength":24,
			"byteOffset":62776
		},
		{
			"buffer":0,
			"byteLength":32,
			"byteOffset":62800
		},
		{
			"buffer":0,
			"byteLength":24,
			"byteOffset":62832
		},
		{
			"buffer":0,
			"byteLength":24,
			"byteOffset":62856
		},
		{
			"buffer":0,
			"byteLength":32,
			"byteOffset":62880
		},
		{
			"buffer":0,
			"byteLength":24,
			"byteOffset":62912
		},
		{
			"buffer":0,
			"byteLength":24,
			"byteOffset":62936
		},
		{
			"buffer":0,
			"byteLength":32,
			"byteOffset":62960
		},
		{
			"buffer":0,
			"byteLength":24,
			"byteOffset":62992
		},
		{
			"buffer":0,
			"byteLength":32,
			"byteOffset":63016
		},
		{
			"buffer":0,
			"byteLength":24,
			"byteOffset":63048
		},
		{
			"buffer":0,
			"byteLength":24,
			"byteOffset":63072
		},
		{
			"buffer":0,
			"byteLength":32,
			"byteOffset":63096
		},
		{
			"buffer":0,
			"byteLength":24,
			"byteOffset":63128
		},
		{
			"buffer":0,
			"byteLength":24,
			"byteOffset":63152
		},
		{
			"buffer":0,
			"byteLength":32,
			"byteOffset":63176
		},
		{
			"buffer":0,
			"byteLength":24,
			"byteOffset":63208
		},
		{
			"buffer":0,
			"byteLength":32,
			"byteOffset":63232
		},
		{
			"buffer":0,
			"byteLength":24,
			"byteOffset":63264
		},
		{
			"buffer":0,
			"byteLength":24,
			"byteOffset":63288
		},
		{
			"buffer":0,
			"byteLength":32,
			"byteOffset":63312
		},
		{
			"buffer":0,
			"byteLength":24,
			"byteOffset":63344
		},
		{
			"buffer":0,
			"byteLength":32,
			"byteOffset":63368
		},
		{
			"buffer":0,
			"byteLength":24,
			"byteOffset":63400
		},
		{
			"buffer":0,
			"byteLength":24,
			"byteOffset":63424
		},
		{
			"buffer":0,
			"byteLength":32,
			"byteOffset":63448
		},
		{
			"buffer":0,
			"byteLength":24,
			"byteOffset":63480
		},
		{
			"buffer":0,
			"byteLength":24,
			"byteOffset":63504
		},
		{
			"buffer":0,
			"byteLength":32,
			"byteOffset":63528
		},
		{
			"buffer":0,
			"byteLength":24,
			"byteOffset":63560
		},
		{
			"buffer":0,
			"byteLength":24,
			"byteOffset":63584
		},
		{
			"buffer":0,
			"byteLength":32,
			"byteOffset":63608
		},
		{
			"buffer":0,
			"byteLength":24,
			"byteOffset":63640
		},
		{
			"buffer":0,
			"byteLength":32,
			"byteOffset":63664
		},
		{
			"buffer":0,
			"byteLength":24,
			"byteOffset":63696
		},
		{
			"buffer":0,
			"byteLength":24,
			"byteOffset":63720
		},
		{
			"buffer":0,
			"byteLength":32,
			"byteOffset":63744
		},
		{
			"buffer":0,
			"byteLength":24,
			"byteOffset":63776
		},
		{
			"buffer":0,
			"byteLength":24,
			"byteOffset":63800
		},
		{
			"buffer":0,
			"byteLength":32,
			"byteOffset":63824
		},
		{
			"buffer":0,
			"byteLength":24,
			"byteOffset":63856
		},
		{
			"buffer":0,
			"byteLength":24,
			"byteOffset":63880
		},
		{
			"buffer":0,
			"byteLength":32,
			"byteOffset":63904
		},
		{
			"buffer":0,
			"byteLength":24,
			"byteOffset":63936
		},
		{
			"buffer":0,
			"byteLength":4016,
			"byteOffset":63960
		},
		{
			"buffer":0,
			"byteLength":24,
			"byteOffset":67976
		},
		{
			"buffer":0,
			"byteLength":24,
			"byteOffset":68000
		},
		{
			"buffer":0,
			"byteLength":4016,
			"byteOffset":68024
		},
		{
			"buffer":0,
			"byteLength":24,
			"byteOffset":72040
		},
		{
			"buffer":0,
			"byteLength":24,
			"byteOffset":72064
		},
		{
			"buffer":0,
			"byteLength":4016,
			"byteOffset":72088
		},
		{
			"buffer":0,
			"byteLength":24,
			"byteOffset":76104
		},
		{
			"buffer":0,
			"byteLength":24,
			"byteOffset":76128
		},
		{
			"buffer":0,
			"byteLength":4016,
			"byteOffset":76152
		},
		{
			"buffer":0,
			"byteLength":24,
			"byteOffset":80168
		},
		{
			"buffer":0,
			"byteLength":24,
			"byteOffset":80192
		},
		{
			"buffer":0,
			"byteLength":32,
			"byteOffset":80216
		},
		{
			"buffer":0,
			"byteLength":24,
			"byteOffset":80248
		},
		{
			"buffer":0,
			"byteLength":4016,
			"byteOffset":80272
		},
		{
			"buffer":0,
			"byteLength":24,
			"byteOffset":84288
		},
		{
			"buffer":0,
			"byteLength":24,
			"byteOffset":84312
		},
		{
			"buffer":0,
			"byteLength":4016,
			"byteOffset":84336
		},
		{
			"buffer":0,
			"byteLength":24,
			"byteOffset":88352
		},
		{
			"buffer":0,
			"byteLength":24,
			"byteOffset":88376
		},
		{
			"buffer":0,
			"byteLength":4016,
			"byteOffset":88400
		},
		{
			"buffer":0,
			"byteLength":24,
			"byteOffset":92416
		},
		{
			"buffer":0,
			"byteLength":24,
			"byteOffset":92440
		},
		{
			"buffer":0,
			"byteLength":4016,
			"byteOffset":92464
		},
		{
			"buffer":0,
			"byteLength":24,
			"byteOffset":96480
		},
		{
			"buffer":0,
			"byteLength":24,
			"byteOffset":96504
		},
		{
			"buffer":0,
			"byteLength":32,
			"byteOffset":96528
		},
		{
			"buffer":0,
			"byteLength":4160,
			"byteOffset":96560
		}
	],
	"buffers":[
		{
			"byteLength":100720,
			"uri":"humanIdle.bin"
		}
	]
}
