{
	"asset":{
		"generator":"Khronos glTF Blender I/O v5.1.20",
		"version":"2.0"
	},
	"scene":0,
	"scenes":[
		{
			"name":"Scene",
			"nodes":[
				4
			]
		}
	],
	"nodes":[
		{
			"mesh":0,
			"name":"Object_4"
		},
		{
			"children":[
				0
			],
			"name":"palo1_4"
		},
		{
			"children":[
				1
			],
			"name":"GLTF_SceneRootNode",
			"rotation":[
				0.70710688829422,
				0,
				0,
				0.7071066498756409
			]
		},
		{
			"children":[
				2
			],
			"name":"root"
		},
		{
			"children":[
				3
			],
			"name":"Sketchfab_model",
			"rotation":[
				-0.70710688829422,
				0,
				0,
				0.7071066498756409
			]
		}
	],
	"materials":[
		{
			"doubleSided":true,
			"emissiveFactor":[
				1,
				1,
				1
			],
			"emissiveTexture":{
				"index":0
			},
			"name":"lambert1.002",
			"normalTexture":{
				"index":1,
				"scale":0.6000000238418579
			},
			"pbrMetallicRoughness":{
				"baseColorFactor":[
					0.4999716579914093,
					0.2048119306564331,
					0.0007053149165585637,
					1
				],
				"metallicRoughnessTexture":{
					"index":2
				}
			}
		},
		{
			"doubleSided":true,
			"name":"wood",
			"pbrMetallicRoughness":{
				"baseColorFactor":[
					0.17247700691223145,
					0.03124145232141018,
					0,
					1
				],
				"metallicFactor":0,
				"roughnessFactor":0.5
			}
		},
		{
			"doubleSided":true,
			"name":"ground",
			"pbrMetallicRoughness":{
				"baseColorFactor":[
					1,
					0.0010413971031084657,
					0.0011883099796250463,
					1
				],
				"metallicFactor":0,
				"roughnessFactor":0.5
			}
		},
		{
			"doubleSided":true,
			"name":"rock",
			"pbrMetallicRoughness":{
				"baseColorFactor":[
					0.06669820845127106,
					0.06669820845127106,
					0.06669820845127106,
					1
				],
				"metallicFactor":0,
				"roughnessFactor":0.5
			}
		}
	],
	"meshes":[
		{
			"name":"Object_0",
			"primitives":[
				{
					"attributes":{
						"POSITION":0,
						"NORMAL":1,
						"TEXCOORD_0":2,
						"TEXCOORD_1":3,
						"TEXCOORD_2":4,
						"TEXCOORD_3":5,
						"TEXCOORD_4":6
					},
					"indices":7,
					"material":0
				},
				{
					"attributes":{
						"POSITION":8,
						"NORMAL":9,
						"TEXCOORD_0":10,
						"TEXCOORD_1":11,
						"TEXCOORD_2":12,
						"TEXCOORD_3":13,
						"TEXCOORD_4":14
					},
					"indices":15,
					"material":1
				},
				{
					"attributes":{
						"POSITION":16,
						"NORMAL":17,
						"TEXCOORD_0":18,
						"TEXCOORD_1":19,
						"TEXCOORD_2":20,
						"TEXCOORD_3":21,
						"TEXCOORD_4":22
					},
					"indices":23,
					"material":2
				},
				{
					"attributes":{
						"POSITION":24,
						"NORMAL":25,
						"TEXCOORD_0":26,
						"TEXCOORD_1":27,
						"TEXCOORD_2":28,
						"TEXCOORD_3":29,
						"TEXCOORD_4":30
					},
					"indices":31,
					"material":3
				}
			]
		}
	],
	"textures":[
		{
			"sampler":0,
			"source":0
		},
		{
			"sampler":0,
			"source":1
		},
		{
			"sampler":0,
			"source":2
		}
	],
	"images":[
		{
			"mimeType":"image/png",
			"name":"lambert1.002_emissive",
			"uri":"lambert1.002_emissive.png"
		},
		{
			"mimeType":"image/png",
			"name":"lambert1.002_normal",
			"uri":"lambert1.002_normal.png"
		},
		{
			"mimeType":"image/png",
			"name":"lambert1.002_metallicRoughness",
			"uri":"lambert1.002_metallicRoughness.png"
		}
	],
	"accessors":[
		{
			"bufferView":0,
			"componentType":5126,
			"count":241,
			"max":[
				2.1377604007720947,
				0.7817637324333191,
				2.9091596603393555
			],
			"min":[
				-3.1328325271606445,
				-0.7546961903572083,
				-3.2005271911621094
			],
			"type":"VEC3"
		},
		{
			"bufferView":1,
			"componentType":5126,
			"count":241,
			"type":"VEC3"
		},
		{
			"bufferView":2,
			"componentType":5126,
			"count":241,
			"type":"VEC2"
		},
		{
			"bufferView":3,
			"componentType":5126,
			"count":241,
			"type":"VEC2"
		},
		{
			"bufferView":4,
			"componentType":5126,
			"count":241,
			"type":"VEC2"
		},
		{
			"bufferView":5,
			"componentType":5126,
			"count":241,
			"type":"VEC2"
		},
		{
			"bufferView":6,
			"componentType":5126,
			"count":241,
			"type":"VEC2"
		},
		{
			"bufferView":7,
			"componentType":5123,
			"count":531,
			"type":"SCALAR"
		},
		{
			"bufferView":8,
			"componentType":5126,
			"count":1179,
			"max":[
				1.908185601234436,
				2.534256935119629,
				2.3780105113983154
			],
			"min":[
				-2.267781972885132,
				-0.643480122089386,
				-2.1682281494140625
			],
			"type":"VEC3"
		},
		{
			"bufferView":9,
			"componentType":5126,
			"count":1179,
			"type":"VEC3"
		},
		{
			"bufferView":10,
			"componentType":5126,
			"count":1179,
			"type":"VEC2"
		},
		{
			"bufferView":11,
			"componentType":5126,
			"count":1179,
			"type":"VEC2"
		},
		{
			"bufferView":12,
			"componentType":5126,
			"count":1179,
			"type":"VEC2"
		},
		{
			"bufferView":13,
			"componentType":5126,
			"count":1179,
			"type":"VEC2"
		},
		{
			"bufferView":14,
			"componentType":5126,
			"count":1179,
			"type":"VEC2"
		},
		{
			"bufferView":15,
			"componentType":5123,
			"count":3768,
			"type":"SCALAR"
		},
		{
			"bufferView":16,
			"componentType":5126,
			"count":61,
			"max":[
				2.253554105758667,
				0.4743416905403137,
				2.3868494033813477
			],
			"min":[
				-2.4467692375183105,
				-0.1546829342842102,
				-2.313474416732788
			],
			"type":"VEC3"
		},
		{
			"bufferView":17,
			"componentType":5126,
			"count":61,
			"type":"VEC3"
		},
		{
			"bufferView":18,
			"componentType":5126,
			"count":61,
			"type":"VEC2"
		},
		{
			"bufferView":19,
			"componentType":5126,
			"count":61,
			"type":"VEC2"
		},
		{
			"bufferView":20,
			"componentType":5126,
			"count":61,
			"type":"VEC2"
		},
		{
			"bufferView":21,
			"componentType":5126,
			"count":61,
			"type":"VEC2"
		},
		{
			"bufferView":22,
			"componentType":5126,
			"count":61,
			"type":"VEC2"
		},
		{
			"bufferView":23,
			"componentType":5123,
			"count":288,
			"type":"SCALAR"
		},
		{
			"bufferView":24,
			"componentType":5126,
			"count":1121,
			"max":[
				3.289839267730713,
				0.47266313433647156,
				3.186736822128296
			],
			"min":[
				-3.1328325271606445,
				-0.7546961903572083,
				-3.229401111602783
			],
			"type":"VEC3"
		},
		{
			"bufferView":25,
			"componentType":5126,
			"count":1121,
			"type":"VEC3"
		},
		{
			"bufferView":26,
			"componentType":5126,
			"count":1121,
			"type":"VEC2"
		},
		{
			"bufferView":27,
			"componentType":5126,
			"count":1121,
			"type":"VEC2"
		},
		{
			"bufferView":28,
			"componentType":5126,
			"count":1121,
			"type":"VEC2"
		},
		{
			"bufferView":29,
			"componentType":5126,
			"count":1121,
			"type":"VEC2"
		},
		{
			"bufferView":30,
			"componentType":5126,
			"count":1121,
			"type":"VEC2"
		},
		{
			"bufferView":31,
			"componentType":5123,
			"count":3597,
			"type":"SCALAR"
		}
	],
	"bufferViews":[
		{
			"buffer":0,
			"byteLength":2892,
			"byteOffset":0,
			"target":34962
		},
		{
			"buffer":0,
			"byteLength":2892,
			"byteOffset":2892,
			"target":34962
		},
		{
			"buffer":0,
			"byteLength":1928,
			"byteOffset":5784,
			"target":34962
		},
		{
			"buffer":0,
			"byteLength":1928,
			"byteOffset":7712,
			"target":34962
		},
		{
			"buffer":0,
			"byteLength":1928,
			"byteOffset":9640,
			"target":34962
		},
		{
			"buffer":0,
			"byteLength":1928,
			"byteOffset":11568,
			"target":34962
		},
		{
			"buffer":0,
			"byteLength":1928,
			"byteOffset":13496,
			"target":34962
		},
		{
			"buffer":0,
			"byteLength":1062,
			"byteOffset":15424,
			"target":34963
		},
		{
			"buffer":0,
			"byteLength":14148,
			"byteOffset":16488,
			"target":34962
		},
		{
			"buffer":0,
			"byteLength":14148,
			"byteOffset":30636,
			"target":34962
		},
		{
			"buffer":0,
			"byteLength":9432,
			"byteOffset":44784,
			"target":34962
		},
		{
			"buffer":0,
			"byteLength":9432,
			"byteOffset":54216,
			"target":34962
		},
		{
			"buffer":0,
			"byteLength":9432,
			"byteOffset":63648,
			"target":34962
		},
		{
			"buffer":0,
			"byteLength":9432,
			"byteOffset":73080,
			"target":34962
		},
		{
			"buffer":0,
			"byteLength":9432,
			"byteOffset":82512,
			"target":34962
		},
		{
			"buffer":0,
			"byteLength":7536,
			"byteOffset":91944,
			"target":34963
		},
		{
			"buffer":0,
			"byteLength":732,
			"byteOffset":99480,
			"target":34962
		},
		{
			"buffer":0,
			"byteLength":732,
			"byteOffset":100212,
			"target":34962
		},
		{
			"buffer":0,
			"byteLength":488,
			"byteOffset":100944,
			"target":34962
		},
		{
			"buffer":0,
			"byteLength":488,
			"byteOffset":101432,
			"target":34962
		},
		{
			"buffer":0,
			"byteLength":488,
			"byteOffset":101920,
			"target":34962
		},
		{
			"buffer":0,
			"byteLength":488,
			"byteOffset":102408,
			"target":34962
		},
		{
			"buffer":0,
			"byteLength":488,
			"byteOffset":102896,
			"target":34962
		},
		{
			"buffer":0,
			"byteLength":576,
			"byteOffset":103384,
			"target":34963
		},
		{
			"buffer":0,
			"byteLength":13452,
			"byteOffset":103960,
			"target":34962
		},
		{
			"buffer":0,
			"byteLength":13452,
			"byteOffset":117412,
			"target":34962
		},
		{
			"buffer":0,
			"byteLength":8968,
			"byteOffset":130864,
			"target":34962
		},
		{
			"buffer":0,
			"byteLength":8968,
			"byteOffset":139832,
			"target":34962
		},
		{
			"buffer":0,
			"byteLength":8968,
			"byteOffset":148800,
			"target":34962
		},
		{
			"buffer":0,
			"byteLength":8968,
			"byteOffset":157768,
			"target":34962
		},
		{
			"buffer":0,
			"byteLength":8968,
			"byteOffset":166736,
			"target":34962
		},
		{
			"buffer":0,
			"byteLength":7194,
			"byteOffset":175704,
			"target":34963
		}
	],
	"samplers":[
		{
			"magFilter":9729,
			"minFilter":9987
		}
	],
	"buffers":[
		{
			"byteLength":182900,
			"uri":"bonFire.bin"
		}
	]
}
