# Blender 4.4.3
# www.blender.org
mtllib hanmar.mtl
o Cube
v -0.300000 5.000000 -0.300000
v -0.300000 2.101665 -0.300000
v 0.300000 5.000000 -0.300000
v 0.300000 2.101665 -0.300000
v -0.300000 5.000000 0.300000
v -0.300000 2.101665 0.300000
v 0.300000 5.000000 0.300000
v 0.300000 2.101665 0.300000
v -0.300000 4.400418 -0.300000
v 0.300000 4.400418 0.300000
v 0.300000 4.400418 -0.300000
v -0.300000 4.400418 0.300000
v -0.023768 4.723961 -1.052490
v 0.023768 4.723961 -1.052490
v -0.023768 4.676457 -1.052490
v 0.023768 4.676457 -1.052490
v 0.300000 4.400418 1.083629
v 0.300000 5.000000 1.083629
v -0.300000 5.000000 1.083629
v -0.300000 4.400418 1.083629
vn -0.0000 1.0000 -0.0000
vn 1.0000 -0.0000 -0.0000
vn -1.0000 -0.0000 -0.0000
vn -0.0000 -1.0000 -0.0000
vn -0.0000 -0.9388 -0.3444
vn -0.0000 -0.0000 -1.0000
vn -0.0000 -0.0000 1.0000
vn -0.0000 0.9388 -0.3444
vn 0.9387 -0.0000 -0.3446
vn -0.9387 -0.0000 -0.3446
vt 0.875000 0.500000
vt 0.625000 0.750000
vt 0.625000 0.500000
vt 0.587526 1.000000
vt 0.587526 0.750000
vt 0.587526 0.250000
vt 0.625000 0.250000
vt 0.375000 0.500000
vt 0.125000 0.750000
vt 0.125000 0.500000
vt 0.587526 0.500000
vt 0.375000 0.250000
vt 0.375000 0.750000
vt 0.587526 0.000000
vt 0.375000 0.000000
vt 0.375000 1.000000
vt 0.625000 0.000000
vt 0.875000 0.750000
vt 0.625000 1.000000
s 0
usemtl Material
f 5/1/1 3/2/1 1/3/1
f 3/2/2 10/4/2 11/5/2
f 12/6/3 19/7/3 5/7/3
f 2/8/4 8/9/4 6/10/4
f 9/11/5 16/5/5 11/5/5
f 5/7/3 9/11/3 12/6/3
f 12/6/3 2/8/3 6/12/3
f 9/11/6 4/13/6 2/8/6
f 10/14/7 6/12/7 8/15/7
f 11/5/2 8/16/2 4/13/2
f 13/3/6 16/5/6 15/11/6
f 3/2/8 13/3/8 1/3/8
f 11/5/9 14/2/9 3/2/9
f 1/3/10 15/11/10 9/11/10
f 18/17/7 20/6/7 17/14/7
f 5/1/1 18/18/1 7/18/1
f 10/14/4 20/6/4 12/6/4
f 7/19/2 17/4/2 10/4/2
f 5/1/1 7/18/1 3/2/1
f 3/2/2 7/19/2 10/4/2
f 12/6/3 20/6/3 19/7/3
f 2/8/4 4/13/4 8/9/4
f 9/11/5 15/11/5 16/5/5
f 5/7/3 1/3/3 9/11/3
f 12/6/3 9/11/3 2/8/3
f 9/11/6 11/5/6 4/13/6
f 10/14/7 12/6/7 6/12/7
f 11/5/2 10/4/2 8/16/2
f 13/3/6 14/2/6 16/5/6
f 3/2/8 14/2/8 13/3/8
f 11/5/9 16/5/9 14/2/9
f 1/3/10 13/3/10 15/11/10
f 18/17/7 19/7/7 20/6/7
f 5/1/1 19/1/1 18/18/1
f 10/14/4 17/14/4 20/6/4
f 7/19/2 18/19/2 17/4/2
