# Blender 4.4.1
# www.blender.org
mtllib rock3.mtl
o ICO球.001
v -0.185683 -0.314106 0.718680
v -0.459507 -0.315324 -0.133131
v -0.111657 -0.136241 -0.683848
v -0.391728 0.210356 -0.414085
v 0.156144 0.264137 -0.604350
v 0.467844 0.236373 -0.008137
v -0.070653 -0.386772 0.273461
v 0.217331 -0.454423 0.198569
v 0.476645 -0.307976 0.000000
v -0.207420 -0.502706 -0.004387
v 0.347598 0.007836 0.141656
v 0.468226 -0.000000 -0.191320
v -0.024431 -0.023246 0.702415
v -0.268119 0.055870 0.297827
v -0.356137 -0.000000 -0.616437
v -0.361802 0.052359 -0.156406
v 0.374563 0.299150 0.342231
v -0.080261 0.175050 0.724216
v -0.516748 0.333888 -0.000000
v 0.112937 0.618240 0.437119
v 0.332375 0.562242 -0.000000
v -0.225070 0.470605 0.205640
v -0.217502 0.371642 -0.342328
v 0.089688 0.490973 -0.347136
v 0.091464 -0.573914 0.057209
v -0.017826 -0.387051 0.553881
v 0.417661 -0.258370 0.191670
v 0.349815 -0.393951 -0.309548
v 0.336191 -0.107523 0.317893
v 0.524247 0.143118 -0.109421
v 0.179160 0.125866 0.465885
v -0.532610 -0.160900 0.094109
v 0.438082 -0.250331 -0.402855
v 0.264717 0.444232 0.553518
v -0.434720 0.280887 -0.196634
v 0.017444 0.253763 -0.700918
v 0.170075 0.647733 -0.123949
v -0.340565 0.387255 -0.311165
v 0.193052 -0.222263 0.278508
v 0.522240 -0.193148 -0.237170
v -0.272516 -0.278920 0.542434
v 0.006890 0.233168 0.754687
v -0.449974 -0.168378 -0.193612
v 0.052551 0.539221 0.761887
v -0.407304 0.391737 0.222676
v -0.238396 0.251756 -0.420906
v -0.012960 0.492692 -0.200275
v 0.436526 0.393077 -0.143771
v 0.275690 0.247328 -0.311404
v 0.004424 0.468651 -0.571396
v -0.400648 0.374083 -0.189501
v -0.369440 0.419090 0.109404
v -0.039136 0.585358 0.248346
v -0.299249 0.381546 0.366370
v -0.095915 0.625522 0.609183
v 0.203551 0.688113 0.177475
v 0.261789 0.073290 -0.279644
v -0.193529 0.101990 -0.754581
v -0.442783 0.047449 -0.003893
v -0.456410 0.005984 0.162490
v -0.153046 0.060623 0.584099
v 0.321369 0.057089 0.328188
v 0.141507 -0.104215 -0.532217
v -0.013330 -0.205506 -0.616025
v -0.387243 -0.131474 -0.403472
v -0.356726 -0.145031 0.297533
v 0.137564 -0.125893 0.426719
v 0.425992 0.006218 0.018963
v 0.547055 -0.164758 -0.113638
v 0.180649 -0.309900 -0.499435
v 0.023002 -0.351605 -0.191851
v -0.058176 -0.363563 -0.266886
v -0.147638 -0.265157 -0.276819
v -0.110997 -0.499533 -0.112547
v -0.308587 -0.267009 0.112980
v -0.202759 -0.373738 0.154276
v -0.211713 -0.365222 0.443215
v 0.383899 -0.402712 -0.170386
v 0.380591 -0.511634 0.032765
v 0.075064 -0.392575 0.354971
v 0.070270 -0.502816 0.290582
v 0.297459 -0.190264 0.269263
v -0.109336 0.484204 -0.423166
vn 0.4609 -0.8364 0.2967
vn -0.4286 -0.8170 0.3857
vn -0.3004 -0.7358 0.6069
vn 0.3262 -0.6589 -0.6778
vn 0.5256 -0.7195 -0.4540
vn 0.1980 -0.5639 0.8017
vn 0.9342 0.2860 0.2135
vn 0.6023 -0.2924 0.7428
vn 0.8030 -0.2180 0.5547
vn 0.8050 -0.2169 0.5522
vn 0.8065 -0.2109 0.5524
vn -0.7099 -0.7043 -0.0012
vn -0.4170 -0.8045 0.4230
vn -0.4178 -0.8083 0.4149
vn -0.4175 -0.8085 0.4146
vn -0.8609 -0.4979 0.1045
vn 0.9897 0.0818 0.1176
vn -0.8285 -0.5596 -0.0210
vn -0.8946 0.2712 0.3551
vn -0.9603 -0.0507 -0.2745
vn -0.6359 -0.5072 -0.5818
vn 0.5684 -0.3568 0.7414
vn -0.7902 -0.1976 0.5802
vn -0.8327 0.3380 -0.4385
vn 0.1705 0.9671 0.1889
vn -0.6956 0.3395 -0.6331
vn -0.4496 0.8890 -0.0869
vn -0.8521 0.4246 -0.3062
vn 0.5944 -0.3712 0.7134
vn -0.5086 0.7800 -0.3646
vn 0.7695 0.5367 -0.3460
vn -0.3593 -0.8949 -0.2648
vn 0.6326 0.6894 -0.3529
vn -0.0233 0.9993 -0.0280
vn -0.7107 0.3889 -0.5862
vn -0.5186 0.8544 0.0329
vn -0.3883 0.9170 0.0916
vn -0.8159 0.1163 0.5664
vn -0.6591 0.1645 0.7338
vn 0.2575 0.9268 0.2734
vn -0.3556 0.9262 0.1251
vn 0.5581 0.8120 -0.1708
vn 0.5484 0.7395 0.3904
vn -0.5847 0.7871 -0.1967
vn 0.5218 -0.2089 -0.8271
vn 0.3470 -0.1554 -0.9249
vn -0.4597 0.7855 -0.4144
vn -0.8979 -0.3365 -0.2839
vn -0.9449 -0.3163 -0.0842
vn -0.9592 -0.2458 -0.1398
vn -0.8816 -0.1764 0.4377
vn -0.2234 -0.1684 0.9601
vn -0.3476 0.0298 0.9372
vn -0.9049 -0.2019 -0.3746
vn 0.9153 -0.3386 0.2181
vn 0.4974 -0.0434 -0.8664
vn 0.5202 -0.0928 -0.8490
vn -0.8159 0.3968 -0.4205
vn -0.8980 0.3923 -0.1994
vn -0.6081 0.2671 0.7476
vn -0.8070 0.3552 0.4717
vn 0.6217 -0.2197 0.7518
vn 0.8026 -0.2125 0.5573
vn 0.8027 -0.2117 0.5575
vn 0.8730 -0.4497 0.1886
vn 0.8596 0.4859 0.1583
vn 0.8741 -0.4813 -0.0650
vn 0.9134 0.3163 -0.2562
vn 0.3931 -0.6585 -0.6417
vn -0.1260 -0.9724 -0.1964
vn 0.4813 -0.0115 0.8765
vn -0.7628 0.4489 0.4654
vn -0.3486 -0.3373 -0.8745
vn -0.7143 -0.5326 0.4539
vn -0.6819 -0.7049 0.1952
vn 0.8100 -0.5736 -0.1220
vn 0.8669 -0.4450 -0.2245
vn -0.2787 0.9558 -0.0936
vn -0.7683 0.6401 0.0001
vn 0.8578 -0.3111 0.4092
vn 0.7974 -0.3239 0.5091
vn -0.6386 -0.7504 0.1706
vn 0.2175 -0.5414 0.8121
vn -0.4167 -0.8046 0.4231
vn -0.1887 -0.9622 -0.1965
vn 0.9239 0.2901 0.2497
vn -0.6260 0.1258 0.7696
vn -0.7571 0.0800 0.6484
vn -0.3322 -0.8903 -0.3114
vn 0.3660 -0.0781 -0.9273
vn -0.9235 0.2701 -0.2723
vn -0.9134 0.4062 0.0264
vn -0.4408 -0.3913 -0.8078
vn -0.8565 0.3427 -0.3859
vn 0.6504 0.5527 -0.5211
vn 0.4673 0.3258 -0.8219
vn 0.6151 0.7322 0.2925
vn -0.3498 0.8785 0.3253
vn 0.3933 0.4729 -0.7885
vn 0.4789 0.4743 -0.7387
vn 0.0047 0.9949 -0.1008
vn 0.6941 0.4472 -0.5641
vn 0.7513 0.6012 -0.2721
vn -0.2827 0.8919 -0.3530
vn -0.7832 0.4305 -0.4486
vn -0.1360 0.5596 -0.8175
vn -0.6108 0.7560 0.2353
vn -0.2936 0.9493 -0.1123
vn -0.1807 0.5331 -0.8265
vn -0.4884 0.8555 -0.1721
vn 0.8174 0.5349 0.2140
vn -0.0647 0.9906 -0.1204
vn -0.4076 0.9099 -0.0766
vn 0.8964 0.3997 0.1915
vn 0.8971 0.3980 0.1919
vn 0.9000 0.3911 0.1927
vn 0.5878 0.7313 -0.3460
vn 0.9211 0.3431 0.1838
vn 0.9135 -0.1425 -0.3810
vn -0.4797 0.8533 -0.2042
vn -0.6983 0.6133 -0.3692
vn 0.5711 -0.1796 -0.8010
vn -0.5732 -0.0546 0.8176
vn -0.8595 -0.2157 -0.4633
vn 0.6366 -0.1834 0.7491
vn -0.7420 -0.2761 0.6109
vn -0.9201 0.1351 0.3676
vn 0.8277 -0.1363 0.5444
vn -0.9939 -0.0096 0.1095
vn 0.9318 -0.2215 0.2877
vn 0.1761 -0.3040 0.9363
vn 0.1918 -0.9786 0.0745
vn -0.5225 -0.6893 -0.5019
vn 0.4268 -0.5983 0.6781
vn 0.8383 -0.0888 0.5380
vn 0.8346 -0.0877 0.5439
vn 0.8339 -0.0875 0.5449
vn 0.7911 0.0910 0.6049
vn -0.6661 -0.6436 -0.3769
vn -0.5055 -0.8600 0.0697
vn 0.1818 -0.9825 -0.0401
vn -0.3961 -0.8647 -0.3089
vn 0.8657 -0.3508 0.3572
vn -0.5236 -0.5424 -0.6570
vn -0.1237 -0.9921 0.0224
vn -0.1217 -0.9922 0.0255
vn -0.1209 -0.9923 0.0255
vn 0.7876 -0.5833 -0.1988
vn -0.1245 -0.9920 0.0225
vn 0.1486 -0.8725 -0.4654
vn 0.5694 -0.1914 -0.7995
vn 0.4628 0.2969 -0.8353
vn 0.6953 -0.1679 0.6988
vn -0.2206 -0.9550 0.1981
vn -0.4527 -0.4349 0.7784
vn 0.9003 0.3901 0.1932
vn 0.8038 -0.2892 -0.5198
vn 0.5457 0.5409 -0.6400
vn 0.9249 -0.1081 -0.3645
vn -0.2101 0.6591 -0.7221
vn -0.9013 0.0475 0.4306
vn 0.7049 -0.3580 0.6123
vn -0.9877 -0.0178 -0.1552
vn 0.2832 -0.7521 0.5951
vn 0.8388 -0.0893 0.5371
vn 0.8388 0.1030 0.5346
vn -0.2170 -0.8785 -0.4256
vn 0.7585 -0.6119 -0.2243
vn -0.0438 -0.9990 0.0073
vn 0.2223 -0.8332 0.5064
vn -0.0678 -0.7535 -0.6539
vn 0.5763 -0.4307 0.6945
vt 0.227273 0.078731
vt 0.181819 0.077795
vt 0.193991 0.022003
vt 0.909091 0.095043
vt 0.909615 0.001052
vt 0.954545 0.078731
vt 0.874770 0.059446
vt 0.568182 0.039365
vt 0.544000 0.075732
vt 0.545455 0.000000
vt 0.589294 0.081529
vt 0.272771 0.157436
vt 0.318182 0.160670
vt 0.269757 0.201907
vt 0.317651 0.237111
vt 0.363637 0.157461
vt 0.136365 0.133401
vt 0.132252 0.228811
vt 0.090910 0.157461
vt 0.196811 0.179783
vt 0.870421 0.131985
vt 0.954880 0.130630
vt 0.841270 0.196618
vt 0.779736 0.157461
vt 0.896535 0.202698
vt 0.266291 0.254140
vt 0.954410 0.162355
vt 0.068183 0.196826
vt 0.090910 0.252275
vt 0.027192 0.268936
vt 0.766145 0.190542
vt 0.689386 0.123774
vt 0.724920 0.051259
vt 0.199891 0.279294
vt 0.229389 0.342232
vt 0.204546 0.354286
vt 0.045035 0.343304
vt 0.022728 0.354286
vt 0.777464 0.343899
vt 0.772728 0.314921
vt 0.818182 0.314921
vt 0.750000 0.354286
vt 0.772727 0.393651
vt 0.675918 0.314397
vt 0.603789 0.348056
vt 0.591582 0.295538
vt 0.840909 0.354286
vt 0.717628 0.298216
vt 0.318182 0.078731
vt 0.358528 0.107924
vt 0.477273 0.433017
vt 0.449164 0.418720
vt 0.500000 0.393651
vt 0.471910 0.326302
vt 0.522728 0.354286
vt 0.716183 0.205674
vt 0.409092 0.393651
vt 0.409230 0.344430
vt 0.636364 0.367408
vt 0.624756 0.413757
vt 0.590909 0.393651
vt 0.864404 0.340907
vt 0.863636 0.393651
vt 0.113837 0.275210
vt 0.102499 0.360717
vt 0.136638 0.340999
vt 0.136365 0.393651
vt 0.272728 0.411778
vt 0.250001 0.433017
vt 0.227273 0.393651
vt 0.296082 0.431931
vt 0.318182 0.393651
vt 0.840909 0.433017
vt 0.636364 0.472382
vt 0.621553 0.201044
vt 0.535779 0.210288
vt 0.636834 0.257104
vt 0.770839 0.253793
vt 0.818182 0.250127
vt 0.861536 0.239830
vt 0.136744 0.288458
vt 0.363954 0.315052
vt 0.589887 0.182995
vt 0.540126 0.150292
vt 0.925133 0.258671
vt 0.409092 0.236191
vt 0.387017 0.275933
vt 0.363637 0.238515
vt 0.386364 0.196826
vt 0.412560 0.181180
vt 0.457424 0.162446
vt 0.475511 0.117078
vt 0.500000 0.078731
vt 1.000000 0.157461
vt 0.402098 0.124629
vt 0.045455 0.393651
vt 0.178114 0.107113
vt 0.225677 0.139612
vt 0.136365 0.078731
vt 0.727273 0.000000
vt 0.761594 0.059446
vt 0.681819 0.236191
vt 0.461838 0.263845
vt 0.545455 0.314921
vt 0.676041 0.350420
vt 0.704546 0.354286
vt 0.098519 0.411839
vt 0.272728 0.314921
vt 0.358598 0.378647
vt 0.295455 0.118096
vt 0.616707 0.116323
vt 0.681818 0.078731
vt 0.113637 0.118096
vt 0.351199 0.021543
vt 0.431819 0.118096
vt 0.386364 0.039365
s 1
usemtl マテリアル.002
f 8/1/1 81/2/1 25/3/1
f 76/4/2 25/5/2 7/6/2
f 10/7/3 25/5/3 76/4/3
f 74/8/4 71/9/4 25/10/4
f 72/11/5 71/9/5 74/8/5
f 82/12/6 27/13/6 29/14/6
f 11/15/7 27/13/7 9/16/7
f 26/17/8 13/18/8 1/19/8
f 67/20/9 13/18/10 26/17/11
f 75/21/12 76/4/12 77/22/12
f 32/23/13 2/24/14 75/21/15
f 66/25/16 75/21/16 77/22/16
f 62/26/17 29/14/17 11/15/17
f 77/22/18 41/27/18 66/25/18
f 41/28/19 61/29/19 14/30/19
f 2/24/20 32/23/20 43/31/20
f 73/32/21 74/33/21 10/7/21
f 31/34/22 34/35/22 44/36/22
f 14/30/23 54/37/23 45/38/23
f 51/39/24 35/40/24 19/41/24
f 38/42/25 51/39/25 23/43/25
f 46/44/26 50/45/26 36/46/26
f 51/39/27 19/41/27 52/47/27
f 38/42/28 4/48/28 35/40/28
f 82/12/29 8/49/29 79/50/29
f 47/51/30 37/52/30 24/53/30
f 49/54/31 50/55/31 24/53/31
f 43/31/32 65/56/32 73/32/32
f 37/52/33 21/57/33 48/58/33
f 83/59/34 47/60/34 24/61/34
f 83/59/35 50/45/35 46/44/35
f 45/62/36 52/47/36 19/41/36
f 52/47/37 45/62/37 22/63/37
f 18/64/38 55/65/38 54/37/38
f 44/66/39 55/65/39 18/64/39
f 55/65/40 44/66/40 20/67/40
f 56/68/41 53/69/41 20/70/41
f 37/71/42 56/68/42 21/72/42
f 34/35/43 56/68/43 20/70/43
f 53/73/44 37/74/44 47/60/44
f 3/75/45 36/46/45 63/76/45
f 58/77/46 36/46/46 3/75/46
f 36/46/47 58/77/47 46/44/47
f 35/40/48 16/78/48 19/41/48
f 4/48/49 16/78/49 35/40/49
f 19/41/50 59/79/50 60/80/50
f 54/37/51 14/30/51 18/64/51
f 42/81/52 18/64/52 13/18/52
f 18/64/53 42/81/53 44/66/53
f 10/7/54 75/21/54 73/32/54
f 6/82/55 62/26/55 11/15/55
f 64/83/56 63/76/56 70/84/56
f 63/76/57 64/83/57 3/75/57
f 59/79/58 16/78/58 43/31/58
f 65/56/59 43/31/59 16/78/59
f 60/80/60 66/25/60 14/85/60
f 14/85/61 66/25/61 41/27/61
f 31/34/62 67/20/62 62/26/62
f 31/34/63 42/81/64 13/18/10
f 12/86/65 30/87/65 68/88/65
f 12/86/66 68/88/66 69/89/66
f 40/90/67 69/89/67 9/16/67
f 69/89/68 40/90/68 12/86/68
f 33/91/69 28/92/69 70/84/69
f 78/93/70 71/9/70 70/84/70
f 67/20/71 29/14/71 62/26/71
f 41/28/72 1/19/72 13/18/72
f 13/18/10 67/20/9 31/34/63
f 2/24/73 43/31/73 73/32/73
f 76/4/74 75/21/74 10/7/74
f 41/27/75 77/22/75 1/94/75
f 78/95/76 40/90/76 9/16/76
f 79/50/77 78/95/77 9/16/77
f 52/47/78 22/63/78 47/60/78
f 22/96/79 54/37/79 55/65/79
f 26/17/80 80/97/80 67/20/80
f 67/20/81 80/97/81 39/98/81
f 7/99/82 25/3/82 81/2/82
f 79/50/83 27/13/83 82/12/83
f 32/23/13 75/21/15 66/25/84
f 25/100/85 10/101/85 74/33/85
f 29/14/86 27/13/86 11/15/86
f 41/28/87 13/18/87 61/29/87
f 60/80/88 32/23/88 66/25/88
f 3/75/89 73/32/89 65/56/89
f 33/91/90 70/84/90 63/76/90
f 59/79/91 43/31/91 32/23/91
f 60/80/92 59/79/92 32/23/92
f 3/75/93 15/102/93 58/77/93
f 38/42/94 35/40/94 51/39/94
f 33/91/95 57/103/95 40/90/95
f 12/86/96 40/90/96 57/103/96
f 20/70/97 44/36/97 34/35/97
f 22/96/98 45/38/98 54/37/98
f 37/52/99 48/58/99 49/54/99
f 5/104/100 36/46/100 50/45/100
f 83/59/101 24/61/101 50/45/101
f 24/53/102 37/52/102 49/54/102
f 5/104/103 50/55/103 49/54/103
f 47/60/104 23/43/104 51/39/104
f 83/59/105 46/44/105 23/105/105
f 46/44/106 38/106/106 23/105/106
f 47/60/107 83/59/107 23/105/107
f 47/60/108 51/39/108 52/47/108
f 46/44/109 4/48/109 38/106/109
f 22/96/110 55/65/110 53/107/110
f 34/35/111 21/72/111 56/68/111
f 20/67/112 53/107/112 55/65/112
f 53/69/113 56/68/113 37/71/113
f 17/108/114 48/109/115 34/35/116
f 6/82/117 30/87/117 49/54/117
f 17/108/118 6/82/118 48/109/118
f 5/104/119 49/54/119 57/103/119
f 22/63/120 53/73/120 47/60/120
f 15/102/121 46/44/121 58/77/121
f 5/104/122 63/76/122 36/46/122
f 45/62/123 60/80/123 14/85/123
f 19/41/124 16/78/124 59/79/124
f 17/108/125 31/34/125 62/26/125
f 13/18/126 18/64/126 61/29/126
f 18/64/127 14/30/127 61/29/127
f 31/34/128 44/66/128 42/81/128
f 4/48/129 65/56/129 16/78/129
f 17/108/130 62/26/130 6/82/130
f 82/12/131 39/110/131 8/49/131
f 75/21/132 2/24/132 73/32/132
f 3/75/133 65/56/133 15/102/133
f 67/20/134 82/12/134 29/14/134
f 6/82/135 68/88/136 30/87/137
f 68/88/138 9/16/138 69/89/138
f 64/83/139 72/11/139 73/111/139
f 78/93/140 70/84/140 28/92/140
f 70/84/141 71/9/141 72/11/141
f 3/75/142 64/83/142 73/111/142
f 79/50/143 9/16/143 27/13/143
f 72/112/144 74/33/144 73/32/144
f 7/6/145 77/22/146 76/4/147
f 78/95/148 33/91/148 40/90/148
f 7/99/145 26/17/149 77/113/146
f 25/114/150 78/95/150 79/50/150
f 57/103/151 49/54/151 30/87/151
f 12/86/152 57/103/152 30/87/152
f 80/97/153 8/1/153 39/98/153
f 1/19/154 77/113/154 26/17/154
f 7/99/155 81/2/155 80/97/155
f 34/35/116 48/109/115 21/72/156
f 49/54/157 48/58/157 6/82/157
f 33/91/158 63/76/158 57/103/158
f 63/76/159 5/104/159 57/103/159
f 15/102/160 4/48/160 46/44/160
f 45/62/161 19/41/161 60/80/161
f 17/108/162 34/35/162 31/34/162
f 4/48/163 15/102/163 65/56/163
f 67/20/164 39/98/164 82/12/164
f 6/82/135 11/15/165 68/88/136
f 68/88/166 11/15/166 9/16/166
f 64/83/167 70/84/167 72/11/167
f 78/95/168 28/115/168 33/91/168
f 7/99/169 80/97/169 26/17/169
f 79/50/170 8/49/170 25/114/170
f 25/114/171 71/116/171 78/95/171
f 80/97/172 81/2/172 8/1/172
