{
	"asset":{
		"generator":"Khronos glTF Blender I/O v5.2.39",
		"version":"2.0"
	},
	"scene":0,
	"scenes":[
		{
			"name":"Scene",
			"nodes":[
				0
			]
		}
	],
	"nodes":[
		{
			"mesh":0,
			"name":"19_rock_19_rock_0"
		}
	],
	"materials":[
		{
			"doubleSided":true,
			"name":"19_rock",
			"pbrMetallicRoughness":{
				"metallicFactor":0.05000000074505806,
				"roughnessFactor":0.5987654328346252
			}
		}
	],
	"meshes":[
		{
			"name":"19_rock_19_rock_0",
			"primitives":[
				{
					"attributes":{
						"POSITION":0,
						"NORMAL":1,
						"TEXCOORD_0":2
					},
					"indices":3,
					"material":0
				}
			]
		}
	],
	"accessors":[
		{
			"bufferView":0,
			"componentType":5126,
			"count":378,
			"max":[
				3.4439544677734375,
				3.085052967071533,
				2.09564208984375
			],
			"min":[
				-2.6646270751953125,
				-0.02947145700454712,
				-1.8975372314453125
			],
			"type":"VEC3"
		},
		{
			"bufferView":1,
			"componentType":5126,
			"count":378,
			"type":"VEC3"
		},
		{
			"bufferView":2,
			"componentType":5126,
			"count":378,
			"type":"VEC2"
		},
		{
			"bufferView":3,
			"componentType":5123,
			"count":1500,
			"type":"SCALAR"
		}
	],
	"bufferViews":[
		{
			"buffer":0,
			"byteLength":4536,
			"byteOffset":0,
			"target":34962
		},
		{
			"buffer":0,
			"byteLength":4536,
			"byteOffset":4536,
			"target":34962
		},
		{
			"buffer":0,
			"byteLength":3024,
			"byteOffset":9072,
			"target":34962
		},
		{
			"buffer":0,
			"byteLength":3000,
			"byteOffset":12096,
			"target":34963
		}
	],
	"buffers":[
		{
			"byteLength":15096,
			"uri":"rock1.bin"
		}
	]
}
