{
	"asset":{
		"generator":"Khronos glTF Blender I/O v5.0.21",
		"version":"2.0"
	},
	"scene":0,
	"scenes":[
		{
			"name":"Scene",
			"nodes":[
				22
			]
		}
	],
	"nodes":[
		{
			"name":"spine.004",
			"rotation":[
				0.013204125687479973,
				-1.2804167504043562e-08,
				-1.869388865927135e-09,
				0.9999128580093384
			],
			"scale":[
				1,
				0.9999999403953552,
				1
			],
			"translation":[
				1.1217137219077244e-09,
				0.26943302154541016,
				0.007690932136029005
			]
		},
		{
			"name":"hand.L",
			"rotation":[
				-0.0023695179261267185,
				-0.0022674971260130405,
				0.003131330478936434,
				0.9999897480010986
			],
			"scale":[
				0.9999998807907104,
				0.9999998807907104,
				0.9999999403953552
			],
			"translation":[
				3.725290298461914e-09,
				0.3392557203769684,
				6.525078788399696e-08
			]
		},
		{
			"children":[
				1
			],
			"name":"forearm.L",
			"rotation":[
				0.016056420281529427,
				0.015521404333412647,
				-0.010190951637923717,
				0.9996986985206604
			],
			"scale":[
				1,
				1.0000001192092896,
				0.9999999403953552
			],
			"translation":[
				-3.306195139884949e-08,
				0.26563602685928345,
				-2.9010698199272156e-07
			]
		},
		{
			"children":[
				2
			],
			"name":"upper_arm.L",
			"rotation":[
				0.022827932611107826,
				0.023573223501443863,
				-0.10416451841592789,
				0.9940186142921448
			],
			"scale":[
				0.9999998807907104,
				0.9999999403953552,
				0.9999999403953552
			],
			"translation":[
				-0.0005635581910610199,
				0.43370646238327026,
				-0.01845819130539894
			]
		},
		{
			"children":[
				3
			],
			"name":"shoulder.L",
			"rotation":[
				-0.5850215554237366,
				-0.42781147360801697,
				-0.436627060174942,
				0.5329954028129578
			],
			"scale":[
				1.0000001192092896,
				1.0000001192092896,
				1.0000001192092896
			],
			"translation":[
				0.018300028517842293,
				0.21495957672595978,
				0.07870033383369446
			]
		},
		{
			"name":"hand.R",
			"rotation":[
				-0.002369511406868696,
				0.0022674836218357086,
				-0.0031313328072428703,
				0.9999897480010986
			],
			"scale":[
				0.9999998807907104,
				1,
				0.9999999403953552
			],
			"translation":[
				-1.1175870895385742e-08,
				0.33925661444664,
				1.2427335605025291e-07
			]
		},
		{
			"name":"hand.R.001",
			"rotation":[
				-0.6649935841560364,
				0.6473599076271057,
				-0.10503393411636353,
				0.3573184907436371
			],
			"scale":[
				1.0000001192092896,
				1.0000003576278687,
				1.0000001192092896
			],
			"translation":[
				0.10064531117677689,
				0.5563253164291382,
				0.20077036321163177
			]
		},
		{
			"children":[
				5,
				6
			],
			"name":"forearm.R",
			"rotation":[
				0.016056261956691742,
				-0.015521387569606304,
				0.010191005654633045,
				0.9996986985206604
			],
			"scale":[
				0.9999999403953552,
				0.9999999403953552,
				0.9999999403953552
			],
			"translation":[
				2.3283064365386963e-08,
				0.2656362056732178,
				-2.2584572434425354e-07
			]
		},
		{
			"children":[
				7
			],
			"name":"upper_arm.R",
			"rotation":[
				0.022827954962849617,
				-0.023573240265250206,
				0.10416441410779953,
				0.9940186142921448
			],
			"scale":[
				0.9999998807907104,
				1,
				0.9999999403953552
			],
			"translation":[
				0.0005635842680931091,
				0.4337061941623688,
				-0.01845800131559372
			]
		},
		{
			"children":[
				8
			],
			"name":"shoulder.R",
			"rotation":[
				-0.5850218534469604,
				0.42781132459640503,
				0.43662694096565247,
				0.5329951643943787
			],
			"scale":[
				0.9999998807907104,
				0.9999999403953552,
				1
			],
			"translation":[
				-0.018300028517842293,
				0.21495933830738068,
				0.07870034128427505
			]
		},
		{
			"children":[
				0,
				4,
				9
			],
			"name":"spine.003",
			"rotation":[
				0.000853808771353215,
				-0.003739337669685483,
				-0.003816234413534403,
				0.99998539686203
			],
			"scale":[
				1,
				1,
				0.9999999403953552
			],
			"translation":[
				-4.085649596419216e-09,
				0.2517942786216736,
				2.3544017846433007e-09
			]
		},
		{
			"children":[
				10
			],
			"name":"spine.002",
			"rotation":[
				-0.05635559931397438,
				0.009245127439498901,
				0.009021243080496788,
				0.9983271956443787
			],
			"scale":[
				1,
				0.9999999403953552,
				1
			],
			"translation":[
				-5.6659246183699e-09,
				0.19079051911830902,
				-1.1056181392632425e-07
			]
		},
		{
			"children":[
				11
			],
			"name":"spine.001",
			"rotation":[
				-0.04056369140744209,
				-0.005869999062269926,
				-0.0049442024901509285,
				0.9991474747657776
			],
			"scale":[
				1,
				0.9999999403953552,
				1
			],
			"translation":[
				-2.02044247998856e-09,
				0.2197479009628296,
				1.6657972778943986e-09
			]
		},
		{
			"name":"pelvis.L",
			"rotation":[
				-0.6264262199401855,
				-0.5803356170654297,
				-0.4883783459663391,
				0.17968708276748657
			],
			"scale":[
				1,
				1.0000001192092896,
				0.9999999403953552
			],
			"translation":[
				6.053813450535017e-08,
				-7.358189435535678e-08,
				1.4909982581912118e-08
			]
		},
		{
			"name":"pelvis.R",
			"rotation":[
				-0.6264262199401855,
				0.580386221408844,
				0.48826512694358826,
				0.17983119189739227
			],
			"scale":[
				0.9999999403953552,
				0.9999996423721313,
				1
			],
			"translation":[
				-3.1642770181861124e-08,
				-9.7784990771288e-08,
				-1.229391983770256e-07
			]
		},
		{
			"name":"toe.L",
			"rotation":[
				-2.91301518018372e-07,
				0.679344117641449,
				-0.7337363958358765,
				0.01106694433838129
			],
			"scale":[
				1.0000001192092896,
				1.0000003576278687,
				1
			],
			"translation":[
				-0.19033901393413544,
				0.3133324980735779,
				-0.1274915188550949
			]
		},
		{
			"children":[
				15
			],
			"name":"shin.L",
			"rotation":[
				0.05920729413628578,
				0.017636891454458237,
				-0.01808457262814045,
				0.9979260563850403
			],
			"scale":[
				0.9999999403953552,
				1,
				1
			],
			"translation":[
				-9.502400644123554e-09,
				0.20159868896007538,
				4.190951585769653e-09
			]
		},
		{
			"children":[
				16
			],
			"name":"thigh.L",
			"rotation":[
				0.9942136406898499,
				-0.010939438827335835,
				-0.009080858901143074,
				0.10647592693567276
			],
			"scale":[
				1.0000001192092896,
				0.9999999403953552,
				0.9999942779541016
			],
			"translation":[
				0.28905364871025085,
				-0.17761994898319244,
				0.07168268412351608
			]
		},
		{
			"name":"toe.R",
			"rotation":[
				2.7131028446092387e-07,
				-0.6793442964553833,
				0.7337362766265869,
				0.01106670405715704
			],
			"scale":[
				0.9999998807907104,
				0.999999463558197,
				0.9999998807907104
			],
			"translation":[
				0.19033904373645782,
				0.31333285570144653,
				-0.1274920552968979
			]
		},
		{
			"children":[
				18
			],
			"name":"shin.R",
			"rotation":[
				0.05920735374093056,
				-0.017636872828006744,
				0.01808442547917366,
				0.9979260563850403
			],
			"scale":[
				0.9999999403953552,
				0.9999998807907104,
				0.9999999403953552
			],
			"translation":[
				-1.755979610607028e-07,
				0.20159892737865448,
				-1.3969838619232178e-09
			]
		},
		{
			"children":[
				19
			],
			"name":"thigh.R",
			"rotation":[
				0.9942136406898499,
				0.01080201007425785,
				0.009212824515998363,
				0.10647881776094437
			],
			"scale":[
				1,
				1,
				1.0000016689300537
			],
			"translation":[
				-0.2891179621219635,
				-0.1775490790605545,
				0.07159838825464249
			]
		},
		{
			"children":[
				12,
				13,
				14,
				17,
				20
			],
			"name":"spine",
			"rotation":[
				0.08580607920885086,
				6.733655754942447e-05,
				6.726347783114761e-05,
				0.9963119029998779
			],
			"translation":[
				0,
				0.7303471565246582,
				-0.0551999993622303
			]
		},
		{
			"children":[
				21
			],
			"name":"metarig"
		}
	],
	"animations":[
		{
			"channels":[
				{
					"sampler":0,
					"target":{
						"node":21,
						"path":"translation"
					}
				},
				{
					"sampler":1,
					"target":{
						"node":21,
						"path":"rotation"
					}
				},
				{
					"sampler":2,
					"target":{
						"node":21,
						"path":"scale"
					}
				},
				{
					"sampler":3,
					"target":{
						"node":12,
						"path":"translation"
					}
				},
				{
					"sampler":4,
					"target":{
						"node":12,
						"path":"rotation"
					}
				},
				{
					"sampler":5,
					"target":{
						"node":12,
						"path":"scale"
					}
				},
				{
					"sampler":6,
					"target":{
						"node":11,
						"path":"translation"
					}
				},
				{
					"sampler":7,
					"target":{
						"node":11,
						"path":"rotation"
					}
				},
				{
					"sampler":8,
					"target":{
						"node":11,
						"path":"scale"
					}
				},
				{
					"sampler":9,
					"target":{
						"node":10,
						"path":"translation"
					}
				},
				{
					"sampler":10,
					"target":{
						"node":10,
						"path":"rotation"
					}
				},
				{
					"sampler":11,
					"target":{
						"node":10,
						"path":"scale"
					}
				},
				{
					"sampler":12,
					"target":{
						"node":0,
						"path":"translation"
					}
				},
				{
					"sampler":13,
					"target":{
						"node":0,
						"path":"rotation"
					}
				},
				{
					"sampler":14,
					"target":{
						"node":0,
						"path":"scale"
					}
				},
				{
					"sampler":15,
					"target":{
						"node":4,
						"path":"translation"
					}
				},
				{
					"sampler":16,
					"target":{
						"node":4,
						"path":"rotation"
					}
				},
				{
					"sampler":17,
					"target":{
						"node":4,
						"path":"scale"
					}
				},
				{
					"sampler":18,
					"target":{
						"node":3,
						"path":"translation"
					}
				},
				{
					"sampler":19,
					"target":{
						"node":3,
						"path":"rotation"
					}
				},
				{
					"sampler":20,
					"target":{
						"node":3,
						"path":"scale"
					}
				},
				{
					"sampler":21,
					"target":{
						"node":2,
						"path":"translation"
					}
				},
				{
					"sampler":22,
					"target":{
						"node":2,
						"path":"rotation"
					}
				},
				{
					"sampler":23,
					"target":{
						"node":2,
						"path":"scale"
					}
				},
				{
					"sampler":24,
					"target":{
						"node":1,
						"path":"translation"
					}
				},
				{
					"sampler":25,
					"target":{
						"node":1,
						"path":"rotation"
					}
				},
				{
					"sampler":26,
					"target":{
						"node":1,
						"path":"scale"
					}
				},
				{
					"sampler":27,
					"target":{
						"node":9,
						"path":"translation"
					}
				},
				{
					"sampler":28,
					"target":{
						"node":9,
						"path":"rotation"
					}
				},
				{
					"sampler":29,
					"target":{
						"node":9,
						"path":"scale"
					}
				},
				{
					"sampler":30,
					"target":{
						"node":8,
						"path":"translation"
					}
				},
				{
					"sampler":31,
					"target":{
						"node":8,
						"path":"rotation"
					}
				},
				{
					"sampler":32,
					"target":{
						"node":8,
						"path":"scale"
					}
				},
				{
					"sampler":33,
					"target":{
						"node":7,
						"path":"translation"
					}
				},
				{
					"sampler":34,
					"target":{
						"node":7,
						"path":"rotation"
					}
				},
				{
					"sampler":35,
					"target":{
						"node":7,
						"path":"scale"
					}
				},
				{
					"sampler":36,
					"target":{
						"node":5,
						"path":"translation"
					}
				},
				{
					"sampler":37,
					"target":{
						"node":5,
						"path":"rotation"
					}
				},
				{
					"sampler":38,
					"target":{
						"node":5,
						"path":"scale"
					}
				},
				{
					"sampler":39,
					"target":{
						"node":6,
						"path":"translation"
					}
				},
				{
					"sampler":40,
					"target":{
						"node":6,
						"path":"rotation"
					}
				},
				{
					"sampler":41,
					"target":{
						"node":6,
						"path":"scale"
					}
				},
				{
					"sampler":42,
					"target":{
						"node":13,
						"path":"translation"
					}
				},
				{
					"sampler":43,
					"target":{
						"node":13,
						"path":"rotation"
					}
				},
				{
					"sampler":44,
					"target":{
						"node":13,
						"path":"scale"
					}
				},
				{
					"sampler":45,
					"target":{
						"node":14,
						"path":"translation"
					}
				},
				{
					"sampler":46,
					"target":{
						"node":14,
						"path":"rotation"
					}
				},
				{
					"sampler":47,
					"target":{
						"node":14,
						"path":"scale"
					}
				},
				{
					"sampler":48,
					"target":{
						"node":17,
						"path":"translation"
					}
				},
				{
					"sampler":49,
					"target":{
						"node":17,
						"path":"rotation"
					}
				},
				{
					"sampler":50,
					"target":{
						"node":17,
						"path":"scale"
					}
				},
				{
					"sampler":51,
					"target":{
						"node":16,
						"path":"translation"
					}
				},
				{
					"sampler":52,
					"target":{
						"node":16,
						"path":"rotation"
					}
				},
				{
					"sampler":53,
					"target":{
						"node":16,
						"path":"scale"
					}
				},
				{
					"sampler":54,
					"target":{
						"node":15,
						"path":"translation"
					}
				},
				{
					"sampler":55,
					"target":{
						"node":15,
						"path":"rotation"
					}
				},
				{
					"sampler":56,
					"target":{
						"node":15,
						"path":"scale"
					}
				},
				{
					"sampler":57,
					"target":{
						"node":20,
						"path":"translation"
					}
				},
				{
					"sampler":58,
					"target":{
						"node":20,
						"path":"rotation"
					}
				},
				{
					"sampler":59,
					"target":{
						"node":20,
						"path":"scale"
					}
				},
				{
					"sampler":60,
					"target":{
						"node":19,
						"path":"translation"
					}
				},
				{
					"sampler":61,
					"target":{
						"node":19,
						"path":"rotation"
					}
				},
				{
					"sampler":62,
					"target":{
						"node":19,
						"path":"scale"
					}
				},
				{
					"sampler":63,
					"target":{
						"node":18,
						"path":"translation"
					}
				},
				{
					"sampler":64,
					"target":{
						"node":18,
						"path":"rotation"
					}
				},
				{
					"sampler":65,
					"target":{
						"node":18,
						"path":"scale"
					}
				}
			],
			"name":"metarig\u30a2\u30af\u30b7\u30e7\u30f3.005",
			"samplers":[
				{
					"input":0,
					"interpolation":"STEP",
					"output":1
				},
				{
					"input":2,
					"interpolation":"LINEAR",
					"output":3
				},
				{
					"input":0,
					"interpolation":"STEP",
					"output":4
				},
				{
					"input":0,
					"interpolation":"LINEAR",
					"output":5
				},
				{
					"input":2,
					"interpolation":"LINEAR",
					"output":6
				},
				{
					"input":0,
					"interpolation":"LINEAR",
					"output":7
				},
				{
					"input":0,
					"interpolation":"LINEAR",
					"output":8
				},
				{
					"input":2,
					"interpolation":"LINEAR",
					"output":9
				},
				{
					"input":0,
					"interpolation":"LINEAR",
					"output":10
				},
				{
					"input":0,
					"interpolation":"LINEAR",
					"output":11
				},
				{
					"input":0,
					"interpolation":"LINEAR",
					"output":12
				},
				{
					"input":0,
					"interpolation":"LINEAR",
					"output":13
				},
				{
					"input":0,
					"interpolation":"LINEAR",
					"output":14
				},
				{
					"input":0,
					"interpolation":"LINEAR",
					"output":15
				},
				{
					"input":0,
					"interpolation":"LINEAR",
					"output":16
				},
				{
					"input":0,
					"interpolation":"LINEAR",
					"output":17
				},
				{
					"input":0,
					"interpolation":"LINEAR",
					"output":18
				},
				{
					"input":0,
					"interpolation":"LINEAR",
					"output":19
				},
				{
					"input":0,
					"interpolation":"LINEAR",
					"output":20
				},
				{
					"input":2,
					"interpolation":"LINEAR",
					"output":21
				},
				{
					"input":0,
					"interpolation":"LINEAR",
					"output":22
				},
				{
					"input":0,
					"interpolation":"LINEAR",
					"output":23
				},
				{
					"input":2,
					"interpolation":"LINEAR",
					"output":24
				},
				{
					"input":0,
					"interpolation":"LINEAR",
					"output":25
				},
				{
					"input":0,
					"interpolation":"LINEAR",
					"output":26
				},
				{
					"input":2,
					"interpolation":"LINEAR",
					"output":27
				},
				{
					"input":0,
					"interpolation":"LINEAR",
					"output":28
				},
				{
					"input":0,
					"interpolation":"LINEAR",
					"output":29
				},
				{
					"input":0,
					"interpolation":"LINEAR",
					"output":30
				},
				{
					"input":0,
					"interpolation":"LINEAR",
					"output":31
				},
				{
					"input":0,
					"interpolation":"LINEAR",
					"output":32
				},
				{
					"input":2,
					"interpolation":"LINEAR",
					"output":33
				},
				{
					"input":0,
					"interpolation":"LINEAR",
					"output":34
				},
				{
					"input":0,
					"interpolation":"LINEAR",
					"output":35
				},
				{
					"input":2,
					"interpolation":"LINEAR",
					"output":36
				},
				{
					"input":0,
					"interpolation":"LINEAR",
					"output":37
				},
				{
					"input":0,
					"interpolation":"LINEAR",
					"output":38
				},
				{
					"input":0,
					"interpolation":"LINEAR",
					"output":39
				},
				{
					"input":0,
					"interpolation":"LINEAR",
					"output":40
				},
				{
					"input":0,
					"interpolation":"LINEAR",
					"output":41
				},
				{
					"input":0,
					"interpolation":"LINEAR",
					"output":42
				},
				{
					"input":0,
					"interpolation":"LINEAR",
					"output":43
				},
				{
					"input":0,
					"interpolation":"LINEAR",
					"output":44
				},
				{
					"input":2,
					"interpolation":"LINEAR",
					"output":45
				},
				{
					"input":0,
					"interpolation":"LINEAR",
					"output":46
				},
				{
					"input":0,
					"interpolation":"LINEAR",
					"output":47
				},
				{
					"input":2,
					"interpolation":"LINEAR",
					"output":48
				},
				{
					"input":0,
					"interpolation":"LINEAR",
					"output":49
				},
				{
					"input":2,
					"interpolation":"LINEAR",
					"output":50
				},
				{
					"input":0,
					"interpolation":"LINEAR",
					"output":51
				},
				{
					"input":0,
					"interpolation":"LINEAR",
					"output":52
				},
				{
					"input":0,
					"interpolation":"LINEAR",
					"output":53
				},
				{
					"input":0,
					"interpolation":"LINEAR",
					"output":54
				},
				{
					"input":0,
					"interpolation":"LINEAR",
					"output":55
				},
				{
					"input":0,
					"interpolation":"LINEAR",
					"output":56
				},
				{
					"input":0,
					"interpolation":"LINEAR",
					"output":57
				},
				{
					"input":0,
					"interpolation":"STEP",
					"output":58
				},
				{
					"input":2,
					"interpolation":"LINEAR",
					"output":59
				},
				{
					"input":2,
					"interpolation":"LINEAR",
					"output":60
				},
				{
					"input":0,
					"interpolation":"LINEAR",
					"output":61
				},
				{
					"input":0,
					"interpolation":"LINEAR",
					"output":62
				},
				{
					"input":0,
					"interpolation":"LINEAR",
					"output":63
				},
				{
					"input":0,
					"interpolation":"LINEAR",
					"output":64
				},
				{
					"input":0,
					"interpolation":"LINEAR",
					"output":65
				},
				{
					"input":0,
					"interpolation":"LINEAR",
					"output":66
				},
				{
					"input":0,
					"interpolation":"LINEAR",
					"output":67
				}
			]
		}
	],
	"skins":[
		{
			"inverseBindMatrices":68,
			"joints":[
				21,
				12,
				11,
				10,
				0,
				4,
				3,
				2,
				1,
				9,
				8,
				7,
				5,
				6,
				13,
				14,
				17,
				16,
				15,
				20,
				19,
				18
			],
			"name":"metarig"
		}
	],
	"accessors":[
		{
			"bufferView":0,
			"componentType":5126,
			"count":2,
			"max":[
				2
			],
			"min":[
				0
			],
			"type":"SCALAR"
		},
		{
			"bufferView":1,
			"componentType":5126,
			"count":2,
			"type":"VEC3"
		},
		{
			"bufferView":2,
			"componentType":5126,
			"count":49,
			"max":[
				2
			],
			"min":[
				0
			],
			"type":"SCALAR"
		},
		{
			"bufferView":3,
			"componentType":5126,
			"count":49,
			"type":"VEC4"
		},
		{
			"bufferView":4,
			"componentType":5126,
			"count":2,
			"type":"VEC3"
		},
		{
			"bufferView":5,
			"componentType":5126,
			"count":2,
			"type":"VEC3"
		},
		{
			"bufferView":6,
			"componentType":5126,
			"count":49,
			"type":"VEC4"
		},
		{
			"bufferView":7,
			"componentType":5126,
			"count":2,
			"type":"VEC3"
		},
		{
			"bufferView":8,
			"componentType":5126,
			"count":2,
			"type":"VEC3"
		},
		{
			"bufferView":9,
			"componentType":5126,
			"count":49,
			"type":"VEC4"
		},
		{
			"bufferView":10,
			"componentType":5126,
			"count":2,
			"type":"VEC3"
		},
		{
			"bufferView":11,
			"componentType":5126,
			"count":2,
			"type":"VEC3"
		},
		{
			"bufferView":12,
			"componentType":5126,
			"count":2,
			"type":"VEC4"
		},
		{
			"bufferView":13,
			"componentType":5126,
			"count":2,
			"type":"VEC3"
		},
		{
			"bufferView":14,
			"componentType":5126,
			"count":2,
			"type":"VEC3"
		},
		{
			"bufferView":15,
			"componentType":5126,
			"count":2,
			"type":"VEC4"
		},
		{
			"bufferView":16,
			"componentType":5126,
			"count":2,
			"type":"VEC3"
		},
		{
			"bufferView":17,
			"componentType":5126,
			"count":2,
			"type":"VEC3"
		},
		{
			"bufferView":18,
			"componentType":5126,
			"count":2,
			"type":"VEC4"
		},
		{
			"bufferView":19,
			"componentType":5126,
			"count":2,
			"type":"VEC3"
		},
		{
			"bufferView":20,
			"componentType":5126,
			"count":2,
			"type":"VEC3"
		},
		{
			"bufferView":21,
			"componentType":5126,
			"count":49,
			"type":"VEC4"
		},
		{
			"bufferView":22,
			"componentType":5126,
			"count":2,
			"type":"VEC3"
		},
		{
			"bufferView":23,
			"componentType":5126,
			"count":2,
			"type":"VEC3"
		},
		{
			"bufferView":24,
			"componentType":5126,
			"count":49,
			"type":"VEC4"
		},
		{
			"bufferView":25,
			"componentType":5126,
			"count":2,
			"type":"VEC3"
		},
		{
			"bufferView":26,
			"componentType":5126,
			"count":2,
			"type":"VEC3"
		},
		{
			"bufferView":27,
			"componentType":5126,
			"count":49,
			"type":"VEC4"
		},
		{
			"bufferView":28,
			"componentType":5126,
			"count":2,
			"type":"VEC3"
		},
		{
			"bufferView":29,
			"componentType":5126,
			"count":2,
			"type":"VEC3"
		},
		{
			"bufferView":30,
			"componentType":5126,
			"count":2,
			"type":"VEC4"
		},
		{
			"bufferView":31,
			"componentType":5126,
			"count":2,
			"type":"VEC3"
		},
		{
			"bufferView":32,
			"componentType":5126,
			"count":2,
			"type":"VEC3"
		},
		{
			"bufferView":33,
			"componentType":5126,
			"count":49,
			"type":"VEC4"
		},
		{
			"bufferView":34,
			"componentType":5126,
			"count":2,
			"type":"VEC3"
		},
		{
			"bufferView":35,
			"componentType":5126,
			"count":2,
			"type":"VEC3"
		},
		{
			"bufferView":36,
			"componentType":5126,
			"count":49,
			"type":"VEC4"
		},
		{
			"bufferView":37,
			"componentType":5126,
			"count":2,
			"type":"VEC3"
		},
		{
			"bufferView":38,
			"componentType":5126,
			"count":2,
			"type":"VEC3"
		},
		{
			"bufferView":39,
			"componentType":5126,
			"count":2,
			"type":"VEC4"
		},
		{
			"bufferView":40,
			"componentType":5126,
			"count":2,
			"type":"VEC3"
		},
		{
			"bufferView":41,
			"componentType":5126,
			"count":2,
			"type":"VEC3"
		},
		{
			"bufferView":42,
			"componentType":5126,
			"count":2,
			"type":"VEC4"
		},
		{
			"bufferView":43,
			"componentType":5126,
			"count":2,
			"type":"VEC3"
		},
		{
			"bufferView":44,
			"componentType":5126,
			"count":2,
			"type":"VEC3"
		},
		{
			"bufferView":45,
			"componentType":5126,
			"count":49,
			"type":"VEC4"
		},
		{
			"bufferView":46,
			"componentType":5126,
			"count":2,
			"type":"VEC3"
		},
		{
			"bufferView":47,
			"componentType":5126,
			"count":2,
			"type":"VEC3"
		},
		{
			"bufferView":48,
			"componentType":5126,
			"count":49,
			"type":"VEC4"
		},
		{
			"bufferView":49,
			"componentType":5126,
			"count":2,
			"type":"VEC3"
		},
		{
			"bufferView":50,
			"componentType":5126,
			"count":49,
			"type":"VEC3"
		},
		{
			"bufferView":51,
			"componentType":5126,
			"count":2,
			"type":"VEC4"
		},
		{
			"bufferView":52,
			"componentType":5126,
			"count":2,
			"type":"VEC3"
		},
		{
			"bufferView":53,
			"componentType":5126,
			"count":2,
			"type":"VEC3"
		},
		{
			"bufferView":54,
			"componentType":5126,
			"count":2,
			"type":"VEC4"
		},
		{
			"bufferView":55,
			"componentType":5126,
			"count":2,
			"type":"VEC3"
		},
		{
			"bufferView":56,
			"componentType":5126,
			"count":2,
			"type":"VEC3"
		},
		{
			"bufferView":57,
			"componentType":5126,
			"count":2,
			"type":"VEC4"
		},
		{
			"bufferView":58,
			"componentType":5126,
			"count":2,
			"type":"VEC3"
		},
		{
			"bufferView":59,
			"componentType":5126,
			"count":49,
			"type":"VEC3"
		},
		{
			"bufferView":60,
			"componentType":5126,
			"count":49,
			"type":"VEC4"
		},
		{
			"bufferView":61,
			"componentType":5126,
			"count":2,
			"type":"VEC3"
		},
		{
			"bufferView":62,
			"componentType":5126,
			"count":2,
			"type":"VEC3"
		},
		{
			"bufferView":63,
			"componentType":5126,
			"count":2,
			"type":"VEC4"
		},
		{
			"bufferView":64,
			"componentType":5126,
			"count":2,
			"type":"VEC3"
		},
		{
			"bufferView":65,
			"componentType":5126,
			"count":2,
			"type":"VEC3"
		},
		{
			"bufferView":66,
			"componentType":5126,
			"count":2,
			"type":"VEC4"
		},
		{
			"bufferView":67,
			"componentType":5126,
			"count":2,
			"type":"VEC3"
		},
		{
			"bufferView":68,
			"componentType":5126,
			"count":22,
			"type":"MAT4"
		}
	],
	"bufferViews":[
		{
			"buffer":0,
			"byteLength":8,
			"byteOffset":0
		},
		{
			"buffer":0,
			"byteLength":24,
			"byteOffset":8
		},
		{
			"buffer":0,
			"byteLength":196,
			"byteOffset":32
		},
		{
			"buffer":0,
			"byteLength":784,
			"byteOffset":228
		},
		{
			"buffer":0,
			"byteLength":24,
			"byteOffset":1012
		},
		{
			"buffer":0,
			"byteLength":24,
			"byteOffset":1036
		},
		{
			"buffer":0,
			"byteLength":784,
			"byteOffset":1060
		},
		{
			"buffer":0,
			"byteLength":24,
			"byteOffset":1844
		},
		{
			"buffer":0,
			"byteLength":24,
			"byteOffset":1868
		},
		{
			"buffer":0,
			"byteLength":784,
			"byteOffset":1892
		},
		{
			"buffer":0,
			"byteLength":24,
			"byteOffset":2676
		},
		{
			"buffer":0,
			"byteLength":24,
			"byteOffset":2700
		},
		{
			"buffer":0,
			"byteLength":32,
			"byteOffset":2724
		},
		{
			"buffer":0,
			"byteLength":24,
			"byteOffset":2756
		},
		{
			"buffer":0,
			"byteLength":24,
			"byteOffset":2780
		},
		{
			"buffer":0,
			"byteLength":32,
			"byteOffset":2804
		},
		{
			"buffer":0,
			"byteLength":24,
			"byteOffset":2836
		},
		{
			"buffer":0,
			"byteLength":24,
			"byteOffset":2860
		},
		{
			"buffer":0,
			"byteLength":32,
			"byteOffset":2884
		},
		{
			"buffer":0,
			"byteLength":24,
			"byteOffset":2916
		},
		{
			"buffer":0,
			"byteLength":24,
			"byteOffset":2940
		},
		{
			"buffer":0,
			"byteLength":784,
			"byteOffset":2964
		},
		{
			"buffer":0,
			"byteLength":24,
			"byteOffset":3748
		},
		{
			"buffer":0,
			"byteLength":24,
			"byteOffset":3772
		},
		{
			"buffer":0,
			"byteLength":784,
			"byteOffset":3796
		},
		{
			"buffer":0,
			"byteLength":24,
			"byteOffset":4580
		},
		{
			"buffer":0,
			"byteLength":24,
			"byteOffset":4604
		},
		{
			"buffer":0,
			"byteLength":784,
			"byteOffset":4628
		},
		{
			"buffer":0,
			"byteLength":24,
			"byteOffset":5412
		},
		{
			"buffer":0,
			"byteLength":24,
			"byteOffset":5436
		},
		{
			"buffer":0,
			"byteLength":32,
			"byteOffset":5460
		},
		{
			"buffer":0,
			"byteLength":24,
			"byteOffset":5492
		},
		{
			"buffer":0,
			"byteLength":24,
			"byteOffset":5516
		},
		{
			"buffer":0,
			"byteLength":784,
			"byteOffset":5540
		},
		{
			"buffer":0,
			"byteLength":24,
			"byteOffset":6324
		},
		{
			"buffer":0,
			"byteLength":24,
			"byteOffset":6348
		},
		{
			"buffer":0,
			"byteLength":784,
			"byteOffset":6372
		},
		{
			"buffer":0,
			"byteLength":24,
			"byteOffset":7156
		},
		{
			"buffer":0,
			"byteLength":24,
			"byteOffset":7180
		},
		{
			"buffer":0,
			"byteLength":32,
			"byteOffset":7204
		},
		{
			"buffer":0,
			"byteLength":24,
			"byteOffset":7236
		},
		{
			"buffer":0,
			"byteLength":24,
			"byteOffset":7260
		},
		{
			"buffer":0,
			"byteLength":32,
			"byteOffset":7284
		},
		{
			"buffer":0,
			"byteLength":24,
			"byteOffset":7316
		},
		{
			"buffer":0,
			"byteLength":24,
			"byteOffset":7340
		},
		{
			"buffer":0,
			"byteLength":784,
			"byteOffset":7364
		},
		{
			"buffer":0,
			"byteLength":24,
			"byteOffset":8148
		},
		{
			"buffer":0,
			"byteLength":24,
			"byteOffset":8172
		},
		{
			"buffer":0,
			"byteLength":784,
			"byteOffset":8196
		},
		{
			"buffer":0,
			"byteLength":24,
			"byteOffset":8980
		},
		{
			"buffer":0,
			"byteLength":588,
			"byteOffset":9004
		},
		{
			"buffer":0,
			"byteLength":32,
			"byteOffset":9592
		},
		{
			"buffer":0,
			"byteLength":24,
			"byteOffset":9624
		},
		{
			"buffer":0,
			"byteLength":24,
			"byteOffset":9648
		},
		{
			"buffer":0,
			"byteLength":32,
			"byteOffset":9672
		},
		{
			"buffer":0,
			"byteLength":24,
			"byteOffset":9704
		},
		{
			"buffer":0,
			"byteLength":24,
			"byteOffset":9728
		},
		{
			"buffer":0,
			"byteLength":32,
			"byteOffset":9752
		},
		{
			"buffer":0,
			"byteLength":24,
			"byteOffset":9784
		},
		{
			"buffer":0,
			"byteLength":588,
			"byteOffset":9808
		},
		{
			"buffer":0,
			"byteLength":784,
			"byteOffset":10396
		},
		{
			"buffer":0,
			"byteLength":24,
			"byteOffset":11180
		},
		{
			"buffer":0,
			"byteLength":24,
			"byteOffset":11204
		},
		{
			"buffer":0,
			"byteLength":32,
			"byteOffset":11228
		},
		{
			"buffer":0,
			"byteLength":24,
			"byteOffset":11260
		},
		{
			"buffer":0,
			"byteLength":24,
			"byteOffset":11284
		},
		{
			"buffer":0,
			"byteLength":32,
			"byteOffset":11308
		},
		{
			"buffer":0,
			"byteLength":24,
			"byteOffset":11340
		},
		{
			"buffer":0,
			"byteLength":1408,
			"byteOffset":11364
		}
	],
	"buffers":[
		{
			"byteLength":12772,
			"uri":"PlayerAttack.bin"
		}
	]
}
