# Blender 4.4.3
# www.blender.org
mtllib enemyBullet.mtl
o 円柱
v 0.000000 0.500000 -0.500000
v 0.000000 0.500000 0.500000
v 0.293893 0.404509 -0.500000
v 0.293893 0.404508 0.500000
v 0.475528 0.154509 -0.500000
v 0.475528 0.154508 0.500000
v 0.475528 -0.154508 -0.500000
v 0.475528 -0.154509 0.500000
v 0.293893 -0.404508 -0.500000
v 0.293893 -0.404509 0.500000
v 0.000000 -0.500000 -0.500000
v 0.000000 -0.500000 0.500000
v -0.293893 -0.404508 -0.500000
v -0.293893 -0.404509 0.500000
v -0.475528 -0.154508 -0.500000
v -0.475528 -0.154509 0.500000
v -0.475528 0.154509 -0.500000
v -0.475528 0.154508 0.500000
v -0.293893 0.404509 -0.500000
v -0.293893 0.404508 0.500000
v 0.163165 0.224578 0.500000
v 0.000000 0.277594 0.933662
v 0.264007 0.085781 0.964223
v 0.264007 -0.085781 0.964223
v 0.163165 -0.224578 0.964223
v 0.000000 -0.277594 0.500000
v -0.163165 -0.224578 0.948158
v -0.264007 -0.085781 0.948158
v -0.264007 0.085781 0.500000
v -0.163165 0.224578 0.933662
v 0.293893 0.404509 0.000000
v 0.000000 -0.000000 0.500000
v -0.267175 -0.367735 0.500000
v -0.240458 -0.330962 0.500000
v -0.213740 -0.294188 0.500000
v -0.187023 -0.257415 0.500000
v -0.160305 -0.220641 0.500000
v -0.133588 -0.183867 0.500000
v -0.106870 -0.147094 0.500000
v -0.080153 -0.110321 0.500000
v -0.053435 -0.073547 0.500000
v -0.026718 -0.036774 0.500000
v -0.267175 0.367735 0.500000
v -0.240458 0.330961 0.500000
v -0.213740 0.294188 0.500000
v -0.187023 0.257414 0.500000
v -0.160305 0.220641 0.500000
v -0.133588 0.183867 0.500000
v -0.106870 0.147094 0.500000
v -0.080153 0.110320 0.500000
v -0.053435 0.073547 0.500000
v -0.026718 0.036773 0.500000
v 0.261715 0.360219 0.500000
v 0.000000 0.445255 0.933662
v 0.423463 0.137591 0.964223
v 0.423463 -0.137592 0.964223
v 0.261715 -0.360219 0.964223
v 0.000000 -0.445255 0.500000
v -0.261715 -0.360219 0.948158
v -0.423463 -0.137592 0.948158
v -0.423463 0.137591 0.500000
v -0.261715 0.360219 0.933662
v 0.293893 0.404508 0.500000
v 0.000000 0.500000 0.500000
v 0.475528 0.154508 0.500000
v 0.475528 -0.154509 0.500000
v 0.293893 -0.404509 0.500000
v 0.000000 -0.500000 0.500000
v -0.293893 -0.404509 0.500000
v -0.475528 -0.154509 0.500000
v -0.475528 0.154508 0.500000
v -0.293893 0.404508 0.500000
vn 0.3090 0.9511 -0.0000
vn 0.8090 0.5878 -0.0000
vn 1.0000 -0.0000 -0.0000
vn 0.8090 -0.5878 -0.0000
vn 0.3090 -0.9511 -0.0000
vn -0.3090 -0.9511 -0.0000
vn -0.8090 -0.5878 -0.0000
vn -1.0000 -0.0000 -0.0000
vn -0.0000 -0.0000 1.0000
vn -0.8090 0.5878 -0.0000
vn -0.3090 0.9511 -0.0000
vn -0.0000 -0.0000 -1.0000
vn 0.7572 -0.5501 0.3521
vn 0.2904 0.8937 0.3421
vn -0.9434 -0.0000 0.3316
vn -0.7032 0.5109 0.4944
vn -0.8693 -0.0000 0.4944
vn -0.7632 0.5545 0.3316
vn 0.9359 -0.0000 0.3521
vn -0.7632 -0.5545 0.3316
vn 0.8635 -0.0000 0.5043
vn -0.2904 0.8937 0.3421
vn -0.2892 -0.8901 0.3521
vn 0.4682 0.8767 0.1107
vn 0.9938 -0.0000 0.1115
vn 0.8040 -0.5841 0.1115
vn 0.1366 -0.9852 0.1035
vn -0.8036 -0.5839 0.1154
vn -0.9788 0.1745 0.1071
vn -0.3068 0.9443 0.1192
vn 0.2640 -0.8124 0.5200
vn 0.9732 0.0109 -0.2298
vn 0.9701 -0.0000 0.2425
vn 0.6971 0.5064 0.5076
vn -0.9701 -0.0000 -0.2425
vn -0.3117 0.9237 -0.2227
vn 0.6927 -0.5032 0.5167
vn -0.2692 0.8285 0.4911
vn -0.8711 -0.0000 0.4911
vn 0.7602 -0.5523 0.3421
vn 0.2668 0.8213 0.5043
vn -0.6927 -0.5032 0.5167
vn 0.6896 0.7168 0.1035
vn -0.1365 -0.9848 0.1071
vn -0.8941 0.4340 0.1107
vt 1.000000 1.000000
vt 0.900000 0.750000
vt 0.900000 0.500000
vt 0.800000 1.000000
vt 0.800000 0.500000
vt 0.700000 0.500000
vt 0.700000 1.000000
vt 0.600000 0.500000
vt 0.600000 1.000000
vt 0.500000 0.500000
vt 0.500000 1.000000
vt 0.400000 0.500000
vt 0.400000 1.000000
vt 0.300000 0.500000
vt 0.300000 1.000000
vt 0.200000 0.500000
vt 0.900000 1.000000
vt 0.200000 1.000000
vt 0.100000 0.500000
vt 0.100000 1.000000
vt -0.000000 0.500000
vt 0.978254 0.175836
vt 0.521746 0.175836
vt 0.608932 0.444164
vt -0.000000 1.000000
vt 0.328319 0.357797
vt 0.250000 0.383245
vt 0.250000 0.250000
vt 0.171681 0.357797
vt 0.185878 0.338256
vt 0.211527 0.302954
vt 0.123277 0.291175
vt 0.160229 0.373559
vt 0.134580 0.408862
vt 0.123277 0.208825
vt 0.171681 0.142203
vt 0.185878 0.161744
vt 0.237176 0.232349
vt 0.250000 0.116755
vt 0.173054 0.144092
vt 0.134580 0.091138
vt 0.328319 0.142203
vt 0.376723 0.208825
vt 0.376723 0.291175
vt 0.250000 0.463723
vt 0.375623 0.422905
vt 0.453262 0.316044
vt 0.453262 0.183956
vt 0.375623 0.077095
vt 0.124377 0.077095
vt 0.250000 0.036277
vt 0.046738 0.183956
vt 0.046738 0.316044
vt 0.124377 0.422905
vt 0.250000 0.490000
vt 0.478254 0.324164
vt 0.391068 0.444164
vt 0.478254 0.175836
vt 0.391068 0.055836
vt 0.108932 0.055836
vt 0.250000 0.010000
vt 0.021746 0.175836
vt 0.108932 0.444164
vt 0.021746 0.324164
vt 1.000000 0.500000
vt 0.750000 0.490000
vt 0.891068 0.444164
vt 0.978254 0.324164
vt 0.891068 0.055836
vt 0.750000 0.010000
vt 0.608932 0.055836
vt 0.521746 0.324164
vt 0.121756 0.426513
vt 0.147405 0.391210
vt 0.173054 0.355908
vt 0.198702 0.320605
vt 0.224351 0.285303
vt 0.237176 0.267651
vt 0.121756 0.073487
vt 0.147405 0.108790
vt 0.160229 0.126441
vt 0.211527 0.197046
vt 0.224351 0.214697
vt 0.198702 0.179395
s 0
f 2/1/1 31/2/1 3/3/1
f 31/2/2 6/4/2 5/5/2
f 6/4/3 7/6/3 5/5/3
f 8/7/4 9/8/4 7/6/4
f 10/9/5 11/10/5 9/8/5
f 12/11/6 13/12/6 11/10/6
f 14/13/7 15/14/7 13/12/7
f 16/15/8 17/16/8 15/14/8
f 6/4/9 63/17/9 65/4/9
f 18/18/10 19/19/10 17/16/10
f 20/20/11 1/21/11 19/19/11
f 7/22/12 15/23/12 19/24/12
f 2/25/9 72/20/9 64/25/9
f 20/20/9 71/18/9 72/20/9
f 18/18/9 70/15/9 71/18/9
f 16/15/9 69/13/9 70/15/9
f 14/13/9 68/11/9 69/13/9
f 12/11/9 67/9/9 68/11/9
f 10/9/9 66/7/9 67/9/9
f 4/17/9 64/1/9 63/17/9
f 8/7/9 65/4/9 66/7/9
f 21/26/13 22/27/13 32/28/13
f 30/29/7 48/30/7 50/31/7
f 29/32/9 46/33/9 44/34/9
f 29/32/14 28/35/14 32/28/14
f 27/36/4 38/37/4 42/38/4
f 26/39/9 37/40/9 34/41/9
f 26/39/15 25/42/15 32/28/15
f 25/42/16 24/43/16 32/28/16
f 24/43/17 23/44/17 32/28/17
f 23/44/18 21/26/18 32/28/18
f 21/26/19 54/45/19 22/27/19
f 23/44/18 53/46/18 21/26/18
f 24/43/9 55/47/9 23/44/9
f 25/42/9 56/48/9 24/43/9
f 26/39/20 57/49/20 25/42/20
f 26/39/21 59/50/21 58/51/21
f 28/35/9 59/50/9 27/36/9
f 29/32/22 60/52/22 28/35/22
f 30/29/23 61/53/23 29/32/23
f 22/27/9 62/54/9 30/29/9
f 53/46/24 64/55/24 54/45/24
f 53/46/9 65/56/9 63/57/9
f 56/48/25 65/56/25 55/47/25
f 57/49/26 66/58/26 56/48/26
f 58/51/27 67/59/27 57/49/27
f 58/51/9 69/60/9 68/61/9
f 59/50/28 70/62/28 69/60/28
f 61/53/29 70/62/29 60/52/29
f 61/53/9 72/63/9 71/64/9
f 54/45/30 72/63/30 62/54/30
f 3/3/1 1/65/1 2/1/1
f 2/1/1 4/17/1 31/2/1
f 5/5/2 3/3/2 31/2/2
f 31/2/2 4/17/2 6/4/2
f 6/4/3 8/7/3 7/6/3
f 8/7/4 10/9/4 9/8/4
f 10/9/5 12/11/5 11/10/5
f 12/11/6 14/13/6 13/12/6
f 14/13/7 16/15/7 15/14/7
f 16/15/8 18/18/8 17/16/8
f 6/4/9 4/17/9 63/17/9
f 18/18/10 20/20/10 19/19/10
f 20/20/11 2/25/11 1/21/11
f 19/24/12 1/66/12 3/67/12
f 3/67/12 5/68/12 7/22/12
f 7/22/12 9/69/12 11/70/12
f 11/70/12 13/71/12 15/23/12
f 15/23/12 17/72/12 19/24/12
f 19/24/12 3/67/12 7/22/12
f 7/22/12 11/70/12 15/23/12
f 2/25/9 20/20/9 72/20/9
f 20/20/9 18/18/9 71/18/9
f 18/18/9 16/15/9 70/15/9
f 16/15/9 14/13/9 69/13/9
f 14/13/9 12/11/9 68/11/9
f 12/11/9 10/9/9 67/9/9
f 10/9/9 8/7/9 66/7/9
f 4/17/9 2/1/9 64/1/9
f 8/7/9 6/4/9 65/4/9
f 32/28/31 22/27/31 30/29/31
f 30/29/7 43/73/7 44/34/7
f 44/34/12 45/74/12 46/33/12
f 46/33/12 47/75/12 48/30/12
f 48/30/12 49/76/12 50/31/12
f 50/31/12 51/77/12 52/78/12
f 52/78/7 32/28/7 30/29/7
f 30/29/7 44/34/7 46/33/7
f 30/29/7 46/33/7 48/30/7
f 50/31/7 52/78/7 30/29/7
f 43/73/32 30/29/32 29/32/32
f 29/32/9 32/28/9 52/78/9
f 49/76/9 48/30/9 47/75/9
f 29/32/9 52/78/9 50/31/9
f 50/31/9 49/76/9 47/75/9
f 50/31/33 47/75/33 46/33/33
f 44/34/9 43/73/9 29/32/9
f 29/32/9 50/31/9 46/33/9
f 32/28/34 28/35/34 27/36/34
f 27/36/4 33/79/4 34/41/4
f 34/41/9 35/80/9 36/81/9
f 36/81/9 37/40/9 38/37/9
f 34/41/12 36/81/12 38/37/12
f 42/38/4 32/28/4 27/36/4
f 40/82/9 41/83/9 42/38/9
f 39/84/12 40/82/12 42/38/12
f 27/36/4 34/41/4 38/37/4
f 38/37/35 39/84/35 42/38/35
f 33/79/36 27/36/36 26/39/36
f 26/39/9 32/28/9 42/38/9
f 39/84/12 38/37/12 37/40/12
f 34/41/9 33/79/9 26/39/9
f 42/38/33 39/84/33 37/40/33
f 37/40/9 36/81/9 34/41/9
f 26/39/9 42/38/9 37/40/9
f 21/26/37 53/46/37 54/45/37
f 23/44/38 55/47/38 53/46/38
f 24/43/9 56/48/9 55/47/9
f 25/42/9 57/49/9 56/48/9
f 26/39/39 58/51/39 57/49/39
f 26/39/40 27/36/40 59/50/40
f 28/35/9 60/52/9 59/50/9
f 29/32/41 61/53/41 60/52/41
f 30/29/42 62/54/42 61/53/42
f 22/27/9 54/45/9 62/54/9
f 53/46/9 63/57/9 64/55/9
f 53/46/43 55/47/43 65/56/43
f 56/48/25 66/58/25 65/56/25
f 57/49/26 67/59/26 66/58/26
f 58/51/9 68/61/9 67/59/9
f 58/51/44 59/50/44 69/60/44
f 59/50/28 60/52/28 70/62/28
f 61/53/9 71/64/9 70/62/9
f 61/53/45 62/54/45 72/63/45
f 54/45/30 64/55/30 72/63/30
