{
	"asset":{
		"generator":"Khronos glTF Blender I/O v5.2.39",
		"version":"2.0"
	},
	"scene":0,
	"scenes":[
		{
			"name":"Scene",
			"nodes":[
				0
			]
		}
	],
	"nodes":[
		{
			"mesh":0,
			"name":"Cube.019"
		}
	],
	"materials":[
		{
			"doubleSided":true,
			"name":"\u30de\u30c6\u30ea\u30a2\u30eb.004",
			"pbrMetallicRoughness":{
				"baseColorFactor":[
					0.800054669380188,
					0.049301475286483765,
					0.5337560772895813,
					1
				],
				"metallicFactor":0,
				"roughnessFactor":0.5
			}
		}
	],
	"meshes":[
		{
			"name":"Cube.019",
			"primitives":[
				{
					"attributes":{
						"POSITION":0,
						"NORMAL":1,
						"TEXCOORD_0":2,
						"TEXCOORD_1":3
					},
					"indices":4,
					"material":0
				}
			]
		}
	],
	"accessors":[
		{
			"bufferView":0,
			"componentType":5126,
			"count":508,
			"max":[
				5.019413471221924,
				5.556901454925537,
				4.852190971374512
			],
			"min":[
				-5.310662746429443,
				-0.17527008056640625,
				-4.828500747680664
			],
			"type":"VEC3"
		},
		{
			"bufferView":1,
			"componentType":5126,
			"count":508,
			"type":"VEC3"
		},
		{
			"bufferView":2,
			"componentType":5126,
			"count":508,
			"type":"VEC2"
		},
		{
			"bufferView":3,
			"componentType":5126,
			"count":508,
			"type":"VEC2"
		},
		{
			"bufferView":4,
			"componentType":5123,
			"count":756,
			"type":"SCALAR"
		}
	],
	"bufferViews":[
		{
			"buffer":0,
			"byteLength":6096,
			"byteOffset":0,
			"target":34962
		},
		{
			"buffer":0,
			"byteLength":6096,
			"byteOffset":6096,
			"target":34962
		},
		{
			"buffer":0,
			"byteLength":4064,
			"byteOffset":12192,
			"target":34962
		},
		{
			"buffer":0,
			"byteLength":4064,
			"byteOffset":16256,
			"target":34962
		},
		{
			"buffer":0,
			"byteLength":1512,
			"byteOffset":20320,
			"target":34963
		}
	],
	"buffers":[
		{
			"byteLength":21832,
			"uri":"building_01.bin"
		}
	]
}
