{
	"asset":{
		"generator":"Khronos glTF Blender I/O v4.5.48",
		"version":"2.0"
	},
	"scene":0,
	"scenes":[
		{
			"name":"Scene",
			"nodes":[
				0
			]
		}
	],
	"nodes":[
		{
			"mesh":0,
			"name":"\u7acb\u65b9\u4f53"
		}
	],
	"materials":[
		{
			"doubleSided":true,
			"name":"Material.001",
			"pbrMetallicRoughness":{
				"baseColorFactor":[
					0.800000011920929,
					0.800000011920929,
					0.800000011920929,
					1
				],
				"metallicFactor":0,
				"roughnessFactor":0.5
			}
		}
	],
	"meshes":[
		{
			"name":"\u7acb\u65b9\u4f53",
			"primitives":[
				{
					"attributes":{
						"POSITION":0,
						"NORMAL":1,
						"TEXCOORD_0":2,
						"TEXCOORD_1":3
					},
					"indices":4
				},
				{
					"attributes":{
						"POSITION":5,
						"NORMAL":6,
						"TEXCOORD_0":7,
						"TEXCOORD_1":8
					},
					"indices":9,
					"material":0
				}
			]
		}
	],
	"accessors":[
		{
			"bufferView":0,
			"componentType":5126,
			"count":34490,
			"max":[
				3.784595251083374,
				8.610958099365234,
				1.230952262878418
			],
			"min":[
				-3.784595251083374,
				0.20174743235111237,
				-2.1116530895233154
			],
			"type":"VEC3"
		},
		{
			"bufferView":1,
			"componentType":5126,
			"count":34490,
			"type":"VEC3"
		},
		{
			"bufferView":2,
			"componentType":5126,
			"count":34490,
			"type":"VEC2"
		},
		{
			"bufferView":3,
			"componentType":5126,
			"count":34490,
			"type":"VEC2"
		},
		{
			"bufferView":4,
			"componentType":5123,
			"count":51024,
			"type":"SCALAR"
		},
		{
			"bufferView":5,
			"componentType":5126,
			"count":576,
			"max":[
				0.6911177039146423,
				9.119661331176758,
				0.9941507577896118
			],
			"min":[
				-0.6911177039146423,
				7.539088249206543,
				-0.8395058512687683
			],
			"type":"VEC3"
		},
		{
			"bufferView":6,
			"componentType":5126,
			"count":576,
			"type":"VEC3"
		},
		{
			"bufferView":7,
			"componentType":5126,
			"count":576,
			"type":"VEC2"
		},
		{
			"bufferView":8,
			"componentType":5126,
			"count":576,
			"type":"VEC2"
		},
		{
			"bufferView":9,
			"componentType":5123,
			"count":576,
			"type":"SCALAR"
		}
	],
	"bufferViews":[
		{
			"buffer":0,
			"byteLength":413880,
			"byteOffset":0,
			"target":34962
		},
		{
			"buffer":0,
			"byteLength":413880,
			"byteOffset":413880,
			"target":34962
		},
		{
			"buffer":0,
			"byteLength":275920,
			"byteOffset":827760,
			"target":34962
		},
		{
			"buffer":0,
			"byteLength":275920,
			"byteOffset":1103680,
			"target":34962
		},
		{
			"buffer":0,
			"byteLength":102048,
			"byteOffset":1379600,
			"target":34963
		},
		{
			"buffer":0,
			"byteLength":6912,
			"byteOffset":1481648,
			"target":34962
		},
		{
			"buffer":0,
			"byteLength":6912,
			"byteOffset":1488560,
			"target":34962
		},
		{
			"buffer":0,
			"byteLength":4608,
			"byteOffset":1495472,
			"target":34962
		},
		{
			"buffer":0,
			"byteLength":4608,
			"byteOffset":1500080,
			"target":34962
		},
		{
			"buffer":0,
			"byteLength":1152,
			"byteOffset":1504688,
			"target":34963
		}
	],
	"buffers":[
		{
			"byteLength":1505840,
			"uri":"animatedRyu2.bin"
		}
	]
}
