{
	"asset":{
		"generator":"Khronos glTF Blender I/O v4.5.48",
		"version":"2.0"
	},
	"scene":0,
	"scenes":[
		{
			"name":"Scene",
			"nodes":[
				24
			]
		}
	],
	"nodes":[
		{
			"name":"\u30dc\u30fc\u30f3.004",
			"rotation":[
				-6.961790898537407e-15,
				-1.4210854715202004e-14,
				6.791423439905284e-24,
				1
			],
			"translation":[
				1.3746456772878446e-07,
				1.0340728759765625,
				-1.420254136519361e-09
			]
		},
		{
			"children":[
				0
			],
			"name":"\u30dc\u30fc\u30f3.003",
			"rotation":[
				2.6572834725492417e-17,
				1.4210854715202004e-14,
				1.3191824306310617e-23,
				1
			],
			"translation":[
				7.785991584796648e-08,
				0.7612645626068115,
				-7.012744163148454e-09
			]
		},
		{
			"name":"\u30dc\u30fc\u30f3.008",
			"rotation":[
				3.552713678800501e-14,
				-1.4210854715202004e-14,
				0,
				1
			],
			"translation":[
				-2.48689548953962e-08,
				0.7009357213973999,
				-1.4571568840437976e-08
			]
		},
		{
			"children":[
				2
			],
			"name":"\u30dc\u30fc\u30f3.007",
			"rotation":[
				1.7532357787786168e-09,
				1.4210854715202004e-14,
				0,
				1
			],
			"translation":[
				-8.447357657814791e-08,
				0.7082365155220032,
				-9.00618601917813e-09
			]
		},
		{
			"children":[
				3
			],
			"name":"\u30dc\u30fc\u30f3.006",
			"rotation":[
				1.9892208769078934e-08,
				1.4210853868169056e-14,
				-2.541098841762901e-21,
				1
			],
			"translation":[
				3.473585508118049e-08,
				0.8031551241874695,
				2.6438067379785934e-07
			]
		},
		{
			"children":[
				4
			],
			"name":"\u30dc\u30fc\u30f3.005",
			"rotation":[
				-0.7071066498756409,
				-8.642490612054132e-10,
				-1.6945162428783078e-07,
				0.70710688829422
			],
			"translation":[
				7.785991584796648e-08,
				0.7612645626068115,
				-7.012744163148454e-09
			]
		},
		{
			"name":"\u30dc\u30fc\u30f3.016",
			"rotation":[
				1.205227425835325e-14,
				1.4142485603831426e-16,
				-3.3147116507755564e-14,
				1
			],
			"translation":[
				-1.5473287362510746e-07,
				0.7009354829788208,
				-1.1178451586602023e-07
			]
		},
		{
			"children":[
				6
			],
			"name":"\u30dc\u30fc\u30f3.015",
			"rotation":[
				-5.394670474223595e-11,
				-7.155925767850409e-15,
				-1.7532901797068234e-09,
				1
			],
			"translation":[
				-1.4955834615193453e-07,
				0.7082367539405823,
				-6.712380695717002e-08
			]
		},
		{
			"children":[
				7
			],
			"name":"\u30dc\u30fc\u30f3.014",
			"rotation":[
				6.017066012109495e-11,
				2.9549514835025548e-08,
				-1.9892205216365255e-08,
				1
			],
			"translation":[
				-1.660524162616639e-07,
				0.8031550645828247,
				1.862926524154318e-08
			]
		},
		{
			"children":[
				8
			],
			"name":"\u30dc\u30fc\u30f3.013",
			"rotation":[
				0.5,
				0.5,
				0.4999999403953552,
				0.5000001192092896
			],
			"translation":[
				0.001038023503497243,
				0.7612645626068115,
				0.04005216434597969
			]
		},
		{
			"children":[
				1,
				5,
				9
			],
			"name":"\u30dc\u30fc\u30f3.002",
			"rotation":[
				3.699707776467012e-15,
				1.033172480902067e-07,
				4.499862532288471e-22,
				1
			],
			"translation":[
				1.218035095007508e-07,
				0.8335329294204712,
				4.9045123517998945e-09
			]
		},
		{
			"children":[
				10
			],
			"name":"\u30dc\u30fc\u30f3.001",
			"rotation":[
				-3.6395943796889597e-23,
				-1.7763568394002505e-15,
				2.131117319358164e-15,
				1
			],
			"translation":[
				6.219886472536018e-08,
				0.9999998807907104,
				-1.2743726074404549e-09
			]
		},
		{
			"name":"\u30dc\u30fc\u30f3.012",
			"rotation":[
				-0.005743479356169701,
				4.150552967985277e-08,
				-0.6959858536720276,
				0.7180325984954834
			],
			"scale":[
				1,
				0.9999999403953552,
				1
			],
			"translation":[
				7.438939064741135e-08,
				1.8616842031478882,
				-2.2351741790771484e-08
			]
		},
		{
			"children":[
				12
			],
			"name":"\u30dc\u30fc\u30f3.011",
			"rotation":[
				1.3189929148893498e-08,
				3.7139784581086133e-09,
				-1.367959967524257e-09,
				1
			],
			"scale":[
				1,
				1.0000001192092896,
				1
			],
			"translation":[
				-9.66247171163559e-09,
				1.2773406505584717,
				4.842877388000488e-08
			]
		},
		{
			"children":[
				13
			],
			"name":"\u30dc\u30fc\u30f3.010",
			"rotation":[
				-0.5538848042488098,
				-9.149638380279157e-09,
				0.0003128568932879716,
				0.8325932621955872
			],
			"translation":[
				-1.6132206326346932e-07,
				0.6172142624855042,
				-1.2479722499847412e-07
			]
		},
		{
			"children":[
				14
			],
			"name":"\u30dc\u30fc\u30f3.009",
			"rotation":[
				-0.8332982063293457,
				0.02515464648604393,
				0.03804657235741615,
				0.5509390234947205
			],
			"translation":[
				-1.166150696008117e-07,
				-4.470348358154297e-08,
				-5.7005991038749926e-09
			]
		},
		{
			"name":"\u30dc\u30fc\u30f3.020",
			"rotation":[
				-0.0694378912448883,
				0.05380944907665253,
				-0.6925370693206787,
				0.716013491153717
			],
			"translation":[
				-3.0442606657743454e-07,
				1.8616845607757568,
				-3.91155481338501e-08
			]
		},
		{
			"children":[
				16
			],
			"name":"\u30dc\u30fc\u30f3.019",
			"rotation":[
				-2.128253484556808e-08,
				-1.1189456472493475e-08,
				3.788510838376169e-09,
				1
			],
			"scale":[
				1,
				1.0000001192092896,
				1.0000001192092896
			],
			"translation":[
				-3.168242983520031e-07,
				1.2773404121398926,
				3.3527612686157227e-08
			]
		},
		{
			"children":[
				17
			],
			"name":"\u30dc\u30fc\u30f3.018",
			"rotation":[
				0.5256715416908264,
				0.11446627974510193,
				-0.17452193796634674,
				0.8246872425079346
			],
			"scale":[
				1.0000001192092896,
				1.0000001192092896,
				1
			],
			"translation":[
				-1.862645149230957e-07,
				0.6172143220901489,
				1.7881393432617188e-07
			]
		},
		{
			"children":[
				18
			],
			"name":"\u30dc\u30fc\u30f3.017",
			"rotation":[
				0.8201022744178772,
				-0.1498369425535202,
				-0.15253151953220367,
				0.530768632888794
			],
			"scale":[
				0.9999999403953552,
				0.9999999403953552,
				0.9999999403953552
			],
			"translation":[
				0.0010383141925558448,
				1.4901160305669237e-08,
				0.040052201598882675
			]
		},
		{
			"children":[
				11,
				15,
				19
			],
			"name":"\u30dc\u30fc\u30f3",
			"rotation":[
				-8.557136332854043e-09,
				1.7114272665708086e-08,
				-2.928983286277023e-16,
				1
			],
			"translation":[
				1.1920928955078125e-07,
				0,
				0
			]
		},
		{
			"name":"neutral_bone",
			"rotation":[
				-0.7071067690849304,
				0,
				0,
				0.7071067690849304
			],
			"translation":[
				5.960464477539063e-08,
				0,
				0
			]
		},
		{
			"mesh":0,
			"name":"\u7acb\u65b9\u4f53.001",
			"skin":0
		},
		{
			"mesh":1,
			"name":"\u7acb\u65b9\u4f53.002",
			"skin":0
		},
		{
			"children":[
				22,
				23,
				20,
				21
			],
			"name":"armatyua",
			"scale":[
				1,
				0.6859437227249146,
				1
			],
			"translation":[
				-0.7967408299446106,
				-0.16496291756629944,
				-0.07579103857278824
			]
		}
	],
	"animations":[
		{
			"channels":[
				{
					"sampler":0,
					"target":{
						"node":20,
						"path":"translation"
					}
				},
				{
					"sampler":1,
					"target":{
						"node":20,
						"path":"rotation"
					}
				},
				{
					"sampler":2,
					"target":{
						"node":20,
						"path":"scale"
					}
				},
				{
					"sampler":3,
					"target":{
						"node":11,
						"path":"translation"
					}
				},
				{
					"sampler":4,
					"target":{
						"node":11,
						"path":"rotation"
					}
				},
				{
					"sampler":5,
					"target":{
						"node":11,
						"path":"scale"
					}
				},
				{
					"sampler":6,
					"target":{
						"node":10,
						"path":"translation"
					}
				},
				{
					"sampler":7,
					"target":{
						"node":10,
						"path":"rotation"
					}
				},
				{
					"sampler":8,
					"target":{
						"node":10,
						"path":"scale"
					}
				},
				{
					"sampler":9,
					"target":{
						"node":1,
						"path":"translation"
					}
				},
				{
					"sampler":10,
					"target":{
						"node":1,
						"path":"rotation"
					}
				},
				{
					"sampler":11,
					"target":{
						"node":1,
						"path":"scale"
					}
				},
				{
					"sampler":12,
					"target":{
						"node":0,
						"path":"translation"
					}
				},
				{
					"sampler":13,
					"target":{
						"node":0,
						"path":"rotation"
					}
				},
				{
					"sampler":14,
					"target":{
						"node":0,
						"path":"scale"
					}
				},
				{
					"sampler":15,
					"target":{
						"node":5,
						"path":"translation"
					}
				},
				{
					"sampler":16,
					"target":{
						"node":5,
						"path":"rotation"
					}
				},
				{
					"sampler":17,
					"target":{
						"node":5,
						"path":"scale"
					}
				},
				{
					"sampler":18,
					"target":{
						"node":4,
						"path":"translation"
					}
				},
				{
					"sampler":19,
					"target":{
						"node":4,
						"path":"rotation"
					}
				},
				{
					"sampler":20,
					"target":{
						"node":4,
						"path":"scale"
					}
				},
				{
					"sampler":21,
					"target":{
						"node":3,
						"path":"translation"
					}
				},
				{
					"sampler":22,
					"target":{
						"node":3,
						"path":"rotation"
					}
				},
				{
					"sampler":23,
					"target":{
						"node":3,
						"path":"scale"
					}
				},
				{
					"sampler":24,
					"target":{
						"node":2,
						"path":"translation"
					}
				},
				{
					"sampler":25,
					"target":{
						"node":2,
						"path":"rotation"
					}
				},
				{
					"sampler":26,
					"target":{
						"node":2,
						"path":"scale"
					}
				},
				{
					"sampler":27,
					"target":{
						"node":9,
						"path":"translation"
					}
				},
				{
					"sampler":28,
					"target":{
						"node":9,
						"path":"rotation"
					}
				},
				{
					"sampler":29,
					"target":{
						"node":9,
						"path":"scale"
					}
				},
				{
					"sampler":30,
					"target":{
						"node":8,
						"path":"translation"
					}
				},
				{
					"sampler":31,
					"target":{
						"node":8,
						"path":"rotation"
					}
				},
				{
					"sampler":32,
					"target":{
						"node":8,
						"path":"scale"
					}
				},
				{
					"sampler":33,
					"target":{
						"node":7,
						"path":"translation"
					}
				},
				{
					"sampler":34,
					"target":{
						"node":7,
						"path":"rotation"
					}
				},
				{
					"sampler":35,
					"target":{
						"node":7,
						"path":"scale"
					}
				},
				{
					"sampler":36,
					"target":{
						"node":6,
						"path":"translation"
					}
				},
				{
					"sampler":37,
					"target":{
						"node":6,
						"path":"rotation"
					}
				},
				{
					"sampler":38,
					"target":{
						"node":6,
						"path":"scale"
					}
				},
				{
					"sampler":39,
					"target":{
						"node":15,
						"path":"translation"
					}
				},
				{
					"sampler":40,
					"target":{
						"node":15,
						"path":"rotation"
					}
				},
				{
					"sampler":41,
					"target":{
						"node":15,
						"path":"scale"
					}
				},
				{
					"sampler":42,
					"target":{
						"node":14,
						"path":"translation"
					}
				},
				{
					"sampler":43,
					"target":{
						"node":14,
						"path":"rotation"
					}
				},
				{
					"sampler":44,
					"target":{
						"node":14,
						"path":"scale"
					}
				},
				{
					"sampler":45,
					"target":{
						"node":13,
						"path":"translation"
					}
				},
				{
					"sampler":46,
					"target":{
						"node":13,
						"path":"rotation"
					}
				},
				{
					"sampler":47,
					"target":{
						"node":13,
						"path":"scale"
					}
				},
				{
					"sampler":48,
					"target":{
						"node":12,
						"path":"translation"
					}
				},
				{
					"sampler":49,
					"target":{
						"node":12,
						"path":"rotation"
					}
				},
				{
					"sampler":50,
					"target":{
						"node":12,
						"path":"scale"
					}
				},
				{
					"sampler":51,
					"target":{
						"node":19,
						"path":"translation"
					}
				},
				{
					"sampler":52,
					"target":{
						"node":19,
						"path":"rotation"
					}
				},
				{
					"sampler":53,
					"target":{
						"node":19,
						"path":"scale"
					}
				},
				{
					"sampler":54,
					"target":{
						"node":18,
						"path":"translation"
					}
				},
				{
					"sampler":55,
					"target":{
						"node":18,
						"path":"rotation"
					}
				},
				{
					"sampler":56,
					"target":{
						"node":18,
						"path":"scale"
					}
				},
				{
					"sampler":57,
					"target":{
						"node":17,
						"path":"translation"
					}
				},
				{
					"sampler":58,
					"target":{
						"node":17,
						"path":"rotation"
					}
				},
				{
					"sampler":59,
					"target":{
						"node":17,
						"path":"scale"
					}
				},
				{
					"sampler":60,
					"target":{
						"node":16,
						"path":"translation"
					}
				},
				{
					"sampler":61,
					"target":{
						"node":16,
						"path":"rotation"
					}
				},
				{
					"sampler":62,
					"target":{
						"node":16,
						"path":"scale"
					}
				},
				{
					"sampler":63,
					"target":{
						"node":21,
						"path":"translation"
					}
				},
				{
					"sampler":64,
					"target":{
						"node":21,
						"path":"rotation"
					}
				},
				{
					"sampler":65,
					"target":{
						"node":21,
						"path":"scale"
					}
				}
			],
			"name":"armatyua",
			"samplers":[
				{
					"input":12,
					"interpolation":"STEP",
					"output":13
				},
				{
					"input":12,
					"interpolation":"STEP",
					"output":14
				},
				{
					"input":12,
					"interpolation":"STEP",
					"output":15
				},
				{
					"input":12,
					"interpolation":"STEP",
					"output":16
				},
				{
					"input":12,
					"interpolation":"STEP",
					"output":17
				},
				{
					"input":12,
					"interpolation":"STEP",
					"output":15
				},
				{
					"input":12,
					"interpolation":"STEP",
					"output":18
				},
				{
					"input":12,
					"interpolation":"STEP",
					"output":19
				},
				{
					"input":12,
					"interpolation":"STEP",
					"output":20
				},
				{
					"input":12,
					"interpolation":"STEP",
					"output":21
				},
				{
					"input":12,
					"interpolation":"STEP",
					"output":22
				},
				{
					"input":12,
					"interpolation":"STEP",
					"output":15
				},
				{
					"input":12,
					"interpolation":"STEP",
					"output":23
				},
				{
					"input":12,
					"interpolation":"STEP",
					"output":24
				},
				{
					"input":12,
					"interpolation":"STEP",
					"output":15
				},
				{
					"input":12,
					"interpolation":"STEP",
					"output":25
				},
				{
					"input":12,
					"interpolation":"STEP",
					"output":26
				},
				{
					"input":12,
					"interpolation":"STEP",
					"output":15
				},
				{
					"input":12,
					"interpolation":"STEP",
					"output":27
				},
				{
					"input":12,
					"interpolation":"STEP",
					"output":28
				},
				{
					"input":12,
					"interpolation":"STEP",
					"output":29
				},
				{
					"input":12,
					"interpolation":"STEP",
					"output":30
				},
				{
					"input":12,
					"interpolation":"STEP",
					"output":31
				},
				{
					"input":12,
					"interpolation":"STEP",
					"output":29
				},
				{
					"input":12,
					"interpolation":"STEP",
					"output":32
				},
				{
					"input":12,
					"interpolation":"STEP",
					"output":33
				},
				{
					"input":12,
					"interpolation":"STEP",
					"output":34
				},
				{
					"input":12,
					"interpolation":"STEP",
					"output":35
				},
				{
					"input":12,
					"interpolation":"STEP",
					"output":36
				},
				{
					"input":12,
					"interpolation":"STEP",
					"output":37
				},
				{
					"input":12,
					"interpolation":"STEP",
					"output":38
				},
				{
					"input":12,
					"interpolation":"STEP",
					"output":39
				},
				{
					"input":12,
					"interpolation":"STEP",
					"output":40
				},
				{
					"input":12,
					"interpolation":"STEP",
					"output":41
				},
				{
					"input":12,
					"interpolation":"STEP",
					"output":42
				},
				{
					"input":12,
					"interpolation":"STEP",
					"output":43
				},
				{
					"input":12,
					"interpolation":"STEP",
					"output":44
				},
				{
					"input":12,
					"interpolation":"STEP",
					"output":45
				},
				{
					"input":12,
					"interpolation":"STEP",
					"output":46
				},
				{
					"input":12,
					"interpolation":"STEP",
					"output":47
				},
				{
					"input":12,
					"interpolation":"STEP",
					"output":48
				},
				{
					"input":12,
					"interpolation":"STEP",
					"output":49
				},
				{
					"input":12,
					"interpolation":"STEP",
					"output":50
				},
				{
					"input":12,
					"interpolation":"STEP",
					"output":51
				},
				{
					"input":12,
					"interpolation":"STEP",
					"output":15
				},
				{
					"input":12,
					"interpolation":"STEP",
					"output":52
				},
				{
					"input":12,
					"interpolation":"STEP",
					"output":53
				},
				{
					"input":12,
					"interpolation":"STEP",
					"output":54
				},
				{
					"input":12,
					"interpolation":"STEP",
					"output":55
				},
				{
					"input":12,
					"interpolation":"STEP",
					"output":56
				},
				{
					"input":12,
					"interpolation":"STEP",
					"output":57
				},
				{
					"input":12,
					"interpolation":"STEP",
					"output":58
				},
				{
					"input":12,
					"interpolation":"STEP",
					"output":59
				},
				{
					"input":12,
					"interpolation":"STEP",
					"output":60
				},
				{
					"input":12,
					"interpolation":"STEP",
					"output":61
				},
				{
					"input":62,
					"interpolation":"LINEAR",
					"output":63
				},
				{
					"input":12,
					"interpolation":"LINEAR",
					"output":64
				},
				{
					"input":12,
					"interpolation":"LINEAR",
					"output":65
				},
				{
					"input":62,
					"interpolation":"LINEAR",
					"output":66
				},
				{
					"input":12,
					"interpolation":"LINEAR",
					"output":67
				},
				{
					"input":12,
					"interpolation":"LINEAR",
					"output":68
				},
				{
					"input":62,
					"interpolation":"LINEAR",
					"output":69
				},
				{
					"input":12,
					"interpolation":"LINEAR",
					"output":70
				},
				{
					"input":12,
					"interpolation":"STEP",
					"output":71
				},
				{
					"input":12,
					"interpolation":"STEP",
					"output":72
				},
				{
					"input":12,
					"interpolation":"STEP",
					"output":15
				}
			]
		}
	],
	"meshes":[
		{
			"name":"\u7acb\u65b9\u4f53.003",
			"primitives":[
				{
					"attributes":{
						"POSITION":0,
						"NORMAL":1,
						"TEXCOORD_0":2,
						"JOINTS_0":3,
						"WEIGHTS_0":4
					},
					"indices":5
				}
			]
		},
		{
			"name":"\u7acb\u65b9\u4f53.001",
			"primitives":[
				{
					"attributes":{
						"POSITION":7,
						"NORMAL":8,
						"TEXCOORD_0":9,
						"JOINTS_0":10,
						"WEIGHTS_0":11
					},
					"indices":5
				}
			]
		}
	],
	"skins":[
		{
			"inverseBindMatrices":6,
			"joints":[
				20,
				11,
				10,
				1,
				0,
				5,
				4,
				3,
				2,
				9,
				8,
				7,
				6,
				15,
				14,
				13,
				12,
				19,
				18,
				17,
				16,
				21
			],
			"name":"armatyua"
		}
	],
	"accessors":[
		{
			"bufferView":0,
			"componentType":5126,
			"count":699,
			"max":[
				0.5329092144966125,
				4.619457721710205,
				2.6582725048065186
			],
			"min":[
				-1.6303882598876953,
				-2.651078701019287,
				-3.0244734287261963
			],
			"type":"VEC3"
		},
		{
			"bufferView":1,
			"componentType":5126,
			"count":699,
			"type":"VEC3"
		},
		{
			"bufferView":2,
			"componentType":5126,
			"count":699,
			"type":"VEC2"
		},
		{
			"bufferView":3,
			"componentType":5121,
			"count":699,
			"type":"VEC4"
		},
		{
			"bufferView":4,
			"componentType":5126,
			"count":699,
			"type":"VEC4"
		},
		{
			"bufferView":5,
			"componentType":5123,
			"count":2730,
			"type":"SCALAR"
		},
		{
			"bufferView":6,
			"componentType":5126,
			"count":22,
			"type":"MAT4"
		},
		{
			"bufferView":7,
			"componentType":5126,
			"count":699,
			"max":[
				0.5329092144966125,
				4.619457721710205,
				2.6582725048065186
			],
			"min":[
				-1.6303882598876953,
				-2.651078701019287,
				-3.0244734287261963
			],
			"type":"VEC3"
		},
		{
			"bufferView":8,
			"componentType":5126,
			"count":699,
			"type":"VEC3"
		},
		{
			"bufferView":9,
			"componentType":5126,
			"count":699,
			"type":"VEC2"
		},
		{
			"bufferView":10,
			"componentType":5121,
			"count":699,
			"type":"VEC4"
		},
		{
			"bufferView":11,
			"componentType":5126,
			"count":699,
			"type":"VEC4"
		},
		{
			"bufferView":12,
			"componentType":5126,
			"count":2,
			"max":[
				3.3333333333333335
			],
			"min":[
				0.041666666666666664
			],
			"type":"SCALAR"
		},
		{
			"bufferView":13,
			"componentType":5126,
			"count":2,
			"type":"VEC3"
		},
		{
			"bufferView":14,
			"componentType":5126,
			"count":2,
			"type":"VEC4"
		},
		{
			"bufferView":15,
			"componentType":5126,
			"count":2,
			"type":"VEC3"
		},
		{
			"bufferView":16,
			"componentType":5126,
			"count":2,
			"type":"VEC3"
		},
		{
			"bufferView":17,
			"componentType":5126,
			"count":2,
			"type":"VEC4"
		},
		{
			"bufferView":18,
			"componentType":5126,
			"count":2,
			"type":"VEC3"
		},
		{
			"bufferView":19,
			"componentType":5126,
			"count":2,
			"type":"VEC4"
		},
		{
			"bufferView":20,
			"componentType":5126,
			"count":2,
			"type":"VEC3"
		},
		{
			"bufferView":21,
			"componentType":5126,
			"count":2,
			"type":"VEC3"
		},
		{
			"bufferView":22,
			"componentType":5126,
			"count":2,
			"type":"VEC4"
		},
		{
			"bufferView":23,
			"componentType":5126,
			"count":2,
			"type":"VEC3"
		},
		{
			"bufferView":24,
			"componentType":5126,
			"count":2,
			"type":"VEC4"
		},
		{
			"bufferView":25,
			"componentType":5126,
			"count":2,
			"type":"VEC3"
		},
		{
			"bufferView":26,
			"componentType":5126,
			"count":2,
			"type":"VEC4"
		},
		{
			"bufferView":27,
			"componentType":5126,
			"count":2,
			"type":"VEC3"
		},
		{
			"bufferView":28,
			"componentType":5126,
			"count":2,
			"type":"VEC4"
		},
		{
			"bufferView":29,
			"componentType":5126,
			"count":2,
			"type":"VEC3"
		},
		{
			"bufferView":30,
			"componentType":5126,
			"count":2,
			"type":"VEC3"
		},
		{
			"bufferView":31,
			"componentType":5126,
			"count":2,
			"type":"VEC4"
		},
		{
			"bufferView":32,
			"componentType":5126,
			"count":2,
			"type":"VEC3"
		},
		{
			"bufferView":33,
			"componentType":5126,
			"count":2,
			"type":"VEC4"
		},
		{
			"bufferView":34,
			"componentType":5126,
			"count":2,
			"type":"VEC3"
		},
		{
			"bufferView":35,
			"componentType":5126,
			"count":2,
			"type":"VEC3"
		},
		{
			"bufferView":36,
			"componentType":5126,
			"count":2,
			"type":"VEC4"
		},
		{
			"bufferView":37,
			"componentType":5126,
			"count":2,
			"type":"VEC3"
		},
		{
			"bufferView":38,
			"componentType":5126,
			"count":2,
			"type":"VEC3"
		},
		{
			"bufferView":39,
			"componentType":5126,
			"count":2,
			"type":"VEC4"
		},
		{
			"bufferView":40,
			"componentType":5126,
			"count":2,
			"type":"VEC3"
		},
		{
			"bufferView":41,
			"componentType":5126,
			"count":2,
			"type":"VEC3"
		},
		{
			"bufferView":42,
			"componentType":5126,
			"count":2,
			"type":"VEC4"
		},
		{
			"bufferView":43,
			"componentType":5126,
			"count":2,
			"type":"VEC3"
		},
		{
			"bufferView":44,
			"componentType":5126,
			"count":2,
			"type":"VEC3"
		},
		{
			"bufferView":45,
			"componentType":5126,
			"count":2,
			"type":"VEC4"
		},
		{
			"bufferView":46,
			"componentType":5126,
			"count":2,
			"type":"VEC3"
		},
		{
			"bufferView":47,
			"componentType":5126,
			"count":2,
			"type":"VEC3"
		},
		{
			"bufferView":48,
			"componentType":5126,
			"count":2,
			"type":"VEC4"
		},
		{
			"bufferView":49,
			"componentType":5126,
			"count":2,
			"type":"VEC3"
		},
		{
			"bufferView":50,
			"componentType":5126,
			"count":2,
			"type":"VEC3"
		},
		{
			"bufferView":51,
			"componentType":5126,
			"count":2,
			"type":"VEC4"
		},
		{
			"bufferView":52,
			"componentType":5126,
			"count":2,
			"type":"VEC3"
		},
		{
			"bufferView":53,
			"componentType":5126,
			"count":2,
			"type":"VEC4"
		},
		{
			"bufferView":54,
			"componentType":5126,
			"count":2,
			"type":"VEC3"
		},
		{
			"bufferView":55,
			"componentType":5126,
			"count":2,
			"type":"VEC3"
		},
		{
			"bufferView":56,
			"componentType":5126,
			"count":2,
			"type":"VEC4"
		},
		{
			"bufferView":57,
			"componentType":5126,
			"count":2,
			"type":"VEC3"
		},
		{
			"bufferView":58,
			"componentType":5126,
			"count":2,
			"type":"VEC3"
		},
		{
			"bufferView":59,
			"componentType":5126,
			"count":2,
			"type":"VEC4"
		},
		{
			"bufferView":60,
			"componentType":5126,
			"count":2,
			"type":"VEC3"
		},
		{
			"bufferView":61,
			"componentType":5126,
			"count":2,
			"type":"VEC3"
		},
		{
			"bufferView":62,
			"componentType":5126,
			"count":80,
			"max":[
				3.3333333333333335
			],
			"min":[
				0.041666666666666664
			],
			"type":"SCALAR"
		},
		{
			"bufferView":63,
			"componentType":5126,
			"count":80,
			"type":"VEC4"
		},
		{
			"bufferView":64,
			"componentType":5126,
			"count":2,
			"type":"VEC3"
		},
		{
			"bufferView":65,
			"componentType":5126,
			"count":2,
			"type":"VEC3"
		},
		{
			"bufferView":66,
			"componentType":5126,
			"count":80,
			"type":"VEC4"
		},
		{
			"bufferView":67,
			"componentType":5126,
			"count":2,
			"type":"VEC3"
		},
		{
			"bufferView":68,
			"componentType":5126,
			"count":2,
			"type":"VEC3"
		},
		{
			"bufferView":69,
			"componentType":5126,
			"count":80,
			"type":"VEC4"
		},
		{
			"bufferView":70,
			"componentType":5126,
			"count":2,
			"type":"VEC3"
		},
		{
			"bufferView":71,
			"componentType":5126,
			"count":2,
			"type":"VEC3"
		},
		{
			"bufferView":72,
			"componentType":5126,
			"count":2,
			"type":"VEC4"
		}
	],
	"bufferViews":[
		{
			"buffer":0,
			"byteLength":8388,
			"byteOffset":0,
			"target":34962
		},
		{
			"buffer":0,
			"byteLength":8388,
			"byteOffset":8388,
			"target":34962
		},
		{
			"buffer":0,
			"byteLength":5592,
			"byteOffset":16776,
			"target":34962
		},
		{
			"buffer":0,
			"byteLength":2796,
			"byteOffset":22368,
			"target":34962
		},
		{
			"buffer":0,
			"byteLength":11184,
			"byteOffset":25164,
			"target":34962
		},
		{
			"buffer":0,
			"byteLength":5460,
			"byteOffset":36348,
			"target":34963
		},
		{
			"buffer":0,
			"byteLength":1408,
			"byteOffset":41808
		},
		{
			"buffer":0,
			"byteLength":8388,
			"byteOffset":43216,
			"target":34962
		},
		{
			"buffer":0,
			"byteLength":8388,
			"byteOffset":51604,
			"target":34962
		},
		{
			"buffer":0,
			"byteLength":5592,
			"byteOffset":59992,
			"target":34962
		},
		{
			"buffer":0,
			"byteLength":2796,
			"byteOffset":65584,
			"target":34962
		},
		{
			"buffer":0,
			"byteLength":11184,
			"byteOffset":68380,
			"target":34962
		},
		{
			"buffer":0,
			"byteLength":8,
			"byteOffset":79564
		},
		{
			"buffer":0,
			"byteLength":24,
			"byteOffset":79572
		},
		{
			"buffer":0,
			"byteLength":32,
			"byteOffset":79596
		},
		{
			"buffer":0,
			"byteLength":24,
			"byteOffset":79628
		},
		{
			"buffer":0,
			"byteLength":24,
			"byteOffset":79652
		},
		{
			"buffer":0,
			"byteLength":32,
			"byteOffset":79676
		},
		{
			"buffer":0,
			"byteLength":24,
			"byteOffset":79708
		},
		{
			"buffer":0,
			"byteLength":32,
			"byteOffset":79732
		},
		{
			"buffer":0,
			"byteLength":24,
			"byteOffset":79764
		},
		{
			"buffer":0,
			"byteLength":24,
			"byteOffset":79788
		},
		{
			"buffer":0,
			"byteLength":32,
			"byteOffset":79812
		},
		{
			"buffer":0,
			"byteLength":24,
			"byteOffset":79844
		},
		{
			"buffer":0,
			"byteLength":32,
			"byteOffset":79868
		},
		{
			"buffer":0,
			"byteLength":24,
			"byteOffset":79900
		},
		{
			"buffer":0,
			"byteLength":32,
			"byteOffset":79924
		},
		{
			"buffer":0,
			"byteLength":24,
			"byteOffset":79956
		},
		{
			"buffer":0,
			"byteLength":32,
			"byteOffset":79980
		},
		{
			"buffer":0,
			"byteLength":24,
			"byteOffset":80012
		},
		{
			"buffer":0,
			"byteLength":24,
			"byteOffset":80036
		},
		{
			"buffer":0,
			"byteLength":32,
			"byteOffset":80060
		},
		{
			"buffer":0,
			"byteLength":24,
			"byteOffset":80092
		},
		{
			"buffer":0,
			"byteLength":32,
			"byteOffset":80116
		},
		{
			"buffer":0,
			"byteLength":24,
			"byteOffset":80148
		},
		{
			"buffer":0,
			"byteLength":24,
			"byteOffset":80172
		},
		{
			"buffer":0,
			"byteLength":32,
			"byteOffset":80196
		},
		{
			"buffer":0,
			"byteLength":24,
			"byteOffset":80228
		},
		{
			"buffer":0,
			"byteLength":24,
			"byteOffset":80252
		},
		{
			"buffer":0,
			"byteLength":32,
			"byteOffset":80276
		},
		{
			"buffer":0,
			"byteLength":24,
			"byteOffset":80308
		},
		{
			"buffer":0,
			"byteLength":24,
			"byteOffset":80332
		},
		{
			"buffer":0,
			"byteLength":32,
			"byteOffset":80356
		},
		{
			"buffer":0,
			"byteLength":24,
			"byteOffset":80388
		},
		{
			"buffer":0,
			"byteLength":24,
			"byteOffset":80412
		},
		{
			"buffer":0,
			"byteLength":32,
			"byteOffset":80436
		},
		{
			"buffer":0,
			"byteLength":24,
			"byteOffset":80468
		},
		{
			"buffer":0,
			"byteLength":24,
			"byteOffset":80492
		},
		{
			"buffer":0,
			"byteLength":32,
			"byteOffset":80516
		},
		{
			"buffer":0,
			"byteLength":24,
			"byteOffset":80548
		},
		{
			"buffer":0,
			"byteLength":24,
			"byteOffset":80572
		},
		{
			"buffer":0,
			"byteLength":32,
			"byteOffset":80596
		},
		{
			"buffer":0,
			"byteLength":24,
			"byteOffset":80628
		},
		{
			"buffer":0,
			"byteLength":32,
			"byteOffset":80652
		},
		{
			"buffer":0,
			"byteLength":24,
			"byteOffset":80684
		},
		{
			"buffer":0,
			"byteLength":24,
			"byteOffset":80708
		},
		{
			"buffer":0,
			"byteLength":32,
			"byteOffset":80732
		},
		{
			"buffer":0,
			"byteLength":24,
			"byteOffset":80764
		},
		{
			"buffer":0,
			"byteLength":24,
			"byteOffset":80788
		},
		{
			"buffer":0,
			"byteLength":32,
			"byteOffset":80812
		},
		{
			"buffer":0,
			"byteLength":24,
			"byteOffset":80844
		},
		{
			"buffer":0,
			"byteLength":24,
			"byteOffset":80868
		},
		{
			"buffer":0,
			"byteLength":320,
			"byteOffset":80892
		},
		{
			"buffer":0,
			"byteLength":1280,
			"byteOffset":81212
		},
		{
			"buffer":0,
			"byteLength":24,
			"byteOffset":82492
		},
		{
			"buffer":0,
			"byteLength":24,
			"byteOffset":82516
		},
		{
			"buffer":0,
			"byteLength":1280,
			"byteOffset":82540
		},
		{
			"buffer":0,
			"byteLength":24,
			"byteOffset":83820
		},
		{
			"buffer":0,
			"byteLength":24,
			"byteOffset":83844
		},
		{
			"buffer":0,
			"byteLength":1280,
			"byteOffset":83868
		},
		{
			"buffer":0,
			"byteLength":24,
			"byteOffset":85148
		},
		{
			"buffer":0,
			"byteLength":24,
			"byteOffset":85172
		},
		{
			"buffer":0,
			"byteLength":32,
			"byteOffset":85196
		}
	],
	"buffers":[
		{
			"byteLength":85228,
			"uri":"ninngennAnimation.bin"
		}
	]
}
