{
	"asset":{
		"generator":"Khronos glTF Blender I/O v4.4.56",
		"version":"2.0"
	},
	"scene":0,
	"scenes":[
		{
			"name":"Scene",
			"nodes":[
				8
			]
		}
	],
	"nodes":[
		{
			"name":"\u30dc\u30fc\u30f3.005",
			"rotation":[
				-0.0011400970397517085,
				-3.5720473801070796e-10,
				5.634064564219443e-06,
				0.9999993443489075
			],
			"scale":[
				1,
				1.0000001192092896,
				0.9999999403953552
			],
			"translation":[
				5.820766091346741e-10,
				0.34454232454299927,
				1.204170985147357e-08
			]
		},
		{
			"children":[
				0
			],
			"name":"\u30dc\u30fc\u30f3.004",
			"rotation":[
				0.001783437211997807,
				2.212340449725403e-10,
				-8.813097338133957e-06,
				0.9999984502792358
			],
			"scale":[
				1,
				1,
				0.9999999403953552
			],
			"translation":[
				-5.820766091346741e-11,
				0.32083866000175476,
				-1.029911800287664e-08
			]
		},
		{
			"children":[
				1
			],
			"name":"\u30dc\u30fc\u30f3.003",
			"rotation":[
				-0.018383271992206573,
				-4.663085473310957e-10,
				9.084530029213056e-05,
				0.9998310208320618
			],
			"scale":[
				0.9999999403953552,
				1.0000001192092896,
				1
			],
			"translation":[
				1.4551915228366852e-10,
				0.3156968057155609,
				-8.454662747681141e-09
			]
		},
		{
			"children":[
				2
			],
			"name":"\u30dc\u30fc\u30f3.002",
			"rotation":[
				0.006083753425627947,
				1.143142247528317e-10,
				-3.0064547900110483e-05,
				0.9999815225601196
			],
			"scale":[
				1,
				1.0000001192092896,
				1
			],
			"translation":[
				-3.2014213502407074e-10,
				0.3490176796913147,
				8.312781574204564e-09
			]
		},
		{
			"children":[
				3
			],
			"name":"\u30dc\u30fc\u30f3.001",
			"rotation":[
				-0.009666246362030506,
				-2.7713475958535128e-08,
				-0.019619986414909363,
				0.9997608065605164
			],
			"scale":[
				0.9999999403953552,
				1.0000001192092896,
				1
			],
			"translation":[
				5.704350769519806e-09,
				0.48173728585243225,
				5.766196409240365e-09
			]
		},
		{
			"children":[
				4
			],
			"name":"\u30dc\u30fc\u30f3",
			"rotation":[
				-0.07777456194162369,
				-0.0007443705108016729,
				0.01978452131152153,
				0.9967743754386902
			],
			"translation":[
				0.009472306817770004,
				0.5803007483482361,
				-0.24582058191299438
			]
		},
		{
			"name":"\u30dc\u30fc\u30f3.006",
			"rotation":[
				1.9347793056567753e-07,
				0.11219090968370438,
				0.9936866760253906,
				2.1844369868517788e-08
			],
			"scale":[
				1,
				0.9999999403953552,
				1
			],
			"translation":[
				0.009472306817770004,
				0.5803007483482361,
				-0.24582058191299438
			]
		},
		{
			"mesh":0,
			"name":" Body01.001",
			"skin":0
		},
		{
			"children":[
				7,
				5,
				6
			],
			"name":"\u30a2\u30fc\u30de\u30c1\u30e5\u30a2",
			"rotation":[
				-0.6529796719551086,
				0,
				0,
				0.7573754787445068
			]
		}
	],
	"animations":[
		{
			"channels":[
				{
					"sampler":0,
					"target":{
						"node":5,
						"path":"translation"
					}
				},
				{
					"sampler":1,
					"target":{
						"node":5,
						"path":"rotation"
					}
				},
				{
					"sampler":2,
					"target":{
						"node":5,
						"path":"scale"
					}
				},
				{
					"sampler":3,
					"target":{
						"node":4,
						"path":"translation"
					}
				},
				{
					"sampler":4,
					"target":{
						"node":4,
						"path":"rotation"
					}
				},
				{
					"sampler":5,
					"target":{
						"node":4,
						"path":"scale"
					}
				},
				{
					"sampler":6,
					"target":{
						"node":3,
						"path":"translation"
					}
				},
				{
					"sampler":7,
					"target":{
						"node":3,
						"path":"rotation"
					}
				},
				{
					"sampler":8,
					"target":{
						"node":3,
						"path":"scale"
					}
				},
				{
					"sampler":9,
					"target":{
						"node":2,
						"path":"translation"
					}
				},
				{
					"sampler":10,
					"target":{
						"node":2,
						"path":"rotation"
					}
				},
				{
					"sampler":11,
					"target":{
						"node":2,
						"path":"scale"
					}
				},
				{
					"sampler":12,
					"target":{
						"node":1,
						"path":"translation"
					}
				},
				{
					"sampler":13,
					"target":{
						"node":1,
						"path":"rotation"
					}
				},
				{
					"sampler":14,
					"target":{
						"node":1,
						"path":"scale"
					}
				},
				{
					"sampler":15,
					"target":{
						"node":0,
						"path":"translation"
					}
				},
				{
					"sampler":16,
					"target":{
						"node":0,
						"path":"rotation"
					}
				},
				{
					"sampler":17,
					"target":{
						"node":0,
						"path":"scale"
					}
				},
				{
					"sampler":18,
					"target":{
						"node":6,
						"path":"translation"
					}
				},
				{
					"sampler":19,
					"target":{
						"node":6,
						"path":"rotation"
					}
				},
				{
					"sampler":20,
					"target":{
						"node":6,
						"path":"scale"
					}
				}
			],
			"name":"\u30a2\u30fc\u30de\u30c1\u30e5\u30a2.001\u30a2\u30af\u30b7\u30e7\u30f3",
			"samplers":[
				{
					"input":15,
					"interpolation":"STEP",
					"output":16
				},
				{
					"input":15,
					"interpolation":"STEP",
					"output":17
				},
				{
					"input":15,
					"interpolation":"STEP",
					"output":18
				},
				{
					"input":15,
					"interpolation":"STEP",
					"output":19
				},
				{
					"input":20,
					"interpolation":"LINEAR",
					"output":21
				},
				{
					"input":15,
					"interpolation":"STEP",
					"output":22
				},
				{
					"input":15,
					"interpolation":"LINEAR",
					"output":23
				},
				{
					"input":20,
					"interpolation":"LINEAR",
					"output":24
				},
				{
					"input":15,
					"interpolation":"STEP",
					"output":25
				},
				{
					"input":15,
					"interpolation":"LINEAR",
					"output":26
				},
				{
					"input":20,
					"interpolation":"LINEAR",
					"output":27
				},
				{
					"input":15,
					"interpolation":"STEP",
					"output":28
				},
				{
					"input":15,
					"interpolation":"LINEAR",
					"output":29
				},
				{
					"input":20,
					"interpolation":"LINEAR",
					"output":30
				},
				{
					"input":15,
					"interpolation":"STEP",
					"output":31
				},
				{
					"input":15,
					"interpolation":"LINEAR",
					"output":32
				},
				{
					"input":20,
					"interpolation":"LINEAR",
					"output":33
				},
				{
					"input":15,
					"interpolation":"STEP",
					"output":34
				},
				{
					"input":15,
					"interpolation":"LINEAR",
					"output":35
				},
				{
					"input":20,
					"interpolation":"LINEAR",
					"output":36
				},
				{
					"input":15,
					"interpolation":"STEP",
					"output":37
				}
			]
		},
		{
			"channels":[
				{
					"sampler":0,
					"target":{
						"node":5,
						"path":"translation"
					}
				},
				{
					"sampler":1,
					"target":{
						"node":5,
						"path":"rotation"
					}
				},
				{
					"sampler":2,
					"target":{
						"node":5,
						"path":"scale"
					}
				},
				{
					"sampler":3,
					"target":{
						"node":4,
						"path":"translation"
					}
				},
				{
					"sampler":4,
					"target":{
						"node":4,
						"path":"rotation"
					}
				},
				{
					"sampler":5,
					"target":{
						"node":4,
						"path":"scale"
					}
				},
				{
					"sampler":6,
					"target":{
						"node":3,
						"path":"translation"
					}
				},
				{
					"sampler":7,
					"target":{
						"node":3,
						"path":"rotation"
					}
				},
				{
					"sampler":8,
					"target":{
						"node":3,
						"path":"scale"
					}
				},
				{
					"sampler":9,
					"target":{
						"node":2,
						"path":"translation"
					}
				},
				{
					"sampler":10,
					"target":{
						"node":2,
						"path":"rotation"
					}
				},
				{
					"sampler":11,
					"target":{
						"node":2,
						"path":"scale"
					}
				},
				{
					"sampler":12,
					"target":{
						"node":1,
						"path":"translation"
					}
				},
				{
					"sampler":13,
					"target":{
						"node":1,
						"path":"rotation"
					}
				},
				{
					"sampler":14,
					"target":{
						"node":1,
						"path":"scale"
					}
				},
				{
					"sampler":15,
					"target":{
						"node":0,
						"path":"translation"
					}
				},
				{
					"sampler":16,
					"target":{
						"node":0,
						"path":"rotation"
					}
				},
				{
					"sampler":17,
					"target":{
						"node":0,
						"path":"scale"
					}
				},
				{
					"sampler":18,
					"target":{
						"node":6,
						"path":"translation"
					}
				},
				{
					"sampler":19,
					"target":{
						"node":6,
						"path":"rotation"
					}
				},
				{
					"sampler":20,
					"target":{
						"node":6,
						"path":"scale"
					}
				}
			],
			"name":"\u30a2\u30fc\u30de\u30c1\u30e5\u30a2\u30a2\u30af\u30b7\u30e7\u30f3",
			"samplers":[
				{
					"input":15,
					"interpolation":"STEP",
					"output":38
				},
				{
					"input":20,
					"interpolation":"LINEAR",
					"output":39
				},
				{
					"input":15,
					"interpolation":"STEP",
					"output":40
				},
				{
					"input":15,
					"interpolation":"LINEAR",
					"output":41
				},
				{
					"input":20,
					"interpolation":"LINEAR",
					"output":42
				},
				{
					"input":15,
					"interpolation":"STEP",
					"output":43
				},
				{
					"input":15,
					"interpolation":"LINEAR",
					"output":44
				},
				{
					"input":20,
					"interpolation":"LINEAR",
					"output":45
				},
				{
					"input":15,
					"interpolation":"STEP",
					"output":46
				},
				{
					"input":15,
					"interpolation":"LINEAR",
					"output":47
				},
				{
					"input":20,
					"interpolation":"LINEAR",
					"output":48
				},
				{
					"input":15,
					"interpolation":"LINEAR",
					"output":49
				},
				{
					"input":15,
					"interpolation":"LINEAR",
					"output":50
				},
				{
					"input":20,
					"interpolation":"LINEAR",
					"output":51
				},
				{
					"input":15,
					"interpolation":"STEP",
					"output":52
				},
				{
					"input":15,
					"interpolation":"LINEAR",
					"output":53
				},
				{
					"input":20,
					"interpolation":"LINEAR",
					"output":54
				},
				{
					"input":15,
					"interpolation":"LINEAR",
					"output":55
				},
				{
					"input":15,
					"interpolation":"STEP",
					"output":56
				},
				{
					"input":20,
					"interpolation":"LINEAR",
					"output":57
				},
				{
					"input":15,
					"interpolation":"STEP",
					"output":58
				}
			]
		},
		{
			"channels":[
				{
					"sampler":0,
					"target":{
						"node":5,
						"path":"translation"
					}
				},
				{
					"sampler":1,
					"target":{
						"node":5,
						"path":"rotation"
					}
				},
				{
					"sampler":2,
					"target":{
						"node":5,
						"path":"scale"
					}
				},
				{
					"sampler":3,
					"target":{
						"node":4,
						"path":"translation"
					}
				},
				{
					"sampler":4,
					"target":{
						"node":4,
						"path":"rotation"
					}
				},
				{
					"sampler":5,
					"target":{
						"node":4,
						"path":"scale"
					}
				},
				{
					"sampler":6,
					"target":{
						"node":3,
						"path":"translation"
					}
				},
				{
					"sampler":7,
					"target":{
						"node":3,
						"path":"rotation"
					}
				},
				{
					"sampler":8,
					"target":{
						"node":3,
						"path":"scale"
					}
				},
				{
					"sampler":9,
					"target":{
						"node":2,
						"path":"translation"
					}
				},
				{
					"sampler":10,
					"target":{
						"node":2,
						"path":"rotation"
					}
				},
				{
					"sampler":11,
					"target":{
						"node":2,
						"path":"scale"
					}
				},
				{
					"sampler":12,
					"target":{
						"node":1,
						"path":"translation"
					}
				},
				{
					"sampler":13,
					"target":{
						"node":1,
						"path":"rotation"
					}
				},
				{
					"sampler":14,
					"target":{
						"node":1,
						"path":"scale"
					}
				},
				{
					"sampler":15,
					"target":{
						"node":0,
						"path":"translation"
					}
				},
				{
					"sampler":16,
					"target":{
						"node":0,
						"path":"rotation"
					}
				},
				{
					"sampler":17,
					"target":{
						"node":0,
						"path":"scale"
					}
				},
				{
					"sampler":18,
					"target":{
						"node":6,
						"path":"translation"
					}
				},
				{
					"sampler":19,
					"target":{
						"node":6,
						"path":"rotation"
					}
				},
				{
					"sampler":20,
					"target":{
						"node":6,
						"path":"scale"
					}
				}
			],
			"name":"\u30a2\u30fc\u30de\u30c1\u30e5\u30a2\u30a2\u30af\u30b7\u30e7\u30f3.001",
			"samplers":[
				{
					"input":15,
					"interpolation":"STEP",
					"output":59
				},
				{
					"input":15,
					"interpolation":"STEP",
					"output":60
				},
				{
					"input":15,
					"interpolation":"STEP",
					"output":61
				},
				{
					"input":15,
					"interpolation":"STEP",
					"output":62
				},
				{
					"input":20,
					"interpolation":"LINEAR",
					"output":63
				},
				{
					"input":15,
					"interpolation":"STEP",
					"output":64
				},
				{
					"input":15,
					"interpolation":"LINEAR",
					"output":65
				},
				{
					"input":20,
					"interpolation":"LINEAR",
					"output":66
				},
				{
					"input":15,
					"interpolation":"LINEAR",
					"output":67
				},
				{
					"input":15,
					"interpolation":"LINEAR",
					"output":68
				},
				{
					"input":20,
					"interpolation":"LINEAR",
					"output":69
				},
				{
					"input":15,
					"interpolation":"STEP",
					"output":70
				},
				{
					"input":15,
					"interpolation":"LINEAR",
					"output":71
				},
				{
					"input":20,
					"interpolation":"LINEAR",
					"output":72
				},
				{
					"input":15,
					"interpolation":"STEP",
					"output":73
				},
				{
					"input":15,
					"interpolation":"LINEAR",
					"output":74
				},
				{
					"input":20,
					"interpolation":"LINEAR",
					"output":75
				},
				{
					"input":15,
					"interpolation":"LINEAR",
					"output":76
				},
				{
					"input":15,
					"interpolation":"STEP",
					"output":77
				},
				{
					"input":20,
					"interpolation":"LINEAR",
					"output":78
				},
				{
					"input":15,
					"interpolation":"STEP",
					"output":79
				}
			]
		},
		{
			"channels":[
				{
					"sampler":0,
					"target":{
						"node":5,
						"path":"translation"
					}
				},
				{
					"sampler":1,
					"target":{
						"node":5,
						"path":"rotation"
					}
				},
				{
					"sampler":2,
					"target":{
						"node":5,
						"path":"scale"
					}
				},
				{
					"sampler":3,
					"target":{
						"node":4,
						"path":"translation"
					}
				},
				{
					"sampler":4,
					"target":{
						"node":4,
						"path":"rotation"
					}
				},
				{
					"sampler":5,
					"target":{
						"node":4,
						"path":"scale"
					}
				},
				{
					"sampler":6,
					"target":{
						"node":3,
						"path":"translation"
					}
				},
				{
					"sampler":7,
					"target":{
						"node":3,
						"path":"rotation"
					}
				},
				{
					"sampler":8,
					"target":{
						"node":3,
						"path":"scale"
					}
				},
				{
					"sampler":9,
					"target":{
						"node":2,
						"path":"translation"
					}
				},
				{
					"sampler":10,
					"target":{
						"node":2,
						"path":"rotation"
					}
				},
				{
					"sampler":11,
					"target":{
						"node":2,
						"path":"scale"
					}
				},
				{
					"sampler":12,
					"target":{
						"node":1,
						"path":"translation"
					}
				},
				{
					"sampler":13,
					"target":{
						"node":1,
						"path":"rotation"
					}
				},
				{
					"sampler":14,
					"target":{
						"node":1,
						"path":"scale"
					}
				},
				{
					"sampler":15,
					"target":{
						"node":0,
						"path":"translation"
					}
				},
				{
					"sampler":16,
					"target":{
						"node":0,
						"path":"rotation"
					}
				},
				{
					"sampler":17,
					"target":{
						"node":0,
						"path":"scale"
					}
				},
				{
					"sampler":18,
					"target":{
						"node":6,
						"path":"translation"
					}
				},
				{
					"sampler":19,
					"target":{
						"node":6,
						"path":"rotation"
					}
				},
				{
					"sampler":20,
					"target":{
						"node":6,
						"path":"scale"
					}
				}
			],
			"name":"\u30a2\u30fc\u30de\u30c1\u30e5\u30a2\u30a2\u30af\u30b7\u30e7\u30f3.002",
			"samplers":[
				{
					"input":15,
					"interpolation":"STEP",
					"output":80
				},
				{
					"input":20,
					"interpolation":"LINEAR",
					"output":81
				},
				{
					"input":15,
					"interpolation":"STEP",
					"output":82
				},
				{
					"input":15,
					"interpolation":"LINEAR",
					"output":83
				},
				{
					"input":20,
					"interpolation":"LINEAR",
					"output":84
				},
				{
					"input":15,
					"interpolation":"STEP",
					"output":85
				},
				{
					"input":15,
					"interpolation":"LINEAR",
					"output":86
				},
				{
					"input":20,
					"interpolation":"LINEAR",
					"output":87
				},
				{
					"input":15,
					"interpolation":"STEP",
					"output":88
				},
				{
					"input":15,
					"interpolation":"LINEAR",
					"output":89
				},
				{
					"input":20,
					"interpolation":"LINEAR",
					"output":90
				},
				{
					"input":15,
					"interpolation":"STEP",
					"output":91
				},
				{
					"input":15,
					"interpolation":"LINEAR",
					"output":92
				},
				{
					"input":20,
					"interpolation":"LINEAR",
					"output":93
				},
				{
					"input":15,
					"interpolation":"STEP",
					"output":94
				},
				{
					"input":15,
					"interpolation":"LINEAR",
					"output":95
				},
				{
					"input":20,
					"interpolation":"LINEAR",
					"output":96
				},
				{
					"input":15,
					"interpolation":"STEP",
					"output":97
				},
				{
					"input":15,
					"interpolation":"STEP",
					"output":98
				},
				{
					"input":20,
					"interpolation":"LINEAR",
					"output":99
				},
				{
					"input":15,
					"interpolation":"LINEAR",
					"output":100
				}
			]
		}
	],
	"materials":[
		{
			"doubleSided":true,
			"name":"Material",
			"pbrMetallicRoughness":{
				"baseColorFactor":[
					0.800000011920929,
					0.800000011920929,
					0.800000011920929,
					1
				],
				"metallicFactor":0,
				"roughnessFactor":0.5
			}
		}
	],
	"meshes":[
		{
			"name":"\u7acb\u65b9\u4f53.013",
			"primitives":[
				{
					"attributes":{
						"POSITION":0,
						"NORMAL":1,
						"TEXCOORD_0":2,
						"TEXCOORD_1":3,
						"JOINTS_0":4,
						"WEIGHTS_0":5
					},
					"indices":6
				},
				{
					"attributes":{
						"POSITION":7,
						"NORMAL":8,
						"TEXCOORD_0":9,
						"TEXCOORD_1":10,
						"JOINTS_0":11,
						"WEIGHTS_0":12
					},
					"indices":13,
					"material":0
				}
			]
		}
	],
	"skins":[
		{
			"inverseBindMatrices":14,
			"joints":[
				5,
				4,
				3,
				2,
				1,
				0,
				6
			],
			"name":"\u30a2\u30fc\u30de\u30c1\u30e5\u30a2"
		}
	],
	"accessors":[
		{
			"bufferView":0,
			"componentType":5126,
			"count":1484,
			"max":[
				0.3499999940395355,
				0.3380075693130493,
				0.9189361929893494
			],
			"min":[
				-0.3499999940395355,
				-0.3727536201477051,
				-3.7058939933776855
			],
			"type":"VEC3"
		},
		{
			"bufferView":1,
			"componentType":5126,
			"count":1484,
			"type":"VEC3"
		},
		{
			"bufferView":2,
			"componentType":5126,
			"count":1484,
			"type":"VEC2"
		},
		{
			"bufferView":3,
			"componentType":5126,
			"count":1484,
			"type":"VEC2"
		},
		{
			"bufferView":4,
			"componentType":5121,
			"count":1484,
			"type":"VEC4"
		},
		{
			"bufferView":5,
			"componentType":5126,
			"count":1484,
			"type":"VEC4"
		},
		{
			"bufferView":6,
			"componentType":5123,
			"count":6420,
			"type":"SCALAR"
		},
		{
			"bufferView":7,
			"componentType":5126,
			"count":56,
			"max":[
				0.40000006556510925,
				0.36062538623809814,
				0.7208997011184692
			],
			"min":[
				-0.3999999761581421,
				-0.35088902711868286,
				-1.0568782091140747
			],
			"type":"VEC3"
		},
		{
			"bufferView":8,
			"componentType":5126,
			"count":56,
			"type":"VEC3"
		},
		{
			"bufferView":9,
			"componentType":5126,
			"count":56,
			"type":"VEC2"
		},
		{
			"bufferView":10,
			"componentType":5126,
			"count":56,
			"type":"VEC2"
		},
		{
			"bufferView":11,
			"componentType":5121,
			"count":56,
			"type":"VEC4"
		},
		{
			"bufferView":12,
			"componentType":5126,
			"count":56,
			"type":"VEC4"
		},
		{
			"bufferView":13,
			"componentType":5123,
			"count":84,
			"type":"SCALAR"
		},
		{
			"bufferView":14,
			"componentType":5126,
			"count":7,
			"type":"MAT4"
		},
		{
			"bufferView":15,
			"componentType":5126,
			"count":2,
			"max":[
				1.25
			],
			"min":[
				0.041666666666666664
			],
			"type":"SCALAR"
		},
		{
			"bufferView":16,
			"componentType":5126,
			"count":2,
			"type":"VEC3"
		},
		{
			"bufferView":17,
			"componentType":5126,
			"count":2,
			"type":"VEC4"
		},
		{
			"bufferView":18,
			"componentType":5126,
			"count":2,
			"type":"VEC3"
		},
		{
			"bufferView":19,
			"componentType":5126,
			"count":2,
			"type":"VEC3"
		},
		{
			"bufferView":20,
			"componentType":5126,
			"count":30,
			"max":[
				1.25
			],
			"min":[
				0.041666666666666664
			],
			"type":"SCALAR"
		},
		{
			"bufferView":21,
			"componentType":5126,
			"count":30,
			"type":"VEC4"
		},
		{
			"bufferView":22,
			"componentType":5126,
			"count":2,
			"type":"VEC3"
		},
		{
			"bufferView":23,
			"componentType":5126,
			"count":2,
			"type":"VEC3"
		},
		{
			"bufferView":24,
			"componentType":5126,
			"count":30,
			"type":"VEC4"
		},
		{
			"bufferView":25,
			"componentType":5126,
			"count":2,
			"type":"VEC3"
		},
		{
			"bufferView":26,
			"componentType":5126,
			"count":2,
			"type":"VEC3"
		},
		{
			"bufferView":27,
			"componentType":5126,
			"count":30,
			"type":"VEC4"
		},
		{
			"bufferView":28,
			"componentType":5126,
			"count":2,
			"type":"VEC3"
		},
		{
			"bufferView":29,
			"componentType":5126,
			"count":2,
			"type":"VEC3"
		},
		{
			"bufferView":30,
			"componentType":5126,
			"count":30,
			"type":"VEC4"
		},
		{
			"bufferView":31,
			"componentType":5126,
			"count":2,
			"type":"VEC3"
		},
		{
			"bufferView":32,
			"componentType":5126,
			"count":2,
			"type":"VEC3"
		},
		{
			"bufferView":33,
			"componentType":5126,
			"count":30,
			"type":"VEC4"
		},
		{
			"bufferView":34,
			"componentType":5126,
			"count":2,
			"type":"VEC3"
		},
		{
			"bufferView":35,
			"componentType":5126,
			"count":2,
			"type":"VEC3"
		},
		{
			"bufferView":36,
			"componentType":5126,
			"count":30,
			"type":"VEC4"
		},
		{
			"bufferView":37,
			"componentType":5126,
			"count":2,
			"type":"VEC3"
		},
		{
			"bufferView":38,
			"componentType":5126,
			"count":2,
			"type":"VEC3"
		},
		{
			"bufferView":39,
			"componentType":5126,
			"count":30,
			"type":"VEC4"
		},
		{
			"bufferView":40,
			"componentType":5126,
			"count":2,
			"type":"VEC3"
		},
		{
			"bufferView":41,
			"componentType":5126,
			"count":2,
			"type":"VEC3"
		},
		{
			"bufferView":42,
			"componentType":5126,
			"count":30,
			"type":"VEC4"
		},
		{
			"bufferView":43,
			"componentType":5126,
			"count":2,
			"type":"VEC3"
		},
		{
			"bufferView":44,
			"componentType":5126,
			"count":2,
			"type":"VEC3"
		},
		{
			"bufferView":45,
			"componentType":5126,
			"count":30,
			"type":"VEC4"
		},
		{
			"bufferView":46,
			"componentType":5126,
			"count":2,
			"type":"VEC3"
		},
		{
			"bufferView":47,
			"componentType":5126,
			"count":2,
			"type":"VEC3"
		},
		{
			"bufferView":48,
			"componentType":5126,
			"count":30,
			"type":"VEC4"
		},
		{
			"bufferView":49,
			"componentType":5126,
			"count":2,
			"type":"VEC3"
		},
		{
			"bufferView":50,
			"componentType":5126,
			"count":2,
			"type":"VEC3"
		},
		{
			"bufferView":51,
			"componentType":5126,
			"count":30,
			"type":"VEC4"
		},
		{
			"bufferView":52,
			"componentType":5126,
			"count":2,
			"type":"VEC3"
		},
		{
			"bufferView":53,
			"componentType":5126,
			"count":2,
			"type":"VEC3"
		},
		{
			"bufferView":54,
			"componentType":5126,
			"count":30,
			"type":"VEC4"
		},
		{
			"bufferView":55,
			"componentType":5126,
			"count":2,
			"type":"VEC3"
		},
		{
			"bufferView":56,
			"componentType":5126,
			"count":2,
			"type":"VEC3"
		},
		{
			"bufferView":57,
			"componentType":5126,
			"count":30,
			"type":"VEC4"
		},
		{
			"bufferView":58,
			"componentType":5126,
			"count":2,
			"type":"VEC3"
		},
		{
			"bufferView":59,
			"componentType":5126,
			"count":2,
			"type":"VEC3"
		},
		{
			"bufferView":60,
			"componentType":5126,
			"count":2,
			"type":"VEC4"
		},
		{
			"bufferView":61,
			"componentType":5126,
			"count":2,
			"type":"VEC3"
		},
		{
			"bufferView":62,
			"componentType":5126,
			"count":2,
			"type":"VEC3"
		},
		{
			"bufferView":63,
			"componentType":5126,
			"count":30,
			"type":"VEC4"
		},
		{
			"bufferView":64,
			"componentType":5126,
			"count":2,
			"type":"VEC3"
		},
		{
			"bufferView":65,
			"componentType":5126,
			"count":2,
			"type":"VEC3"
		},
		{
			"bufferView":66,
			"componentType":5126,
			"count":30,
			"type":"VEC4"
		},
		{
			"bufferView":67,
			"componentType":5126,
			"count":2,
			"type":"VEC3"
		},
		{
			"bufferView":68,
			"componentType":5126,
			"count":2,
			"type":"VEC3"
		},
		{
			"bufferView":69,
			"componentType":5126,
			"count":30,
			"type":"VEC4"
		},
		{
			"bufferView":70,
			"componentType":5126,
			"count":2,
			"type":"VEC3"
		},
		{
			"bufferView":71,
			"componentType":5126,
			"count":2,
			"type":"VEC3"
		},
		{
			"bufferView":72,
			"componentType":5126,
			"count":30,
			"type":"VEC4"
		},
		{
			"bufferView":73,
			"componentType":5126,
			"count":2,
			"type":"VEC3"
		},
		{
			"bufferView":74,
			"componentType":5126,
			"count":2,
			"type":"VEC3"
		},
		{
			"bufferView":75,
			"componentType":5126,
			"count":30,
			"type":"VEC4"
		},
		{
			"bufferView":76,
			"componentType":5126,
			"count":2,
			"type":"VEC3"
		},
		{
			"bufferView":77,
			"componentType":5126,
			"count":2,
			"type":"VEC3"
		},
		{
			"bufferView":78,
			"componentType":5126,
			"count":30,
			"type":"VEC4"
		},
		{
			"bufferView":79,
			"componentType":5126,
			"count":2,
			"type":"VEC3"
		},
		{
			"bufferView":80,
			"componentType":5126,
			"count":2,
			"type":"VEC3"
		},
		{
			"bufferView":81,
			"componentType":5126,
			"count":30,
			"type":"VEC4"
		},
		{
			"bufferView":82,
			"componentType":5126,
			"count":2,
			"type":"VEC3"
		},
		{
			"bufferView":83,
			"componentType":5126,
			"count":2,
			"type":"VEC3"
		},
		{
			"bufferView":84,
			"componentType":5126,
			"count":30,
			"type":"VEC4"
		},
		{
			"bufferView":85,
			"componentType":5126,
			"count":2,
			"type":"VEC3"
		},
		{
			"bufferView":86,
			"componentType":5126,
			"count":2,
			"type":"VEC3"
		},
		{
			"bufferView":87,
			"componentType":5126,
			"count":30,
			"type":"VEC4"
		},
		{
			"bufferView":88,
			"componentType":5126,
			"count":2,
			"type":"VEC3"
		},
		{
			"bufferView":89,
			"componentType":5126,
			"count":2,
			"type":"VEC3"
		},
		{
			"bufferView":90,
			"componentType":5126,
			"count":30,
			"type":"VEC4"
		},
		{
			"bufferView":91,
			"componentType":5126,
			"count":2,
			"type":"VEC3"
		},
		{
			"bufferView":92,
			"componentType":5126,
			"count":2,
			"type":"VEC3"
		},
		{
			"bufferView":93,
			"componentType":5126,
			"count":30,
			"type":"VEC4"
		},
		{
			"bufferView":94,
			"componentType":5126,
			"count":2,
			"type":"VEC3"
		},
		{
			"bufferView":95,
			"componentType":5126,
			"count":2,
			"type":"VEC3"
		},
		{
			"bufferView":96,
			"componentType":5126,
			"count":30,
			"type":"VEC4"
		},
		{
			"bufferView":97,
			"componentType":5126,
			"count":2,
			"type":"VEC3"
		},
		{
			"bufferView":98,
			"componentType":5126,
			"count":2,
			"type":"VEC3"
		},
		{
			"bufferView":99,
			"componentType":5126,
			"count":30,
			"type":"VEC4"
		},
		{
			"bufferView":100,
			"componentType":5126,
			"count":2,
			"type":"VEC3"
		}
	],
	"bufferViews":[
		{
			"buffer":0,
			"byteLength":17808,
			"byteOffset":0,
			"target":34962
		},
		{
			"buffer":0,
			"byteLength":17808,
			"byteOffset":17808,
			"target":34962
		},
		{
			"buffer":0,
			"byteLength":11872,
			"byteOffset":35616,
			"target":34962
		},
		{
			"buffer":0,
			"byteLength":11872,
			"byteOffset":47488,
			"target":34962
		},
		{
			"buffer":0,
			"byteLength":5936,
			"byteOffset":59360,
			"target":34962
		},
		{
			"buffer":0,
			"byteLength":23744,
			"byteOffset":65296,
			"target":34962
		},
		{
			"buffer":0,
			"byteLength":12840,
			"byteOffset":89040,
			"target":34963
		},
		{
			"buffer":0,
			"byteLength":672,
			"byteOffset":101880,
			"target":34962
		},
		{
			"buffer":0,
			"byteLength":672,
			"byteOffset":102552,
			"target":34962
		},
		{
			"buffer":0,
			"byteLength":448,
			"byteOffset":103224,
			"target":34962
		},
		{
			"buffer":0,
			"byteLength":448,
			"byteOffset":103672,
			"target":34962
		},
		{
			"buffer":0,
			"byteLength":224,
			"byteOffset":104120,
			"target":34962
		},
		{
			"buffer":0,
			"byteLength":896,
			"byteOffset":104344,
			"target":34962
		},
		{
			"buffer":0,
			"byteLength":168,
			"byteOffset":105240,
			"target":34963
		},
		{
			"buffer":0,
			"byteLength":448,
			"byteOffset":105408
		},
		{
			"buffer":0,
			"byteLength":8,
			"byteOffset":105856
		},
		{
			"buffer":0,
			"byteLength":24,
			"byteOffset":105864
		},
		{
			"buffer":0,
			"byteLength":32,
			"byteOffset":105888
		},
		{
			"buffer":0,
			"byteLength":24,
			"byteOffset":105920
		},
		{
			"buffer":0,
			"byteLength":24,
			"byteOffset":105944
		},
		{
			"buffer":0,
			"byteLength":120,
			"byteOffset":105968
		},
		{
			"buffer":0,
			"byteLength":480,
			"byteOffset":106088
		},
		{
			"buffer":0,
			"byteLength":24,
			"byteOffset":106568
		},
		{
			"buffer":0,
			"byteLength":24,
			"byteOffset":106592
		},
		{
			"buffer":0,
			"byteLength":480,
			"byteOffset":106616
		},
		{
			"buffer":0,
			"byteLength":24,
			"byteOffset":107096
		},
		{
			"buffer":0,
			"byteLength":24,
			"byteOffset":107120
		},
		{
			"buffer":0,
			"byteLength":480,
			"byteOffset":107144
		},
		{
			"buffer":0,
			"byteLength":24,
			"byteOffset":107624
		},
		{
			"buffer":0,
			"byteLength":24,
			"byteOffset":107648
		},
		{
			"buffer":0,
			"byteLength":480,
			"byteOffset":107672
		},
		{
			"buffer":0,
			"byteLength":24,
			"byteOffset":108152
		},
		{
			"buffer":0,
			"byteLength":24,
			"byteOffset":108176
		},
		{
			"buffer":0,
			"byteLength":480,
			"byteOffset":108200
		},
		{
			"buffer":0,
			"byteLength":24,
			"byteOffset":108680
		},
		{
			"buffer":0,
			"byteLength":24,
			"byteOffset":108704
		},
		{
			"buffer":0,
			"byteLength":480,
			"byteOffset":108728
		},
		{
			"buffer":0,
			"byteLength":24,
			"byteOffset":109208
		},
		{
			"buffer":0,
			"byteLength":24,
			"byteOffset":109232
		},
		{
			"buffer":0,
			"byteLength":480,
			"byteOffset":109256
		},
		{
			"buffer":0,
			"byteLength":24,
			"byteOffset":109736
		},
		{
			"buffer":0,
			"byteLength":24,
			"byteOffset":109760
		},
		{
			"buffer":0,
			"byteLength":480,
			"byteOffset":109784
		},
		{
			"buffer":0,
			"byteLength":24,
			"byteOffset":110264
		},
		{
			"buffer":0,
			"byteLength":24,
			"byteOffset":110288
		},
		{
			"buffer":0,
			"byteLength":480,
			"byteOffset":110312
		},
		{
			"buffer":0,
			"byteLength":24,
			"byteOffset":110792
		},
		{
			"buffer":0,
			"byteLength":24,
			"byteOffset":110816
		},
		{
			"buffer":0,
			"byteLength":480,
			"byteOffset":110840
		},
		{
			"buffer":0,
			"byteLength":24,
			"byteOffset":111320
		},
		{
			"buffer":0,
			"byteLength":24,
			"byteOffset":111344
		},
		{
			"buffer":0,
			"byteLength":480,
			"byteOffset":111368
		},
		{
			"buffer":0,
			"byteLength":24,
			"byteOffset":111848
		},
		{
			"buffer":0,
			"byteLength":24,
			"byteOffset":111872
		},
		{
			"buffer":0,
			"byteLength":480,
			"byteOffset":111896
		},
		{
			"buffer":0,
			"byteLength":24,
			"byteOffset":112376
		},
		{
			"buffer":0,
			"byteLength":24,
			"byteOffset":112400
		},
		{
			"buffer":0,
			"byteLength":480,
			"byteOffset":112424
		},
		{
			"buffer":0,
			"byteLength":24,
			"byteOffset":112904
		},
		{
			"buffer":0,
			"byteLength":24,
			"byteOffset":112928
		},
		{
			"buffer":0,
			"byteLength":32,
			"byteOffset":112952
		},
		{
			"buffer":0,
			"byteLength":24,
			"byteOffset":112984
		},
		{
			"buffer":0,
			"byteLength":24,
			"byteOffset":113008
		},
		{
			"buffer":0,
			"byteLength":480,
			"byteOffset":113032
		},
		{
			"buffer":0,
			"byteLength":24,
			"byteOffset":113512
		},
		{
			"buffer":0,
			"byteLength":24,
			"byteOffset":113536
		},
		{
			"buffer":0,
			"byteLength":480,
			"byteOffset":113560
		},
		{
			"buffer":0,
			"byteLength":24,
			"byteOffset":114040
		},
		{
			"buffer":0,
			"byteLength":24,
			"byteOffset":114064
		},
		{
			"buffer":0,
			"byteLength":480,
			"byteOffset":114088
		},
		{
			"buffer":0,
			"byteLength":24,
			"byteOffset":114568
		},
		{
			"buffer":0,
			"byteLength":24,
			"byteOffset":114592
		},
		{
			"buffer":0,
			"byteLength":480,
			"byteOffset":114616
		},
		{
			"buffer":0,
			"byteLength":24,
			"byteOffset":115096
		},
		{
			"buffer":0,
			"byteLength":24,
			"byteOffset":115120
		},
		{
			"buffer":0,
			"byteLength":480,
			"byteOffset":115144
		},
		{
			"buffer":0,
			"byteLength":24,
			"byteOffset":115624
		},
		{
			"buffer":0,
			"byteLength":24,
			"byteOffset":115648
		},
		{
			"buffer":0,
			"byteLength":480,
			"byteOffset":115672
		},
		{
			"buffer":0,
			"byteLength":24,
			"byteOffset":116152
		},
		{
			"buffer":0,
			"byteLength":24,
			"byteOffset":116176
		},
		{
			"buffer":0,
			"byteLength":480,
			"byteOffset":116200
		},
		{
			"buffer":0,
			"byteLength":24,
			"byteOffset":116680
		},
		{
			"buffer":0,
			"byteLength":24,
			"byteOffset":116704
		},
		{
			"buffer":0,
			"byteLength":480,
			"byteOffset":116728
		},
		{
			"buffer":0,
			"byteLength":24,
			"byteOffset":117208
		},
		{
			"buffer":0,
			"byteLength":24,
			"byteOffset":117232
		},
		{
			"buffer":0,
			"byteLength":480,
			"byteOffset":117256
		},
		{
			"buffer":0,
			"byteLength":24,
			"byteOffset":117736
		},
		{
			"buffer":0,
			"byteLength":24,
			"byteOffset":117760
		},
		{
			"buffer":0,
			"byteLength":480,
			"byteOffset":117784
		},
		{
			"buffer":0,
			"byteLength":24,
			"byteOffset":118264
		},
		{
			"buffer":0,
			"byteLength":24,
			"byteOffset":118288
		},
		{
			"buffer":0,
			"byteLength":480,
			"byteOffset":118312
		},
		{
			"buffer":0,
			"byteLength":24,
			"byteOffset":118792
		},
		{
			"buffer":0,
			"byteLength":24,
			"byteOffset":118816
		},
		{
			"buffer":0,
			"byteLength":480,
			"byteOffset":118840
		},
		{
			"buffer":0,
			"byteLength":24,
			"byteOffset":119320
		},
		{
			"buffer":0,
			"byteLength":24,
			"byteOffset":119344
		},
		{
			"buffer":0,
			"byteLength":480,
			"byteOffset":119368
		},
		{
			"buffer":0,
			"byteLength":24,
			"byteOffset":119848
		}
	],
	"buffers":[
		{
			"byteLength":119872,
			"uri":"Shrimp_04.bin"
		}
	]
}
