{
	"asset":{
		"generator":"Khronos glTF Blender I/O v4.5.48",
		"version":"2.0"
	},
	"scene":0,
	"scenes":[
		{
			"name":"Scene",
			"nodes":[
				0,
				1,
				10
			]
		}
	],
	"nodes":[
		{
			"name":"\u30a2\u30fc\u30de\u30c1\u30e5\u30a2",
			"rotation":[
				0.7337608933448792,
				-0.0462724007666111,
				0.15905308723449707,
				0.6589052081108093
			],
			"translation":[
				0.08636316657066345,
				-0.030896838754415512,
				-0.5932702422142029
			]
		},
		{
			"name":"\u30a2\u30fc\u30de\u30c1\u30e5\u30a2.002",
			"rotation":[
				0.7337608933448792,
				-0.0462724007666111,
				0.15905308723449707,
				0.6589052081108093
			],
			"translation":[
				0.08636316657066345,
				-0.030896838754415512,
				-0.5932702422142029
			]
		},
		{
			"name":"\u30dc\u30fc\u30f3.006",
			"rotation":[
				0.02764524333178997,
				3.5040926323753885e-14,
				-1.0765448976712833e-08,
				0.9996178150177002
			],
			"translation":[
				2.639657562626338e-14,
				0.35344699025154114,
				3.725290298461914e-08
			]
		},
		{
			"children":[
				2
			],
			"name":"\u30dc\u30fc\u30f3.005",
			"rotation":[
				-0.006373343989253044,
				-6.605961674758295e-15,
				2.481874927795502e-09,
				0.9999796748161316
			],
			"scale":[
				1,
				0.9999999403953552,
				1
			],
			"translation":[
				1.1975453452234969e-15,
				0.32228538393974304,
				2.2351741790771484e-08
			]
		},
		{
			"children":[
				3
			],
			"name":"\u30dc\u30fc\u30f3.004",
			"rotation":[
				-0.0022903489880263805,
				6.505923864962362e-14,
				8.919228688952785e-10,
				0.9999973773956299
			],
			"scale":[
				1,
				0.9999999403953552,
				1
			],
			"translation":[
				1.8058976216555125e-14,
				0.2966914474964142,
				5.21540641784668e-08
			]
		},
		{
			"children":[
				4
			],
			"name":"\u30dc\u30fc\u30f3.003",
			"rotation":[
				-0.013816789723932743,
				-1.1919791376158173e-07,
				3.7333660607430375e-09,
				0.9999045729637146
			],
			"scale":[
				1,
				0.9999999403953552,
				0.9999999403953552
			],
			"translation":[
				5.197991322580201e-16,
				0.3344388008117676,
				-1.862645149230957e-08
			]
		},
		{
			"children":[
				5
			],
			"name":"\u30dc\u30fc\u30f3.002",
			"rotation":[
				0.00382067053578794,
				1.110231097907935e-16,
				-5.769092981111612e-10,
				0.9999927282333374
			],
			"translation":[
				2.845001557743535e-15,
				0.514200747013092,
				1.4901161193847656e-08
			]
		},
		{
			"children":[
				6
			],
			"name":"\u30dc\u30fc\u30f3.001",
			"rotation":[
				7.495788167943829e-08,
				0.11939235031604767,
				0.9928471446037292,
				9.013866986151697e-09
			],
			"scale":[
				1,
				0.9999997615814209,
				0.9999999403953552
			],
			"translation":[
				0,
				0.015593207441270351,
				0.09557060152292252
			]
		},
		{
			"name":"neutral_bone",
			"rotation":[
				-0.7071067690849304,
				0,
				0,
				0.7071067690849304
			]
		},
		{
			"mesh":0,
			"name":" Body01.007",
			"skin":0
		},
		{
			"children":[
				9,
				7,
				8
			],
			"name":"\u30a2\u30fc\u30de\u30c1\u30e5\u30a2.003",
			"rotation":[
				0.7619152665138245,
				0,
				0,
				0.6476767063140869
			],
			"translation":[
				0,
				0,
				-0.6094866991043091
			]
		}
	],
	"animations":[
		{
			"channels":[
				{
					"sampler":0,
					"target":{
						"node":7,
						"path":"translation"
					}
				},
				{
					"sampler":1,
					"target":{
						"node":7,
						"path":"rotation"
					}
				},
				{
					"sampler":2,
					"target":{
						"node":7,
						"path":"scale"
					}
				},
				{
					"sampler":3,
					"target":{
						"node":6,
						"path":"translation"
					}
				},
				{
					"sampler":4,
					"target":{
						"node":6,
						"path":"rotation"
					}
				},
				{
					"sampler":5,
					"target":{
						"node":6,
						"path":"scale"
					}
				},
				{
					"sampler":6,
					"target":{
						"node":5,
						"path":"translation"
					}
				},
				{
					"sampler":7,
					"target":{
						"node":5,
						"path":"rotation"
					}
				},
				{
					"sampler":8,
					"target":{
						"node":5,
						"path":"scale"
					}
				},
				{
					"sampler":9,
					"target":{
						"node":4,
						"path":"translation"
					}
				},
				{
					"sampler":10,
					"target":{
						"node":4,
						"path":"rotation"
					}
				},
				{
					"sampler":11,
					"target":{
						"node":4,
						"path":"scale"
					}
				},
				{
					"sampler":12,
					"target":{
						"node":3,
						"path":"translation"
					}
				},
				{
					"sampler":13,
					"target":{
						"node":3,
						"path":"rotation"
					}
				},
				{
					"sampler":14,
					"target":{
						"node":3,
						"path":"scale"
					}
				},
				{
					"sampler":15,
					"target":{
						"node":2,
						"path":"translation"
					}
				},
				{
					"sampler":16,
					"target":{
						"node":2,
						"path":"rotation"
					}
				},
				{
					"sampler":17,
					"target":{
						"node":2,
						"path":"scale"
					}
				}
			],
			"name":"Anim_0",
			"samplers":[
				{
					"input":17,
					"interpolation":"STEP",
					"output":18
				},
				{
					"input":17,
					"interpolation":"STEP",
					"output":19
				},
				{
					"input":17,
					"interpolation":"STEP",
					"output":20
				},
				{
					"input":17,
					"interpolation":"STEP",
					"output":21
				},
				{
					"input":17,
					"interpolation":"STEP",
					"output":22
				},
				{
					"input":17,
					"interpolation":"STEP",
					"output":23
				},
				{
					"input":17,
					"interpolation":"STEP",
					"output":24
				},
				{
					"input":17,
					"interpolation":"STEP",
					"output":25
				},
				{
					"input":17,
					"interpolation":"STEP",
					"output":26
				},
				{
					"input":17,
					"interpolation":"STEP",
					"output":27
				},
				{
					"input":17,
					"interpolation":"STEP",
					"output":28
				},
				{
					"input":17,
					"interpolation":"STEP",
					"output":29
				},
				{
					"input":17,
					"interpolation":"STEP",
					"output":30
				},
				{
					"input":17,
					"interpolation":"STEP",
					"output":31
				},
				{
					"input":17,
					"interpolation":"STEP",
					"output":23
				},
				{
					"input":17,
					"interpolation":"STEP",
					"output":32
				},
				{
					"input":17,
					"interpolation":"STEP",
					"output":33
				},
				{
					"input":17,
					"interpolation":"STEP",
					"output":34
				}
			]
		},
		{
			"channels":[
				{
					"sampler":0,
					"target":{
						"node":7,
						"path":"translation"
					}
				},
				{
					"sampler":1,
					"target":{
						"node":7,
						"path":"rotation"
					}
				},
				{
					"sampler":2,
					"target":{
						"node":7,
						"path":"scale"
					}
				},
				{
					"sampler":3,
					"target":{
						"node":6,
						"path":"translation"
					}
				},
				{
					"sampler":4,
					"target":{
						"node":6,
						"path":"rotation"
					}
				},
				{
					"sampler":5,
					"target":{
						"node":6,
						"path":"scale"
					}
				},
				{
					"sampler":6,
					"target":{
						"node":5,
						"path":"translation"
					}
				},
				{
					"sampler":7,
					"target":{
						"node":5,
						"path":"rotation"
					}
				},
				{
					"sampler":8,
					"target":{
						"node":5,
						"path":"scale"
					}
				},
				{
					"sampler":9,
					"target":{
						"node":4,
						"path":"translation"
					}
				},
				{
					"sampler":10,
					"target":{
						"node":4,
						"path":"rotation"
					}
				},
				{
					"sampler":11,
					"target":{
						"node":4,
						"path":"scale"
					}
				},
				{
					"sampler":12,
					"target":{
						"node":3,
						"path":"translation"
					}
				},
				{
					"sampler":13,
					"target":{
						"node":3,
						"path":"rotation"
					}
				},
				{
					"sampler":14,
					"target":{
						"node":3,
						"path":"scale"
					}
				},
				{
					"sampler":15,
					"target":{
						"node":2,
						"path":"translation"
					}
				},
				{
					"sampler":16,
					"target":{
						"node":2,
						"path":"rotation"
					}
				},
				{
					"sampler":17,
					"target":{
						"node":2,
						"path":"scale"
					}
				}
			],
			"name":"\u30a2\u30fc\u30de\u30c1\u30e5\u30a2.001\u30a2\u30af\u30b7\u30e7\u30f3",
			"samplers":[
				{
					"input":35,
					"interpolation":"LINEAR",
					"output":36
				},
				{
					"input":37,
					"interpolation":"LINEAR",
					"output":38
				},
				{
					"input":35,
					"interpolation":"STEP",
					"output":39
				},
				{
					"input":35,
					"interpolation":"LINEAR",
					"output":40
				},
				{
					"input":37,
					"interpolation":"LINEAR",
					"output":41
				},
				{
					"input":35,
					"interpolation":"STEP",
					"output":42
				},
				{
					"input":35,
					"interpolation":"LINEAR",
					"output":43
				},
				{
					"input":37,
					"interpolation":"LINEAR",
					"output":44
				},
				{
					"input":35,
					"interpolation":"STEP",
					"output":45
				},
				{
					"input":35,
					"interpolation":"LINEAR",
					"output":46
				},
				{
					"input":37,
					"interpolation":"LINEAR",
					"output":47
				},
				{
					"input":35,
					"interpolation":"LINEAR",
					"output":48
				},
				{
					"input":35,
					"interpolation":"LINEAR",
					"output":49
				},
				{
					"input":37,
					"interpolation":"LINEAR",
					"output":50
				},
				{
					"input":35,
					"interpolation":"STEP",
					"output":23
				},
				{
					"input":35,
					"interpolation":"LINEAR",
					"output":51
				},
				{
					"input":37,
					"interpolation":"LINEAR",
					"output":52
				},
				{
					"input":35,
					"interpolation":"STEP",
					"output":34
				}
			]
		},
		{
			"channels":[
				{
					"sampler":0,
					"target":{
						"node":7,
						"path":"translation"
					}
				},
				{
					"sampler":1,
					"target":{
						"node":7,
						"path":"rotation"
					}
				},
				{
					"sampler":2,
					"target":{
						"node":7,
						"path":"scale"
					}
				},
				{
					"sampler":3,
					"target":{
						"node":6,
						"path":"translation"
					}
				},
				{
					"sampler":4,
					"target":{
						"node":6,
						"path":"rotation"
					}
				},
				{
					"sampler":5,
					"target":{
						"node":6,
						"path":"scale"
					}
				},
				{
					"sampler":6,
					"target":{
						"node":5,
						"path":"translation"
					}
				},
				{
					"sampler":7,
					"target":{
						"node":5,
						"path":"rotation"
					}
				},
				{
					"sampler":8,
					"target":{
						"node":5,
						"path":"scale"
					}
				},
				{
					"sampler":9,
					"target":{
						"node":4,
						"path":"translation"
					}
				},
				{
					"sampler":10,
					"target":{
						"node":4,
						"path":"rotation"
					}
				},
				{
					"sampler":11,
					"target":{
						"node":4,
						"path":"scale"
					}
				},
				{
					"sampler":12,
					"target":{
						"node":3,
						"path":"translation"
					}
				},
				{
					"sampler":13,
					"target":{
						"node":3,
						"path":"rotation"
					}
				},
				{
					"sampler":14,
					"target":{
						"node":3,
						"path":"scale"
					}
				},
				{
					"sampler":15,
					"target":{
						"node":2,
						"path":"translation"
					}
				},
				{
					"sampler":16,
					"target":{
						"node":2,
						"path":"rotation"
					}
				},
				{
					"sampler":17,
					"target":{
						"node":2,
						"path":"scale"
					}
				}
			],
			"name":"\u30a2\u30fc\u30de\u30c1\u30e5\u30a2.001\u30a2\u30af\u30b7\u30e7\u30f3.001",
			"samplers":[
				{
					"input":35,
					"interpolation":"LINEAR",
					"output":36
				},
				{
					"input":37,
					"interpolation":"LINEAR",
					"output":38
				},
				{
					"input":35,
					"interpolation":"STEP",
					"output":39
				},
				{
					"input":35,
					"interpolation":"LINEAR",
					"output":40
				},
				{
					"input":37,
					"interpolation":"LINEAR",
					"output":41
				},
				{
					"input":35,
					"interpolation":"STEP",
					"output":42
				},
				{
					"input":35,
					"interpolation":"LINEAR",
					"output":43
				},
				{
					"input":37,
					"interpolation":"LINEAR",
					"output":44
				},
				{
					"input":35,
					"interpolation":"STEP",
					"output":45
				},
				{
					"input":35,
					"interpolation":"LINEAR",
					"output":46
				},
				{
					"input":37,
					"interpolation":"LINEAR",
					"output":47
				},
				{
					"input":35,
					"interpolation":"LINEAR",
					"output":48
				},
				{
					"input":35,
					"interpolation":"LINEAR",
					"output":49
				},
				{
					"input":37,
					"interpolation":"LINEAR",
					"output":50
				},
				{
					"input":35,
					"interpolation":"STEP",
					"output":23
				},
				{
					"input":35,
					"interpolation":"LINEAR",
					"output":51
				},
				{
					"input":37,
					"interpolation":"LINEAR",
					"output":52
				},
				{
					"input":35,
					"interpolation":"STEP",
					"output":34
				}
			]
		},
		{
			"channels":[
				{
					"sampler":0,
					"target":{
						"node":7,
						"path":"translation"
					}
				},
				{
					"sampler":1,
					"target":{
						"node":7,
						"path":"rotation"
					}
				},
				{
					"sampler":2,
					"target":{
						"node":7,
						"path":"scale"
					}
				},
				{
					"sampler":3,
					"target":{
						"node":6,
						"path":"translation"
					}
				},
				{
					"sampler":4,
					"target":{
						"node":6,
						"path":"rotation"
					}
				},
				{
					"sampler":5,
					"target":{
						"node":6,
						"path":"scale"
					}
				},
				{
					"sampler":6,
					"target":{
						"node":5,
						"path":"translation"
					}
				},
				{
					"sampler":7,
					"target":{
						"node":5,
						"path":"rotation"
					}
				},
				{
					"sampler":8,
					"target":{
						"node":5,
						"path":"scale"
					}
				},
				{
					"sampler":9,
					"target":{
						"node":4,
						"path":"translation"
					}
				},
				{
					"sampler":10,
					"target":{
						"node":4,
						"path":"rotation"
					}
				},
				{
					"sampler":11,
					"target":{
						"node":4,
						"path":"scale"
					}
				},
				{
					"sampler":12,
					"target":{
						"node":3,
						"path":"translation"
					}
				},
				{
					"sampler":13,
					"target":{
						"node":3,
						"path":"rotation"
					}
				},
				{
					"sampler":14,
					"target":{
						"node":3,
						"path":"scale"
					}
				},
				{
					"sampler":15,
					"target":{
						"node":2,
						"path":"translation"
					}
				},
				{
					"sampler":16,
					"target":{
						"node":2,
						"path":"rotation"
					}
				},
				{
					"sampler":17,
					"target":{
						"node":2,
						"path":"scale"
					}
				}
			],
			"name":"\u30a2\u30fc\u30de\u30c1\u30e5\u30a2.001\u30a2\u30af\u30b7\u30e7\u30f3.002",
			"samplers":[
				{
					"input":35,
					"interpolation":"LINEAR",
					"output":36
				},
				{
					"input":37,
					"interpolation":"LINEAR",
					"output":38
				},
				{
					"input":35,
					"interpolation":"STEP",
					"output":39
				},
				{
					"input":35,
					"interpolation":"LINEAR",
					"output":40
				},
				{
					"input":37,
					"interpolation":"LINEAR",
					"output":41
				},
				{
					"input":35,
					"interpolation":"STEP",
					"output":42
				},
				{
					"input":35,
					"interpolation":"LINEAR",
					"output":43
				},
				{
					"input":37,
					"interpolation":"LINEAR",
					"output":44
				},
				{
					"input":35,
					"interpolation":"STEP",
					"output":45
				},
				{
					"input":35,
					"interpolation":"LINEAR",
					"output":46
				},
				{
					"input":37,
					"interpolation":"LINEAR",
					"output":47
				},
				{
					"input":35,
					"interpolation":"LINEAR",
					"output":48
				},
				{
					"input":35,
					"interpolation":"LINEAR",
					"output":49
				},
				{
					"input":37,
					"interpolation":"LINEAR",
					"output":50
				},
				{
					"input":35,
					"interpolation":"STEP",
					"output":23
				},
				{
					"input":35,
					"interpolation":"LINEAR",
					"output":51
				},
				{
					"input":37,
					"interpolation":"LINEAR",
					"output":52
				},
				{
					"input":35,
					"interpolation":"STEP",
					"output":34
				}
			]
		},
		{
			"channels":[
				{
					"sampler":0,
					"target":{
						"node":7,
						"path":"translation"
					}
				},
				{
					"sampler":1,
					"target":{
						"node":7,
						"path":"rotation"
					}
				},
				{
					"sampler":2,
					"target":{
						"node":7,
						"path":"scale"
					}
				},
				{
					"sampler":3,
					"target":{
						"node":6,
						"path":"translation"
					}
				},
				{
					"sampler":4,
					"target":{
						"node":6,
						"path":"rotation"
					}
				},
				{
					"sampler":5,
					"target":{
						"node":6,
						"path":"scale"
					}
				},
				{
					"sampler":6,
					"target":{
						"node":5,
						"path":"translation"
					}
				},
				{
					"sampler":7,
					"target":{
						"node":5,
						"path":"rotation"
					}
				},
				{
					"sampler":8,
					"target":{
						"node":5,
						"path":"scale"
					}
				},
				{
					"sampler":9,
					"target":{
						"node":4,
						"path":"translation"
					}
				},
				{
					"sampler":10,
					"target":{
						"node":4,
						"path":"rotation"
					}
				},
				{
					"sampler":11,
					"target":{
						"node":4,
						"path":"scale"
					}
				},
				{
					"sampler":12,
					"target":{
						"node":3,
						"path":"translation"
					}
				},
				{
					"sampler":13,
					"target":{
						"node":3,
						"path":"rotation"
					}
				},
				{
					"sampler":14,
					"target":{
						"node":3,
						"path":"scale"
					}
				},
				{
					"sampler":15,
					"target":{
						"node":2,
						"path":"translation"
					}
				},
				{
					"sampler":16,
					"target":{
						"node":2,
						"path":"rotation"
					}
				},
				{
					"sampler":17,
					"target":{
						"node":2,
						"path":"scale"
					}
				}
			],
			"name":"\u30a2\u30fc\u30de\u30c1\u30e5\u30a2.001\u30a2\u30af\u30b7\u30e7\u30f3.003",
			"samplers":[
				{
					"input":35,
					"interpolation":"LINEAR",
					"output":36
				},
				{
					"input":37,
					"interpolation":"LINEAR",
					"output":38
				},
				{
					"input":35,
					"interpolation":"STEP",
					"output":39
				},
				{
					"input":35,
					"interpolation":"LINEAR",
					"output":40
				},
				{
					"input":37,
					"interpolation":"LINEAR",
					"output":41
				},
				{
					"input":35,
					"interpolation":"STEP",
					"output":42
				},
				{
					"input":35,
					"interpolation":"LINEAR",
					"output":43
				},
				{
					"input":37,
					"interpolation":"LINEAR",
					"output":44
				},
				{
					"input":35,
					"interpolation":"STEP",
					"output":45
				},
				{
					"input":35,
					"interpolation":"LINEAR",
					"output":46
				},
				{
					"input":37,
					"interpolation":"LINEAR",
					"output":47
				},
				{
					"input":35,
					"interpolation":"LINEAR",
					"output":48
				},
				{
					"input":35,
					"interpolation":"LINEAR",
					"output":49
				},
				{
					"input":37,
					"interpolation":"LINEAR",
					"output":50
				},
				{
					"input":35,
					"interpolation":"STEP",
					"output":23
				},
				{
					"input":35,
					"interpolation":"LINEAR",
					"output":51
				},
				{
					"input":37,
					"interpolation":"LINEAR",
					"output":52
				},
				{
					"input":35,
					"interpolation":"STEP",
					"output":34
				}
			]
		},
		{
			"channels":[
				{
					"sampler":0,
					"target":{
						"node":7,
						"path":"translation"
					}
				},
				{
					"sampler":1,
					"target":{
						"node":7,
						"path":"rotation"
					}
				},
				{
					"sampler":2,
					"target":{
						"node":7,
						"path":"scale"
					}
				},
				{
					"sampler":3,
					"target":{
						"node":6,
						"path":"translation"
					}
				},
				{
					"sampler":4,
					"target":{
						"node":6,
						"path":"rotation"
					}
				},
				{
					"sampler":5,
					"target":{
						"node":6,
						"path":"scale"
					}
				},
				{
					"sampler":6,
					"target":{
						"node":5,
						"path":"translation"
					}
				},
				{
					"sampler":7,
					"target":{
						"node":5,
						"path":"rotation"
					}
				},
				{
					"sampler":8,
					"target":{
						"node":5,
						"path":"scale"
					}
				},
				{
					"sampler":9,
					"target":{
						"node":4,
						"path":"translation"
					}
				},
				{
					"sampler":10,
					"target":{
						"node":4,
						"path":"rotation"
					}
				},
				{
					"sampler":11,
					"target":{
						"node":4,
						"path":"scale"
					}
				},
				{
					"sampler":12,
					"target":{
						"node":3,
						"path":"translation"
					}
				},
				{
					"sampler":13,
					"target":{
						"node":3,
						"path":"rotation"
					}
				},
				{
					"sampler":14,
					"target":{
						"node":3,
						"path":"scale"
					}
				},
				{
					"sampler":15,
					"target":{
						"node":2,
						"path":"translation"
					}
				},
				{
					"sampler":16,
					"target":{
						"node":2,
						"path":"rotation"
					}
				},
				{
					"sampler":17,
					"target":{
						"node":2,
						"path":"scale"
					}
				}
			],
			"name":"\u30a2\u30fc\u30de\u30c1\u30e5\u30a2\u30a2\u30af\u30b7\u30e7\u30f3",
			"samplers":[
				{
					"input":35,
					"interpolation":"STEP",
					"output":53
				},
				{
					"input":37,
					"interpolation":"LINEAR",
					"output":54
				},
				{
					"input":35,
					"interpolation":"STEP",
					"output":55
				},
				{
					"input":35,
					"interpolation":"LINEAR",
					"output":56
				},
				{
					"input":37,
					"interpolation":"LINEAR",
					"output":57
				},
				{
					"input":35,
					"interpolation":"LINEAR",
					"output":58
				},
				{
					"input":35,
					"interpolation":"LINEAR",
					"output":59
				},
				{
					"input":37,
					"interpolation":"LINEAR",
					"output":60
				},
				{
					"input":35,
					"interpolation":"STEP",
					"output":61
				},
				{
					"input":35,
					"interpolation":"LINEAR",
					"output":62
				},
				{
					"input":37,
					"interpolation":"LINEAR",
					"output":63
				},
				{
					"input":35,
					"interpolation":"LINEAR",
					"output":64
				},
				{
					"input":35,
					"interpolation":"LINEAR",
					"output":65
				},
				{
					"input":37,
					"interpolation":"LINEAR",
					"output":66
				},
				{
					"input":35,
					"interpolation":"LINEAR",
					"output":67
				},
				{
					"input":35,
					"interpolation":"LINEAR",
					"output":68
				},
				{
					"input":37,
					"interpolation":"LINEAR",
					"output":69
				},
				{
					"input":35,
					"interpolation":"LINEAR",
					"output":70
				}
			]
		},
		{
			"channels":[
				{
					"sampler":0,
					"target":{
						"node":7,
						"path":"translation"
					}
				},
				{
					"sampler":1,
					"target":{
						"node":7,
						"path":"rotation"
					}
				},
				{
					"sampler":2,
					"target":{
						"node":7,
						"path":"scale"
					}
				},
				{
					"sampler":3,
					"target":{
						"node":6,
						"path":"translation"
					}
				},
				{
					"sampler":4,
					"target":{
						"node":6,
						"path":"rotation"
					}
				},
				{
					"sampler":5,
					"target":{
						"node":6,
						"path":"scale"
					}
				},
				{
					"sampler":6,
					"target":{
						"node":5,
						"path":"translation"
					}
				},
				{
					"sampler":7,
					"target":{
						"node":5,
						"path":"rotation"
					}
				},
				{
					"sampler":8,
					"target":{
						"node":5,
						"path":"scale"
					}
				},
				{
					"sampler":9,
					"target":{
						"node":4,
						"path":"translation"
					}
				},
				{
					"sampler":10,
					"target":{
						"node":4,
						"path":"rotation"
					}
				},
				{
					"sampler":11,
					"target":{
						"node":4,
						"path":"scale"
					}
				},
				{
					"sampler":12,
					"target":{
						"node":3,
						"path":"translation"
					}
				},
				{
					"sampler":13,
					"target":{
						"node":3,
						"path":"rotation"
					}
				},
				{
					"sampler":14,
					"target":{
						"node":3,
						"path":"scale"
					}
				},
				{
					"sampler":15,
					"target":{
						"node":2,
						"path":"translation"
					}
				},
				{
					"sampler":16,
					"target":{
						"node":2,
						"path":"rotation"
					}
				},
				{
					"sampler":17,
					"target":{
						"node":2,
						"path":"scale"
					}
				}
			],
			"name":"\u30a2\u30fc\u30de\u30c1\u30e5\u30a2\u30a2\u30af\u30b7\u30e7\u30f3.001",
			"samplers":[
				{
					"input":71,
					"interpolation":"STEP",
					"output":72
				},
				{
					"input":73,
					"interpolation":"LINEAR",
					"output":74
				},
				{
					"input":71,
					"interpolation":"STEP",
					"output":75
				},
				{
					"input":71,
					"interpolation":"LINEAR",
					"output":76
				},
				{
					"input":73,
					"interpolation":"LINEAR",
					"output":77
				},
				{
					"input":71,
					"interpolation":"STEP",
					"output":23
				},
				{
					"input":71,
					"interpolation":"LINEAR",
					"output":78
				},
				{
					"input":73,
					"interpolation":"LINEAR",
					"output":79
				},
				{
					"input":71,
					"interpolation":"LINEAR",
					"output":80
				},
				{
					"input":71,
					"interpolation":"LINEAR",
					"output":81
				},
				{
					"input":73,
					"interpolation":"LINEAR",
					"output":82
				},
				{
					"input":71,
					"interpolation":"STEP",
					"output":83
				},
				{
					"input":71,
					"interpolation":"LINEAR",
					"output":84
				},
				{
					"input":71,
					"interpolation":"LINEAR",
					"output":85
				},
				{
					"input":71,
					"interpolation":"LINEAR",
					"output":86
				},
				{
					"input":71,
					"interpolation":"STEP",
					"output":87
				},
				{
					"input":71,
					"interpolation":"STEP",
					"output":88
				},
				{
					"input":71,
					"interpolation":"STEP",
					"output":89
				}
			]
		},
		{
			"channels":[
				{
					"sampler":0,
					"target":{
						"node":7,
						"path":"translation"
					}
				},
				{
					"sampler":1,
					"target":{
						"node":7,
						"path":"rotation"
					}
				},
				{
					"sampler":2,
					"target":{
						"node":7,
						"path":"scale"
					}
				},
				{
					"sampler":3,
					"target":{
						"node":6,
						"path":"translation"
					}
				},
				{
					"sampler":4,
					"target":{
						"node":6,
						"path":"rotation"
					}
				},
				{
					"sampler":5,
					"target":{
						"node":6,
						"path":"scale"
					}
				},
				{
					"sampler":6,
					"target":{
						"node":5,
						"path":"translation"
					}
				},
				{
					"sampler":7,
					"target":{
						"node":5,
						"path":"rotation"
					}
				},
				{
					"sampler":8,
					"target":{
						"node":5,
						"path":"scale"
					}
				},
				{
					"sampler":9,
					"target":{
						"node":4,
						"path":"translation"
					}
				},
				{
					"sampler":10,
					"target":{
						"node":4,
						"path":"rotation"
					}
				},
				{
					"sampler":11,
					"target":{
						"node":4,
						"path":"scale"
					}
				},
				{
					"sampler":12,
					"target":{
						"node":3,
						"path":"translation"
					}
				},
				{
					"sampler":13,
					"target":{
						"node":3,
						"path":"rotation"
					}
				},
				{
					"sampler":14,
					"target":{
						"node":3,
						"path":"scale"
					}
				},
				{
					"sampler":15,
					"target":{
						"node":2,
						"path":"translation"
					}
				},
				{
					"sampler":16,
					"target":{
						"node":2,
						"path":"rotation"
					}
				},
				{
					"sampler":17,
					"target":{
						"node":2,
						"path":"scale"
					}
				}
			],
			"name":"\u30a2\u30fc\u30de\u30c1\u30e5\u30a2\u30a2\u30af\u30b7\u30e7\u30f3.002",
			"samplers":[
				{
					"input":71,
					"interpolation":"STEP",
					"output":72
				},
				{
					"input":73,
					"interpolation":"LINEAR",
					"output":74
				},
				{
					"input":71,
					"interpolation":"STEP",
					"output":75
				},
				{
					"input":71,
					"interpolation":"LINEAR",
					"output":76
				},
				{
					"input":73,
					"interpolation":"LINEAR",
					"output":77
				},
				{
					"input":71,
					"interpolation":"STEP",
					"output":23
				},
				{
					"input":71,
					"interpolation":"LINEAR",
					"output":78
				},
				{
					"input":73,
					"interpolation":"LINEAR",
					"output":79
				},
				{
					"input":71,
					"interpolation":"LINEAR",
					"output":80
				},
				{
					"input":71,
					"interpolation":"LINEAR",
					"output":81
				},
				{
					"input":73,
					"interpolation":"LINEAR",
					"output":82
				},
				{
					"input":71,
					"interpolation":"STEP",
					"output":83
				},
				{
					"input":71,
					"interpolation":"LINEAR",
					"output":84
				},
				{
					"input":71,
					"interpolation":"LINEAR",
					"output":85
				},
				{
					"input":71,
					"interpolation":"LINEAR",
					"output":86
				},
				{
					"input":71,
					"interpolation":"STEP",
					"output":87
				},
				{
					"input":71,
					"interpolation":"STEP",
					"output":88
				},
				{
					"input":71,
					"interpolation":"STEP",
					"output":89
				}
			]
		}
	],
	"materials":[
		{
			"doubleSided":true,
			"name":"Material.006",
			"pbrMetallicRoughness":{
				"baseColorFactor":[
					0.800000011920929,
					0.800000011920929,
					0.800000011920929,
					1
				],
				"metallicFactor":0,
				"roughnessFactor":0.5
			}
		}
	],
	"meshes":[
		{
			"name":"\u7acb\u65b9\u4f53.005",
			"primitives":[
				{
					"attributes":{
						"POSITION":0,
						"NORMAL":1,
						"TEXCOORD_0":2,
						"TEXCOORD_1":3,
						"COLOR_0":4,
						"JOINTS_0":5,
						"WEIGHTS_0":6
					},
					"indices":7
				},
				{
					"attributes":{
						"POSITION":8,
						"NORMAL":9,
						"TEXCOORD_0":10,
						"TEXCOORD_1":11,
						"COLOR_0":12,
						"JOINTS_0":13,
						"WEIGHTS_0":14
					},
					"indices":15,
					"material":0
				}
			]
		}
	],
	"skins":[
		{
			"inverseBindMatrices":16,
			"joints":[
				7,
				6,
				5,
				4,
				3,
				2,
				8
			],
			"name":"\u30a2\u30fc\u30de\u30c1\u30e5\u30a2.003"
		}
	],
	"accessors":[
		{
			"bufferView":0,
			"componentType":5126,
			"count":1486,
			"max":[
				0.3499999940395355,
				0.33800745010375977,
				0.918936014175415
			],
			"min":[
				-0.3499999940395355,
				-0.3727538287639618,
				-3.705893039703369
			],
			"type":"VEC3"
		},
		{
			"bufferView":1,
			"componentType":5126,
			"count":1486,
			"type":"VEC3"
		},
		{
			"bufferView":2,
			"componentType":5126,
			"count":1486,
			"type":"VEC2"
		},
		{
			"bufferView":3,
			"componentType":5126,
			"count":1486,
			"type":"VEC2"
		},
		{
			"bufferView":4,
			"componentType":5123,
			"count":1486,
			"normalized":true,
			"type":"VEC4"
		},
		{
			"bufferView":5,
			"componentType":5121,
			"count":1486,
			"type":"VEC4"
		},
		{
			"bufferView":6,
			"componentType":5126,
			"count":1486,
			"type":"VEC4"
		},
		{
			"bufferView":7,
			"componentType":5123,
			"count":6420,
			"type":"SCALAR"
		},
		{
			"bufferView":8,
			"componentType":5126,
			"count":56,
			"max":[
				0.40000006556510925,
				0.3606252372264862,
				0.7208995223045349
			],
			"min":[
				-0.3999999761581421,
				-0.35088908672332764,
				-1.0568782091140747
			],
			"type":"VEC3"
		},
		{
			"bufferView":9,
			"componentType":5126,
			"count":56,
			"type":"VEC3"
		},
		{
			"bufferView":10,
			"componentType":5126,
			"count":56,
			"type":"VEC2"
		},
		{
			"bufferView":11,
			"componentType":5126,
			"count":56,
			"type":"VEC2"
		},
		{
			"bufferView":12,
			"componentType":5123,
			"count":56,
			"normalized":true,
			"type":"VEC4"
		},
		{
			"bufferView":13,
			"componentType":5121,
			"count":56,
			"type":"VEC4"
		},
		{
			"bufferView":14,
			"componentType":5126,
			"count":56,
			"type":"VEC4"
		},
		{
			"bufferView":15,
			"componentType":5123,
			"count":84,
			"type":"SCALAR"
		},
		{
			"bufferView":16,
			"componentType":5126,
			"count":7,
			"type":"MAT4"
		},
		{
			"bufferView":17,
			"componentType":5126,
			"count":2,
			"max":[
				5.5
			],
			"min":[
				0
			],
			"type":"SCALAR"
		},
		{
			"bufferView":18,
			"componentType":5126,
			"count":2,
			"type":"VEC3"
		},
		{
			"bufferView":19,
			"componentType":5126,
			"count":2,
			"type":"VEC4"
		},
		{
			"bufferView":20,
			"componentType":5126,
			"count":2,
			"type":"VEC3"
		},
		{
			"bufferView":21,
			"componentType":5126,
			"count":2,
			"type":"VEC3"
		},
		{
			"bufferView":22,
			"componentType":5126,
			"count":2,
			"type":"VEC4"
		},
		{
			"bufferView":23,
			"componentType":5126,
			"count":2,
			"type":"VEC3"
		},
		{
			"bufferView":24,
			"componentType":5126,
			"count":2,
			"type":"VEC3"
		},
		{
			"bufferView":25,
			"componentType":5126,
			"count":2,
			"type":"VEC4"
		},
		{
			"bufferView":26,
			"componentType":5126,
			"count":2,
			"type":"VEC3"
		},
		{
			"bufferView":27,
			"componentType":5126,
			"count":2,
			"type":"VEC3"
		},
		{
			"bufferView":28,
			"componentType":5126,
			"count":2,
			"type":"VEC4"
		},
		{
			"bufferView":29,
			"componentType":5126,
			"count":2,
			"type":"VEC3"
		},
		{
			"bufferView":30,
			"componentType":5126,
			"count":2,
			"type":"VEC3"
		},
		{
			"bufferView":31,
			"componentType":5126,
			"count":2,
			"type":"VEC4"
		},
		{
			"bufferView":32,
			"componentType":5126,
			"count":2,
			"type":"VEC3"
		},
		{
			"bufferView":33,
			"componentType":5126,
			"count":2,
			"type":"VEC4"
		},
		{
			"bufferView":34,
			"componentType":5126,
			"count":2,
			"type":"VEC3"
		},
		{
			"bufferView":35,
			"componentType":5126,
			"count":2,
			"max":[
				1.25
			],
			"min":[
				0.041666666666666664
			],
			"type":"SCALAR"
		},
		{
			"bufferView":36,
			"componentType":5126,
			"count":2,
			"type":"VEC3"
		},
		{
			"bufferView":37,
			"componentType":5126,
			"count":30,
			"max":[
				1.25
			],
			"min":[
				0.041666666666666664
			],
			"type":"SCALAR"
		},
		{
			"bufferView":38,
			"componentType":5126,
			"count":30,
			"type":"VEC4"
		},
		{
			"bufferView":39,
			"componentType":5126,
			"count":2,
			"type":"VEC3"
		},
		{
			"bufferView":40,
			"componentType":5126,
			"count":2,
			"type":"VEC3"
		},
		{
			"bufferView":41,
			"componentType":5126,
			"count":30,
			"type":"VEC4"
		},
		{
			"bufferView":42,
			"componentType":5126,
			"count":2,
			"type":"VEC3"
		},
		{
			"bufferView":43,
			"componentType":5126,
			"count":2,
			"type":"VEC3"
		},
		{
			"bufferView":44,
			"componentType":5126,
			"count":30,
			"type":"VEC4"
		},
		{
			"bufferView":45,
			"componentType":5126,
			"count":2,
			"type":"VEC3"
		},
		{
			"bufferView":46,
			"componentType":5126,
			"count":2,
			"type":"VEC3"
		},
		{
			"bufferView":47,
			"componentType":5126,
			"count":30,
			"type":"VEC4"
		},
		{
			"bufferView":48,
			"componentType":5126,
			"count":2,
			"type":"VEC3"
		},
		{
			"bufferView":49,
			"componentType":5126,
			"count":2,
			"type":"VEC3"
		},
		{
			"bufferView":50,
			"componentType":5126,
			"count":30,
			"type":"VEC4"
		},
		{
			"bufferView":51,
			"componentType":5126,
			"count":2,
			"type":"VEC3"
		},
		{
			"bufferView":52,
			"componentType":5126,
			"count":30,
			"type":"VEC4"
		},
		{
			"bufferView":53,
			"componentType":5126,
			"count":2,
			"type":"VEC3"
		},
		{
			"bufferView":54,
			"componentType":5126,
			"count":30,
			"type":"VEC4"
		},
		{
			"bufferView":55,
			"componentType":5126,
			"count":2,
			"type":"VEC3"
		},
		{
			"bufferView":56,
			"componentType":5126,
			"count":2,
			"type":"VEC3"
		},
		{
			"bufferView":57,
			"componentType":5126,
			"count":30,
			"type":"VEC4"
		},
		{
			"bufferView":58,
			"componentType":5126,
			"count":2,
			"type":"VEC3"
		},
		{
			"bufferView":59,
			"componentType":5126,
			"count":2,
			"type":"VEC3"
		},
		{
			"bufferView":60,
			"componentType":5126,
			"count":30,
			"type":"VEC4"
		},
		{
			"bufferView":61,
			"componentType":5126,
			"count":2,
			"type":"VEC3"
		},
		{
			"bufferView":62,
			"componentType":5126,
			"count":2,
			"type":"VEC3"
		},
		{
			"bufferView":63,
			"componentType":5126,
			"count":30,
			"type":"VEC4"
		},
		{
			"bufferView":64,
			"componentType":5126,
			"count":2,
			"type":"VEC3"
		},
		{
			"bufferView":65,
			"componentType":5126,
			"count":2,
			"type":"VEC3"
		},
		{
			"bufferView":66,
			"componentType":5126,
			"count":30,
			"type":"VEC4"
		},
		{
			"bufferView":67,
			"componentType":5126,
			"count":2,
			"type":"VEC3"
		},
		{
			"bufferView":68,
			"componentType":5126,
			"count":2,
			"type":"VEC3"
		},
		{
			"bufferView":69,
			"componentType":5126,
			"count":30,
			"type":"VEC4"
		},
		{
			"bufferView":70,
			"componentType":5126,
			"count":2,
			"type":"VEC3"
		},
		{
			"bufferView":71,
			"componentType":5126,
			"count":2,
			"max":[
				2.5
			],
			"min":[
				0.041666666666666664
			],
			"type":"SCALAR"
		},
		{
			"bufferView":72,
			"componentType":5126,
			"count":2,
			"type":"VEC3"
		},
		{
			"bufferView":73,
			"componentType":5126,
			"count":60,
			"max":[
				2.5
			],
			"min":[
				0.041666666666666664
			],
			"type":"SCALAR"
		},
		{
			"bufferView":74,
			"componentType":5126,
			"count":60,
			"type":"VEC4"
		},
		{
			"bufferView":75,
			"componentType":5126,
			"count":2,
			"type":"VEC3"
		},
		{
			"bufferView":76,
			"componentType":5126,
			"count":2,
			"type":"VEC3"
		},
		{
			"bufferView":77,
			"componentType":5126,
			"count":60,
			"type":"VEC4"
		},
		{
			"bufferView":78,
			"componentType":5126,
			"count":2,
			"type":"VEC3"
		},
		{
			"bufferView":79,
			"componentType":5126,
			"count":60,
			"type":"VEC4"
		},
		{
			"bufferView":80,
			"componentType":5126,
			"count":2,
			"type":"VEC3"
		},
		{
			"bufferView":81,
			"componentType":5126,
			"count":2,
			"type":"VEC3"
		},
		{
			"bufferView":82,
			"componentType":5126,
			"count":60,
			"type":"VEC4"
		},
		{
			"bufferView":83,
			"componentType":5126,
			"count":2,
			"type":"VEC3"
		},
		{
			"bufferView":84,
			"componentType":5126,
			"count":2,
			"type":"VEC3"
		},
		{
			"bufferView":85,
			"componentType":5126,
			"count":2,
			"type":"VEC4"
		},
		{
			"bufferView":86,
			"componentType":5126,
			"count":2,
			"type":"VEC3"
		},
		{
			"bufferView":87,
			"componentType":5126,
			"count":2,
			"type":"VEC3"
		},
		{
			"bufferView":88,
			"componentType":5126,
			"count":2,
			"type":"VEC4"
		},
		{
			"bufferView":89,
			"componentType":5126,
			"count":2,
			"type":"VEC3"
		}
	],
	"bufferViews":[
		{
			"buffer":0,
			"byteLength":17832,
			"byteOffset":0,
			"target":34962
		},
		{
			"buffer":0,
			"byteLength":17832,
			"byteOffset":17832,
			"target":34962
		},
		{
			"buffer":0,
			"byteLength":11888,
			"byteOffset":35664,
			"target":34962
		},
		{
			"buffer":0,
			"byteLength":11888,
			"byteOffset":47552,
			"target":34962
		},
		{
			"buffer":0,
			"byteLength":11888,
			"byteOffset":59440,
			"target":34962
		},
		{
			"buffer":0,
			"byteLength":5944,
			"byteOffset":71328,
			"target":34962
		},
		{
			"buffer":0,
			"byteLength":23776,
			"byteOffset":77272,
			"target":34962
		},
		{
			"buffer":0,
			"byteLength":12840,
			"byteOffset":101048,
			"target":34963
		},
		{
			"buffer":0,
			"byteLength":672,
			"byteOffset":113888,
			"target":34962
		},
		{
			"buffer":0,
			"byteLength":672,
			"byteOffset":114560,
			"target":34962
		},
		{
			"buffer":0,
			"byteLength":448,
			"byteOffset":115232,
			"target":34962
		},
		{
			"buffer":0,
			"byteLength":448,
			"byteOffset":115680,
			"target":34962
		},
		{
			"buffer":0,
			"byteLength":448,
			"byteOffset":116128,
			"target":34962
		},
		{
			"buffer":0,
			"byteLength":224,
			"byteOffset":116576,
			"target":34962
		},
		{
			"buffer":0,
			"byteLength":896,
			"byteOffset":116800,
			"target":34962
		},
		{
			"buffer":0,
			"byteLength":168,
			"byteOffset":117696,
			"target":34963
		},
		{
			"buffer":0,
			"byteLength":448,
			"byteOffset":117864
		},
		{
			"buffer":0,
			"byteLength":8,
			"byteOffset":118312
		},
		{
			"buffer":0,
			"byteLength":24,
			"byteOffset":118320
		},
		{
			"buffer":0,
			"byteLength":32,
			"byteOffset":118344
		},
		{
			"buffer":0,
			"byteLength":24,
			"byteOffset":118376
		},
		{
			"buffer":0,
			"byteLength":24,
			"byteOffset":118400
		},
		{
			"buffer":0,
			"byteLength":32,
			"byteOffset":118424
		},
		{
			"buffer":0,
			"byteLength":24,
			"byteOffset":118456
		},
		{
			"buffer":0,
			"byteLength":24,
			"byteOffset":118480
		},
		{
			"buffer":0,
			"byteLength":32,
			"byteOffset":118504
		},
		{
			"buffer":0,
			"byteLength":24,
			"byteOffset":118536
		},
		{
			"buffer":0,
			"byteLength":24,
			"byteOffset":118560
		},
		{
			"buffer":0,
			"byteLength":32,
			"byteOffset":118584
		},
		{
			"buffer":0,
			"byteLength":24,
			"byteOffset":118616
		},
		{
			"buffer":0,
			"byteLength":24,
			"byteOffset":118640
		},
		{
			"buffer":0,
			"byteLength":32,
			"byteOffset":118664
		},
		{
			"buffer":0,
			"byteLength":24,
			"byteOffset":118696
		},
		{
			"buffer":0,
			"byteLength":32,
			"byteOffset":118720
		},
		{
			"buffer":0,
			"byteLength":24,
			"byteOffset":118752
		},
		{
			"buffer":0,
			"byteLength":8,
			"byteOffset":118776
		},
		{
			"buffer":0,
			"byteLength":24,
			"byteOffset":118784
		},
		{
			"buffer":0,
			"byteLength":120,
			"byteOffset":118808
		},
		{
			"buffer":0,
			"byteLength":480,
			"byteOffset":118928
		},
		{
			"buffer":0,
			"byteLength":24,
			"byteOffset":119408
		},
		{
			"buffer":0,
			"byteLength":24,
			"byteOffset":119432
		},
		{
			"buffer":0,
			"byteLength":480,
			"byteOffset":119456
		},
		{
			"buffer":0,
			"byteLength":24,
			"byteOffset":119936
		},
		{
			"buffer":0,
			"byteLength":24,
			"byteOffset":119960
		},
		{
			"buffer":0,
			"byteLength":480,
			"byteOffset":119984
		},
		{
			"buffer":0,
			"byteLength":24,
			"byteOffset":120464
		},
		{
			"buffer":0,
			"byteLength":24,
			"byteOffset":120488
		},
		{
			"buffer":0,
			"byteLength":480,
			"byteOffset":120512
		},
		{
			"buffer":0,
			"byteLength":24,
			"byteOffset":120992
		},
		{
			"buffer":0,
			"byteLength":24,
			"byteOffset":121016
		},
		{
			"buffer":0,
			"byteLength":480,
			"byteOffset":121040
		},
		{
			"buffer":0,
			"byteLength":24,
			"byteOffset":121520
		},
		{
			"buffer":0,
			"byteLength":480,
			"byteOffset":121544
		},
		{
			"buffer":0,
			"byteLength":24,
			"byteOffset":122024
		},
		{
			"buffer":0,
			"byteLength":480,
			"byteOffset":122048
		},
		{
			"buffer":0,
			"byteLength":24,
			"byteOffset":122528
		},
		{
			"buffer":0,
			"byteLength":24,
			"byteOffset":122552
		},
		{
			"buffer":0,
			"byteLength":480,
			"byteOffset":122576
		},
		{
			"buffer":0,
			"byteLength":24,
			"byteOffset":123056
		},
		{
			"buffer":0,
			"byteLength":24,
			"byteOffset":123080
		},
		{
			"buffer":0,
			"byteLength":480,
			"byteOffset":123104
		},
		{
			"buffer":0,
			"byteLength":24,
			"byteOffset":123584
		},
		{
			"buffer":0,
			"byteLength":24,
			"byteOffset":123608
		},
		{
			"buffer":0,
			"byteLength":480,
			"byteOffset":123632
		},
		{
			"buffer":0,
			"byteLength":24,
			"byteOffset":124112
		},
		{
			"buffer":0,
			"byteLength":24,
			"byteOffset":124136
		},
		{
			"buffer":0,
			"byteLength":480,
			"byteOffset":124160
		},
		{
			"buffer":0,
			"byteLength":24,
			"byteOffset":124640
		},
		{
			"buffer":0,
			"byteLength":24,
			"byteOffset":124664
		},
		{
			"buffer":0,
			"byteLength":480,
			"byteOffset":124688
		},
		{
			"buffer":0,
			"byteLength":24,
			"byteOffset":125168
		},
		{
			"buffer":0,
			"byteLength":8,
			"byteOffset":125192
		},
		{
			"buffer":0,
			"byteLength":24,
			"byteOffset":125200
		},
		{
			"buffer":0,
			"byteLength":240,
			"byteOffset":125224
		},
		{
			"buffer":0,
			"byteLength":960,
			"byteOffset":125464
		},
		{
			"buffer":0,
			"byteLength":24,
			"byteOffset":126424
		},
		{
			"buffer":0,
			"byteLength":24,
			"byteOffset":126448
		},
		{
			"buffer":0,
			"byteLength":960,
			"byteOffset":126472
		},
		{
			"buffer":0,
			"byteLength":24,
			"byteOffset":127432
		},
		{
			"buffer":0,
			"byteLength":960,
			"byteOffset":127456
		},
		{
			"buffer":0,
			"byteLength":24,
			"byteOffset":128416
		},
		{
			"buffer":0,
			"byteLength":24,
			"byteOffset":128440
		},
		{
			"buffer":0,
			"byteLength":960,
			"byteOffset":128464
		},
		{
			"buffer":0,
			"byteLength":24,
			"byteOffset":129424
		},
		{
			"buffer":0,
			"byteLength":24,
			"byteOffset":129448
		},
		{
			"buffer":0,
			"byteLength":32,
			"byteOffset":129472
		},
		{
			"buffer":0,
			"byteLength":24,
			"byteOffset":129504
		},
		{
			"buffer":0,
			"byteLength":24,
			"byteOffset":129528
		},
		{
			"buffer":0,
			"byteLength":32,
			"byteOffset":129552
		},
		{
			"buffer":0,
			"byteLength":24,
			"byteOffset":129584
		}
	],
	"buffers":[
		{
			"byteLength":129608,
			"uri":"Shrimp2.bin"
		}
	]
}
