{
	"asset":{
		"generator":"Khronos glTF Blender I/O v4.4.56",
		"version":"2.0"
	},
	"scene":0,
	"scenes":[
		{
			"name":"Scene",
			"nodes":[
				7
			]
		}
	],
	"nodes":[
		{
			"name":"\u30dc\u30fc\u30f3.005",
			"rotation":[
				-0.07725024223327637,
				0,
				0,
				0.9970117211341858
			],
			"translation":[
				0,
				0.5638269782066345,
				0
			]
		},
		{
			"children":[
				0
			],
			"name":"\u30dc\u30fc\u30f3.004",
			"rotation":[
				3.725290298461914e-09,
				0,
				0,
				1
			],
			"translation":[
				0,
				0.28751176595687866,
				-3.725290298461914e-09
			]
		},
		{
			"children":[
				1
			],
			"name":"\u30dc\u30fc\u30f3.003",
			"rotation":[
				1.862645149230957e-09,
				0,
				0,
				1
			],
			"translation":[
				0,
				0.3742755055427551,
				-7.450580596923828e-09
			]
		},
		{
			"children":[
				2
			],
			"name":"\u30dc\u30fc\u30f3.002",
			"rotation":[
				-8.381903171539307e-09,
				0,
				0,
				1
			],
			"translation":[
				0,
				0.41850030422210693,
				-1.862645149230957e-09
			]
		},
		{
			"children":[
				3
			],
			"name":"\u30dc\u30fc\u30f3.001",
			"rotation":[
				3.725290298461914e-09,
				0,
				0,
				1
			],
			"scale":[
				1,
				0.9999999403953552,
				1
			],
			"translation":[
				0,
				0.48269563913345337,
				1.862645149230957e-09
			]
		},
		{
			"children":[
				4
			],
			"name":"\u30dc\u30fc\u30f3",
			"rotation":[
				-0.7001157402992249,
				0,
				0,
				0.7140293717384338
			],
			"translation":[
				0,
				0.16799858212471008,
				-0.05568982660770416
			]
		},
		{
			"mesh":0,
			"name":"\u7acb\u65b9\u4f53.008",
			"skin":0
		},
		{
			"children":[
				6,
				5
			],
			"name":"\u30a2\u30fc\u30de\u30c1\u30e5\u30a2"
		}
	],
	"animations":[
		{
			"channels":[
				{
					"sampler":0,
					"target":{
						"node":5,
						"path":"translation"
					}
				},
				{
					"sampler":1,
					"target":{
						"node":5,
						"path":"rotation"
					}
				},
				{
					"sampler":2,
					"target":{
						"node":5,
						"path":"scale"
					}
				},
				{
					"sampler":3,
					"target":{
						"node":4,
						"path":"translation"
					}
				},
				{
					"sampler":4,
					"target":{
						"node":4,
						"path":"rotation"
					}
				},
				{
					"sampler":5,
					"target":{
						"node":4,
						"path":"scale"
					}
				},
				{
					"sampler":6,
					"target":{
						"node":3,
						"path":"translation"
					}
				},
				{
					"sampler":7,
					"target":{
						"node":3,
						"path":"rotation"
					}
				},
				{
					"sampler":8,
					"target":{
						"node":3,
						"path":"scale"
					}
				},
				{
					"sampler":9,
					"target":{
						"node":2,
						"path":"translation"
					}
				},
				{
					"sampler":10,
					"target":{
						"node":2,
						"path":"rotation"
					}
				},
				{
					"sampler":11,
					"target":{
						"node":2,
						"path":"scale"
					}
				},
				{
					"sampler":12,
					"target":{
						"node":1,
						"path":"translation"
					}
				},
				{
					"sampler":13,
					"target":{
						"node":1,
						"path":"rotation"
					}
				},
				{
					"sampler":14,
					"target":{
						"node":1,
						"path":"scale"
					}
				},
				{
					"sampler":15,
					"target":{
						"node":0,
						"path":"translation"
					}
				},
				{
					"sampler":16,
					"target":{
						"node":0,
						"path":"rotation"
					}
				},
				{
					"sampler":17,
					"target":{
						"node":0,
						"path":"scale"
					}
				}
			],
			"name":"\u30a2\u30fc\u30de\u30c1\u30e5\u30a2\u30a2\u30af\u30b7\u30e7\u30f3",
			"samplers":[
				{
					"input":7,
					"interpolation":"STEP",
					"output":8
				},
				{
					"input":7,
					"interpolation":"STEP",
					"output":9
				},
				{
					"input":7,
					"interpolation":"STEP",
					"output":10
				},
				{
					"input":7,
					"interpolation":"STEP",
					"output":11
				},
				{
					"input":12,
					"interpolation":"LINEAR",
					"output":13
				},
				{
					"input":7,
					"interpolation":"STEP",
					"output":14
				},
				{
					"input":7,
					"interpolation":"LINEAR",
					"output":15
				},
				{
					"input":12,
					"interpolation":"LINEAR",
					"output":16
				},
				{
					"input":7,
					"interpolation":"STEP",
					"output":17
				},
				{
					"input":7,
					"interpolation":"LINEAR",
					"output":18
				},
				{
					"input":12,
					"interpolation":"LINEAR",
					"output":19
				},
				{
					"input":7,
					"interpolation":"LINEAR",
					"output":20
				},
				{
					"input":7,
					"interpolation":"LINEAR",
					"output":21
				},
				{
					"input":12,
					"interpolation":"LINEAR",
					"output":22
				},
				{
					"input":7,
					"interpolation":"LINEAR",
					"output":23
				},
				{
					"input":7,
					"interpolation":"LINEAR",
					"output":24
				},
				{
					"input":7,
					"interpolation":"STEP",
					"output":25
				},
				{
					"input":7,
					"interpolation":"STEP",
					"output":26
				}
			]
		}
	],
	"meshes":[
		{
			"name":"\u7acb\u65b9\u4f53.018",
			"primitives":[
				{
					"attributes":{
						"POSITION":0,
						"NORMAL":1,
						"TEXCOORD_0":2,
						"JOINTS_0":3,
						"WEIGHTS_0":4
					},
					"indices":5
				}
			]
		}
	],
	"skins":[
		{
			"inverseBindMatrices":6,
			"joints":[
				5,
				4,
				3,
				2,
				1,
				0
			],
			"name":"\u30a2\u30fc\u30de\u30c1\u30e5\u30a2"
		}
	],
	"accessors":[
		{
			"bufferView":0,
			"componentType":5126,
			"count":244,
			"max":[
				0.5,
				0.6200000047683716,
				1.3928453922271729
			],
			"min":[
				-0.5,
				-0.229203462600708,
				-3.4627628326416016
			],
			"type":"VEC3"
		},
		{
			"bufferView":1,
			"componentType":5126,
			"count":244,
			"type":"VEC3"
		},
		{
			"bufferView":2,
			"componentType":5126,
			"count":244,
			"type":"VEC2"
		},
		{
			"bufferView":3,
			"componentType":5121,
			"count":244,
			"type":"VEC4"
		},
		{
			"bufferView":4,
			"componentType":5126,
			"count":244,
			"type":"VEC4"
		},
		{
			"bufferView":5,
			"componentType":5123,
			"count":372,
			"type":"SCALAR"
		},
		{
			"bufferView":6,
			"componentType":5126,
			"count":6,
			"type":"MAT4"
		},
		{
			"bufferView":7,
			"componentType":5126,
			"count":2,
			"max":[
				2.5
			],
			"min":[
				0.041666666666666664
			],
			"type":"SCALAR"
		},
		{
			"bufferView":8,
			"componentType":5126,
			"count":2,
			"type":"VEC3"
		},
		{
			"bufferView":9,
			"componentType":5126,
			"count":2,
			"type":"VEC4"
		},
		{
			"bufferView":10,
			"componentType":5126,
			"count":2,
			"type":"VEC3"
		},
		{
			"bufferView":11,
			"componentType":5126,
			"count":2,
			"type":"VEC3"
		},
		{
			"bufferView":12,
			"componentType":5126,
			"count":60,
			"max":[
				2.5
			],
			"min":[
				0.041666666666666664
			],
			"type":"SCALAR"
		},
		{
			"bufferView":13,
			"componentType":5126,
			"count":60,
			"type":"VEC4"
		},
		{
			"bufferView":14,
			"componentType":5126,
			"count":2,
			"type":"VEC3"
		},
		{
			"bufferView":15,
			"componentType":5126,
			"count":2,
			"type":"VEC3"
		},
		{
			"bufferView":16,
			"componentType":5126,
			"count":60,
			"type":"VEC4"
		},
		{
			"bufferView":17,
			"componentType":5126,
			"count":2,
			"type":"VEC3"
		},
		{
			"bufferView":18,
			"componentType":5126,
			"count":2,
			"type":"VEC3"
		},
		{
			"bufferView":19,
			"componentType":5126,
			"count":60,
			"type":"VEC4"
		},
		{
			"bufferView":20,
			"componentType":5126,
			"count":2,
			"type":"VEC3"
		},
		{
			"bufferView":21,
			"componentType":5126,
			"count":2,
			"type":"VEC3"
		},
		{
			"bufferView":22,
			"componentType":5126,
			"count":60,
			"type":"VEC4"
		},
		{
			"bufferView":23,
			"componentType":5126,
			"count":2,
			"type":"VEC3"
		},
		{
			"bufferView":24,
			"componentType":5126,
			"count":2,
			"type":"VEC3"
		},
		{
			"bufferView":25,
			"componentType":5126,
			"count":2,
			"type":"VEC4"
		},
		{
			"bufferView":26,
			"componentType":5126,
			"count":2,
			"type":"VEC3"
		}
	],
	"bufferViews":[
		{
			"buffer":0,
			"byteLength":2928,
			"byteOffset":0,
			"target":34962
		},
		{
			"buffer":0,
			"byteLength":2928,
			"byteOffset":2928,
			"target":34962
		},
		{
			"buffer":0,
			"byteLength":1952,
			"byteOffset":5856,
			"target":34962
		},
		{
			"buffer":0,
			"byteLength":976,
			"byteOffset":7808,
			"target":34962
		},
		{
			"buffer":0,
			"byteLength":3904,
			"byteOffset":8784,
			"target":34962
		},
		{
			"buffer":0,
			"byteLength":744,
			"byteOffset":12688,
			"target":34963
		},
		{
			"buffer":0,
			"byteLength":384,
			"byteOffset":13432
		},
		{
			"buffer":0,
			"byteLength":8,
			"byteOffset":13816
		},
		{
			"buffer":0,
			"byteLength":24,
			"byteOffset":13824
		},
		{
			"buffer":0,
			"byteLength":32,
			"byteOffset":13848
		},
		{
			"buffer":0,
			"byteLength":24,
			"byteOffset":13880
		},
		{
			"buffer":0,
			"byteLength":24,
			"byteOffset":13904
		},
		{
			"buffer":0,
			"byteLength":240,
			"byteOffset":13928
		},
		{
			"buffer":0,
			"byteLength":960,
			"byteOffset":14168
		},
		{
			"buffer":0,
			"byteLength":24,
			"byteOffset":15128
		},
		{
			"buffer":0,
			"byteLength":24,
			"byteOffset":15152
		},
		{
			"buffer":0,
			"byteLength":960,
			"byteOffset":15176
		},
		{
			"buffer":0,
			"byteLength":24,
			"byteOffset":16136
		},
		{
			"buffer":0,
			"byteLength":24,
			"byteOffset":16160
		},
		{
			"buffer":0,
			"byteLength":960,
			"byteOffset":16184
		},
		{
			"buffer":0,
			"byteLength":24,
			"byteOffset":17144
		},
		{
			"buffer":0,
			"byteLength":24,
			"byteOffset":17168
		},
		{
			"buffer":0,
			"byteLength":960,
			"byteOffset":17192
		},
		{
			"buffer":0,
			"byteLength":24,
			"byteOffset":18152
		},
		{
			"buffer":0,
			"byteLength":24,
			"byteOffset":18176
		},
		{
			"buffer":0,
			"byteLength":32,
			"byteOffset":18200
		},
		{
			"buffer":0,
			"byteLength":24,
			"byteOffset":18232
		}
	],
	"buffers":[
		{
			"byteLength":18256,
			"uri":"Shrimp_01.bin"
		}
	]
}
