{
	"asset":{
		"generator":"Khronos glTF Blender I/O v4.4.56",
		"version":"2.0"
	},
	"scene":0,
	"scenes":[
		{
			"name":"Scene",
			"nodes":[
				0,
				9
			]
		}
	],
	"nodes":[
		{
			"name":"\u30a2\u30fc\u30de\u30c1\u30e5\u30a2",
			"rotation":[
				0.7337608337402344,
				-0.04627241566777229,
				0.15905307233333588,
				0.6589052677154541
			],
			"translation":[
				0.08636316657066345,
				-0.030896838754415512,
				-0.5932702422142029
			]
		},
		{
			"name":"\u30dc\u30fc\u30f3",
			"rotation":[
				-0.048371680080890656,
				0,
				0,
				0.9988294243812561
			],
			"scale":[
				1,
				1,
				1.0000001192092896
			],
			"translation":[
				0,
				0.015593215823173523,
				0.09557059407234192
			]
		},
		{
			"name":"\u30dc\u30fc\u30f3.006",
			"rotation":[
				0.027645260095596313,
				2.12688990497336e-14,
				-1.0765468516638066e-08,
				0.9996178150177002
			],
			"translation":[
				8.162498641269477e-16,
				0.3534475862979889,
				7.450580596923828e-09
			]
		},
		{
			"children":[
				2
			],
			"name":"\u30dc\u30fc\u30f3.005",
			"rotation":[
				-0.006373364944010973,
				-2.8172483538201586e-14,
				2.4818860300257484e-09,
				0.9999796748161316
			],
			"translation":[
				2.385872430882025e-15,
				0.32228514552116394,
				1.4901161193847656e-08
			]
		},
		{
			"children":[
				3
			],
			"name":"\u30dc\u30fc\u30f3.004",
			"rotation":[
				-0.0022904598154127598,
				7.122099676508398e-14,
				8.919386340622282e-10,
				0.9999973773956299
			],
			"translation":[
				-5.864541877565344e-15,
				0.29669174551963806,
				-2.2351741790771484e-08
			]
		},
		{
			"children":[
				4
			],
			"name":"\u30dc\u30fc\u30f3.003",
			"rotation":[
				-0.013816780410706997,
				-1.5098142114311486e-07,
				3.2941789296359048e-09,
				0.9999045729637146
			],
			"scale":[
				1,
				1,
				0.9999999403953552
			],
			"translation":[
				1.136000354792473e-16,
				0.3344387412071228,
				-3.725290298461914e-09
			]
		},
		{
			"children":[
				5
			],
			"name":"\u30dc\u30fc\u30f3.002",
			"rotation":[
				0.003820683341473341,
				3.1786292709057307e-08,
				-4.5546200144741533e-10,
				0.9999927282333374
			],
			"scale":[
				1,
				1,
				1.0000001192092896
			],
			"translation":[
				-1.3322676295501878e-15,
				0.5142005681991577,
				-7.450580596923828e-09
			]
		},
		{
			"children":[
				6
			],
			"name":"\u30dc\u30fc\u30f3.001",
			"rotation":[
				7.495788167943829e-08,
				0.1193922907114029,
				0.9928471446037292,
				9.013866986151697e-09
			],
			"translation":[
				0,
				0.015593215823173523,
				0.09557059407234192
			]
		},
		{
			"mesh":0,
			"name":" Body01.007",
			"skin":0
		},
		{
			"children":[
				8,
				1,
				7
			],
			"name":"\u30a2\u30fc\u30de\u30c1\u30e5\u30a2.001",
			"rotation":[
				0.7619152665138245,
				0,
				0,
				0.6476767063140869
			],
			"translation":[
				0,
				0,
				-0.6094866991043091
			]
		}
	],
	"animations":[
		{
			"channels":[
				{
					"sampler":0,
					"target":{
						"node":1,
						"path":"translation"
					}
				},
				{
					"sampler":1,
					"target":{
						"node":1,
						"path":"rotation"
					}
				},
				{
					"sampler":2,
					"target":{
						"node":1,
						"path":"scale"
					}
				},
				{
					"sampler":3,
					"target":{
						"node":7,
						"path":"translation"
					}
				},
				{
					"sampler":4,
					"target":{
						"node":7,
						"path":"rotation"
					}
				},
				{
					"sampler":5,
					"target":{
						"node":7,
						"path":"scale"
					}
				},
				{
					"sampler":6,
					"target":{
						"node":6,
						"path":"translation"
					}
				},
				{
					"sampler":7,
					"target":{
						"node":6,
						"path":"rotation"
					}
				},
				{
					"sampler":8,
					"target":{
						"node":6,
						"path":"scale"
					}
				},
				{
					"sampler":9,
					"target":{
						"node":5,
						"path":"translation"
					}
				},
				{
					"sampler":10,
					"target":{
						"node":5,
						"path":"rotation"
					}
				},
				{
					"sampler":11,
					"target":{
						"node":5,
						"path":"scale"
					}
				},
				{
					"sampler":12,
					"target":{
						"node":4,
						"path":"translation"
					}
				},
				{
					"sampler":13,
					"target":{
						"node":4,
						"path":"rotation"
					}
				},
				{
					"sampler":14,
					"target":{
						"node":4,
						"path":"scale"
					}
				},
				{
					"sampler":15,
					"target":{
						"node":3,
						"path":"translation"
					}
				},
				{
					"sampler":16,
					"target":{
						"node":3,
						"path":"rotation"
					}
				},
				{
					"sampler":17,
					"target":{
						"node":3,
						"path":"scale"
					}
				},
				{
					"sampler":18,
					"target":{
						"node":2,
						"path":"translation"
					}
				},
				{
					"sampler":19,
					"target":{
						"node":2,
						"path":"rotation"
					}
				},
				{
					"sampler":20,
					"target":{
						"node":2,
						"path":"scale"
					}
				}
			],
			"name":"\u30a2\u30fc\u30de\u30c1\u30e5\u30a2.001\u30a2\u30af\u30b7\u30e7\u30f3",
			"samplers":[
				{
					"input":15,
					"interpolation":"STEP",
					"output":16
				},
				{
					"input":15,
					"interpolation":"STEP",
					"output":17
				},
				{
					"input":15,
					"interpolation":"STEP",
					"output":18
				},
				{
					"input":15,
					"interpolation":"LINEAR",
					"output":19
				},
				{
					"input":20,
					"interpolation":"LINEAR",
					"output":21
				},
				{
					"input":15,
					"interpolation":"STEP",
					"output":22
				},
				{
					"input":15,
					"interpolation":"LINEAR",
					"output":23
				},
				{
					"input":20,
					"interpolation":"LINEAR",
					"output":24
				},
				{
					"input":15,
					"interpolation":"STEP",
					"output":25
				},
				{
					"input":15,
					"interpolation":"LINEAR",
					"output":26
				},
				{
					"input":20,
					"interpolation":"LINEAR",
					"output":27
				},
				{
					"input":15,
					"interpolation":"STEP",
					"output":28
				},
				{
					"input":15,
					"interpolation":"LINEAR",
					"output":29
				},
				{
					"input":20,
					"interpolation":"LINEAR",
					"output":30
				},
				{
					"input":15,
					"interpolation":"STEP",
					"output":31
				},
				{
					"input":15,
					"interpolation":"LINEAR",
					"output":32
				},
				{
					"input":20,
					"interpolation":"LINEAR",
					"output":33
				},
				{
					"input":15,
					"interpolation":"STEP",
					"output":34
				},
				{
					"input":15,
					"interpolation":"LINEAR",
					"output":35
				},
				{
					"input":20,
					"interpolation":"LINEAR",
					"output":36
				},
				{
					"input":15,
					"interpolation":"STEP",
					"output":37
				}
			]
		}
	],
	"materials":[
		{
			"doubleSided":true,
			"name":"Material",
			"pbrMetallicRoughness":{
				"baseColorFactor":[
					0.800000011920929,
					0.800000011920929,
					0.800000011920929,
					1
				],
				"metallicFactor":0,
				"roughnessFactor":0.5
			}
		}
	],
	"meshes":[
		{
			"name":"\u7acb\u65b9\u4f53.019",
			"primitives":[
				{
					"attributes":{
						"POSITION":0,
						"NORMAL":1,
						"TEXCOORD_0":2,
						"TEXCOORD_1":3,
						"JOINTS_0":4,
						"WEIGHTS_0":5
					},
					"indices":6
				},
				{
					"attributes":{
						"POSITION":7,
						"NORMAL":8,
						"TEXCOORD_0":9,
						"TEXCOORD_1":10,
						"JOINTS_0":11,
						"WEIGHTS_0":12
					},
					"indices":13,
					"material":0
				}
			]
		}
	],
	"skins":[
		{
			"inverseBindMatrices":14,
			"joints":[
				1,
				7,
				6,
				5,
				4,
				3,
				2
			],
			"name":"\u30a2\u30fc\u30de\u30c1\u30e5\u30a2.001"
		}
	],
	"accessors":[
		{
			"bufferView":0,
			"componentType":5126,
			"count":1484,
			"max":[
				0.3499999940395355,
				0.33800750970840454,
				0.918936014175415
			],
			"min":[
				-0.3499999940395355,
				-0.3727536201477051,
				-3.7058935165405273
			],
			"type":"VEC3"
		},
		{
			"bufferView":1,
			"componentType":5126,
			"count":1484,
			"type":"VEC3"
		},
		{
			"bufferView":2,
			"componentType":5126,
			"count":1484,
			"type":"VEC2"
		},
		{
			"bufferView":3,
			"componentType":5126,
			"count":1484,
			"type":"VEC2"
		},
		{
			"bufferView":4,
			"componentType":5121,
			"count":1484,
			"type":"VEC4"
		},
		{
			"bufferView":5,
			"componentType":5126,
			"count":1484,
			"type":"VEC4"
		},
		{
			"bufferView":6,
			"componentType":5123,
			"count":6420,
			"type":"SCALAR"
		},
		{
			"bufferView":7,
			"componentType":5126,
			"count":56,
			"max":[
				0.40000006556510925,
				0.36062532663345337,
				0.7208995819091797
			],
			"min":[
				-0.3999999761581421,
				-0.35088902711868286,
				-1.0568780899047852
			],
			"type":"VEC3"
		},
		{
			"bufferView":8,
			"componentType":5126,
			"count":56,
			"type":"VEC3"
		},
		{
			"bufferView":9,
			"componentType":5126,
			"count":56,
			"type":"VEC2"
		},
		{
			"bufferView":10,
			"componentType":5126,
			"count":56,
			"type":"VEC2"
		},
		{
			"bufferView":11,
			"componentType":5121,
			"count":56,
			"type":"VEC4"
		},
		{
			"bufferView":12,
			"componentType":5126,
			"count":56,
			"type":"VEC4"
		},
		{
			"bufferView":13,
			"componentType":5123,
			"count":84,
			"type":"SCALAR"
		},
		{
			"bufferView":14,
			"componentType":5126,
			"count":7,
			"type":"MAT4"
		},
		{
			"bufferView":15,
			"componentType":5126,
			"count":2,
			"max":[
				1.25
			],
			"min":[
				0.041666666666666664
			],
			"type":"SCALAR"
		},
		{
			"bufferView":16,
			"componentType":5126,
			"count":2,
			"type":"VEC3"
		},
		{
			"bufferView":17,
			"componentType":5126,
			"count":2,
			"type":"VEC4"
		},
		{
			"bufferView":18,
			"componentType":5126,
			"count":2,
			"type":"VEC3"
		},
		{
			"bufferView":19,
			"componentType":5126,
			"count":2,
			"type":"VEC3"
		},
		{
			"bufferView":20,
			"componentType":5126,
			"count":30,
			"max":[
				1.25
			],
			"min":[
				0.041666666666666664
			],
			"type":"SCALAR"
		},
		{
			"bufferView":21,
			"componentType":5126,
			"count":30,
			"type":"VEC4"
		},
		{
			"bufferView":22,
			"componentType":5126,
			"count":2,
			"type":"VEC3"
		},
		{
			"bufferView":23,
			"componentType":5126,
			"count":2,
			"type":"VEC3"
		},
		{
			"bufferView":24,
			"componentType":5126,
			"count":30,
			"type":"VEC4"
		},
		{
			"bufferView":25,
			"componentType":5126,
			"count":2,
			"type":"VEC3"
		},
		{
			"bufferView":26,
			"componentType":5126,
			"count":2,
			"type":"VEC3"
		},
		{
			"bufferView":27,
			"componentType":5126,
			"count":30,
			"type":"VEC4"
		},
		{
			"bufferView":28,
			"componentType":5126,
			"count":2,
			"type":"VEC3"
		},
		{
			"bufferView":29,
			"componentType":5126,
			"count":2,
			"type":"VEC3"
		},
		{
			"bufferView":30,
			"componentType":5126,
			"count":30,
			"type":"VEC4"
		},
		{
			"bufferView":31,
			"componentType":5126,
			"count":2,
			"type":"VEC3"
		},
		{
			"bufferView":32,
			"componentType":5126,
			"count":2,
			"type":"VEC3"
		},
		{
			"bufferView":33,
			"componentType":5126,
			"count":30,
			"type":"VEC4"
		},
		{
			"bufferView":34,
			"componentType":5126,
			"count":2,
			"type":"VEC3"
		},
		{
			"bufferView":35,
			"componentType":5126,
			"count":2,
			"type":"VEC3"
		},
		{
			"bufferView":36,
			"componentType":5126,
			"count":30,
			"type":"VEC4"
		},
		{
			"bufferView":37,
			"componentType":5126,
			"count":2,
			"type":"VEC3"
		}
	],
	"bufferViews":[
		{
			"buffer":0,
			"byteLength":17808,
			"byteOffset":0,
			"target":34962
		},
		{
			"buffer":0,
			"byteLength":17808,
			"byteOffset":17808,
			"target":34962
		},
		{
			"buffer":0,
			"byteLength":11872,
			"byteOffset":35616,
			"target":34962
		},
		{
			"buffer":0,
			"byteLength":11872,
			"byteOffset":47488,
			"target":34962
		},
		{
			"buffer":0,
			"byteLength":5936,
			"byteOffset":59360,
			"target":34962
		},
		{
			"buffer":0,
			"byteLength":23744,
			"byteOffset":65296,
			"target":34962
		},
		{
			"buffer":0,
			"byteLength":12840,
			"byteOffset":89040,
			"target":34963
		},
		{
			"buffer":0,
			"byteLength":672,
			"byteOffset":101880,
			"target":34962
		},
		{
			"buffer":0,
			"byteLength":672,
			"byteOffset":102552,
			"target":34962
		},
		{
			"buffer":0,
			"byteLength":448,
			"byteOffset":103224,
			"target":34962
		},
		{
			"buffer":0,
			"byteLength":448,
			"byteOffset":103672,
			"target":34962
		},
		{
			"buffer":0,
			"byteLength":224,
			"byteOffset":104120,
			"target":34962
		},
		{
			"buffer":0,
			"byteLength":896,
			"byteOffset":104344,
			"target":34962
		},
		{
			"buffer":0,
			"byteLength":168,
			"byteOffset":105240,
			"target":34963
		},
		{
			"buffer":0,
			"byteLength":448,
			"byteOffset":105408
		},
		{
			"buffer":0,
			"byteLength":8,
			"byteOffset":105856
		},
		{
			"buffer":0,
			"byteLength":24,
			"byteOffset":105864
		},
		{
			"buffer":0,
			"byteLength":32,
			"byteOffset":105888
		},
		{
			"buffer":0,
			"byteLength":24,
			"byteOffset":105920
		},
		{
			"buffer":0,
			"byteLength":24,
			"byteOffset":105944
		},
		{
			"buffer":0,
			"byteLength":120,
			"byteOffset":105968
		},
		{
			"buffer":0,
			"byteLength":480,
			"byteOffset":106088
		},
		{
			"buffer":0,
			"byteLength":24,
			"byteOffset":106568
		},
		{
			"buffer":0,
			"byteLength":24,
			"byteOffset":106592
		},
		{
			"buffer":0,
			"byteLength":480,
			"byteOffset":106616
		},
		{
			"buffer":0,
			"byteLength":24,
			"byteOffset":107096
		},
		{
			"buffer":0,
			"byteLength":24,
			"byteOffset":107120
		},
		{
			"buffer":0,
			"byteLength":480,
			"byteOffset":107144
		},
		{
			"buffer":0,
			"byteLength":24,
			"byteOffset":107624
		},
		{
			"buffer":0,
			"byteLength":24,
			"byteOffset":107648
		},
		{
			"buffer":0,
			"byteLength":480,
			"byteOffset":107672
		},
		{
			"buffer":0,
			"byteLength":24,
			"byteOffset":108152
		},
		{
			"buffer":0,
			"byteLength":24,
			"byteOffset":108176
		},
		{
			"buffer":0,
			"byteLength":480,
			"byteOffset":108200
		},
		{
			"buffer":0,
			"byteLength":24,
			"byteOffset":108680
		},
		{
			"buffer":0,
			"byteLength":24,
			"byteOffset":108704
		},
		{
			"buffer":0,
			"byteLength":480,
			"byteOffset":108728
		},
		{
			"buffer":0,
			"byteLength":24,
			"byteOffset":109208
		}
	],
	"buffers":[
		{
			"byteLength":109232,
			"uri":"Shrimp.bin"
		}
	]
}
